<svg width="72" height="72" viewBox="0 0 72 72" fill="none" xmlns="http://www.w3.org/2000/svg">
<path d="M61.9396 5H45.3133C41.9715 5 39.2529 7.73372 39.2529 11.0935V27.81C39.2529 31.1699 41.9715 33.9033 45.3133 33.9033H61.9396C65.2813 33.9033 68 31.1699 68 27.81V11.0935C68.0003 7.73372 65.2817 5 61.9396 5ZM60.2099 21.8635H47.043C45.7182 21.8635 44.6441 20.7839 44.6441 19.4516C44.6441 18.1193 45.7182 17.0398 47.043 17.0398H60.2099C61.5347 17.0398 62.6087 18.1193 62.6087 19.4516C62.6087 20.7839 61.5347 21.8635 60.2099 21.8635ZM27.6871 5H11.0604C7.71866 5 5 7.73372 5 11.0935V27.81C5 31.1699 7.71866 33.9033 11.0604 33.9033H27.6867C31.0285 33.9033 33.7471 31.1699 33.7471 27.81V11.0935C33.7474 7.73372 31.0288 5 27.6871 5ZM26.0408 21.8635H21.856V26.0706C21.856 27.4029 20.782 28.4825 19.4572 28.4825C18.1324 28.4825 17.0584 27.4029 17.0584 26.0706V21.8635H12.8739C11.5491 21.8635 10.4751 20.7839 10.4751 19.4516C10.4751 18.1193 11.5491 17.0398 12.8739 17.0398H17.0584V12.8326C17.0584 11.5003 18.1324 10.4208 19.4572 10.4208C20.782 10.4208 21.856 11.5003 21.856 12.8326V17.0398H26.0405C27.3653 17.0398 28.4393 18.1193 28.4393 19.4516C28.4393 20.7839 27.3656 21.8635 26.0408 21.8635ZM27.6871 39.0971H11.0604C7.71866 39.0971 5 41.8305 5 45.1903V61.9068C5 65.2666 7.71866 68 11.0604 68H27.6867C31.0285 68 33.7471 65.2666 33.7471 61.9068V45.1903C33.7474 41.8305 31.0288 39.0971 27.6871 39.0971ZM25.8086 56.5233C26.7454 57.4655 26.7454 58.9923 25.8086 59.9342C25.3404 60.405 24.7263 60.6404 24.1125 60.6404C23.4987 60.6404 22.8846 60.405 22.4164 59.9342L19.4575 56.9593L16.4987 59.9342C16.0304 60.405 15.4163 60.6404 14.8025 60.6404C14.1888 60.6404 13.5747 60.405 13.1064 59.9342C12.1696 58.992 12.1696 57.4652 13.1064 56.5233L16.0653 53.5484L13.1064 50.5735C12.1696 49.6312 12.1696 48.1044 13.1064 47.1625C14.0432 46.2209 15.5622 46.2209 16.4987 47.1625L19.4575 50.1374L22.4164 47.1625C23.3532 46.2209 24.8721 46.2209 25.8086 47.1625C26.7454 48.1047 26.7454 49.6316 25.8086 50.5735L22.8498 53.5484L25.8086 56.5233ZM61.9396 39.0971H45.3133C41.9715 39.0971 39.2529 41.8305 39.2529 45.1903V61.9068C39.2529 65.2666 41.9715 68 45.3133 68H61.9396C65.2813 68 68 65.2666 68 61.9068V45.1903C68.0003 41.8305 65.2817 39.0971 61.9396 39.0971ZM53.6266 43.9815H53.9999C55.3246 43.9815 56.3987 45.061 56.3987 46.3933C56.3987 47.7256 55.3246 48.8051 53.9999 48.8051H53.6266C52.3018 48.8051 51.2278 47.7256 51.2278 46.3933C51.2278 45.061 52.3018 43.9815 53.6266 43.9815ZM53.9995 63.1153H53.6263C52.3015 63.1153 51.2275 62.0357 51.2275 60.7034C51.2275 59.3712 52.3015 58.2916 53.6263 58.2916H53.9995C55.3243 58.2916 56.3984 59.3712 56.3984 60.7034C56.3984 62.0357 55.3243 63.1153 53.9995 63.1153ZM60.2099 55.9602H47.043C45.7182 55.9602 44.6441 54.8807 44.6441 53.5484C44.6441 52.2161 45.7182 51.1365 47.043 51.1365H60.2099C61.5347 51.1365 62.6087 52.2161 62.6087 53.5484C62.6087 54.8807 61.5347 55.9602 60.2099 55.9602Z" fill="#FAFAFA"/>
</svg>
