<svg width="103" height="103" viewBox="0 0 103 103" fill="none" xmlns="http://www.w3.org/2000/svg">
<g clip-path="url(#clip0_1_21)">
<path d="M91.6467 46.6229L79.7849 34.761C77.4008 32.3769 73.5075 32.391 71.1063 34.7922L59.1596 46.7388C56.7585 49.14 56.7446 53.033 59.1287 55.4172L70.9906 67.279C73.3747 69.6631 77.2678 69.6493 79.6689 67.2481L91.6156 55.3014C94.017 52.9005 94.0311 49.0072 91.6467 46.6229ZM78.361 57.4406L68.9672 48.0468C68.022 47.1016 68.0273 45.5639 68.9794 44.6117C69.9316 43.6596 71.4693 43.6543 72.4145 44.5995L81.8083 53.9933C82.7534 54.9384 82.7482 56.4762 81.796 57.4283C80.8439 58.3805 79.3061 58.3857 78.361 57.4406ZM67.2097 22.1858L55.3476 10.3237C52.9634 7.9396 49.0702 7.95369 46.669 10.3548L34.7223 22.3015C32.3212 24.7027 32.3073 28.5957 34.6914 30.9798L46.5533 42.8417C48.9374 45.2258 52.8305 45.212 55.2316 42.8108L67.1783 30.8641C69.5797 28.4632 69.5938 24.5699 67.2097 22.1858ZM53.9835 33.063L50.9979 30.0774L47.9911 33.0842C47.039 34.0363 45.5012 34.0415 44.5561 33.0964C43.6109 32.1512 43.6162 30.6135 44.5683 29.6613L47.575 26.6546L44.5897 23.6692C43.6445 22.7241 43.6498 21.1863 44.6019 20.2342C45.554 19.282 47.0918 19.2768 48.0369 20.222L51.0223 23.2073L54.029 20.2006C54.9812 19.2485 56.5189 19.2432 57.4641 20.1884C58.4093 21.1335 58.404 22.6713 57.4519 23.6234L54.4451 26.6301L57.4305 29.6155C58.3757 30.5607 58.3704 32.0984 57.4183 33.0506C56.4661 34.0027 54.9286 34.0082 53.9835 33.063ZM42.8417 46.5538L30.9796 34.6917C28.5955 32.3075 24.7024 32.3214 22.3013 34.7226L10.3546 46.6693C7.95345 49.0704 7.93958 52.9635 10.3237 55.3476L22.1856 67.2094C24.5697 69.5936 28.4627 69.5797 30.8639 67.1785L42.8106 55.2318C45.2119 52.8309 45.2258 48.9379 42.8417 46.5538ZM29.0477 57.6675C29.0427 59.0092 27.9515 60.1004 26.61 60.1052C25.9395 60.1076 25.3331 59.8377 24.8952 59.3998C24.4573 58.9619 24.1874 58.3556 24.1898 57.685L24.2049 53.448L19.9679 53.4631C19.2974 53.4655 18.691 53.1956 18.2531 52.7577C17.8152 52.3198 17.5453 51.7135 17.5477 51.043C17.5527 49.7012 18.6439 48.61 19.9854 48.6053L24.2224 48.5902L24.2375 44.3532C24.2425 43.0114 25.3337 41.9202 26.6752 41.9155C28.0165 41.9109 29.1002 42.9946 29.0954 44.3356L29.0803 48.5726L33.3173 48.5576C34.6586 48.553 35.7422 49.6367 35.7375 50.9777C35.7325 52.3194 34.6413 53.4106 33.2998 53.4154L29.0628 53.4305L29.0477 57.6675ZM67.2788 70.9908L55.4169 59.129C53.0328 56.7449 49.1397 56.7587 46.7386 59.1599L34.7919 71.1066C32.3908 73.5077 32.3769 77.4008 34.761 79.7849L46.6229 91.6468C49.007 94.0309 52.9 94.017 55.3012 91.6158L67.2479 79.6692C69.6493 77.2682 69.6631 73.3752 67.2788 70.9908ZM57.8572 68.5507L58.1235 68.817C59.0687 69.7622 59.0634 71.2999 58.1113 72.2521C57.1592 73.2042 55.6214 73.2095 54.6762 72.2643L54.41 71.998C53.4648 71.0529 53.47 69.5151 54.4222 68.563C55.3743 67.6108 56.9121 67.6056 57.8572 68.5507ZM44.4491 82.491L44.1828 82.2247C43.2376 81.2796 43.2429 79.7418 44.195 78.7897C45.1471 77.8376 46.6849 77.8323 47.6301 78.7775L47.8964 79.0438C48.8415 79.9889 48.8363 81.5267 47.8841 82.4788C46.932 83.4309 45.3942 83.4362 44.4491 82.491ZM53.9933 81.8083L44.5995 72.4145C43.6543 71.4693 43.6596 69.9316 44.6117 68.9794C45.5638 68.0273 47.1016 68.022 48.0467 68.9672L57.4405 78.361C58.3857 79.3062 58.3805 80.8439 57.4283 81.7961C56.4762 82.7482 54.9384 82.7534 53.9933 81.8083Z" fill="#F8F8F8"/>
</g>
<defs>
<clipPath id="clip0_1_21">
<rect width="72.6447" height="72.7695" fill="white" transform="translate(51.4558) rotate(45)"/>
</clipPath>
</defs>
</svg>
