<svg width="525" height="93" viewBox="0 0 525 93" fill="none" xmlns="http://www.w3.org/2000/svg">
<path d="M21.088 92.28C14.3467 92.28 9.184 90.36 5.6 86.52C2.10133 82.68 0.352 77.2613 0.352 70.264V22.136C0.352 15.1387 2.10133 9.72 5.6 5.88C9.184 2.04 14.3467 0.119995 21.088 0.119995C27.8293 0.119995 32.9493 2.04 36.448 5.88C40.032 9.72 41.824 15.1387 41.824 22.136V31.608H28.512V21.24C28.512 15.6933 26.1653 12.92 21.472 12.92C16.7787 12.92 14.432 15.6933 14.432 21.24V71.288C14.432 76.7493 16.7787 79.48 21.472 79.48C26.1653 79.48 28.512 76.7493 28.512 71.288V57.592H41.824V70.264C41.824 77.2613 40.032 82.68 36.448 86.52C32.9493 90.36 27.8293 92.28 21.088 92.28ZM61.128 1.39999H80.2L94.792 91H80.712L78.152 73.208V73.464H62.152L59.592 91H46.536L61.128 1.39999ZM76.488 61.304L70.216 17.016H69.96L63.816 61.304H76.488ZM101.623 1.39999H115.703V78.2H138.871V91H101.623V1.39999ZM164.963 92.28C158.222 92.28 153.059 90.36 149.475 86.52C145.976 82.68 144.227 77.2613 144.227 70.264V22.136C144.227 15.1387 145.976 9.72 149.475 5.88C153.059 2.04 158.222 0.119995 164.963 0.119995C171.704 0.119995 176.824 2.04 180.323 5.88C183.907 9.72 185.699 15.1387 185.699 22.136V31.608H172.387V21.24C172.387 15.6933 170.04 12.92 165.347 12.92C160.654 12.92 158.307 15.6933 158.307 21.24V71.288C158.307 76.7493 160.654 79.48 165.347 79.48C170.04 79.48 172.387 76.7493 172.387 71.288V57.592H185.699V70.264C185.699 77.2613 183.907 82.68 180.323 86.52C176.824 90.36 171.704 92.28 164.963 92.28ZM214.603 92.28C207.776 92.28 202.571 90.36 198.987 86.52C195.403 82.5947 193.611 77.0053 193.611 69.752V1.39999H207.691V70.776C207.691 73.848 208.288 76.0667 209.483 77.432C210.763 78.7973 212.555 79.48 214.859 79.48C217.163 79.48 218.912 78.7973 220.107 77.432C221.387 76.0667 222.027 73.848 222.027 70.776V1.39999H235.595V69.752C235.595 77.0053 233.803 82.5947 230.219 86.52C226.635 90.36 221.43 92.28 214.603 92.28ZM245.623 1.39999H259.703V78.2H282.871V91H245.623V1.39999ZM301.003 1.39999H320.075L334.667 91H320.587L318.027 73.208V73.464H302.027L299.467 91H286.411L301.003 1.39999ZM316.363 61.304L310.091 17.016H309.835L303.691 61.304H316.363ZM346.631 14.2H331.911V1.39999H375.431V14.2H360.711V91H346.631V14.2ZM402.1 92.28C395.188 92.28 389.897 90.3173 386.228 86.392C382.559 82.4667 380.724 76.92 380.724 69.752V22.648C380.724 15.48 382.559 9.93333 386.228 6.008C389.897 2.08266 395.188 0.119995 402.1 0.119995C409.012 0.119995 414.303 2.08266 417.972 6.008C421.641 9.93333 423.476 15.48 423.476 22.648V69.752C423.476 76.92 421.641 82.4667 417.972 86.392C414.303 90.3173 409.012 92.28 402.1 92.28ZM402.1 79.48C406.964 79.48 409.396 76.536 409.396 70.648V21.752C409.396 15.864 406.964 12.92 402.1 12.92C397.236 12.92 394.804 15.864 394.804 21.752V70.648C394.804 76.536 397.236 79.48 402.1 79.48ZM432.998 1.39999H453.862C461.115 1.39999 466.406 3.10666 469.734 6.52C473.062 9.84799 474.726 15.0107 474.726 22.008V27.512C474.726 36.8133 471.654 42.7013 465.51 45.176V45.432C468.923 46.456 471.313 48.5467 472.678 51.704C474.129 54.8613 474.854 59.0853 474.854 64.376V80.12C474.854 82.68 474.939 84.7707 475.11 86.392C475.281 87.928 475.707 89.464 476.39 91H462.054C461.542 89.5493 461.201 88.184 461.03 86.904C460.859 85.624 460.774 83.32 460.774 79.992V63.608C460.774 59.512 460.091 56.6533 458.726 55.032C457.446 53.4107 455.185 52.6 451.942 52.6H447.078V91H432.998V1.39999ZM452.198 39.8C455.014 39.8 457.105 39.0747 458.47 37.624C459.921 36.1733 460.646 33.7413 460.646 30.328V23.416C460.646 20.1733 460.049 17.8267 458.854 16.376C457.745 14.9253 455.953 14.2 453.478 14.2H447.078V39.8H452.198ZM502.927 92.28C496.1 92.28 490.938 90.36 487.439 86.52C483.94 82.5947 482.191 77.0053 482.191 69.752V64.632H495.503V70.776C495.503 76.5787 497.935 79.48 502.799 79.48C505.188 79.48 506.98 78.7973 508.175 77.432C509.455 75.9813 510.095 73.6773 510.095 70.52C510.095 66.7653 509.242 63.48 507.535 60.664C505.828 57.7627 502.671 54.3067 498.063 50.296C492.26 45.176 488.207 40.568 485.903 36.472C483.599 32.2907 482.447 27.5973 482.447 22.392C482.447 15.3093 484.239 9.848 487.823 6.008C491.407 2.08266 496.612 0.119995 503.439 0.119995C510.18 0.119995 515.258 2.08266 518.671 6.008C522.17 9.848 523.919 15.3947 523.919 22.648V26.36H510.607V21.752C510.607 18.68 510.01 16.4613 508.815 15.096C507.62 13.6453 505.871 12.92 503.567 12.92C498.874 12.92 496.527 15.7787 496.527 21.496C496.527 24.7387 497.38 27.768 499.087 30.584C500.879 33.4 504.079 36.8133 508.687 40.824C514.575 45.944 518.628 50.5947 520.847 54.776C523.066 58.9573 524.175 63.864 524.175 69.496C524.175 76.8347 522.34 82.4667 518.671 86.392C515.087 90.3173 509.839 92.28 502.927 92.28Z" fill="black"/>
<path d="M5.6 86.52L4.86075 87.1935L4.86895 87.2023L5.6 86.52ZM5.6 5.88L4.86889 5.19763L4.8608 5.20651L5.6 5.88ZM36.448 5.88L35.7088 6.55354L35.7169 6.56232L36.448 5.88ZM41.824 31.608V32.608H42.824V31.608H41.824ZM28.512 31.608H27.512V32.608H28.512V31.608ZM28.512 57.592V56.592H27.512V57.592H28.512ZM41.824 57.592H42.824V56.592H41.824V57.592ZM36.448 86.52L35.7169 85.8376L35.7088 85.8465L36.448 86.52ZM21.088 91.28C14.5407 91.28 9.67582 89.4214 6.33106 85.8377L4.86895 87.2023C8.69218 91.2986 14.1526 93.28 21.088 93.28V91.28ZM6.3392 85.8465C3.0593 82.2466 1.352 77.0999 1.352 70.264H-0.648C-0.648 77.4227 1.14336 83.1134 4.8608 87.1935L6.3392 85.8465ZM1.352 70.264V22.136H-0.648V70.264H1.352ZM1.352 22.136C1.352 15.3001 3.0593 10.1534 6.3392 6.55349L4.8608 5.20651C1.14336 9.28663 -0.648 14.9773 -0.648 22.136H1.352ZM6.33106 6.56232C9.67582 2.97864 14.5407 1.12 21.088 1.12V-0.880005C14.1526 -0.880005 8.69218 1.10135 4.86895 5.19768L6.33106 6.56232ZM21.088 1.12C27.6366 1.12 32.4521 2.97904 35.7088 6.55349L37.1872 5.20651C33.4466 1.10095 28.022 -0.880005 21.088 -0.880005V1.12ZM35.7169 6.56232C39.0772 10.1626 40.824 15.3059 40.824 22.136H42.824C42.824 14.9714 40.9868 9.2774 37.1791 5.19768L35.7169 6.56232ZM40.824 22.136V31.608H42.824V22.136H40.824ZM41.824 30.608H28.512V32.608H41.824V30.608ZM29.512 31.608V21.24H27.512V31.608H29.512ZM29.512 21.24C29.512 18.3495 28.9041 15.9952 27.5154 14.3541C26.0996 12.6809 24.0206 11.92 21.472 11.92V13.92C23.6167 13.92 25.0577 14.5458 25.9886 15.6459C26.9466 16.7781 27.512 18.5838 27.512 21.24H29.512ZM21.472 11.92C18.9234 11.92 16.8444 12.6809 15.4286 14.3541C14.0399 15.9952 13.432 18.3495 13.432 21.24H15.432C15.432 18.5838 15.9974 16.7781 16.9554 15.6459C17.8863 14.5458 19.3273 13.92 21.472 13.92V11.92ZM13.432 21.24V71.288H15.432V21.24H13.432ZM13.432 71.288C13.432 74.1388 14.0412 76.4636 15.4336 78.0838C16.8508 79.7329 18.9283 80.48 21.472 80.48V78.48C19.3224 78.48 17.8798 77.8617 16.9504 76.7802C15.9961 75.6697 15.432 73.8985 15.432 71.288H13.432ZM21.472 80.48C24.0157 80.48 26.0932 79.7329 27.5104 78.0838C28.9028 76.4636 29.512 74.1388 29.512 71.288H27.512C27.512 73.8985 26.9479 75.6697 25.9936 76.7802C25.0642 77.8617 23.6216 78.48 21.472 78.48V80.48ZM29.512 71.288V57.592H27.512V71.288H29.512ZM28.512 58.592H41.824V56.592H28.512V58.592ZM40.824 57.592V70.264H42.824V57.592H40.824ZM40.824 70.264C40.824 77.0941 39.0772 82.2374 35.7169 85.8377L37.1791 87.2023C40.9868 83.1226 42.824 77.4286 42.824 70.264H40.824ZM35.7088 85.8465C32.4521 89.421 27.6366 91.28 21.088 91.28V93.28C28.022 93.28 33.4466 91.299 37.1872 87.1935L35.7088 85.8465ZM61.128 1.39999V0.399994H60.2777L60.141 1.23925L61.128 1.39999ZM80.2 1.39999L81.187 1.23925L81.0503 0.399994H80.2V1.39999ZM94.792 91V92H95.968L95.779 90.8393L94.792 91ZM80.712 91L79.7222 91.1424L79.8456 92H80.712V91ZM78.152 73.208L79.1418 73.0656L77.152 73.208H78.152ZM78.152 73.464V74.464H79.152V73.464H78.152ZM62.152 73.464V72.464H61.2874L61.1625 73.3195L62.152 73.464ZM59.592 91V92H60.4566L60.5815 91.1445L59.592 91ZM46.536 91L45.549 90.8393L45.36 92H46.536V91ZM76.488 61.304V62.304H77.6396L77.4781 61.1638L76.488 61.304ZM70.216 17.016L71.2061 16.8758L71.0844 16.016H70.216V17.016ZM69.96 17.016V16.016H69.0892L68.9695 16.8786L69.96 17.016ZM63.816 61.304L62.8255 61.1666L62.6677 62.304H63.816V61.304ZM61.128 2.39999H80.2V0.399994H61.128V2.39999ZM79.213 1.56073L93.805 91.1607L95.779 90.8393L81.187 1.23925L79.213 1.56073ZM94.792 90H80.712V92H94.792V90ZM81.7018 90.8576L79.1418 73.0656L77.1622 73.3504L79.7222 91.1424L81.7018 90.8576ZM77.152 73.208V73.464H79.152V73.208H77.152ZM78.152 72.464H62.152V74.464H78.152V72.464ZM61.1625 73.3195L58.6025 90.8555L60.5815 91.1445L63.1415 73.6085L61.1625 73.3195ZM59.592 90H46.536V92H59.592V90ZM47.523 91.1607L62.115 1.56073L60.141 1.23925L45.549 90.8393L47.523 91.1607ZM77.4781 61.1638L71.2061 16.8758L69.2259 17.1562L75.4979 61.4442L77.4781 61.1638ZM70.216 16.016H69.96V18.016H70.216V16.016ZM68.9695 16.8786L62.8255 61.1666L64.8065 61.4414L70.9505 17.1534L68.9695 16.8786ZM63.816 62.304H76.488V60.304H63.816V62.304ZM101.623 1.39999V0.399994H100.623V1.39999H101.623ZM115.703 1.39999H116.703V0.399994H115.703V1.39999ZM115.703 78.2H114.703V79.2H115.703V78.2ZM138.871 78.2H139.871V77.2H138.871V78.2ZM138.871 91V92H139.871V91H138.871ZM101.623 91H100.623V92H101.623V91ZM101.623 2.39999H115.703V0.399994H101.623V2.39999ZM114.703 1.39999V78.2H116.703V1.39999H114.703ZM115.703 79.2H138.871V77.2H115.703V79.2ZM137.871 78.2V91H139.871V78.2H137.871ZM138.871 90H101.623V92H138.871V90ZM102.623 91V1.39999H100.623V91H102.623ZM149.475 86.52L148.736 87.1935L148.744 87.2023L149.475 86.52ZM149.475 5.88L148.744 5.19763L148.736 5.20651L149.475 5.88ZM180.323 5.88L179.584 6.55354L179.592 6.56232L180.323 5.88ZM185.699 31.608V32.608H186.699V31.608H185.699ZM172.387 31.608H171.387V32.608H172.387V31.608ZM172.387 57.592V56.592H171.387V57.592H172.387ZM185.699 57.592H186.699V56.592H185.699V57.592ZM180.323 86.52L179.592 85.8376L179.584 85.8465L180.323 86.52ZM164.963 91.28C158.416 91.28 153.551 89.4214 150.206 85.8377L148.744 87.2023C152.567 91.2986 158.028 93.28 164.963 93.28V91.28ZM150.214 85.8465C146.934 82.2466 145.227 77.0999 145.227 70.264H143.227C143.227 77.4227 145.018 83.1134 148.736 87.1935L150.214 85.8465ZM145.227 70.264V22.136H143.227V70.264H145.227ZM145.227 22.136C145.227 15.3001 146.934 10.1534 150.214 6.55349L148.736 5.20651C145.018 9.28663 143.227 14.9773 143.227 22.136H145.227ZM150.206 6.56232C153.551 2.97864 158.416 1.12 164.963 1.12V-0.880005C158.028 -0.880005 152.567 1.10135 148.744 5.19768L150.206 6.56232ZM164.963 1.12C171.512 1.12 176.327 2.97904 179.584 6.55349L181.062 5.20651C177.322 1.10095 171.897 -0.880005 164.963 -0.880005V1.12ZM179.592 6.56232C182.952 10.1626 184.699 15.3059 184.699 22.136H186.699C186.699 14.9714 184.862 9.2774 181.054 5.19768L179.592 6.56232ZM184.699 22.136V31.608H186.699V22.136H184.699ZM185.699 30.608H172.387V32.608H185.699V30.608ZM173.387 31.608V21.24H171.387V31.608H173.387ZM173.387 21.24C173.387 18.3495 172.779 15.9952 171.39 14.3541C169.975 12.6809 167.896 11.92 165.347 11.92V13.92C167.492 13.92 168.933 14.5458 169.864 15.6459C170.822 16.7781 171.387 18.5838 171.387 21.24H173.387ZM165.347 11.92C162.798 11.92 160.719 12.6809 159.304 14.3541C157.915 15.9952 157.307 18.3495 157.307 21.24H159.307C159.307 18.5838 159.872 16.7781 160.83 15.6459C161.761 14.5458 163.202 13.92 165.347 13.92V11.92ZM157.307 21.24V71.288H159.307V21.24H157.307ZM157.307 71.288C157.307 74.1388 157.916 76.4636 159.309 78.0838C160.726 79.7329 162.803 80.48 165.347 80.48V78.48C163.197 78.48 161.755 77.8617 160.825 76.7802C159.871 75.6697 159.307 73.8985 159.307 71.288H157.307ZM165.347 80.48C167.891 80.48 169.968 79.7329 171.385 78.0838C172.778 76.4636 173.387 74.1388 173.387 71.288H171.387C171.387 73.8985 170.823 75.6697 169.869 76.7802C168.939 77.8617 167.497 78.48 165.347 78.48V80.48ZM173.387 71.288V57.592H171.387V71.288H173.387ZM172.387 58.592H185.699V56.592H172.387V58.592ZM184.699 57.592V70.264H186.699V57.592H184.699ZM184.699 70.264C184.699 77.0941 182.952 82.2374 179.592 85.8377L181.054 87.2023C184.862 83.1226 186.699 77.4286 186.699 70.264H184.699ZM179.584 85.8465C176.327 89.421 171.512 91.28 164.963 91.28V93.28C171.897 93.28 177.322 91.299 181.062 87.1935L179.584 85.8465ZM198.987 86.52L198.248 87.1943L198.256 87.2023L198.987 86.52ZM193.611 1.39999V0.399994H192.611V1.39999H193.611ZM207.691 1.39999H208.691V0.399994H207.691V1.39999ZM209.483 77.432L208.73 78.0905L208.742 78.1034L208.753 78.1159L209.483 77.432ZM220.107 77.432L219.377 76.7481L219.366 76.7606L219.354 76.7735L220.107 77.432ZM222.027 1.39999V0.399994H221.027V1.39999H222.027ZM235.595 1.39999H236.595V0.399994H235.595V1.39999ZM230.219 86.52L230.95 87.2024L230.957 87.1943L230.219 86.52ZM214.603 91.28C207.966 91.28 203.061 89.4189 199.718 85.8377L198.256 87.2023C202.081 91.3011 207.587 93.28 214.603 93.28V91.28ZM199.725 85.8457C196.363 82.1628 194.611 76.8478 194.611 69.752H192.611C192.611 77.1629 194.443 83.0265 198.249 87.1943L199.725 85.8457ZM194.611 69.752V1.39999H192.611V69.752H194.611ZM193.611 2.39999H207.691V0.399994H193.611V2.39999ZM206.691 1.39999V70.776H208.691V1.39999H206.691ZM206.691 70.776C206.691 73.9355 207.298 76.4529 208.73 78.0905L210.236 76.7735C209.279 75.6804 208.691 73.7605 208.691 70.776H206.691ZM208.753 78.1159C210.265 79.728 212.347 80.48 214.859 80.48V78.48C212.763 78.48 211.261 77.8667 210.213 76.7481L208.753 78.1159ZM214.859 80.48C217.368 80.48 219.426 79.7287 220.86 78.0905L219.354 76.7735C218.399 77.866 216.958 78.48 214.859 78.48V80.48ZM220.837 78.1159C222.373 76.4774 223.027 73.9484 223.027 70.776H221.027C221.027 73.7476 220.401 75.6559 219.377 76.7481L220.837 78.1159ZM223.027 70.776V1.39999H221.027V70.776H223.027ZM222.027 2.39999H235.595V0.399994H222.027V2.39999ZM234.595 1.39999V69.752H236.595V1.39999H234.595ZM234.595 69.752C234.595 76.8478 232.843 82.1628 229.481 85.8457L230.957 87.1943C234.763 83.0265 236.595 77.1629 236.595 69.752H234.595ZM229.488 85.8377C226.146 89.4189 221.24 91.28 214.603 91.28V93.28C221.619 93.28 227.125 91.3011 230.95 87.2023L229.488 85.8377ZM245.623 1.39999V0.399994H244.623V1.39999H245.623ZM259.703 1.39999H260.703V0.399994H259.703V1.39999ZM259.703 78.2H258.703V79.2H259.703V78.2ZM282.871 78.2H283.871V77.2H282.871V78.2ZM282.871 91V92H283.871V91H282.871ZM245.623 91H244.623V92H245.623V91ZM245.623 2.39999H259.703V0.399994H245.623V2.39999ZM258.703 1.39999V78.2H260.703V1.39999H258.703ZM259.703 79.2H282.871V77.2H259.703V79.2ZM281.871 78.2V91H283.871V78.2H281.871ZM282.871 90H245.623V92H282.871V90ZM246.623 91V1.39999H244.623V91H246.623ZM301.003 1.39999V0.399994H300.153L300.016 1.23925L301.003 1.39999ZM320.075 1.39999L321.062 1.23925L320.925 0.399994H320.075V1.39999ZM334.667 91V92H335.843L335.654 90.8393L334.667 91ZM320.587 91L319.597 91.1424L319.721 92H320.587V91ZM318.027 73.208L319.017 73.0656L317.027 73.208H318.027ZM318.027 73.464V74.464H319.027V73.464H318.027ZM302.027 73.464V72.464H301.162L301.037 73.3195L302.027 73.464ZM299.467 91V92H300.332L300.457 91.1445L299.467 91ZM286.411 91L285.424 90.8393L285.235 92H286.411V91ZM316.363 61.304V62.304H317.515L317.353 61.1638L316.363 61.304ZM310.091 17.016L311.081 16.8758L310.959 16.016H310.091V17.016ZM309.835 17.016V16.016H308.964L308.844 16.8786L309.835 17.016ZM303.691 61.304L302.7 61.1666L302.543 62.304H303.691V61.304ZM301.003 2.39999H320.075V0.399994H301.003V2.39999ZM319.088 1.56073L333.68 91.1607L335.654 90.8393L321.062 1.23925L319.088 1.56073ZM334.667 90H320.587V92H334.667V90ZM321.577 90.8576L319.017 73.0656L317.037 73.3504L319.597 91.1424L321.577 90.8576ZM317.027 73.208V73.464H319.027V73.208H317.027ZM318.027 72.464H302.027V74.464H318.027V72.464ZM301.037 73.3195L298.477 90.8555L300.457 91.1445L303.017 73.6085L301.037 73.3195ZM299.467 90H286.411V92H299.467V90ZM287.398 91.1607L301.99 1.56073L300.016 1.23925L285.424 90.8393L287.398 91.1607ZM317.353 61.1638L311.081 16.8758L309.101 17.1562L315.373 61.4442L317.353 61.1638ZM310.091 16.016H309.835V18.016H310.091V16.016ZM308.844 16.8786L302.7 61.1666L304.682 61.4414L310.826 17.1534L308.844 16.8786ZM303.691 62.304H316.363V60.304H303.691V62.304ZM346.631 14.2H347.631V13.2H346.631V14.2ZM331.911 14.2H330.911V15.2H331.911V14.2ZM331.911 1.39999V0.399994H330.911V1.39999H331.911ZM375.431 1.39999H376.431V0.399994H375.431V1.39999ZM375.431 14.2V15.2H376.431V14.2H375.431ZM360.711 14.2V13.2H359.711V14.2H360.711ZM360.711 91V92H361.711V91H360.711ZM346.631 91H345.631V92H346.631V91ZM346.631 13.2H331.911V15.2H346.631V13.2ZM332.911 14.2V1.39999H330.911V14.2H332.911ZM331.911 2.39999H375.431V0.399994H331.911V2.39999ZM374.431 1.39999V14.2H376.431V1.39999H374.431ZM375.431 13.2H360.711V15.2H375.431V13.2ZM359.711 14.2V91H361.711V14.2H359.711ZM360.711 90H346.631V92H360.711V90ZM347.631 91V14.2H345.631V91H347.631ZM386.228 86.392L386.959 85.7091L386.959 85.7091L386.228 86.392ZM386.228 6.008L386.959 6.69088L386.959 6.69088L386.228 6.008ZM417.972 6.008L417.241 6.69088L417.241 6.69088L417.972 6.008ZM417.972 86.392L417.241 85.7091L417.241 85.7091L417.972 86.392ZM402.1 91.28C395.381 91.28 390.388 89.3781 386.959 85.7091L385.497 87.0749C389.406 91.2565 394.995 93.28 402.1 93.28V91.28ZM386.959 85.7091C383.514 82.0238 381.724 76.753 381.724 69.752H379.724C379.724 77.087 381.604 82.9095 385.497 87.0749L386.959 85.7091ZM381.724 69.752V22.648H379.724V69.752H381.724ZM381.724 22.648C381.724 15.647 383.514 10.3762 386.959 6.69088L385.497 5.32511C381.604 9.49049 379.724 15.313 379.724 22.648H381.724ZM386.959 6.69088C390.388 3.02188 395.381 1.12 402.1 1.12V-0.880005C394.995 -0.880005 389.406 1.14345 385.497 5.32511L386.959 6.69088ZM402.1 1.12C408.819 1.12 413.812 3.02188 417.241 6.69088L418.703 5.32511C414.794 1.14345 409.205 -0.880005 402.1 -0.880005V1.12ZM417.241 6.69088C420.686 10.3762 422.476 15.647 422.476 22.648H424.476C424.476 15.313 422.596 9.49049 418.703 5.32511L417.241 6.69088ZM422.476 22.648V69.752H424.476V22.648H422.476ZM422.476 69.752C422.476 76.753 420.686 82.0238 417.241 85.7091L418.703 87.0749C422.596 82.9095 424.476 77.087 424.476 69.752H422.476ZM417.241 85.7091C413.812 89.3781 408.819 91.28 402.1 91.28V93.28C409.205 93.28 414.794 91.2565 418.703 87.0749L417.241 85.7091ZM402.1 80.48C404.742 80.48 406.887 79.6713 408.343 77.9089C409.769 76.183 410.396 73.7046 410.396 70.648H408.396C408.396 73.4794 407.807 75.417 406.801 76.6351C405.825 77.8167 404.322 78.48 402.1 78.48V80.48ZM410.396 70.648V21.752H408.396V70.648H410.396ZM410.396 21.752C410.396 18.6954 409.769 16.217 408.343 14.4911C406.887 12.7287 404.742 11.92 402.1 11.92V13.92C404.322 13.92 405.825 14.5833 406.801 15.7649C407.807 16.983 408.396 18.9206 408.396 21.752H410.396ZM402.1 11.92C399.458 11.92 397.313 12.7287 395.857 14.4911C394.431 16.217 393.804 18.6954 393.804 21.752H395.804C395.804 18.9206 396.393 16.983 397.399 15.7649C398.375 14.5833 399.878 13.92 402.1 13.92V11.92ZM393.804 21.752V70.648H395.804V21.752H393.804ZM393.804 70.648C393.804 73.7046 394.431 76.183 395.857 77.9089C397.313 79.6713 399.458 80.48 402.1 80.48V78.48C399.878 78.48 398.375 77.8167 397.399 76.6351C396.393 75.417 395.804 73.4794 395.804 70.648H393.804ZM432.998 1.39999V0.399994H431.998V1.39999H432.998ZM469.734 6.52L469.018 7.21815L469.027 7.2271L469.734 6.52ZM465.51 45.176L465.136 44.2484L464.51 44.5007V45.176H465.51ZM465.51 45.432H464.51V46.176L465.223 46.3898L465.51 45.432ZM472.678 51.704L471.76 52.1009L471.765 52.1113L471.769 52.1215L472.678 51.704ZM475.11 86.392L474.115 86.4967L474.116 86.5024L475.11 86.392ZM476.39 91V92H477.929L477.304 90.5939L476.39 91ZM462.054 91L461.111 91.3328L461.346 92H462.054V91ZM458.726 55.032L457.941 55.6516L457.951 55.664L457.961 55.6761L458.726 55.032ZM447.078 52.6V51.6H446.078V52.6H447.078ZM447.078 91V92H448.078V91H447.078ZM432.998 91H431.998V92H432.998V91ZM458.47 37.624L457.763 36.9169L457.752 36.9276L457.742 36.9386L458.47 37.624ZM458.854 16.376L458.06 16.9834L458.071 16.9978L458.082 17.0117L458.854 16.376ZM447.078 14.2V13.2H446.078V14.2H447.078ZM447.078 39.8H446.078V40.8H447.078V39.8ZM432.998 2.39999H453.862V0.399994H432.998V2.39999ZM453.862 2.39999C460.984 2.39999 465.957 4.07852 469.018 7.2181L470.45 5.8219C466.855 2.13481 461.246 0.399994 453.862 0.399994V2.39999ZM469.027 7.2271C472.093 10.2932 473.726 15.1479 473.726 22.008H475.726C475.726 14.8735 474.031 9.40283 470.441 5.81289L469.027 7.2271ZM473.726 22.008V27.512H475.726V22.008H473.726ZM473.726 27.512C473.726 32.0624 472.973 35.6858 471.535 38.4414C470.109 41.1749 467.987 43.1003 465.136 44.2484L465.884 46.1036C469.177 44.777 471.663 42.5211 473.309 39.3666C474.943 36.2342 475.726 32.2629 475.726 27.512H473.726ZM464.51 45.176V45.432H466.51V45.176H464.51ZM465.223 46.3898C468.365 47.3325 470.517 49.2254 471.76 52.1009L473.596 51.3071C472.109 47.8679 469.482 45.5795 465.797 44.4742L465.223 46.3898ZM471.769 52.1215C473.137 55.0975 473.854 59.1613 473.854 64.376H475.854C475.854 59.0094 475.121 54.6251 473.587 51.2865L471.769 52.1215ZM473.854 64.376V80.12H475.854V64.376H473.854ZM473.854 80.12C473.854 82.6977 473.94 84.8268 474.115 86.4967L476.105 86.2873C475.939 84.7145 475.854 82.6623 475.854 80.12H473.854ZM474.116 86.5024C474.299 88.1491 474.755 89.7845 475.476 91.4061L477.304 90.5939C476.659 89.1435 476.262 87.7069 476.104 86.2816L474.116 86.5024ZM476.39 90H462.054V92H476.39V90ZM462.997 90.6672C462.504 89.2696 462.181 87.972 462.021 86.7718L460.039 87.0362C460.22 88.396 460.58 89.8291 461.111 91.3328L462.997 90.6672ZM462.021 86.7718C461.86 85.5659 461.774 83.3235 461.774 79.992H459.774C459.774 83.3165 459.858 85.6821 460.039 87.0362L462.021 86.7718ZM461.774 79.992V63.608H459.774V79.992H461.774ZM461.774 63.608C461.774 59.4658 461.097 56.2948 459.491 54.3879L457.961 55.6761C459.086 57.0118 459.774 59.5582 459.774 63.608H461.774ZM459.511 54.4124C457.954 52.4403 455.315 51.6 451.942 51.6V53.6C455.054 53.6 456.938 54.381 457.941 55.6516L459.511 54.4124ZM451.942 51.6H447.078V53.6H451.942V51.6ZM446.078 52.6V91H448.078V52.6H446.078ZM447.078 90H432.998V92H447.078V90ZM433.998 91V1.39999H431.998V91H433.998ZM452.198 40.8C455.173 40.8 457.577 40.0322 459.198 38.3094L457.742 36.9386C456.633 38.1171 454.855 38.8 452.198 38.8V40.8ZM459.177 38.3311C460.907 36.6011 461.646 33.84 461.646 30.328H459.646C459.646 33.6427 458.934 35.7455 457.763 36.9169L459.177 38.3311ZM461.646 30.328V23.416H459.646V30.328H461.646ZM461.646 23.416C461.646 20.0939 461.042 17.4601 459.626 15.7403L458.082 17.0117C459.055 18.1932 459.646 20.2527 459.646 23.416H461.646ZM459.648 15.7685C458.288 13.9893 456.145 13.2 453.478 13.2V15.2C455.76 15.2 457.202 15.8614 458.06 16.9834L459.648 15.7685ZM453.478 13.2H447.078V15.2H453.478V13.2ZM446.078 14.2V39.8H448.078V14.2H446.078ZM447.078 40.8H452.198V38.8H447.078V40.8ZM487.439 86.52L486.692 87.1854L486.7 87.1935L487.439 86.52ZM482.191 64.632V63.632H481.191V64.632H482.191ZM495.503 64.632H496.503V63.632H495.503V64.632ZM508.175 77.432L507.425 76.7704L507.422 76.7735L508.175 77.432ZM507.535 60.664L506.673 61.1711L506.68 61.1823L507.535 60.664ZM498.063 50.296L497.401 51.0459L497.406 51.0503L498.063 50.296ZM485.903 36.472L485.027 36.9546L485.031 36.9623L485.903 36.472ZM487.823 6.008L488.554 6.69035L488.561 6.68226L487.823 6.008ZM518.671 6.008L517.916 6.66417L517.924 6.67292L517.932 6.68149L518.671 6.008ZM523.919 26.36V27.36H524.919V26.36H523.919ZM510.607 26.36H509.607V27.36H510.607V26.36ZM508.815 15.096L508.043 15.7317L508.053 15.7432L508.062 15.7545L508.815 15.096ZM499.087 30.584L498.232 31.1023L498.237 31.1116L498.243 31.1209L499.087 30.584ZM508.687 40.824L508.03 41.5783L508.031 41.5786L508.687 40.824ZM520.847 54.776L519.964 55.2447L519.964 55.2447L520.847 54.776ZM518.671 86.392L517.94 85.7091L517.933 85.7177L518.671 86.392ZM502.927 91.28C496.289 91.28 491.433 89.4184 488.178 85.8465L486.7 87.1935C490.443 91.3016 495.912 93.28 502.927 93.28V91.28ZM488.186 85.8546C484.903 82.1719 483.191 76.8534 483.191 69.752H481.191C481.191 77.1573 482.978 83.0174 486.692 87.1854L488.186 85.8546ZM483.191 69.752V64.632H481.191V69.752H483.191ZM482.191 65.632H495.503V63.632H482.191V65.632ZM494.503 64.632V70.776H496.503V64.632H494.503ZM494.503 70.776C494.503 73.7927 495.131 76.2415 496.561 77.9464C498.018 79.6851 500.162 80.48 502.799 80.48V78.48C500.572 78.48 499.068 77.8242 498.093 76.6616C497.091 75.4652 496.503 73.562 496.503 70.776H494.503ZM502.799 80.48C505.38 80.48 507.487 79.7365 508.928 78.0905L507.422 76.7735C506.473 77.8582 504.997 78.48 502.799 78.48V80.48ZM508.925 78.0936C510.441 76.3752 511.095 73.7767 511.095 70.52H509.095C509.095 73.578 508.469 75.5875 507.425 76.7704L508.925 78.0936ZM511.095 70.52C511.095 66.6088 510.204 63.1389 508.39 60.1457L506.68 61.1823C508.279 63.821 509.095 66.9219 509.095 70.52H511.095ZM508.397 60.157C506.608 57.1158 503.354 53.5754 498.72 49.5417L497.406 51.0503C501.988 55.038 505.049 58.4095 506.673 61.171L508.397 60.157ZM498.725 49.5462C492.959 44.4588 489 39.9373 486.775 35.9817L485.031 36.9623C487.414 41.1987 491.562 45.8932 497.401 51.0458L498.725 49.5462ZM486.779 35.9894C484.564 31.969 483.447 27.4442 483.447 22.392H481.447C481.447 27.7505 482.634 32.6123 485.027 36.9546L486.779 35.9894ZM483.447 22.392C483.447 15.4728 485.196 10.2885 488.554 6.69031L487.092 5.32568C483.282 9.40748 481.447 15.1459 481.447 22.392H483.447ZM488.561 6.68226C491.906 3.01976 496.808 1.12 503.439 1.12V-0.880005C496.416 -0.880005 490.908 1.14556 487.085 5.33373L488.561 6.68226ZM503.439 1.12C509.982 1.12 514.746 3.0179 517.916 6.66417L519.426 5.35182C515.77 1.14742 510.378 -0.880005 503.439 -0.880005V1.12ZM517.932 6.68149C521.206 10.2754 522.919 15.5449 522.919 22.648H524.919C524.919 15.2444 523.133 9.42064 519.41 5.33451L517.932 6.68149ZM522.919 22.648V26.36H524.919V22.648H522.919ZM523.919 25.36H510.607V27.36H523.919V25.36ZM511.607 26.36V21.752H509.607V26.36H511.607ZM511.607 21.752C511.607 18.5925 511 16.0751 509.568 14.4375L508.062 15.7545C509.019 16.8476 509.607 18.7675 509.607 21.752H511.607ZM509.587 14.4603C508.16 12.7273 506.096 11.92 503.567 11.92V13.92C505.646 13.92 507.081 14.5634 508.043 15.7317L509.587 14.4603ZM503.567 11.92C501.008 11.92 498.927 12.7088 497.514 14.4295C496.133 16.1125 495.527 18.5259 495.527 21.496H497.527C497.527 18.7488 498.095 16.8742 499.06 15.6985C499.994 14.5606 501.432 13.92 503.567 13.92V11.92ZM495.527 21.496C495.527 24.9244 496.432 28.1326 498.232 31.1023L499.942 30.0657C498.329 27.4034 497.527 24.553 497.527 21.496H495.527ZM498.243 31.1209C500.113 34.0592 503.399 37.5476 508.03 41.5783L509.344 40.0697C504.759 36.0791 501.645 32.7408 499.931 30.0471L498.243 31.1209ZM508.031 41.5786C513.878 46.6634 517.828 51.2196 519.964 55.2447L521.73 54.3073C519.429 49.9698 515.272 45.2246 509.343 40.0694L508.031 41.5786ZM519.964 55.2447C522.092 59.2566 523.175 63.9965 523.175 69.496H525.175C525.175 63.7315 524.039 58.658 521.73 54.3073L519.964 55.2447ZM523.175 69.496C523.175 76.6751 521.382 82.0279 517.94 85.7091L519.402 87.0749C523.299 82.9055 525.175 76.9942 525.175 69.496H523.175ZM517.933 85.7177C514.591 89.3777 509.647 91.28 502.927 91.28V93.28C510.031 93.28 515.583 91.257 519.409 87.0663L517.933 85.7177Z" fill="black"/>
</svg>
