<svg width="101" height="116" viewBox="0 0 101 116" fill="none" xmlns="http://www.w3.org/2000/svg">
<path d="M99.5932 88.0256L62.9419 3.26092C62.3608 1.91686 61.0089 1 59.5007 1H59.4982C58.0232 1 56.6481 1.89597 56.0576 3.26092L19.4041 88.0314C19.3704 88.1089 19.3172 88.2365 19.2846 88.3149C18.5977 90.0017 18.2496 91.7462 18.2496 93.5C18.2496 109.636 43.3326 116 59.4998 116C75.668 116 100.75 109.635 100.75 93.4998C100.75 91.5917 100.334 89.7317 99.5932 88.0256Z" fill="#8A508F"/>
<path d="M59.5 116C48.9124 116 38.9 113.909 31.3064 110.112C22.8869 105.902 18.2498 100.003 18.2498 93.5C18.2498 91.746 18.598 90.0017 19.2848 88.3149C19.3284 88.2095 19.3639 88.1249 19.4003 88.0402C21.6091 82.9317 26.7886 78.5974 34.3822 75.4969C41.5888 72.5549 50.2742 70.9997 59.5002 70.9997C68.7263 70.9997 77.4119 72.5549 84.6183 75.4969C92.2121 78.5972 97.3916 82.9317 99.5966 88.0325C99.6357 88.1231 99.6741 88.214 99.7114 88.305C100.402 90.0006 100.75 91.7456 100.75 93.5C100.75 100.003 96.1134 105.902 87.6939 110.112C80.1001 113.909 70.0874 116 59.5 116Z" fill="#A461AA"/>
<path d="M34.3819 75.4966C26.7883 78.5969 21.6088 82.9314 19.4 88.04C19.3634 88.1246 19.3279 88.2095 19.2846 88.3146C18.5977 90.0015 18.2496 91.746 18.2496 93.4998C18.2496 100.003 22.8866 105.902 31.3061 110.112C38.8995 113.909 48.9124 116 59.4998 116V70.9997C50.2739 70.9997 41.5883 72.5549 34.3819 75.4966Z" fill="#A461AA"/>
</svg>
