<svg width="171" height="38" viewBox="0 0 171 38" fill="none" xmlns="http://www.w3.org/2000/svg">
<path d="M8.175 25.5187C8.175 25.4437 8.09688 25.3969 7.94063 25.3781C7.78438 25.3594 7.55 25.3469 7.2375 25.3406C6.93125 25.3344 6.6125 25.3312 6.28125 25.3312C6.15 25.3312 5.9375 25.3406 5.64375 25.3594C5.35625 25.3719 4.9875 25.3937 4.5375 25.425C4.5 25.425 4.33125 25.675 4.03125 26.175C3.83125 26.5062 3.62813 26.8656 3.42188 27.2531C3.22188 27.6406 3.05313 27.9937 2.91563 28.3125C2.78438 28.625 2.71875 28.8437 2.71875 28.9687C2.71875 29.0937 2.78438 29.2 2.91563 29.2875C3.05313 29.375 3.20313 29.4406 3.36563 29.4844C3.53438 29.5281 3.6625 29.55 3.75 29.55C3.775 29.55 3.7875 29.5875 3.7875 29.6625C3.7875 29.8062 3.75625 29.9375 3.69375 30.0563C3.1125 30.025 2.67188 30.0031 2.37188 29.9906C2.07813 29.9719 1.925 29.9625 1.9125 29.9625C1.8 29.9625 1.61563 29.9687 1.35938 29.9812C1.10313 29.9937 0.85 30.0063 0.6 30.0188C0.35 30.0375 0.175 30.05 0.075 30.0563C0.05 30.0313 0.0375 29.9812 0.0375 29.9062C0.0375 29.6687 0.08125 29.55 0.16875 29.55C0.30625 29.55 0.496875 29.5125 0.740625 29.4375C0.984375 29.3625 1.15625 29.2687 1.25625 29.1562C1.53125 28.85 1.9125 28.2625 2.4 27.3937L7.575 18.0937C7.7625 17.7562 8.00625 17.5875 8.30625 17.5875C8.3625 17.5875 8.4125 17.6 8.45625 17.625L10.0125 27.525C10.1375 28.3125 10.2125 28.7625 10.2375 28.875C10.2625 29 10.3469 29.1156 10.4906 29.2219C10.6344 29.3219 10.7875 29.4031 10.95 29.4656C11.1188 29.5219 11.2438 29.55 11.325 29.55C11.35 29.55 11.3625 29.5812 11.3625 29.6437C11.3625 29.8 11.3313 29.9375 11.2688 30.0563C10.6875 30.025 10.2344 30.0031 9.90938 29.9906C9.58438 29.9719 9.3875 29.9625 9.31875 29.9625C9.2 29.9625 9.08438 29.9656 8.97188 29.9719C8.86563 29.9719 8.75938 29.975 8.65313 29.9812C8.45938 29.9937 8.23125 30.0063 7.96875 30.0188C7.7125 30.0313 7.49375 30.0438 7.3125 30.0563C7.3 30.0438 7.29375 30.0063 7.29375 29.9437C7.29375 29.6812 7.3375 29.55 7.425 29.55C7.55 29.55 7.725 29.5125 7.95 29.4375C8.175 29.3625 8.31875 29.275 8.38125 29.175C8.46875 28.9812 8.5125 28.6875 8.5125 28.2937C8.5125 28.0812 8.4 27.1562 8.175 25.5187ZM6.525 24.4125C6.8125 24.4125 7.07188 24.4094 7.30313 24.4031C7.54063 24.3969 7.75 24.3875 7.93125 24.375C7.98125 24.375 8.00625 24.35 8.00625 24.3C8.00625 24.2187 7.96563 23.925 7.88438 23.4187C7.83438 23.0687 7.775 22.6719 7.70625 22.2281C7.6375 21.7844 7.57188 21.3687 7.50938 20.9812C7.45313 20.5937 7.4125 20.3125 7.3875 20.1375C5.85 22.9187 5.08125 24.325 5.08125 24.3562C5.08125 24.3812 5.0875 24.3937 5.1 24.3937C5.24375 24.4 5.43438 24.4062 5.67188 24.4125C5.90938 24.4125 6.19375 24.4125 6.525 24.4125ZM26.202 25.1437H18.402C18.352 25.1437 18.327 25.1062 18.327 25.0312C18.327 24.9937 18.3489 24.9 18.3926 24.75C18.4426 24.5937 18.4989 24.4469 18.5614 24.3094C18.6301 24.1656 18.6895 24.0937 18.7395 24.0937H26.5208C26.5958 24.0937 26.6333 24.125 26.6333 24.1875C26.6333 24.2625 26.527 24.5437 26.3145 25.0312C26.2895 25.1062 26.252 25.1437 26.202 25.1437ZM25.7895 27.6937L25.6583 27.8062H17.877C17.8145 27.8062 17.7833 27.7687 17.7833 27.6937C17.7833 27.65 17.8083 27.5531 17.8583 27.4031C17.9083 27.2531 17.9676 27.1094 18.0364 26.9719C18.1051 26.8281 18.1645 26.7562 18.2145 26.7562H26.0145C26.0895 26.7562 26.127 26.7875 26.127 26.85C26.127 26.875 26.0145 27.1562 25.7895 27.6937Z" fill="black"/>
<path d="M59.6054 22.992C59.6054 22.416 59.695 21.9552 59.8742 21.6096C60.0662 21.2512 60.3222 20.9952 60.6422 20.8416C60.975 20.688 61.3398 20.6112 61.7366 20.6112C62.1334 20.6112 62.4918 20.688 62.8118 20.8416C63.1318 20.9952 63.3878 21.2512 63.5798 21.6096C63.7718 21.9552 63.8678 22.416 63.8678 22.992C63.8678 23.5552 63.7718 24.016 63.5798 24.3744C63.3878 24.72 63.1318 24.976 62.8118 25.1424C62.4918 25.296 62.1334 25.3728 61.7366 25.3728C61.3398 25.3728 60.975 25.296 60.6422 25.1424C60.3222 24.976 60.0662 24.72 59.8742 24.3744C59.695 24.016 59.6054 23.5552 59.6054 22.992ZM71.879 26.7375C71.879 25.8625 71.9728 24.9719 72.1603 24.0656C72.354 23.1531 72.6071 22.2812 72.9196 21.45C73.2384 20.6187 73.5853 19.8844 73.9603 19.2469C74.529 18.2844 75.1009 17.5 75.6759 16.8937C76.2571 16.2812 76.7228 15.975 77.0728 15.975C77.1853 15.975 77.2415 16.1 77.2415 16.35C77.2415 16.4125 77.229 16.4562 77.204 16.4812C76.7103 16.7125 76.1384 17.3437 75.4884 18.375C75.0634 19.0562 74.6571 19.875 74.2696 20.8312C73.8884 21.7875 73.579 22.7937 73.3415 23.85C73.104 24.9062 72.9853 25.9312 72.9853 26.925C72.9853 28.1375 73.1259 29.2094 73.4071 30.1406C73.6884 31.0719 73.9665 31.6188 74.2415 31.7813C74.254 31.7813 74.2603 31.8 74.2603 31.8375C74.2603 31.9125 74.2196 32.0031 74.1384 32.1094C74.0571 32.2156 73.9853 32.2688 73.9228 32.2688C73.479 32.2688 73.029 31.7219 72.5728 30.6281C72.1103 29.5219 71.879 28.225 71.879 26.7375ZM82.955 17.775C83.0675 17.775 83.8363 17.7375 85.2613 17.6625V17.7375C85.2613 18.025 85.2238 18.1687 85.1488 18.1687C85.0363 18.1687 84.8831 18.1969 84.6894 18.2531C84.5019 18.3031 84.33 18.3844 84.1738 18.4969C84.0238 18.6094 83.9488 18.75 83.9488 18.9187C83.9488 19.0687 83.98 19.2187 84.0425 19.3687C84.9738 21.4687 85.4425 22.5187 85.4488 22.5187C85.4738 22.5187 85.7488 22.2375 86.2738 21.675C86.6238 21.3 86.9831 20.9031 87.3519 20.4844C87.7206 20.0656 88.03 19.6937 88.28 19.3687C88.53 19.0437 88.655 18.8375 88.655 18.75C88.655 18.5875 88.5363 18.45 88.2988 18.3375C88.0613 18.225 87.8175 18.1687 87.5675 18.1687C87.5425 18.1687 87.53 18.1375 87.53 18.075C87.53 17.8687 87.5738 17.7312 87.6613 17.6625C88.9363 17.7375 89.63 17.775 89.7425 17.775C89.8738 17.775 89.9988 17.775 90.1175 17.775C90.2425 17.7687 90.3644 17.7625 90.4831 17.7562C90.7144 17.7437 90.955 17.7281 91.205 17.7094C91.455 17.6906 91.6613 17.675 91.8238 17.6625V17.7187C91.8238 18.0187 91.78 18.1687 91.6925 18.1687C91.5925 18.1687 91.4175 18.1937 91.1675 18.2437C90.9175 18.2937 90.6675 18.3625 90.4175 18.45C90.1675 18.5375 89.9925 18.6375 89.8925 18.75C87.155 21.7875 85.7863 23.3187 85.7863 23.3437C85.7863 23.3562 85.955 23.7625 86.2925 24.5625C86.4613 24.9625 86.6394 25.3875 86.8269 25.8375C87.0206 26.2812 87.205 26.7062 87.38 27.1125C87.555 27.5125 87.7081 27.8562 87.8394 28.1437C87.9706 28.4312 88.0613 28.6187 88.1113 28.7062C88.23 28.9062 88.3988 29.0687 88.6175 29.1937C88.8363 29.3187 89.055 29.4094 89.2738 29.4656C89.4988 29.5219 89.6738 29.55 89.7988 29.55C89.8238 29.55 89.8363 29.5812 89.8363 29.6437C89.8363 29.8437 89.8175 29.9812 89.78 30.0563C89.1988 30.025 88.7331 30.0031 88.3831 29.9906C88.0394 29.9719 87.8113 29.9625 87.6988 29.9625C87.6863 29.9625 87.4706 29.9719 87.0519 29.9906C86.6331 30.0031 86.0113 30.025 85.1863 30.0563C85.1613 30.0313 85.1488 29.9812 85.1488 29.9062C85.1488 29.6687 85.1925 29.55 85.28 29.55C85.38 29.55 85.5113 29.525 85.6738 29.475C85.8363 29.4187 85.9831 29.3469 86.1144 29.2594C86.2456 29.1656 86.3113 29.0625 86.3113 28.95C86.3113 28.7812 86.2988 28.6687 86.2738 28.6125C85.1363 25.9 84.5613 24.5437 84.5488 24.5437C84.5363 24.5437 84.2238 24.8906 83.6113 25.5844C83.4113 25.8094 83.155 26.1 82.8425 26.4562C82.5363 26.8125 82.23 27.175 81.9238 27.5437C81.6175 27.9062 81.3581 28.2219 81.1456 28.4906C80.9394 28.7594 80.8363 28.925 80.8363 28.9875C80.8363 29.3625 81.18 29.55 81.8675 29.55C81.9175 29.55 81.9425 29.6062 81.9425 29.7187C81.9425 29.8812 81.9113 29.9937 81.8488 30.0563C81.7425 30.05 81.5269 30.0438 81.2019 30.0375C80.8831 30.0375 80.455 30.0375 79.9175 30.0375C79.3113 30.0375 78.8269 30.0375 78.4644 30.0375C78.1019 30.0438 77.8613 30.05 77.7425 30.0563C77.73 30.0438 77.7238 30.0188 77.7238 29.9812C77.7238 29.6937 77.755 29.55 77.8175 29.55C77.9175 29.55 78.0519 29.5406 78.2206 29.5219C78.3894 29.5031 78.6113 29.4469 78.8863 29.3531C79.1613 29.2594 79.3675 29.1375 79.505 28.9875C82.6425 25.5062 84.2113 23.7437 84.2113 23.7L82.7488 20.25C82.5988 19.8875 82.4769 19.6125 82.3831 19.425C82.2894 19.2312 82.1956 19.075 82.1019 18.9562C82.0081 18.8375 81.88 18.7125 81.7175 18.5812C81.605 18.4812 81.43 18.3875 81.1925 18.3C80.955 18.2125 80.78 18.1687 80.6675 18.1687C80.6425 18.1687 80.63 18.1375 80.63 18.075C80.63 17.8687 80.6738 17.7312 80.7613 17.6625C80.8613 17.6687 81.0425 17.6812 81.305 17.7C81.5675 17.7187 81.8519 17.7375 82.1581 17.7562C82.4644 17.7687 82.73 17.775 82.955 17.775ZM96.4987 22.0128H90.8923V20.8224L93.0619 18.6912C93.5483 18.2304 93.9131 17.8528 94.1563 17.5584C94.4123 17.264 94.5851 17.0016 94.6747 16.7712C94.7771 16.528 94.8283 16.2784 94.8283 16.0224C94.8283 15.664 94.7195 15.3952 94.5019 15.216C94.2971 15.024 94.0219 14.928 93.6763 14.928C93.3307 14.928 93.0043 14.9984 92.6971 15.1392C92.4027 15.28 92.0891 15.4848 91.7563 15.7536L90.9307 14.7168C91.3147 14.384 91.7371 14.1216 92.1979 13.9296C92.6587 13.7248 93.1835 13.6224 93.7723 13.6224C94.5915 13.6224 95.2379 13.8272 95.7115 14.2368C96.1979 14.6336 96.4411 15.1904 96.4411 15.9072C96.4411 16.3168 96.3579 16.6944 96.1915 17.04C96.0379 17.3856 95.7947 17.7376 95.4619 18.096C95.1419 18.4544 94.7451 18.864 94.2715 19.3248L92.8891 20.6112H96.4987V22.0128ZM104.014 25.1062L108.271 24.8812C108.346 24.8812 108.383 24.9562 108.383 25.1062C108.383 25.1937 108.358 25.3125 108.308 25.4625C108.264 25.6125 108.208 25.7469 108.139 25.8656C108.077 25.9844 108.014 26.05 107.952 26.0625L103.714 26.2687C103.652 26.2687 103.621 26.175 103.621 25.9875C103.621 25.8625 103.664 25.6875 103.752 25.4625C103.839 25.2375 103.927 25.1187 104.014 25.1062ZM119.51 17.775C119.635 17.775 120.41 17.7375 121.835 17.6625V17.7562C121.835 18.0312 121.791 18.1687 121.704 18.1687C121.579 18.1687 121.423 18.2 121.235 18.2625C121.048 18.3187 120.882 18.4062 120.738 18.525C120.594 18.6375 120.523 18.7812 120.523 18.9562C120.523 19.0687 120.548 19.2062 120.598 19.3687L121.891 23.3437C121.973 23.2375 122.085 23.0937 122.229 22.9125C122.373 22.725 122.544 22.5 122.744 22.2375C122.944 21.975 123.123 21.7406 123.279 21.5344C123.441 21.3281 123.576 21.1531 123.682 21.0094C123.788 20.8656 123.904 20.7094 124.029 20.5406C124.154 20.3719 124.285 20.1937 124.423 20.0062C124.623 19.7312 124.804 19.4687 124.966 19.2187C125.129 18.9687 125.21 18.8125 125.21 18.75C125.198 18.5875 125.063 18.45 124.807 18.3375C124.551 18.225 124.298 18.1687 124.048 18.1687C124.023 18.1687 124.01 18.1312 124.01 18.0562C124.01 17.8625 124.054 17.7312 124.141 17.6625C124.241 17.6625 124.491 17.6812 124.891 17.7187C125.298 17.7562 125.623 17.775 125.866 17.775C125.929 17.775 126.673 17.7375 128.098 17.6625C128.11 17.7 128.116 17.7312 128.116 17.7562C128.116 18.0312 128.073 18.1687 127.985 18.1687C127.904 18.1687 127.76 18.1969 127.554 18.2531C127.348 18.3094 127.138 18.3812 126.926 18.4687C126.719 18.5562 126.566 18.65 126.466 18.75C126.416 18.8 126.279 18.9719 126.054 19.2656C125.829 19.5594 125.551 19.9219 125.219 20.3531C124.894 20.7844 124.554 21.2406 124.198 21.7219C123.848 22.1969 123.516 22.65 123.204 23.0812C122.898 23.5125 122.644 23.8719 122.444 24.1594C122.244 24.4469 122.141 24.6125 122.135 24.6562L121.61 27.3937C121.473 28.0625 121.404 28.625 121.404 29.0812C121.404 29.1812 121.488 29.2719 121.657 29.3531C121.826 29.4344 121.998 29.4875 122.173 29.5125L122.416 29.55C122.441 29.55 122.454 29.575 122.454 29.625C122.454 29.7625 122.416 29.9062 122.341 30.0563C121.76 30.025 121.307 30.0031 120.982 29.9906C120.657 29.9719 120.46 29.9625 120.391 29.9625C120.373 29.9625 120.188 29.9719 119.838 29.9906C119.494 30.0031 118.985 30.025 118.31 30.0563C118.298 30.0438 118.291 30 118.291 29.925C118.291 29.675 118.335 29.55 118.423 29.55C118.516 29.55 118.651 29.5312 118.826 29.4937C119.001 29.45 119.166 29.3969 119.323 29.3344C119.485 29.2656 119.585 29.2 119.623 29.1375C119.779 28.8687 119.935 28.3062 120.091 27.45L120.579 24.7875C120.591 24.7375 120.466 24.2969 120.204 23.4656C120.073 23.0469 119.938 22.6344 119.801 22.2281C119.669 21.8156 119.535 21.4062 119.398 21L119.004 19.7812C118.816 19.2062 118.573 18.8062 118.273 18.5812C118.148 18.4937 117.966 18.4031 117.729 18.3094C117.491 18.2156 117.323 18.1687 117.223 18.1687C117.198 18.1687 117.185 18.1375 117.185 18.075C117.185 17.8687 117.229 17.7312 117.316 17.6625C117.416 17.6687 117.598 17.6812 117.86 17.7C118.123 17.7187 118.407 17.7375 118.713 17.7562C119.019 17.7687 119.285 17.775 119.51 17.775ZM132.716 22.0128H127.11V20.8224L129.279 18.6912C129.766 18.2304 130.131 17.8528 130.374 17.5584C130.63 17.264 130.803 17.0016 130.892 16.7712C130.995 16.528 131.046 16.2784 131.046 16.0224C131.046 15.664 130.937 15.3952 130.719 15.216C130.515 15.024 130.239 14.928 129.894 14.928C129.548 14.928 129.222 14.9984 128.915 15.1392C128.62 15.28 128.307 15.4848 127.974 15.7536L127.148 14.7168C127.532 14.384 127.955 14.1216 128.415 13.9296C128.876 13.7248 129.401 13.6224 129.99 13.6224C130.809 13.6224 131.455 13.8272 131.929 14.2368C132.415 14.6336 132.659 15.1904 132.659 15.9072C132.659 16.3168 132.575 16.6944 132.409 17.04C132.255 17.3856 132.012 17.7376 131.679 18.096C131.359 18.4544 130.963 18.864 130.489 19.3248L129.107 20.6112H132.716V22.0128ZM138.962 21.4312C138.962 22.6187 138.815 23.7969 138.521 24.9656C138.228 26.1344 137.862 27.1406 137.425 27.9844C137.206 28.4031 136.981 28.8031 136.75 29.1844C136.518 29.5656 136.281 29.9219 136.037 30.2531C135.643 30.7906 135.231 31.2594 134.8 31.6594C134.368 32.0656 134.025 32.2688 133.768 32.2688C133.656 32.2688 133.6 32.1563 133.6 31.9313C133.6 31.8375 133.618 31.7875 133.656 31.7813C133.831 31.7 134.078 31.475 134.396 31.1063C134.715 30.7375 135.075 30.225 135.475 29.5687C135.868 28.9187 136.246 28.1781 136.609 27.3469C136.965 26.5281 137.262 25.5594 137.5 24.4406C137.737 23.3219 137.856 22.1937 137.856 21.0562C137.856 19.8937 137.74 18.8906 137.509 18.0469C137.278 17.2031 136.987 16.6812 136.637 16.4812C136.625 16.4687 136.618 16.4562 136.618 16.4437C136.618 16.3812 136.656 16.2875 136.731 16.1625C136.806 16.0375 136.875 15.975 136.937 15.975C137.425 15.975 137.884 16.5 138.315 17.55C138.746 18.6 138.962 19.8937 138.962 21.4312Z" fill="black"/>
<path d="M38.516 30C38.5407 29.371 38.553 28.742 38.553 28.113C38.5653 27.484 38.5715 26.8488 38.5715 26.2075C38.5715 25.5538 38.5715 24.9063 38.5715 24.265V23.3585C38.5715 22.7172 38.5715 22.0758 38.5715 21.4345C38.5715 20.7932 38.5653 20.1518 38.553 19.5105C38.553 18.8692 38.5407 18.234 38.516 17.605H40.403C40.3907 18.2217 40.3783 18.8507 40.366 19.492C40.3537 20.1333 40.3475 20.7747 40.3475 21.416C40.3475 22.0573 40.3475 22.7048 40.3475 23.3585V24.265C40.3475 24.894 40.3475 25.5292 40.3475 26.1705C40.3475 26.8118 40.3537 27.4532 40.366 28.0945C40.3783 28.7235 40.3907 29.3587 40.403 30H38.516ZM45.9715 30C45.9962 29.371 46.0085 28.742 46.0085 28.113C46.0208 27.484 46.027 26.8488 46.027 26.2075C46.027 25.5538 46.027 24.9063 46.027 24.265V23.3585C46.027 22.7172 46.027 22.0758 46.027 21.4345C46.027 20.7932 46.0208 20.1518 46.0085 19.5105C46.0085 18.8692 45.9962 18.234 45.9715 17.605H47.8585C47.8462 18.2217 47.8338 18.8507 47.8215 19.492C47.8092 20.1333 47.803 20.7747 47.803 21.416C47.803 22.0573 47.803 22.7048 47.803 23.3585V24.265C47.803 24.894 47.803 25.5292 47.803 26.1705C47.803 26.8118 47.8092 27.4532 47.8215 28.0945C47.8338 28.7235 47.8462 29.3587 47.8585 30H45.9715ZM36.7955 30V29.186L39.2375 28.9455H39.663L42.0865 29.186V30H36.7955ZM44.288 30V29.186L46.693 28.9455H47.137L49.5975 29.186V30H44.288ZM36.7955 18.419V17.605H39.367V18.6595H39.182L36.7955 18.419ZM47.0075 18.6595V17.605H49.5975V18.419L47.1925 18.6595H47.0075ZM39.4595 18.493V17.605H46.915V18.493H39.4595Z" fill="black"/>
</svg>
