<svg width="136" height="55" viewBox="0 0 136 55" fill="none" xmlns="http://www.w3.org/2000/svg">
<path d="M74.3188 41.9625C74.6563 41.9625 74.9656 42.0656 75.2469 42.2719C75.5344 42.4719 75.75 42.7531 75.8938 43.1156C76.0375 43.4719 76.0625 43.8875 75.9688 44.3625C75.8563 44.9125 75.6406 45.3781 75.3219 45.7594C75.0031 46.1406 74.575 46.5187 74.0375 46.8937C74.2875 46.9937 74.525 47.1281 74.75 47.2969C74.975 47.4656 75.1906 47.6812 75.3969 47.9437C75.6031 48.2062 75.75 48.5281 75.8375 48.9094C75.925 49.2906 75.925 49.7 75.8375 50.1375C75.6875 50.925 75.3781 51.6156 74.9094 52.2094C74.4406 52.8031 73.8688 53.2656 73.1938 53.5969C72.5188 53.9281 71.7938 54.0938 71.0188 54.0938C70.0313 54.0938 69.3125 53.9062 68.8625 53.5312C68.825 53.4937 68.8 53.4125 68.7875 53.2875C68.775 53.1625 68.775 53.0625 68.7875 52.9875C68.9188 52.4 69.1938 52.1062 69.6125 52.1062C69.7813 52.1062 69.9313 52.2125 70.0625 52.425C70.2 52.6312 70.3375 52.8062 70.475 52.95C70.7688 53.2125 71.1813 53.3437 71.7125 53.3437C72.175 53.3437 72.6469 53.1531 73.1281 52.7719C73.3719 52.5781 73.5938 52.2969 73.7938 51.9281C73.9938 51.5594 74.1438 51.125 74.2438 50.625C74.3438 50.1312 74.3281 49.6875 74.1969 49.2937C74.0719 48.8937 73.8656 48.575 73.5781 48.3375C73.2906 48.1 72.95 47.9812 72.5563 47.9812C72.1438 47.9812 71.7563 48.025 71.3938 48.1125C71.3188 47.9937 71.3063 47.8312 71.3563 47.625C71.3688 47.5875 71.3813 47.5531 71.3938 47.5219C71.4063 47.4906 71.4188 47.4625 71.4313 47.4375C72.2688 47.2875 72.9688 46.9875 73.5313 46.5375C74.0938 46.0875 74.45 45.475 74.6 44.7C74.6875 44.275 74.6094 43.8969 74.3656 43.5656C74.1219 43.2344 73.8 43.0687 73.4 43.0687C73.15 43.0687 72.9063 43.1156 72.6688 43.2094C72.4313 43.3031 72.25 43.4 72.125 43.5C72.0125 43.5875 71.8969 43.6906 71.7781 43.8094C71.6594 43.9281 71.575 44 71.525 44.025C71.475 44.025 71.4406 43.9656 71.4219 43.8469C71.4031 43.7281 71.4 43.625 71.4125 43.5375C71.825 43.0375 72.2563 42.65 72.7063 42.375C73.1563 42.1 73.6938 41.9625 74.3188 41.9625ZM81.5698 47.025C82.1073 47.025 82.5791 47.1469 82.9854 47.3906C83.3979 47.6281 83.7198 47.9531 83.951 48.3656C84.1885 48.7781 84.3073 49.2437 84.3073 49.7625C84.3073 50.4562 84.101 51.1469 83.6885 51.8344C83.276 52.5156 82.7385 53.0656 82.076 53.4844C81.4135 53.9031 80.751 54.1125 80.0885 54.1125C79.2385 54.1125 78.5666 53.8437 78.0729 53.3062C77.5791 52.7687 77.3323 51.9875 77.3323 50.9625C77.3323 50.425 77.4041 49.8719 77.5479 49.3031C77.6916 48.7344 77.9416 48.1187 78.2979 47.4562C78.6541 46.7875 79.1041 46.15 79.6479 45.5437C80.1916 44.9312 80.901 44.3187 81.776 43.7062C82.651 43.0937 83.6385 42.5437 84.7385 42.0562C84.8385 42.0562 84.8885 42.2125 84.8885 42.525C83.676 43.0375 82.6323 43.6781 81.7573 44.4469C80.8823 45.2156 80.1823 46.2125 79.6573 47.4375C79.1073 48.7312 78.8323 49.9687 78.8323 51.15C78.8323 51.775 78.9573 52.3031 79.2073 52.7344C79.4573 53.1656 79.8385 53.3812 80.351 53.3812C80.726 53.3812 81.101 53.2312 81.476 52.9312C81.8573 52.625 82.1729 52.2125 82.4229 51.6937C82.6791 51.1687 82.8073 50.5812 82.8073 49.9312C82.8073 49.3062 82.6604 48.8 82.3666 48.4125C82.0729 48.025 81.6198 47.8312 81.0073 47.8312C80.9385 47.8312 80.8291 47.8562 80.6791 47.9062C80.5291 47.95 80.3854 47.9969 80.2479 48.0469C80.1166 48.0906 80.0385 48.1125 80.0135 48.1125C79.9385 48.0625 79.901 47.975 79.901 47.85C79.901 47.7062 80.0041 47.5719 80.2104 47.4469C80.4166 47.3219 80.651 47.2219 80.9135 47.1469C81.176 47.0656 81.3948 47.025 81.5698 47.025ZM85.8958 48.0187C86.1145 46.9125 86.4551 45.9094 86.9176 45.0094C87.3864 44.1031 87.9676 43.3719 88.6614 42.8156C89.3551 42.2594 90.0895 41.9812 90.8645 41.9812C91.452 41.9812 91.9583 42.1437 92.3833 42.4687C92.8083 42.7937 93.1208 43.2312 93.3208 43.7812C93.5208 44.3312 93.6426 44.9719 93.6864 45.7031C93.7301 46.4344 93.6645 47.2062 93.4895 48.0187C93.2645 49.1125 92.9176 50.1156 92.4489 51.0281C91.9801 51.9344 91.3989 52.6656 90.7051 53.2219C90.0114 53.7781 89.2833 54.0563 88.5208 54.0563C87.7458 54.0563 87.1176 53.775 86.6364 53.2125C86.1551 52.65 85.8614 51.9219 85.7551 51.0281C85.6489 50.1344 85.6958 49.1312 85.8958 48.0187ZM87.4333 48C87.1208 49.475 87.0739 50.7344 87.2926 51.7781C87.5114 52.8219 87.9395 53.3437 88.577 53.3437C89.0708 53.3437 89.5364 53.1062 89.9739 52.6312C90.4176 52.1562 90.8114 51.5094 91.1551 50.6906C91.5051 49.8719 91.7833 48.9437 91.9895 47.9062C92.2833 46.4312 92.3208 45.1937 92.102 44.1937C91.8895 43.1937 91.4645 42.6937 90.827 42.6937C90.3458 42.6937 89.8801 42.925 89.4301 43.3875C88.9864 43.85 88.5895 44.4812 88.2395 45.2812C87.8958 46.0812 87.627 46.9875 87.4333 48Z" fill="black"/>
<path d="M8.175 34.5187C8.175 34.4437 8.09688 34.3969 7.94063 34.3781C7.78438 34.3594 7.55 34.3469 7.2375 34.3406C6.93125 34.3344 6.6125 34.3312 6.28125 34.3312C6.15 34.3312 5.9375 34.3406 5.64375 34.3594C5.35625 34.3719 4.9875 34.3937 4.5375 34.425C4.5 34.425 4.33125 34.675 4.03125 35.175C3.83125 35.5062 3.62813 35.8656 3.42188 36.2531C3.22188 36.6406 3.05313 36.9937 2.91563 37.3125C2.78438 37.625 2.71875 37.8437 2.71875 37.9687C2.71875 38.0937 2.78438 38.2 2.91563 38.2875C3.05313 38.375 3.20313 38.4406 3.36563 38.4844C3.53438 38.5281 3.6625 38.55 3.75 38.55C3.775 38.55 3.7875 38.5875 3.7875 38.6625C3.7875 38.8062 3.75625 38.9375 3.69375 39.0563C3.1125 39.025 2.67188 39.0031 2.37188 38.9906C2.07813 38.9719 1.925 38.9625 1.9125 38.9625C1.8 38.9625 1.61563 38.9687 1.35938 38.9812C1.10313 38.9937 0.85 39.0063 0.6 39.0188C0.35 39.0375 0.175 39.05 0.075 39.0563C0.05 39.0313 0.0375 38.9812 0.0375 38.9062C0.0375 38.6687 0.08125 38.55 0.16875 38.55C0.30625 38.55 0.496875 38.5125 0.740625 38.4375C0.984375 38.3625 1.15625 38.2687 1.25625 38.1562C1.53125 37.85 1.9125 37.2625 2.4 36.3937L7.575 27.0937C7.7625 26.7562 8.00625 26.5875 8.30625 26.5875C8.3625 26.5875 8.4125 26.6 8.45625 26.625L10.0125 36.525C10.1375 37.3125 10.2125 37.7625 10.2375 37.875C10.2625 38 10.3469 38.1156 10.4906 38.2219C10.6344 38.3219 10.7875 38.4031 10.95 38.4656C11.1188 38.5219 11.2438 38.55 11.325 38.55C11.35 38.55 11.3625 38.5812 11.3625 38.6437C11.3625 38.8 11.3313 38.9375 11.2688 39.0563C10.6875 39.025 10.2344 39.0031 9.90938 38.9906C9.58438 38.9719 9.3875 38.9625 9.31875 38.9625C9.2 38.9625 9.08438 38.9656 8.97188 38.9719C8.86563 38.9719 8.75938 38.975 8.65313 38.9812C8.45938 38.9937 8.23125 39.0063 7.96875 39.0188C7.7125 39.0313 7.49375 39.0438 7.3125 39.0563C7.3 39.0438 7.29375 39.0063 7.29375 38.9437C7.29375 38.6812 7.3375 38.55 7.425 38.55C7.55 38.55 7.725 38.5125 7.95 38.4375C8.175 38.3625 8.31875 38.275 8.38125 38.175C8.46875 37.9812 8.5125 37.6875 8.5125 37.2937C8.5125 37.0812 8.4 36.1562 8.175 34.5187ZM6.525 33.4125C6.8125 33.4125 7.07188 33.4094 7.30313 33.4031C7.54063 33.3969 7.75 33.3875 7.93125 33.375C7.98125 33.375 8.00625 33.35 8.00625 33.3C8.00625 33.2187 7.96563 32.925 7.88438 32.4187C7.83438 32.0687 7.775 31.6719 7.70625 31.2281C7.6375 30.7844 7.57188 30.3687 7.50938 29.9812C7.45313 29.5937 7.4125 29.3125 7.3875 29.1375C5.85 31.9187 5.08125 33.325 5.08125 33.3562C5.08125 33.3812 5.0875 33.3937 5.1 33.3937C5.24375 33.4 5.43438 33.4062 5.67188 33.4125C5.90938 33.4125 6.19375 33.4125 6.525 33.4125ZM26.202 34.1437H18.402C18.352 34.1437 18.327 34.1062 18.327 34.0312C18.327 33.9937 18.3489 33.9 18.3926 33.75C18.4426 33.5937 18.4989 33.4469 18.5614 33.3094C18.6301 33.1656 18.6895 33.0937 18.7395 33.0937H26.5208C26.5958 33.0937 26.6333 33.125 26.6333 33.1875C26.6333 33.2625 26.527 33.5437 26.3145 34.0312C26.2895 34.1062 26.252 34.1437 26.202 34.1437ZM25.7895 36.6937L25.6583 36.8062H17.877C17.8145 36.8062 17.7833 36.7687 17.7833 36.6937C17.7833 36.65 17.8083 36.5531 17.8583 36.4031C17.9083 36.2531 17.9676 36.1094 18.0364 35.9719C18.1051 35.8281 18.1645 35.7562 18.2145 35.7562H26.0145C26.0895 35.7562 26.127 35.7875 26.127 35.85C26.127 35.875 26.0145 36.1562 25.7895 36.6937Z" fill="black"/>
<path d="M61.0843 26.7375C61.0843 25.8625 61.178 24.9719 61.3655 24.0656C61.5593 23.1531 61.8124 22.2812 62.1249 21.45C62.4436 20.6187 62.7905 19.8844 63.1655 19.2469C63.7343 18.2844 64.3061 17.5 64.8811 16.8937C65.4624 16.2812 65.928 15.975 66.278 15.975C66.3905 15.975 66.4468 16.1 66.4468 16.35C66.4468 16.4125 66.4343 16.4562 66.4093 16.4812C65.9155 16.7125 65.3436 17.3437 64.6936 18.375C64.2686 19.0562 63.8624 19.875 63.4749 20.8312C63.0936 21.7875 62.7843 22.7937 62.5468 23.85C62.3093 24.9062 62.1905 25.9312 62.1905 26.925C62.1905 28.1375 62.3311 29.2094 62.6124 30.1406C62.8936 31.0719 63.1718 31.6188 63.4468 31.7813C63.4593 31.7813 63.4655 31.8 63.4655 31.8375C63.4655 31.9125 63.4249 32.0031 63.3436 32.1094C63.2624 32.2156 63.1905 32.2688 63.128 32.2688C62.6843 32.2688 62.2343 31.7219 61.778 30.6281C61.3155 29.5219 61.0843 28.225 61.0843 26.7375ZM72.1603 17.775C72.2728 17.775 73.0415 17.7375 74.4665 17.6625V17.7375C74.4665 18.025 74.429 18.1687 74.354 18.1687C74.2415 18.1687 74.0884 18.1969 73.8946 18.2531C73.7071 18.3031 73.5353 18.3844 73.379 18.4969C73.229 18.6094 73.154 18.75 73.154 18.9187C73.154 19.0687 73.1853 19.2187 73.2478 19.3687C74.179 21.4687 74.6478 22.5187 74.654 22.5187C74.679 22.5187 74.954 22.2375 75.479 21.675C75.829 21.3 76.1884 20.9031 76.5571 20.4844C76.9259 20.0656 77.2353 19.6937 77.4853 19.3687C77.7353 19.0437 77.8603 18.8375 77.8603 18.75C77.8603 18.5875 77.7415 18.45 77.504 18.3375C77.2665 18.225 77.0228 18.1687 76.7728 18.1687C76.7478 18.1687 76.7353 18.1375 76.7353 18.075C76.7353 17.8687 76.779 17.7312 76.8665 17.6625C78.1415 17.7375 78.8353 17.775 78.9478 17.775C79.079 17.775 79.204 17.775 79.3228 17.775C79.4478 17.7687 79.5696 17.7625 79.6884 17.7562C79.9196 17.7437 80.1603 17.7281 80.4103 17.7094C80.6603 17.6906 80.8665 17.675 81.029 17.6625V17.7187C81.029 18.0187 80.9853 18.1687 80.8978 18.1687C80.7978 18.1687 80.6228 18.1937 80.3728 18.2437C80.1228 18.2937 79.8728 18.3625 79.6228 18.45C79.3728 18.5375 79.1978 18.6375 79.0978 18.75C76.3603 21.7875 74.9915 23.3187 74.9915 23.3437C74.9915 23.3562 75.1603 23.7625 75.4978 24.5625C75.6665 24.9625 75.8446 25.3875 76.0321 25.8375C76.2259 26.2812 76.4103 26.7062 76.5853 27.1125C76.7603 27.5125 76.9134 27.8562 77.0446 28.1437C77.1759 28.4312 77.2665 28.6187 77.3165 28.7062C77.4353 28.9062 77.604 29.0687 77.8228 29.1937C78.0415 29.3187 78.2603 29.4094 78.479 29.4656C78.704 29.5219 78.879 29.55 79.004 29.55C79.029 29.55 79.0415 29.5812 79.0415 29.6437C79.0415 29.8437 79.0228 29.9812 78.9853 30.0563C78.404 30.025 77.9384 30.0031 77.5884 29.9906C77.2446 29.9719 77.0165 29.9625 76.904 29.9625C76.8915 29.9625 76.6759 29.9719 76.2571 29.9906C75.8384 30.0031 75.2165 30.025 74.3915 30.0563C74.3665 30.0313 74.354 29.9812 74.354 29.9062C74.354 29.6687 74.3978 29.55 74.4853 29.55C74.5853 29.55 74.7165 29.525 74.879 29.475C75.0415 29.4187 75.1884 29.3469 75.3196 29.2594C75.4509 29.1656 75.5165 29.0625 75.5165 28.95C75.5165 28.7812 75.504 28.6687 75.479 28.6125C74.3415 25.9 73.7665 24.5437 73.754 24.5437C73.7415 24.5437 73.429 24.8906 72.8165 25.5844C72.6165 25.8094 72.3603 26.1 72.0478 26.4562C71.7415 26.8125 71.4353 27.175 71.129 27.5437C70.8228 27.9062 70.5634 28.2219 70.3509 28.4906C70.1446 28.7594 70.0415 28.925 70.0415 28.9875C70.0415 29.3625 70.3853 29.55 71.0728 29.55C71.1228 29.55 71.1478 29.6062 71.1478 29.7187C71.1478 29.8812 71.1165 29.9937 71.054 30.0563C70.9478 30.05 70.7321 30.0438 70.4071 30.0375C70.0884 30.0375 69.6603 30.0375 69.1228 30.0375C68.5165 30.0375 68.0321 30.0375 67.6696 30.0375C67.3071 30.0438 67.0665 30.05 66.9478 30.0563C66.9353 30.0438 66.929 30.0188 66.929 29.9812C66.929 29.6937 66.9603 29.55 67.0228 29.55C67.1228 29.55 67.2571 29.5406 67.4259 29.5219C67.5946 29.5031 67.8165 29.4469 68.0915 29.3531C68.3665 29.2594 68.5728 29.1375 68.7103 28.9875C71.8478 25.5062 73.4165 23.7437 73.4165 23.7L71.954 20.25C71.804 19.8875 71.6821 19.6125 71.5884 19.425C71.4946 19.2312 71.4009 19.075 71.3071 18.9562C71.2134 18.8375 71.0853 18.7125 70.9228 18.5812C70.8103 18.4812 70.6353 18.3875 70.3978 18.3C70.1603 18.2125 69.9853 18.1687 69.8728 18.1687C69.8478 18.1687 69.8353 18.1375 69.8353 18.075C69.8353 17.8687 69.879 17.7312 69.9665 17.6625C70.0665 17.6687 70.2478 17.6812 70.5103 17.7C70.7728 17.7187 71.0571 17.7375 71.3634 17.7562C71.6696 17.7687 71.9353 17.775 72.1603 17.775ZM85.7039 22.0128H80.0975V20.8224L82.2671 18.6912C82.7535 18.2304 83.1183 17.8528 83.3615 17.5584C83.6175 17.264 83.7903 17.0016 83.8799 16.7712C83.9823 16.528 84.0335 16.2784 84.0335 16.0224C84.0335 15.664 83.9247 15.3952 83.7071 15.216C83.5023 15.024 83.2271 14.928 82.8815 14.928C82.5359 14.928 82.2095 14.9984 81.9023 15.1392C81.6079 15.28 81.2943 15.4848 80.9615 15.7536L80.1359 14.7168C80.5199 14.384 80.9423 14.1216 81.4031 13.9296C81.8639 13.7248 82.3887 13.6224 82.9775 13.6224C83.7967 13.6224 84.4431 13.8272 84.9167 14.2368C85.4031 14.6336 85.6463 15.1904 85.6463 15.9072C85.6463 16.3168 85.5631 16.6944 85.3967 17.04C85.2431 17.3856 84.9999 17.7376 84.6671 18.096C84.3471 18.4544 83.9503 18.864 83.4767 19.3248L82.0943 20.6112H85.7039V22.0128ZM93.9479 22.992C93.9479 22.416 94.0375 21.9552 94.2167 21.6096C94.4087 21.2512 94.6647 20.9952 94.9847 20.8416C95.3175 20.688 95.6823 20.6112 96.0791 20.6112C96.4759 20.6112 96.8343 20.688 97.1543 20.8416C97.4743 20.9952 97.7303 21.2512 97.9223 21.6096C98.1143 21.9552 98.2103 22.416 98.2103 22.992C98.2103 23.5552 98.1143 24.016 97.9223 24.3744C97.7303 24.72 97.4743 24.976 97.1543 25.1424C96.8343 25.296 96.4759 25.3728 96.0791 25.3728C95.6823 25.3728 95.3175 25.296 94.9847 25.1424C94.6647 24.976 94.4087 24.72 94.2167 24.3744C94.0375 24.016 93.9479 23.5552 93.9479 22.992ZM110.403 17.775C110.528 17.775 111.303 17.7375 112.728 17.6625V17.7562C112.728 18.0312 112.684 18.1687 112.597 18.1687C112.472 18.1687 112.315 18.2 112.128 18.2625C111.94 18.3187 111.775 18.4062 111.631 18.525C111.487 18.6375 111.415 18.7812 111.415 18.9562C111.415 19.0687 111.44 19.2062 111.49 19.3687L112.784 23.3437C112.865 23.2375 112.978 23.0937 113.122 22.9125C113.265 22.725 113.437 22.5 113.637 22.2375C113.837 21.975 114.015 21.7406 114.172 21.5344C114.334 21.3281 114.468 21.1531 114.575 21.0094C114.681 20.8656 114.797 20.7094 114.922 20.5406C115.047 20.3719 115.178 20.1937 115.315 20.0062C115.515 19.7312 115.697 19.4687 115.859 19.2187C116.022 18.9687 116.103 18.8125 116.103 18.75C116.09 18.5875 115.956 18.45 115.7 18.3375C115.443 18.225 115.19 18.1687 114.94 18.1687C114.915 18.1687 114.903 18.1312 114.903 18.0562C114.903 17.8625 114.947 17.7312 115.034 17.6625C115.134 17.6625 115.384 17.6812 115.784 17.7187C116.19 17.7562 116.515 17.775 116.759 17.775C116.822 17.775 117.565 17.7375 118.99 17.6625C119.003 17.7 119.009 17.7312 119.009 17.7562C119.009 18.0312 118.965 18.1687 118.878 18.1687C118.797 18.1687 118.653 18.1969 118.447 18.2531C118.24 18.3094 118.031 18.3812 117.818 18.4687C117.612 18.5562 117.459 18.65 117.359 18.75C117.309 18.8 117.172 18.9719 116.947 19.2656C116.722 19.5594 116.443 19.9219 116.112 20.3531C115.787 20.7844 115.447 21.2406 115.09 21.7219C114.74 22.1969 114.409 22.65 114.097 23.0812C113.79 23.5125 113.537 23.8719 113.337 24.1594C113.137 24.4469 113.034 24.6125 113.028 24.6562L112.503 27.3937C112.365 28.0625 112.297 28.625 112.297 29.0812C112.297 29.1812 112.381 29.2719 112.55 29.3531C112.718 29.4344 112.89 29.4875 113.065 29.5125L113.309 29.55C113.334 29.55 113.347 29.575 113.347 29.625C113.347 29.7625 113.309 29.9062 113.234 30.0563C112.653 30.025 112.2 30.0031 111.875 29.9906C111.55 29.9719 111.353 29.9625 111.284 29.9625C111.265 29.9625 111.081 29.9719 110.731 29.9906C110.387 30.0031 109.878 30.025 109.203 30.0563C109.19 30.0438 109.184 30 109.184 29.925C109.184 29.675 109.228 29.55 109.315 29.55C109.409 29.55 109.543 29.5312 109.718 29.4937C109.893 29.45 110.059 29.3969 110.215 29.3344C110.378 29.2656 110.478 29.2 110.515 29.1375C110.672 28.8687 110.828 28.3062 110.984 27.45L111.472 24.7875C111.484 24.7375 111.359 24.2969 111.097 23.4656C110.965 23.0469 110.831 22.6344 110.693 22.2281C110.562 21.8156 110.428 21.4062 110.29 21L109.897 19.7812C109.709 19.2062 109.465 18.8062 109.165 18.5812C109.04 18.4937 108.859 18.4031 108.622 18.3094C108.384 18.2156 108.215 18.1687 108.115 18.1687C108.09 18.1687 108.078 18.1375 108.078 18.075C108.078 17.8687 108.122 17.7312 108.209 17.6625C108.309 17.6687 108.49 17.6812 108.753 17.7C109.015 17.7187 109.3 17.7375 109.606 17.7562C109.912 17.7687 110.178 17.775 110.403 17.775ZM122.566 21.4312C122.566 22.6187 122.419 23.7969 122.126 24.9656C121.832 26.1344 121.466 27.1406 121.029 27.9844C120.81 28.4031 120.585 28.8031 120.354 29.1844C120.123 29.5656 119.885 29.9219 119.641 30.2531C119.248 30.7906 118.835 31.2594 118.404 31.6594C117.973 32.0656 117.629 32.2688 117.373 32.2688C117.26 32.2688 117.204 32.1563 117.204 31.9313C117.204 31.8375 117.223 31.7875 117.26 31.7813C117.435 31.7 117.682 31.475 118.001 31.1063C118.319 30.7375 118.679 30.225 119.079 29.5687C119.473 28.9187 119.851 28.1781 120.213 27.3469C120.569 26.5281 120.866 25.5594 121.104 24.4406C121.341 23.3219 121.46 22.1937 121.46 21.0562C121.46 19.8937 121.344 18.8906 121.113 18.0469C120.882 17.2031 120.591 16.6812 120.241 16.4812C120.229 16.4687 120.223 16.4562 120.223 16.4437C120.223 16.3812 120.26 16.2875 120.335 16.1625C120.41 16.0375 120.479 15.975 120.541 15.975C121.029 15.975 121.488 16.5 121.919 17.55C122.351 18.6 122.566 19.8937 122.566 21.4312Z" fill="black"/>
<path d="M46.516 31C46.5407 30.371 46.553 29.742 46.553 29.113C46.5653 28.484 46.5715 27.8488 46.5715 27.2075C46.5715 26.5538 46.5715 25.9063 46.5715 25.265V24.3585C46.5715 23.7172 46.5715 23.0758 46.5715 22.4345C46.5715 21.7932 46.5653 21.1518 46.553 20.5105C46.553 19.8692 46.5407 19.234 46.516 18.605H48.403C48.3907 19.2217 48.3783 19.8507 48.366 20.492C48.3537 21.1333 48.3475 21.7747 48.3475 22.416C48.3475 23.0573 48.3475 23.7048 48.3475 24.3585V25.265C48.3475 25.894 48.3475 26.5292 48.3475 27.1705C48.3475 27.8118 48.3537 28.4532 48.366 29.0945C48.3783 29.7235 48.3907 30.3587 48.403 31H46.516ZM53.9715 31C53.9962 30.371 54.0085 29.742 54.0085 29.113C54.0208 28.484 54.027 27.8488 54.027 27.2075C54.027 26.5538 54.027 25.9063 54.027 25.265V24.3585C54.027 23.7172 54.027 23.0758 54.027 22.4345C54.027 21.7932 54.0208 21.1518 54.0085 20.5105C54.0085 19.8692 53.9962 19.234 53.9715 18.605H55.8585C55.8462 19.2217 55.8338 19.8507 55.8215 20.492C55.8092 21.1333 55.803 21.7747 55.803 22.416C55.803 23.0573 55.803 23.7048 55.803 24.3585V25.265C55.803 25.894 55.803 26.5292 55.803 27.1705C55.803 27.8118 55.8092 28.4532 55.8215 29.0945C55.8338 29.7235 55.8462 30.3587 55.8585 31H53.9715ZM44.7955 31V30.186L47.2375 29.9455H47.663L50.0865 30.186V31H44.7955ZM52.288 31V30.186L54.693 29.9455H55.137L57.5975 30.186V31H52.288ZM44.7955 19.419V18.605H47.367V19.6595H47.182L44.7955 19.419ZM55.0075 19.6595V18.605H57.5975V19.419L55.1925 19.6595H55.0075ZM47.4595 19.493V18.605H54.915V19.493H47.4595Z" fill="black"/>
<path d="M36.5 35.5H127.5" stroke="black" stroke-linecap="square"/>
</svg>
