<svg width="150" height="52" viewBox="0 0 150 52" fill="none" xmlns="http://www.w3.org/2000/svg">
<path d="M47.3188 37.9625C47.6563 37.9625 47.9656 38.0656 48.2469 38.2719C48.5344 38.4719 48.75 38.7531 48.8938 39.1156C49.0375 39.4719 49.0625 39.8875 48.9688 40.3625C48.8563 40.9125 48.6406 41.3781 48.3219 41.7594C48.0031 42.1406 47.575 42.5187 47.0375 42.8937C47.2875 42.9937 47.525 43.1281 47.75 43.2969C47.975 43.4656 48.1906 43.6812 48.3969 43.9437C48.6031 44.2062 48.75 44.5281 48.8375 44.9094C48.925 45.2906 48.925 45.7 48.8375 46.1375C48.6875 46.925 48.3781 47.6156 47.9094 48.2094C47.4406 48.8031 46.8688 49.2656 46.1938 49.5969C45.5188 49.9281 44.7938 50.0938 44.0188 50.0938C43.0313 50.0938 42.3125 49.9062 41.8625 49.5312C41.825 49.4937 41.8 49.4125 41.7875 49.2875C41.775 49.1625 41.775 49.0625 41.7875 48.9875C41.9188 48.4 42.1938 48.1062 42.6125 48.1062C42.7813 48.1062 42.9313 48.2125 43.0625 48.425C43.2 48.6312 43.3375 48.8062 43.475 48.95C43.7688 49.2125 44.1813 49.3437 44.7125 49.3437C45.175 49.3437 45.6469 49.1531 46.1281 48.7719C46.3719 48.5781 46.5938 48.2969 46.7938 47.9281C46.9938 47.5594 47.1438 47.125 47.2438 46.625C47.3438 46.1312 47.3281 45.6875 47.1969 45.2937C47.0719 44.8937 46.8656 44.575 46.5781 44.3375C46.2906 44.1 45.95 43.9812 45.5563 43.9812C45.1438 43.9812 44.7563 44.025 44.3938 44.1125C44.3188 43.9937 44.3063 43.8312 44.3563 43.625C44.3688 43.5875 44.3813 43.5531 44.3938 43.5219C44.4063 43.4906 44.4188 43.4625 44.4313 43.4375C45.2688 43.2875 45.9688 42.9875 46.5313 42.5375C47.0938 42.0875 47.45 41.475 47.6 40.7C47.6875 40.275 47.6094 39.8969 47.3656 39.5656C47.1219 39.2344 46.8 39.0687 46.4 39.0687C46.15 39.0687 45.9063 39.1156 45.6688 39.2094C45.4313 39.3031 45.25 39.4 45.125 39.5C45.0125 39.5875 44.8969 39.6906 44.7781 39.8094C44.6594 39.9281 44.575 40 44.525 40.025C44.475 40.025 44.4406 39.9656 44.4219 39.8469C44.4031 39.7281 44.4 39.625 44.4125 39.5375C44.825 39.0375 45.2563 38.65 45.7063 38.375C46.1563 38.1 46.6938 37.9625 47.3188 37.9625Z" fill="black"/>
<path d="M4.35 25.7375C4.55625 25.7375 4.82813 25.7312 5.16563 25.7187C5.50938 25.7062 5.91875 25.6875 6.39375 25.6625V25.7187C6.39375 26.0187 6.35 26.1687 6.2625 26.1687C5.825 26.1687 5.52813 26.2219 5.37188 26.3281C5.21563 26.4344 5.1375 26.6125 5.1375 26.8625C5.1375 27.0125 5.1625 27.2125 5.2125 27.4625L6.65625 35.3187L11.1563 27.6125C11.3063 27.35 11.3813 27.05 11.3813 26.7125C11.3813 26.55 11.275 26.4187 11.0625 26.3187C10.85 26.2187 10.6188 26.1687 10.3688 26.1687C10.3438 26.1687 10.3313 26.1375 10.3313 26.075C10.3313 25.8687 10.375 25.7312 10.4625 25.6625C10.9125 25.6875 11.2813 25.7062 11.5688 25.7187C11.8625 25.7312 12.075 25.7375 12.2063 25.7375C12.35 25.7375 12.575 25.7312 12.8813 25.7187C13.1938 25.7062 13.5875 25.6875 14.0625 25.6625V25.775C14.0375 26.0375 13.9875 26.1687 13.9125 26.1687C13.675 26.1687 13.4063 26.25 13.1063 26.4125C12.8063 26.575 12.5625 26.8187 12.375 27.1437L6.2625 37.6437C6.03125 38.0563 5.79375 38.2625 5.55 38.2625C5.4875 38.2625 5.43125 38.225 5.38125 38.15L3.525 27.6687C3.45 27.2437 3.35625 26.9 3.24375 26.6375C3.18125 26.5 3.04063 26.3875 2.82188 26.3C2.60313 26.2125 2.425 26.1687 2.2875 26.1687C2.2625 26.1687 2.25 26.1375 2.25 26.075C2.25 25.8687 2.29375 25.7312 2.38125 25.6625C2.89375 25.6875 3.3125 25.7062 3.6375 25.7187C3.96875 25.7312 4.20625 25.7375 4.35 25.7375ZM26.8395 33.1437H19.0395C18.9895 33.1437 18.9645 33.1062 18.9645 33.0312C18.9645 32.9937 18.9864 32.9 19.0301 32.75C19.0801 32.5937 19.1364 32.4469 19.1989 32.3094C19.2676 32.1656 19.327 32.0937 19.377 32.0937H27.1583C27.2333 32.0937 27.2708 32.125 27.2708 32.1875C27.2708 32.2625 27.1645 32.5437 26.952 33.0312C26.927 33.1062 26.8895 33.1437 26.8395 33.1437ZM26.427 35.6937L26.2957 35.8062H18.5145C18.452 35.8062 18.4207 35.7687 18.4207 35.6937C18.4207 35.65 18.4457 35.5531 18.4957 35.4031C18.5457 35.2531 18.6051 35.1094 18.6739 34.9719C18.7426 34.8281 18.802 34.7562 18.852 34.7562H26.652C26.727 34.7562 26.7645 34.7875 26.7645 34.85C26.7645 34.875 26.652 35.1562 26.427 35.6937Z" fill="black"/>
<path d="M83.1689 33.992C83.1689 33.416 83.2585 32.9552 83.4377 32.6096C83.6297 32.2512 83.8857 31.9952 84.2057 31.8416C84.5385 31.688 84.9033 31.6112 85.3001 31.6112C85.6969 31.6112 86.0553 31.688 86.3753 31.8416C86.6953 31.9952 86.9513 32.2512 87.1433 32.6096C87.3353 32.9552 87.4313 33.416 87.4313 33.992C87.4313 34.5552 87.3353 35.016 87.1433 35.3744C86.9513 35.72 86.6953 35.976 86.3753 36.1424C86.0553 36.296 85.6969 36.3728 85.3001 36.3728C84.9033 36.3728 84.5385 36.296 84.2057 36.1424C83.8857 35.976 83.6297 35.72 83.4377 35.3744C83.2585 35.016 83.1689 34.5552 83.1689 33.992ZM102.324 28.6625C102.674 28.6625 103.03 28.7031 103.393 28.7844C103.755 28.8656 104.114 28.9969 104.471 29.1781C104.827 29.3594 105.118 29.625 105.343 29.975C105.568 30.325 105.68 30.7375 105.68 31.2125C105.68 31.6 105.596 31.9812 105.427 32.3562C105.258 32.7312 105.058 33.0469 104.827 33.3031C104.577 33.5719 104.308 33.8156 104.021 34.0344C103.714 34.2656 103.455 34.4406 103.243 34.5594C103.03 34.6781 102.836 34.7812 102.661 34.8687C102.549 34.9062 102.518 34.9812 102.568 35.0937C102.73 35.6437 102.924 36.2125 103.149 36.8C103.374 37.3875 103.605 37.9312 103.843 38.4312C104.08 38.925 104.293 39.3187 104.48 39.6125C104.586 39.7875 104.708 39.9437 104.846 40.0812C104.983 40.2125 105.118 40.3 105.249 40.3437C105.286 40.3562 105.318 40.3687 105.343 40.3812C105.374 40.3875 105.399 40.3969 105.418 40.4094C105.449 40.4219 105.508 40.4344 105.596 40.4469C105.652 40.4531 105.739 40.4562 105.858 40.4562C105.983 40.4562 106.061 40.4562 106.093 40.4562C106.18 40.6937 106.186 40.8687 106.111 40.9812C105.818 41.0438 105.455 41.075 105.024 41.075C104.193 41.075 103.511 40.6687 102.98 39.8562C102.711 39.45 102.424 38.8781 102.118 38.1406C101.811 37.4031 101.486 36.5 101.143 35.4312C101.08 35.2562 100.805 35.1687 100.318 35.1687C99.93 35.1687 99.6738 35.1844 99.5488 35.2156C99.4425 35.2406 99.3738 35.3312 99.3425 35.4875L98.7988 38.3937C98.6613 39.0625 98.5925 39.625 98.5925 40.0812C98.5925 40.1812 98.6769 40.2719 98.8456 40.3531C99.0144 40.4344 99.18 40.4875 99.3425 40.5125L99.605 40.55C99.63 40.55 99.6425 40.575 99.6425 40.625C99.6425 40.7625 99.605 40.9062 99.53 41.0563C98.9488 41.025 98.4956 41.0031 98.1706 40.9906C97.8456 40.9719 97.6488 40.9625 97.58 40.9625C97.5613 40.9625 97.38 40.9719 97.0363 40.9906C96.6925 41.0031 96.1863 41.025 95.5175 41.0563C95.4925 41.0313 95.48 40.9812 95.48 40.9062C95.48 40.6687 95.5238 40.55 95.6113 40.55C95.7113 40.55 95.8488 40.5312 96.0238 40.4937C96.205 40.4562 96.3738 40.4062 96.53 40.3437C96.6863 40.2812 96.78 40.2125 96.8113 40.1375C96.9425 39.8187 97.105 39.2187 97.2988 38.3375L98.8363 30.575C98.8988 30.2625 98.93 29.95 98.93 29.6375C98.93 29.4875 98.805 29.3719 98.555 29.2906C98.305 29.2094 98.0988 29.1687 97.9363 29.1687C97.9113 29.1687 97.8988 29.125 97.8988 29.0375C97.8988 28.8562 97.9425 28.7312 98.03 28.6625C98.5675 28.7 99.2175 28.7187 99.98 28.7187C100.33 28.7187 100.721 28.7094 101.152 28.6906C101.583 28.6719 101.974 28.6625 102.324 28.6625ZM102.024 29.3562C101.386 29.3562 100.983 29.375 100.814 29.4125C100.652 29.45 100.555 29.55 100.524 29.7125L99.6238 34.0812V34.1187C99.6238 34.3062 99.9175 34.4 100.505 34.4C101.074 34.4 101.624 34.2906 102.155 34.0719C102.68 33.8531 103.133 33.4844 103.514 32.9656C103.896 32.4469 104.086 31.8312 104.086 31.1187C104.086 29.9437 103.399 29.3562 102.024 29.3562ZM112.83 33.0128H107.224V31.8224L109.393 29.6912C109.88 29.2304 110.244 28.8528 110.488 28.5584C110.744 28.264 110.916 28.0016 111.006 27.7712C111.108 27.528 111.16 27.2784 111.16 27.0224C111.16 26.664 111.051 26.3952 110.833 26.216C110.628 26.024 110.353 25.928 110.008 25.928C109.662 25.928 109.336 25.9984 109.028 26.1392C108.734 26.28 108.42 26.4848 108.088 26.7536L107.262 25.7168C107.646 25.384 108.068 25.1216 108.529 24.9296C108.99 24.7248 109.515 24.6224 110.104 24.6224C110.923 24.6224 111.569 24.8272 112.043 25.2368C112.529 25.6336 112.772 26.1904 112.772 26.9072C112.772 27.3168 112.689 27.6944 112.523 28.04C112.369 28.3856 112.126 28.7376 111.793 29.096C111.473 29.4544 111.076 29.864 110.603 30.3248L109.22 31.6112H112.83V33.0128ZM121.074 33.992C121.074 33.416 121.164 32.9552 121.343 32.6096C121.535 32.2512 121.791 31.9952 122.111 31.8416C122.444 31.688 122.808 31.6112 123.205 31.6112C123.602 31.6112 123.96 31.688 124.28 31.8416C124.6 31.9952 124.856 32.2512 125.048 32.6096C125.24 32.9552 125.336 33.416 125.336 33.992C125.336 34.5552 125.24 35.016 125.048 35.3744C124.856 35.72 124.6 35.976 124.28 36.1424C123.96 36.296 123.602 36.3728 123.205 36.3728C122.808 36.3728 122.444 36.296 122.111 36.1424C121.791 35.976 121.535 35.72 121.343 35.3744C121.164 35.016 121.074 34.5552 121.074 33.992ZM140.398 34.1562C142.029 34.1562 142.848 34.1062 142.854 34.0062L143.36 31.4C143.498 30.7312 143.566 30.1562 143.566 29.675C143.566 29.5812 143.501 29.4969 143.369 29.4219C143.244 29.3469 143.098 29.2875 142.929 29.2437C142.766 29.1937 142.629 29.1687 142.516 29.1687C142.491 29.1687 142.479 29.1375 142.479 29.075C142.479 28.9 142.529 28.7625 142.629 28.6625C142.729 28.6687 142.898 28.6812 143.135 28.7C143.379 28.7187 143.641 28.7375 143.923 28.7562C144.204 28.7687 144.448 28.775 144.654 28.775C144.96 28.775 145.351 28.7562 145.826 28.7187C146.307 28.6812 146.585 28.6625 146.66 28.6625V28.7187C146.66 29.0187 146.616 29.1687 146.529 29.1687C146.466 29.1687 146.348 29.1937 146.173 29.2437C145.998 29.2875 145.829 29.3437 145.666 29.4125C145.504 29.475 145.41 29.5375 145.385 29.6C145.204 30 145.041 30.5812 144.898 31.3437L143.529 38.3937C143.391 39.0625 143.323 39.625 143.323 40.0812C143.323 40.1812 143.407 40.2719 143.576 40.3531C143.744 40.4344 143.916 40.4875 144.091 40.5125L144.335 40.55C144.36 40.55 144.373 40.575 144.373 40.625C144.373 40.7625 144.335 40.9062 144.26 41.0563C143.679 41.025 143.226 41.0031 142.901 40.9906C142.576 40.9719 142.379 40.9625 142.31 40.9625C142.291 40.9625 142.11 40.9719 141.766 40.9906C141.423 41.0031 140.916 41.025 140.248 41.0563C140.223 41.0313 140.21 40.9812 140.21 40.9062C140.21 40.6687 140.254 40.55 140.341 40.55C140.441 40.55 140.579 40.5312 140.754 40.4937C140.935 40.4562 141.104 40.4062 141.26 40.3437C141.416 40.2812 141.51 40.2125 141.541 40.1375C141.723 39.725 141.885 39.125 142.029 38.3375L142.629 35.2437V35.225C142.629 35.1625 142.482 35.1219 142.188 35.1031C141.901 35.0844 141.191 35.075 140.06 35.075C138.266 35.075 137.354 35.15 137.323 35.3L136.723 38.3937C136.585 39.0625 136.516 39.625 136.516 40.0812C136.516 40.1812 136.601 40.2719 136.769 40.3531C136.938 40.4344 137.104 40.4875 137.266 40.5125L137.529 40.55C137.554 40.55 137.566 40.575 137.566 40.625C137.566 40.7625 137.529 40.9062 137.454 41.0563C136.879 41.025 136.429 41.0031 136.104 40.9906C135.779 40.9719 135.579 40.9625 135.504 40.9625C135.491 40.9625 135.313 40.9719 134.969 40.9906C134.626 41.0031 134.116 41.025 133.441 41.0563C133.416 41.0313 133.404 40.9812 133.404 40.9062C133.404 40.6687 133.448 40.55 133.535 40.55C133.635 40.55 133.773 40.5312 133.948 40.4937C134.129 40.4562 134.298 40.4062 134.454 40.3437C134.61 40.2812 134.704 40.2125 134.735 40.1375C134.916 39.725 135.079 39.125 135.223 38.3375L136.554 31.4C136.691 30.7312 136.76 30.1562 136.76 29.675C136.76 29.5812 136.694 29.4969 136.563 29.4219C136.438 29.3469 136.291 29.2875 136.123 29.2437C135.96 29.1937 135.823 29.1687 135.71 29.1687C135.685 29.1687 135.673 29.1375 135.673 29.075C135.673 28.9 135.723 28.7625 135.823 28.6625C135.923 28.6687 136.091 28.6812 136.329 28.7C136.573 28.7187 136.835 28.7375 137.116 28.7562C137.398 28.7687 137.641 28.775 137.848 28.775C138.148 28.775 138.532 28.7562 139.001 28.7187C139.469 28.6812 139.748 28.6625 139.835 28.6625V28.7187C139.835 29.0187 139.791 29.1687 139.704 29.1687C139.641 29.1687 139.519 29.1937 139.338 29.2437C139.163 29.2875 138.991 29.3437 138.823 29.4125C138.66 29.475 138.566 29.5375 138.541 29.6C138.335 30.0812 138.173 30.6625 138.054 31.3437L137.585 33.9875V34.0062C137.585 34.0687 137.751 34.1094 138.082 34.1281C138.413 34.1469 139.185 34.1562 140.398 34.1562Z" fill="black"/>
<path d="M45.7688 20.7C45.7063 20.6625 45.6531 20.5906 45.6094 20.4844C45.5656 20.3781 45.5438 20.2937 45.5438 20.2312C45.5438 20.1937 45.5625 20.1562 45.6 20.1187C47.8563 18.6812 49 17.9625 49.0313 17.9625H49.0688C49.1688 17.9625 49.2188 18.0812 49.2188 18.3187C49.0188 18.7375 48.8438 19.325 48.6938 20.0812L47.2688 27.4687C47.2 27.85 47.15 28.1812 47.1188 28.4625C47.0875 28.7375 47.075 28.9625 47.0813 29.1375C47.0938 29.1937 47.1719 29.2531 47.3156 29.3156C47.4656 29.3719 47.625 29.4187 47.7938 29.4562C47.9688 29.4937 48.0938 29.5125 48.1688 29.5125C48.2063 29.5125 48.2063 29.625 48.1688 29.85C48.1625 29.95 48.1438 30.0188 48.1125 30.0563C47.5375 30.025 47.075 30.0031 46.725 29.9906C46.3813 29.9719 46.15 29.9625 46.0313 29.9625C45.9438 29.9625 45.7281 29.9719 45.3844 29.9906C45.0469 30.0031 44.5813 30.025 43.9875 30.0563C43.95 30.0063 43.95 29.9031 43.9875 29.7469C44.025 29.5906 44.0625 29.5125 44.1 29.5125C44.2125 29.5125 44.3656 29.4937 44.5594 29.4562C44.7531 29.4187 44.9344 29.3719 45.1031 29.3156C45.2719 29.2531 45.3688 29.1937 45.3938 29.1375C45.4875 28.9437 45.5875 28.5875 45.6938 28.0687L47.0063 21.3187C47.0813 20.95 47.1281 20.675 47.1469 20.4937C47.1719 20.2187 47.125 20.0812 47.0063 20.0812C46.9313 20.0812 46.8063 20.125 46.6313 20.2125C46.4625 20.3 46.2938 20.3937 46.125 20.4937C45.9563 20.5937 45.8375 20.6625 45.7688 20.7Z" fill="black"/>
<path d="M65.516 41C65.5407 40.371 65.553 39.742 65.553 39.113C65.5653 38.484 65.5715 37.8488 65.5715 37.2075C65.5715 36.5538 65.5715 35.9063 65.5715 35.265V34.3585C65.5715 33.7172 65.5715 33.0758 65.5715 32.4345C65.5715 31.7932 65.5653 31.1518 65.553 30.5105C65.553 29.8692 65.5407 29.234 65.516 28.605H67.403C67.3907 29.2217 67.3783 29.8507 67.366 30.492C67.3537 31.1333 67.3475 31.7747 67.3475 32.416C67.3475 33.0573 67.3475 33.7048 67.3475 34.3585V35.265C67.3475 35.894 67.3475 36.5292 67.3475 37.1705C67.3475 37.8118 67.3537 38.4532 67.366 39.0945C67.3783 39.7235 67.3907 40.3587 67.403 41H65.516ZM72.9715 41C72.9962 40.371 73.0085 39.742 73.0085 39.113C73.0208 38.484 73.027 37.8488 73.027 37.2075C73.027 36.5538 73.027 35.9063 73.027 35.265V34.3585C73.027 33.7172 73.027 33.0758 73.027 32.4345C73.027 31.7932 73.0208 31.1518 73.0085 30.5105C73.0085 29.8692 72.9962 29.234 72.9715 28.605H74.8585C74.8462 29.2217 74.8338 29.8507 74.8215 30.492C74.8092 31.1333 74.803 31.7747 74.803 32.416C74.803 33.0573 74.803 33.7048 74.803 34.3585V35.265C74.803 35.894 74.803 36.5292 74.803 37.1705C74.803 37.8118 74.8092 38.4532 74.8215 39.0945C74.8338 39.7235 74.8462 40.3587 74.8585 41H72.9715ZM63.7955 41V40.186L66.2375 39.9455H66.663L69.0865 40.186V41H63.7955ZM71.288 41V40.186L73.693 39.9455H74.137L76.5975 40.186V41H71.288ZM63.7955 29.419V28.605H66.367V29.6595H66.182L63.7955 29.419ZM74.0075 29.6595V28.605H76.5975V29.419L74.1925 29.6595H74.0075ZM66.4595 29.493V28.605H73.915V29.493H66.4595Z" fill="black"/>
<path d="M36.4969 34.75H57.003" stroke="black" stroke-linecap="square"/>
</svg>
