<svg width="49" height="32" viewBox="0 0 49 32" fill="none" xmlns="http://www.w3.org/2000/svg">
<path d="M4.35 17.7375C4.55625 17.7375 4.82813 17.7312 5.16563 17.7187C5.50938 17.7062 5.91875 17.6875 6.39375 17.6625V17.7187C6.39375 18.0187 6.35 18.1687 6.2625 18.1687C5.825 18.1687 5.52813 18.2219 5.37188 18.3281C5.21563 18.4344 5.1375 18.6125 5.1375 18.8625C5.1375 19.0125 5.1625 19.2125 5.2125 19.4625L6.65625 27.3187L11.1563 19.6125C11.3063 19.35 11.3813 19.05 11.3813 18.7125C11.3813 18.55 11.275 18.4187 11.0625 18.3187C10.85 18.2187 10.6188 18.1687 10.3688 18.1687C10.3438 18.1687 10.3313 18.1375 10.3313 18.075C10.3313 17.8687 10.375 17.7312 10.4625 17.6625C10.9125 17.6875 11.2813 17.7062 11.5688 17.7187C11.8625 17.7312 12.075 17.7375 12.2063 17.7375C12.35 17.7375 12.575 17.7312 12.8813 17.7187C13.1938 17.7062 13.5875 17.6875 14.0625 17.6625V17.775C14.0375 18.0375 13.9875 18.1687 13.9125 18.1687C13.675 18.1687 13.4063 18.25 13.1063 18.4125C12.8063 18.575 12.5625 18.8187 12.375 19.1437L6.2625 29.6437C6.03125 30.0563 5.79375 30.2625 5.55 30.2625C5.4875 30.2625 5.43125 30.225 5.38125 30.15L3.525 19.6687C3.45 19.2437 3.35625 18.9 3.24375 18.6375C3.18125 18.5 3.04063 18.3875 2.82188 18.3C2.60313 18.2125 2.425 18.1687 2.2875 18.1687C2.2625 18.1687 2.25 18.1375 2.25 18.075C2.25 17.8687 2.29375 17.7312 2.38125 17.6625C2.89375 17.6875 3.3125 17.7062 3.6375 17.7187C3.96875 17.7312 4.20625 17.7375 4.35 17.7375ZM26.8395 25.1437H19.0395C18.9895 25.1437 18.9645 25.1062 18.9645 25.0312C18.9645 24.9937 18.9864 24.9 19.0301 24.75C19.0801 24.5937 19.1364 24.4469 19.1989 24.3094C19.2676 24.1656 19.327 24.0937 19.377 24.0937H27.1583C27.2333 24.0937 27.2708 24.125 27.2708 24.1875C27.2708 24.2625 27.1645 24.5437 26.952 25.0312C26.927 25.1062 26.8895 25.1437 26.8395 25.1437ZM26.427 27.6937L26.2957 27.8062H18.5145C18.452 27.8062 18.4207 27.7687 18.4207 27.6937C18.4207 27.65 18.4457 27.5531 18.4957 27.4031C18.5457 27.2531 18.6051 27.1094 18.6739 26.9719C18.7426 26.8281 18.802 26.7562 18.852 26.7562H26.652C26.727 26.7562 26.7645 26.7875 26.7645 26.85C26.7645 26.875 26.652 27.1562 26.427 27.6937Z" fill="black"/>
<path d="M39.6563 26.775C39.6563 26.4 39.5063 26.0344 39.2063 25.6781C38.9063 25.3219 38.5438 24.9969 38.1188 24.7031C37.9063 24.5594 37.6938 24.4125 37.4813 24.2625C37.2688 24.1125 37.0531 23.9594 36.8344 23.8031C36.4031 23.4969 36.0375 23.1375 35.7375 22.725C35.4375 22.3125 35.2875 21.875 35.2875 21.4125C35.2875 20.6625 35.475 19.9937 35.85 19.4062C36.2313 18.8187 36.7375 18.3562 37.3688 18.0187C38.0063 17.6812 38.7125 17.5125 39.4875 17.5125C39.8188 17.5125 40.2375 17.5812 40.7438 17.7187C41 17.7875 41.225 17.8437 41.4188 17.8875C41.6125 17.925 41.775 17.95 41.9063 17.9625C41.8625 18.3062 41.8188 18.6531 41.775 19.0031C41.7375 19.3469 41.7 19.6937 41.6625 20.0437C41.625 20.4 41.5969 20.6125 41.5781 20.6812C41.5594 20.7437 41.5313 20.775 41.4938 20.775C41.3125 20.775 41.1688 20.7375 41.0625 20.6625C41.0375 20.6562 41.025 20.5812 41.025 20.4375C41.025 20.0437 40.9375 19.6875 40.7625 19.3687C40.5875 19.05 40.3563 18.7969 40.0688 18.6094C39.7813 18.4156 39.4688 18.3187 39.1313 18.3187C38.4188 18.3187 37.8438 18.5344 37.4063 18.9656C36.9688 19.3969 36.75 19.9375 36.75 20.5875C36.75 21.25 37.0563 21.825 37.6688 22.3125C38.0188 22.5875 38.4281 22.8844 38.8969 23.2031C39.3719 23.5156 39.7844 23.8187 40.1344 24.1125C40.3906 24.325 40.6438 24.6281 40.8938 25.0219C41.1438 25.4156 41.2688 25.8312 41.2688 26.2687C41.2688 26.6562 41.175 27.0687 40.9875 27.5062C40.8 27.9437 40.5313 28.3594 40.1813 28.7531C39.8313 29.1469 39.3688 29.4719 38.7938 29.7281C38.2188 29.9844 37.5875 30.1125 36.9 30.1125C36.225 30.1125 35.2313 29.9625 33.9188 29.6625C33.9438 29.2625 33.9625 28.9375 33.975 28.6875C33.9875 28.4312 33.9938 28.25 33.9938 28.1437C33.9938 27.8687 33.9875 27.5937 33.975 27.3187C33.9625 27.0437 33.9563 26.8375 33.9563 26.7C33.9563 26.6125 34.075 26.5687 34.3125 26.5687C34.4313 26.5687 34.55 26.6187 34.6688 26.7187C34.6688 26.9812 34.6969 27.2437 34.7531 27.5062C34.8094 27.7687 34.9156 28.05 35.0719 28.35C35.2281 28.65 35.4781 28.8906 35.8219 29.0719C36.1656 29.2531 36.5813 29.3437 37.0688 29.3437C37.5125 29.3437 37.9313 29.2406 38.325 29.0344C38.7188 28.8281 39.0375 28.5344 39.2813 28.1531C39.5313 27.7656 39.6563 27.3062 39.6563 26.775ZM44.9003 13.6224C45.8091 13.6224 46.4939 13.8208 46.9547 14.2176C47.4155 14.6144 47.6459 15.12 47.6459 15.7344C47.6459 16.2464 47.5051 16.6688 47.2235 17.0016C46.9547 17.3344 46.6283 17.5648 46.2443 17.6928V17.7504C46.7435 17.84 47.1403 18.0512 47.4347 18.384C47.7419 18.704 47.8955 19.1264 47.8955 19.6512C47.8955 20.3936 47.6267 21.0016 47.0891 21.4752C46.5515 21.936 45.7131 22.1664 44.5739 22.1664C44.1003 22.1664 43.6587 22.128 43.2491 22.0512C42.8395 21.9616 42.4427 21.8208 42.0587 21.6288V20.4192C42.4939 20.624 42.9291 20.784 43.3643 20.8992C43.7995 21.0144 44.2091 21.072 44.5931 21.072C45.2587 21.072 45.7451 20.944 46.0523 20.688C46.3595 20.4192 46.5131 20.0608 46.5131 19.6128C46.5131 19.152 46.3275 18.8192 45.9563 18.6144C45.5851 18.3968 45.0667 18.288 44.4011 18.288H43.3067V17.232H44.4011C45.0411 17.232 45.5083 17.1104 45.8027 16.8672C46.1099 16.6112 46.2635 16.2848 46.2635 15.888C46.2635 15.4784 46.1291 15.184 45.8603 15.0048C45.6043 14.8128 45.2907 14.7168 44.9195 14.7168C44.5227 14.7168 44.1515 14.7872 43.8059 14.928C43.4731 15.056 43.1339 15.2288 42.7883 15.4464L42.0971 14.5632C42.4939 14.2688 42.9099 14.0384 43.3451 13.872C43.7931 13.7056 44.3115 13.6224 44.9003 13.6224Z" fill="black"/>
</svg>
