<svg width="123" height="38" viewBox="0 0 123 38" fill="none" xmlns="http://www.w3.org/2000/svg">
<path d="M4.35 17.7375C4.55625 17.7375 4.82813 17.7312 5.16563 17.7187C5.50938 17.7062 5.91875 17.6875 6.39375 17.6625V17.7187C6.39375 18.0187 6.35 18.1687 6.2625 18.1687C5.825 18.1687 5.52813 18.2219 5.37188 18.3281C5.21563 18.4344 5.1375 18.6125 5.1375 18.8625C5.1375 19.0125 5.1625 19.2125 5.2125 19.4625L6.65625 27.3187L11.1563 19.6125C11.3063 19.35 11.3813 19.05 11.3813 18.7125C11.3813 18.55 11.275 18.4187 11.0625 18.3187C10.85 18.2187 10.6188 18.1687 10.3688 18.1687C10.3438 18.1687 10.3313 18.1375 10.3313 18.075C10.3313 17.8687 10.375 17.7312 10.4625 17.6625C10.9125 17.6875 11.2813 17.7062 11.5688 17.7187C11.8625 17.7312 12.075 17.7375 12.2063 17.7375C12.35 17.7375 12.575 17.7312 12.8813 17.7187C13.1938 17.7062 13.5875 17.6875 14.0625 17.6625V17.775C14.0375 18.0375 13.9875 18.1687 13.9125 18.1687C13.675 18.1687 13.4063 18.25 13.1063 18.4125C12.8063 18.575 12.5625 18.8187 12.375 19.1437L6.2625 29.6437C6.03125 30.0563 5.79375 30.2625 5.55 30.2625C5.4875 30.2625 5.43125 30.225 5.38125 30.15L3.525 19.6687C3.45 19.2437 3.35625 18.9 3.24375 18.6375C3.18125 18.5 3.04063 18.3875 2.82188 18.3C2.60313 18.2125 2.425 18.1687 2.2875 18.1687C2.2625 18.1687 2.25 18.1375 2.25 18.075C2.25 17.8687 2.29375 17.7312 2.38125 17.6625C2.89375 17.6875 3.3125 17.7062 3.6375 17.7187C3.96875 17.7312 4.20625 17.7375 4.35 17.7375ZM26.8395 25.1437H19.0395C18.9895 25.1437 18.9645 25.1062 18.9645 25.0312C18.9645 24.9937 18.9864 24.9 19.0301 24.75C19.0801 24.5937 19.1364 24.4469 19.1989 24.3094C19.2676 24.1656 19.327 24.0937 19.377 24.0937H27.1583C27.2333 24.0937 27.2708 24.125 27.2708 24.1875C27.2708 24.2625 27.1645 24.5437 26.952 25.0312C26.927 25.1062 26.8895 25.1437 26.8395 25.1437ZM26.427 27.6937L26.2957 27.8062H18.5145C18.452 27.8062 18.4207 27.7687 18.4207 27.6937C18.4207 27.65 18.4457 27.5531 18.4957 27.4031C18.5457 27.2531 18.6051 27.1094 18.6739 26.9719C18.7426 26.8281 18.802 26.7562 18.852 26.7562H26.652C26.727 26.7562 26.7645 26.7875 26.7645 26.85C26.7645 26.875 26.652 27.1562 26.427 27.6937Z" fill="black"/>
<path d="M56.1689 22.992C56.1689 22.416 56.2585 21.9552 56.4377 21.6096C56.6297 21.2512 56.8857 20.9952 57.2057 20.8416C57.5385 20.688 57.9033 20.6112 58.3001 20.6112C58.6969 20.6112 59.0553 20.688 59.3753 20.8416C59.6953 20.9952 59.9513 21.2512 60.1433 21.6096C60.3353 21.9552 60.4313 22.416 60.4313 22.992C60.4313 23.5552 60.3353 24.016 60.1433 24.3744C59.9513 24.72 59.6953 24.976 59.3753 25.1424C59.0553 25.296 58.6969 25.3728 58.3001 25.3728C57.9033 25.3728 57.5385 25.296 57.2057 25.1424C56.8857 24.976 56.6297 24.72 56.4377 24.3744C56.2585 24.016 56.1689 23.5552 56.1689 22.992ZM75.3238 17.6625C75.6738 17.6625 76.03 17.7031 76.3925 17.7844C76.755 17.8656 77.1144 17.9969 77.4706 18.1781C77.8269 18.3594 78.1175 18.625 78.3425 18.975C78.5675 19.325 78.68 19.7375 78.68 20.2125C78.68 20.6 78.5956 20.9812 78.4269 21.3562C78.2581 21.7312 78.0581 22.0469 77.8269 22.3031C77.5769 22.5719 77.3081 22.8156 77.0206 23.0344C76.7144 23.2656 76.455 23.4406 76.2425 23.5594C76.03 23.6781 75.8363 23.7812 75.6613 23.8687C75.5488 23.9062 75.5175 23.9812 75.5675 24.0937C75.73 24.6437 75.9238 25.2125 76.1488 25.8C76.3738 26.3875 76.605 26.9312 76.8425 27.4312C77.08 27.925 77.2925 28.3187 77.48 28.6125C77.5863 28.7875 77.7081 28.9437 77.8456 29.0812C77.9831 29.2125 78.1175 29.3 78.2488 29.3437C78.2863 29.3562 78.3175 29.3687 78.3425 29.3812C78.3738 29.3875 78.3988 29.3969 78.4175 29.4094C78.4488 29.4219 78.5081 29.4344 78.5956 29.4469C78.6519 29.4531 78.7394 29.4562 78.8581 29.4562C78.9831 29.4562 79.0613 29.4562 79.0925 29.4562C79.18 29.6937 79.1863 29.8687 79.1113 29.9812C78.8175 30.0438 78.455 30.075 78.0238 30.075C77.1925 30.075 76.5113 29.6687 75.98 28.8562C75.7113 28.45 75.4238 27.8781 75.1175 27.1406C74.8113 26.4031 74.4863 25.5 74.1425 24.4312C74.08 24.2562 73.805 24.1687 73.3175 24.1687C72.93 24.1687 72.6738 24.1844 72.5488 24.2156C72.4425 24.2406 72.3738 24.3312 72.3425 24.4875L71.7988 27.3937C71.6613 28.0625 71.5925 28.625 71.5925 29.0812C71.5925 29.1812 71.6769 29.2719 71.8456 29.3531C72.0144 29.4344 72.18 29.4875 72.3425 29.5125L72.605 29.55C72.63 29.55 72.6425 29.575 72.6425 29.625C72.6425 29.7625 72.605 29.9062 72.53 30.0563C71.9488 30.025 71.4956 30.0031 71.1706 29.9906C70.8456 29.9719 70.6488 29.9625 70.58 29.9625C70.5613 29.9625 70.38 29.9719 70.0363 29.9906C69.6925 30.0031 69.1863 30.025 68.5175 30.0563C68.4925 30.0313 68.48 29.9812 68.48 29.9062C68.48 29.6687 68.5238 29.55 68.6113 29.55C68.7113 29.55 68.8488 29.5312 69.0238 29.4937C69.205 29.4562 69.3738 29.4062 69.53 29.3437C69.6863 29.2812 69.78 29.2125 69.8113 29.1375C69.9425 28.8187 70.105 28.2187 70.2988 27.3375L71.8363 19.575C71.8988 19.2625 71.93 18.95 71.93 18.6375C71.93 18.4875 71.805 18.3719 71.555 18.2906C71.305 18.2094 71.0988 18.1687 70.9363 18.1687C70.9113 18.1687 70.8988 18.125 70.8988 18.0375C70.8988 17.8562 70.9425 17.7312 71.03 17.6625C71.5675 17.7 72.2175 17.7187 72.98 17.7187C73.33 17.7187 73.7206 17.7094 74.1519 17.6906C74.5831 17.6719 74.9738 17.6625 75.3238 17.6625ZM75.0238 18.3562C74.3863 18.3562 73.9831 18.375 73.8144 18.4125C73.6519 18.45 73.555 18.55 73.5238 18.7125L72.6238 23.0812V23.1187C72.6238 23.3062 72.9175 23.4 73.505 23.4C74.0738 23.4 74.6238 23.2906 75.155 23.0719C75.68 22.8531 76.1331 22.4844 76.5144 21.9656C76.8956 21.4469 77.0863 20.8312 77.0863 20.1187C77.0863 18.9437 76.3988 18.3562 75.0238 18.3562ZM85.8299 22.0128H80.2235V20.8224L82.3931 18.6912C82.8795 18.2304 83.2443 17.8528 83.4875 17.5584C83.7435 17.264 83.9163 17.0016 84.0059 16.7712C84.1083 16.528 84.1595 16.2784 84.1595 16.0224C84.1595 15.664 84.0507 15.3952 83.8331 15.216C83.6283 15.024 83.3531 14.928 83.0075 14.928C82.6619 14.928 82.3355 14.9984 82.0283 15.1392C81.7339 15.28 81.4203 15.4848 81.0875 15.7536L80.2619 14.7168C80.6459 14.384 81.0683 14.1216 81.5291 13.9296C81.9899 13.7248 82.5147 13.6224 83.1035 13.6224C83.9227 13.6224 84.5691 13.8272 85.0427 14.2368C85.5291 14.6336 85.7723 15.1904 85.7723 15.9072C85.7723 16.3168 85.6891 16.6944 85.5227 17.04C85.3691 17.3856 85.1259 17.7376 84.7931 18.096C84.4731 18.4544 84.0763 18.864 83.6027 19.3248L82.2203 20.6112H85.8299V22.0128ZM94.0739 22.992C94.0739 22.416 94.1635 21.9552 94.3427 21.6096C94.5347 21.2512 94.7907 20.9952 95.1107 20.8416C95.4435 20.688 95.8083 20.6112 96.2051 20.6112C96.6019 20.6112 96.9603 20.688 97.2803 20.8416C97.6003 20.9952 97.8563 21.2512 98.0483 21.6096C98.2403 21.9552 98.3363 22.416 98.3363 22.992C98.3363 23.5552 98.2403 24.016 98.0483 24.3744C97.8563 24.72 97.6003 24.976 97.2803 25.1424C96.9603 25.296 96.6019 25.3728 96.2051 25.3728C95.8083 25.3728 95.4435 25.296 95.1107 25.1424C94.7907 24.976 94.5347 24.72 94.3427 24.3744C94.1635 24.016 94.0739 23.5552 94.0739 22.992ZM113.398 23.1562C115.029 23.1562 115.848 23.1062 115.854 23.0062L116.36 20.4C116.498 19.7312 116.566 19.1562 116.566 18.675C116.566 18.5812 116.501 18.4969 116.369 18.4219C116.244 18.3469 116.098 18.2875 115.929 18.2437C115.766 18.1937 115.629 18.1687 115.516 18.1687C115.491 18.1687 115.479 18.1375 115.479 18.075C115.479 17.9 115.529 17.7625 115.629 17.6625C115.729 17.6687 115.898 17.6812 116.135 17.7C116.379 17.7187 116.641 17.7375 116.923 17.7562C117.204 17.7687 117.448 17.775 117.654 17.775C117.96 17.775 118.351 17.7562 118.826 17.7187C119.307 17.6812 119.585 17.6625 119.66 17.6625V17.7187C119.66 18.0187 119.616 18.1687 119.529 18.1687C119.466 18.1687 119.348 18.1937 119.173 18.2437C118.998 18.2875 118.829 18.3437 118.666 18.4125C118.504 18.475 118.41 18.5375 118.385 18.6C118.204 19 118.041 19.5812 117.898 20.3437L116.529 27.3937C116.391 28.0625 116.323 28.625 116.323 29.0812C116.323 29.1812 116.407 29.2719 116.576 29.3531C116.744 29.4344 116.916 29.4875 117.091 29.5125L117.335 29.55C117.36 29.55 117.373 29.575 117.373 29.625C117.373 29.7625 117.335 29.9062 117.26 30.0563C116.679 30.025 116.226 30.0031 115.901 29.9906C115.576 29.9719 115.379 29.9625 115.31 29.9625C115.291 29.9625 115.11 29.9719 114.766 29.9906C114.423 30.0031 113.916 30.025 113.248 30.0563C113.223 30.0313 113.21 29.9812 113.21 29.9062C113.21 29.6687 113.254 29.55 113.341 29.55C113.441 29.55 113.579 29.5312 113.754 29.4937C113.935 29.4562 114.104 29.4062 114.26 29.3437C114.416 29.2812 114.51 29.2125 114.541 29.1375C114.723 28.725 114.885 28.125 115.029 27.3375L115.629 24.2437V24.225C115.629 24.1625 115.482 24.1219 115.188 24.1031C114.901 24.0844 114.191 24.075 113.06 24.075C111.266 24.075 110.354 24.15 110.323 24.3L109.723 27.3937C109.585 28.0625 109.516 28.625 109.516 29.0812C109.516 29.1812 109.601 29.2719 109.769 29.3531C109.938 29.4344 110.104 29.4875 110.266 29.5125L110.529 29.55C110.554 29.55 110.566 29.575 110.566 29.625C110.566 29.7625 110.529 29.9062 110.454 30.0563C109.879 30.025 109.429 30.0031 109.104 29.9906C108.779 29.9719 108.579 29.9625 108.504 29.9625C108.491 29.9625 108.313 29.9719 107.969 29.9906C107.626 30.0031 107.116 30.025 106.441 30.0563C106.416 30.0313 106.404 29.9812 106.404 29.9062C106.404 29.6687 106.448 29.55 106.535 29.55C106.635 29.55 106.773 29.5312 106.948 29.4937C107.129 29.4562 107.298 29.4062 107.454 29.3437C107.61 29.2812 107.704 29.2125 107.735 29.1375C107.916 28.725 108.079 28.125 108.223 27.3375L109.554 20.4C109.691 19.7312 109.76 19.1562 109.76 18.675C109.76 18.5812 109.694 18.4969 109.563 18.4219C109.438 18.3469 109.291 18.2875 109.123 18.2437C108.96 18.1937 108.823 18.1687 108.71 18.1687C108.685 18.1687 108.673 18.1375 108.673 18.075C108.673 17.9 108.723 17.7625 108.823 17.6625C108.923 17.6687 109.091 17.6812 109.329 17.7C109.573 17.7187 109.835 17.7375 110.116 17.7562C110.398 17.7687 110.641 17.775 110.848 17.775C111.148 17.775 111.532 17.7562 112.001 17.7187C112.469 17.6812 112.748 17.6625 112.835 17.6625V17.7187C112.835 18.0187 112.791 18.1687 112.704 18.1687C112.641 18.1687 112.519 18.1937 112.338 18.2437C112.163 18.2875 111.991 18.3437 111.823 18.4125C111.66 18.475 111.566 18.5375 111.541 18.6C111.335 19.0812 111.173 19.6625 111.054 20.3437L110.585 22.9875V23.0062C110.585 23.0687 110.751 23.1094 111.082 23.1281C111.413 23.1469 112.185 23.1562 113.398 23.1562Z" fill="black"/>
<path d="M36.516 30C36.5407 29.371 36.553 28.742 36.553 28.113C36.5653 27.484 36.5715 26.8488 36.5715 26.2075C36.5715 25.5538 36.5715 24.9063 36.5715 24.265V23.3585C36.5715 22.7172 36.5715 22.0758 36.5715 21.4345C36.5715 20.7932 36.5653 20.1518 36.553 19.5105C36.553 18.8692 36.5407 18.234 36.516 17.605H38.403C38.3907 18.2217 38.3783 18.8507 38.366 19.492C38.3537 20.1333 38.3475 20.7747 38.3475 21.416C38.3475 22.0573 38.3475 22.7048 38.3475 23.3585V24.265C38.3475 24.894 38.3475 25.5292 38.3475 26.1705C38.3475 26.8118 38.3537 27.4532 38.366 28.0945C38.3783 28.7235 38.3907 29.3587 38.403 30H36.516ZM43.9715 30C43.9962 29.371 44.0085 28.742 44.0085 28.113C44.0208 27.484 44.027 26.8488 44.027 26.2075C44.027 25.5538 44.027 24.9063 44.027 24.265V23.3585C44.027 22.7172 44.027 22.0758 44.027 21.4345C44.027 20.7932 44.0208 20.1518 44.0085 19.5105C44.0085 18.8692 43.9962 18.234 43.9715 17.605H45.8585C45.8462 18.2217 45.8338 18.8507 45.8215 19.492C45.8092 20.1333 45.803 20.7747 45.803 21.416C45.803 22.0573 45.803 22.7048 45.803 23.3585V24.265C45.803 24.894 45.803 25.5292 45.803 26.1705C45.803 26.8118 45.8092 27.4532 45.8215 28.0945C45.8338 28.7235 45.8462 29.3587 45.8585 30H43.9715ZM34.7955 30V29.186L37.2375 28.9455H37.663L40.0865 29.186V30H34.7955ZM42.288 30V29.186L44.693 28.9455H45.137L47.5975 29.186V30H42.288ZM34.7955 18.419V17.605H37.367V18.6595H37.182L34.7955 18.419ZM45.0075 18.6595V17.605H47.5975V18.419L45.1925 18.6595H45.0075ZM37.4595 18.493V17.605H44.915V18.493H37.4595Z" fill="black"/>
</svg>
