<svg width="119" height="38" viewBox="0 0 119 38" fill="none" xmlns="http://www.w3.org/2000/svg">
<path d="M8.175 25.5187C8.175 25.4437 8.09688 25.3969 7.94063 25.3781C7.78438 25.3594 7.55 25.3469 7.2375 25.3406C6.93125 25.3344 6.6125 25.3312 6.28125 25.3312C6.15 25.3312 5.9375 25.3406 5.64375 25.3594C5.35625 25.3719 4.9875 25.3937 4.5375 25.425C4.5 25.425 4.33125 25.675 4.03125 26.175C3.83125 26.5062 3.62813 26.8656 3.42188 27.2531C3.22188 27.6406 3.05313 27.9937 2.91563 28.3125C2.78438 28.625 2.71875 28.8437 2.71875 28.9687C2.71875 29.0937 2.78438 29.2 2.91563 29.2875C3.05313 29.375 3.20313 29.4406 3.36563 29.4844C3.53438 29.5281 3.6625 29.55 3.75 29.55C3.775 29.55 3.7875 29.5875 3.7875 29.6625C3.7875 29.8062 3.75625 29.9375 3.69375 30.0563C3.1125 30.025 2.67188 30.0031 2.37188 29.9906C2.07813 29.9719 1.925 29.9625 1.9125 29.9625C1.8 29.9625 1.61563 29.9687 1.35938 29.9812C1.10313 29.9937 0.85 30.0063 0.6 30.0188C0.35 30.0375 0.175 30.05 0.075 30.0563C0.05 30.0313 0.0375 29.9812 0.0375 29.9062C0.0375 29.6687 0.08125 29.55 0.16875 29.55C0.30625 29.55 0.496875 29.5125 0.740625 29.4375C0.984375 29.3625 1.15625 29.2687 1.25625 29.1562C1.53125 28.85 1.9125 28.2625 2.4 27.3937L7.575 18.0937C7.7625 17.7562 8.00625 17.5875 8.30625 17.5875C8.3625 17.5875 8.4125 17.6 8.45625 17.625L10.0125 27.525C10.1375 28.3125 10.2125 28.7625 10.2375 28.875C10.2625 29 10.3469 29.1156 10.4906 29.2219C10.6344 29.3219 10.7875 29.4031 10.95 29.4656C11.1188 29.5219 11.2438 29.55 11.325 29.55C11.35 29.55 11.3625 29.5812 11.3625 29.6437C11.3625 29.8 11.3313 29.9375 11.2688 30.0563C10.6875 30.025 10.2344 30.0031 9.90938 29.9906C9.58438 29.9719 9.3875 29.9625 9.31875 29.9625C9.2 29.9625 9.08438 29.9656 8.97188 29.9719C8.86563 29.9719 8.75938 29.975 8.65313 29.9812C8.45938 29.9937 8.23125 30.0063 7.96875 30.0188C7.7125 30.0313 7.49375 30.0438 7.3125 30.0563C7.3 30.0438 7.29375 30.0063 7.29375 29.9437C7.29375 29.6812 7.3375 29.55 7.425 29.55C7.55 29.55 7.725 29.5125 7.95 29.4375C8.175 29.3625 8.31875 29.275 8.38125 29.175C8.46875 28.9812 8.5125 28.6875 8.5125 28.2937C8.5125 28.0812 8.4 27.1562 8.175 25.5187ZM6.525 24.4125C6.8125 24.4125 7.07188 24.4094 7.30313 24.4031C7.54063 24.3969 7.75 24.3875 7.93125 24.375C7.98125 24.375 8.00625 24.35 8.00625 24.3C8.00625 24.2187 7.96563 23.925 7.88438 23.4187C7.83438 23.0687 7.775 22.6719 7.70625 22.2281C7.6375 21.7844 7.57188 21.3687 7.50938 20.9812C7.45313 20.5937 7.4125 20.3125 7.3875 20.1375C5.85 22.9187 5.08125 24.325 5.08125 24.3562C5.08125 24.3812 5.0875 24.3937 5.1 24.3937C5.24375 24.4 5.43438 24.4062 5.67188 24.4125C5.90938 24.4125 6.19375 24.4125 6.525 24.4125ZM26.202 25.1437H18.402C18.352 25.1437 18.327 25.1062 18.327 25.0312C18.327 24.9937 18.3489 24.9 18.3926 24.75C18.4426 24.5937 18.4989 24.4469 18.5614 24.3094C18.6301 24.1656 18.6895 24.0937 18.7395 24.0937H26.5208C26.5958 24.0937 26.6333 24.125 26.6333 24.1875C26.6333 24.2625 26.527 24.5437 26.3145 25.0312C26.2895 25.1062 26.252 25.1437 26.202 25.1437ZM25.7895 27.6937L25.6583 27.8062H17.877C17.8145 27.8062 17.7833 27.7687 17.7833 27.6937C17.7833 27.65 17.8083 27.5531 17.8583 27.4031C17.9083 27.2531 17.9676 27.1094 18.0364 26.9719C18.1051 26.8281 18.1645 26.7562 18.2145 26.7562H26.0145C26.0895 26.7562 26.127 26.7875 26.127 26.85C26.127 26.875 26.0145 27.1562 25.7895 27.6937Z" fill="black"/>
<path d="M59.6054 22.992C59.6054 22.416 59.695 21.9552 59.8742 21.6096C60.0662 21.2512 60.3222 20.9952 60.6422 20.8416C60.975 20.688 61.3398 20.6112 61.7366 20.6112C62.1334 20.6112 62.4918 20.688 62.8118 20.8416C63.1318 20.9952 63.3878 21.2512 63.5798 21.6096C63.7718 21.9552 63.8678 22.416 63.8678 22.992C63.8678 23.5552 63.7718 24.016 63.5798 24.3744C63.3878 24.72 63.1318 24.976 62.8118 25.1424C62.4918 25.296 62.1334 25.3728 61.7366 25.3728C61.3398 25.3728 60.975 25.296 60.6422 25.1424C60.3222 24.976 60.0662 24.72 59.8742 24.3744C59.695 24.016 59.6054 23.5552 59.6054 22.992ZM76.904 17.775C77.0165 17.775 77.7853 17.7375 79.2103 17.6625V17.7375C79.2103 18.025 79.1728 18.1687 79.0978 18.1687C78.9853 18.1687 78.8321 18.1969 78.6384 18.2531C78.4509 18.3031 78.279 18.3844 78.1228 18.4969C77.9728 18.6094 77.8978 18.75 77.8978 18.9187C77.8978 19.0687 77.929 19.2187 77.9915 19.3687C78.9228 21.4687 79.3915 22.5187 79.3978 22.5187C79.4228 22.5187 79.6978 22.2375 80.2228 21.675C80.5728 21.3 80.9321 20.9031 81.3009 20.4844C81.6696 20.0656 81.979 19.6937 82.229 19.3687C82.479 19.0437 82.604 18.8375 82.604 18.75C82.604 18.5875 82.4853 18.45 82.2478 18.3375C82.0103 18.225 81.7665 18.1687 81.5165 18.1687C81.4915 18.1687 81.479 18.1375 81.479 18.075C81.479 17.8687 81.5228 17.7312 81.6103 17.6625C82.8853 17.7375 83.579 17.775 83.6915 17.775C83.8228 17.775 83.9478 17.775 84.0665 17.775C84.1915 17.7687 84.3134 17.7625 84.4321 17.7562C84.6634 17.7437 84.904 17.7281 85.154 17.7094C85.404 17.6906 85.6103 17.675 85.7728 17.6625V17.7187C85.7728 18.0187 85.729 18.1687 85.6415 18.1687C85.5415 18.1687 85.3665 18.1937 85.1165 18.2437C84.8665 18.2937 84.6165 18.3625 84.3665 18.45C84.1165 18.5375 83.9415 18.6375 83.8415 18.75C81.104 21.7875 79.7353 23.3187 79.7353 23.3437C79.7353 23.3562 79.904 23.7625 80.2415 24.5625C80.4103 24.9625 80.5884 25.3875 80.7759 25.8375C80.9696 26.2812 81.154 26.7062 81.329 27.1125C81.504 27.5125 81.6571 27.8562 81.7884 28.1437C81.9196 28.4312 82.0103 28.6187 82.0603 28.7062C82.179 28.9062 82.3478 29.0687 82.5665 29.1937C82.7853 29.3187 83.004 29.4094 83.2228 29.4656C83.4478 29.5219 83.6228 29.55 83.7478 29.55C83.7728 29.55 83.7853 29.5812 83.7853 29.6437C83.7853 29.8437 83.7665 29.9812 83.729 30.0563C83.1478 30.025 82.6821 30.0031 82.3321 29.9906C81.9884 29.9719 81.7603 29.9625 81.6478 29.9625C81.6353 29.9625 81.4196 29.9719 81.0009 29.9906C80.5821 30.0031 79.9603 30.025 79.1353 30.0563C79.1103 30.0313 79.0978 29.9812 79.0978 29.9062C79.0978 29.6687 79.1415 29.55 79.229 29.55C79.329 29.55 79.4603 29.525 79.6228 29.475C79.7853 29.4187 79.9321 29.3469 80.0634 29.2594C80.1946 29.1656 80.2603 29.0625 80.2603 28.95C80.2603 28.7812 80.2478 28.6687 80.2228 28.6125C79.0853 25.9 78.5103 24.5437 78.4978 24.5437C78.4853 24.5437 78.1728 24.8906 77.5603 25.5844C77.3603 25.8094 77.104 26.1 76.7915 26.4562C76.4853 26.8125 76.179 27.175 75.8728 27.5437C75.5665 27.9062 75.3071 28.2219 75.0946 28.4906C74.8884 28.7594 74.7853 28.925 74.7853 28.9875C74.7853 29.3625 75.129 29.55 75.8165 29.55C75.8665 29.55 75.8915 29.6062 75.8915 29.7187C75.8915 29.8812 75.8603 29.9937 75.7978 30.0563C75.6915 30.05 75.4759 30.0438 75.1509 30.0375C74.8321 30.0375 74.404 30.0375 73.8665 30.0375C73.2603 30.0375 72.7759 30.0375 72.4134 30.0375C72.0509 30.0438 71.8103 30.05 71.6915 30.0563C71.679 30.0438 71.6728 30.0188 71.6728 29.9812C71.6728 29.6937 71.704 29.55 71.7665 29.55C71.8665 29.55 72.0009 29.5406 72.1696 29.5219C72.3384 29.5031 72.5603 29.4469 72.8353 29.3531C73.1103 29.2594 73.3165 29.1375 73.454 28.9875C76.5915 25.5062 78.1603 23.7437 78.1603 23.7L76.6978 20.25C76.5478 19.8875 76.4259 19.6125 76.3321 19.425C76.2384 19.2312 76.1446 19.075 76.0509 18.9562C75.9571 18.8375 75.829 18.7125 75.6665 18.5812C75.554 18.4812 75.379 18.3875 75.1415 18.3C74.904 18.2125 74.729 18.1687 74.6165 18.1687C74.5915 18.1687 74.579 18.1375 74.579 18.075C74.579 17.8687 74.6228 17.7312 74.7103 17.6625C74.8103 17.6687 74.9915 17.6812 75.254 17.7C75.5165 17.7187 75.8009 17.7375 76.1071 17.7562C76.4134 17.7687 76.679 17.775 76.904 17.775ZM91.4032 22.992C91.4032 22.416 91.4928 21.9552 91.672 21.6096C91.864 21.2512 92.12 20.9952 92.44 20.8416C92.7728 20.688 93.1376 20.6112 93.5344 20.6112C93.9312 20.6112 94.2896 20.688 94.6096 20.8416C94.9296 20.9952 95.1856 21.2512 95.3776 21.6096C95.5696 21.9552 95.6656 22.416 95.6656 22.992C95.6656 23.5552 95.5696 24.016 95.3776 24.3744C95.1856 24.72 94.9296 24.976 94.6096 25.1424C94.2896 25.296 93.9312 25.3728 93.5344 25.3728C93.1376 25.3728 92.7728 25.296 92.44 25.1424C92.12 24.976 91.864 24.72 91.672 24.3744C91.4928 24.016 91.4032 23.5552 91.4032 22.992ZM107.858 17.775C107.983 17.775 108.758 17.7375 110.183 17.6625V17.7562C110.183 18.0312 110.139 18.1687 110.052 18.1687C109.927 18.1687 109.771 18.2 109.583 18.2625C109.396 18.3187 109.23 18.4062 109.086 18.525C108.942 18.6375 108.871 18.7812 108.871 18.9562C108.871 19.0687 108.896 19.2062 108.946 19.3687L110.239 23.3437C110.321 23.2375 110.433 23.0937 110.577 22.9125C110.721 22.725 110.892 22.5 111.092 22.2375C111.292 21.975 111.471 21.7406 111.627 21.5344C111.789 21.3281 111.924 21.1531 112.03 21.0094C112.136 20.8656 112.252 20.7094 112.377 20.5406C112.502 20.3719 112.633 20.1937 112.771 20.0062C112.971 19.7312 113.152 19.4687 113.314 19.2187C113.477 18.9687 113.558 18.8125 113.558 18.75C113.546 18.5875 113.411 18.45 113.155 18.3375C112.899 18.225 112.646 18.1687 112.396 18.1687C112.371 18.1687 112.358 18.1312 112.358 18.0562C112.358 17.8625 112.402 17.7312 112.489 17.6625C112.589 17.6625 112.839 17.6812 113.239 17.7187C113.646 17.7562 113.971 17.775 114.214 17.775C114.277 17.775 115.021 17.7375 116.446 17.6625C116.458 17.7 116.464 17.7312 116.464 17.7562C116.464 18.0312 116.421 18.1687 116.333 18.1687C116.252 18.1687 116.108 18.1969 115.902 18.2531C115.696 18.3094 115.486 18.3812 115.274 18.4687C115.067 18.5562 114.914 18.65 114.814 18.75C114.764 18.8 114.627 18.9719 114.402 19.2656C114.177 19.5594 113.899 19.9219 113.567 20.3531C113.242 20.7844 112.902 21.2406 112.546 21.7219C112.196 22.1969 111.864 22.65 111.552 23.0812C111.246 23.5125 110.992 23.8719 110.792 24.1594C110.592 24.4469 110.489 24.6125 110.483 24.6562L109.958 27.3937C109.821 28.0625 109.752 28.625 109.752 29.0812C109.752 29.1812 109.836 29.2719 110.005 29.3531C110.174 29.4344 110.346 29.4875 110.521 29.5125L110.764 29.55C110.789 29.55 110.802 29.575 110.802 29.625C110.802 29.7625 110.764 29.9062 110.689 30.0563C110.108 30.025 109.655 30.0031 109.33 29.9906C109.005 29.9719 108.808 29.9625 108.739 29.9625C108.721 29.9625 108.536 29.9719 108.186 29.9906C107.842 30.0031 107.333 30.025 106.658 30.0563C106.646 30.0438 106.639 30 106.639 29.925C106.639 29.675 106.683 29.55 106.771 29.55C106.864 29.55 106.999 29.5312 107.174 29.4937C107.349 29.45 107.514 29.3969 107.671 29.3344C107.833 29.2656 107.933 29.2 107.971 29.1375C108.127 28.8687 108.283 28.3062 108.439 27.45L108.927 24.7875C108.939 24.7375 108.814 24.2969 108.552 23.4656C108.421 23.0469 108.286 22.6344 108.149 22.2281C108.017 21.8156 107.883 21.4062 107.746 21L107.352 19.7812C107.164 19.2062 106.921 18.8062 106.621 18.5812C106.496 18.4937 106.314 18.4031 106.077 18.3094C105.839 18.2156 105.671 18.1687 105.571 18.1687C105.546 18.1687 105.533 18.1375 105.533 18.075C105.533 17.8687 105.577 17.7312 105.664 17.6625C105.764 17.6687 105.946 17.6812 106.208 17.7C106.471 17.7187 106.755 17.7375 107.061 17.7562C107.367 17.7687 107.633 17.775 107.858 17.775Z" fill="black"/>
<path d="M38.516 30C38.5407 29.371 38.553 28.742 38.553 28.113C38.5653 27.484 38.5715 26.8488 38.5715 26.2075C38.5715 25.5538 38.5715 24.9063 38.5715 24.265V23.3585C38.5715 22.7172 38.5715 22.0758 38.5715 21.4345C38.5715 20.7932 38.5653 20.1518 38.553 19.5105C38.553 18.8692 38.5407 18.234 38.516 17.605H40.403C40.3907 18.2217 40.3783 18.8507 40.366 19.492C40.3537 20.1333 40.3475 20.7747 40.3475 21.416C40.3475 22.0573 40.3475 22.7048 40.3475 23.3585V24.265C40.3475 24.894 40.3475 25.5292 40.3475 26.1705C40.3475 26.8118 40.3537 27.4532 40.366 28.0945C40.3783 28.7235 40.3907 29.3587 40.403 30H38.516ZM45.9715 30C45.9962 29.371 46.0085 28.742 46.0085 28.113C46.0208 27.484 46.027 26.8488 46.027 26.2075C46.027 25.5538 46.027 24.9063 46.027 24.265V23.3585C46.027 22.7172 46.027 22.0758 46.027 21.4345C46.027 20.7932 46.0208 20.1518 46.0085 19.5105C46.0085 18.8692 45.9962 18.234 45.9715 17.605H47.8585C47.8462 18.2217 47.8338 18.8507 47.8215 19.492C47.8092 20.1333 47.803 20.7747 47.803 21.416C47.803 22.0573 47.803 22.7048 47.803 23.3585V24.265C47.803 24.894 47.803 25.5292 47.803 26.1705C47.803 26.8118 47.8092 27.4532 47.8215 28.0945C47.8338 28.7235 47.8462 29.3587 47.8585 30H45.9715ZM36.7955 30V29.186L39.2375 28.9455H39.663L42.0865 29.186V30H36.7955ZM44.288 30V29.186L46.693 28.9455H47.137L49.5975 29.186V30H44.288ZM36.7955 18.419V17.605H39.367V18.6595H39.182L36.7955 18.419ZM47.0075 18.6595V17.605H49.5975V18.419L47.1925 18.6595H47.0075ZM39.4595 18.493V17.605H46.915V18.493H39.4595Z" fill="black"/>
</svg>
