<svg width="111" height="38" viewBox="0 0 111 38" fill="none" xmlns="http://www.w3.org/2000/svg">
<path d="M4.35 17.7375C4.55625 17.7375 4.82813 17.7312 5.16563 17.7187C5.50938 17.7062 5.91875 17.6875 6.39375 17.6625V17.7187C6.39375 18.0187 6.35 18.1687 6.2625 18.1687C5.825 18.1687 5.52813 18.2219 5.37188 18.3281C5.21563 18.4344 5.1375 18.6125 5.1375 18.8625C5.1375 19.0125 5.1625 19.2125 5.2125 19.4625L6.65625 27.3187L11.1563 19.6125C11.3063 19.35 11.3813 19.05 11.3813 18.7125C11.3813 18.55 11.275 18.4187 11.0625 18.3187C10.85 18.2187 10.6188 18.1687 10.3688 18.1687C10.3438 18.1687 10.3313 18.1375 10.3313 18.075C10.3313 17.8687 10.375 17.7312 10.4625 17.6625C10.9125 17.6875 11.2813 17.7062 11.5688 17.7187C11.8625 17.7312 12.075 17.7375 12.2063 17.7375C12.35 17.7375 12.575 17.7312 12.8813 17.7187C13.1938 17.7062 13.5875 17.6875 14.0625 17.6625V17.775C14.0375 18.0375 13.9875 18.1687 13.9125 18.1687C13.675 18.1687 13.4063 18.25 13.1063 18.4125C12.8063 18.575 12.5625 18.8187 12.375 19.1437L6.2625 29.6437C6.03125 30.0563 5.79375 30.2625 5.55 30.2625C5.4875 30.2625 5.43125 30.225 5.38125 30.15L3.525 19.6687C3.45 19.2437 3.35625 18.9 3.24375 18.6375C3.18125 18.5 3.04063 18.3875 2.82188 18.3C2.60313 18.2125 2.425 18.1687 2.2875 18.1687C2.2625 18.1687 2.25 18.1375 2.25 18.075C2.25 17.8687 2.29375 17.7312 2.38125 17.6625C2.89375 17.6875 3.3125 17.7062 3.6375 17.7187C3.96875 17.7312 4.20625 17.7375 4.35 17.7375ZM26.8395 25.1437H19.0395C18.9895 25.1437 18.9645 25.1062 18.9645 25.0312C18.9645 24.9937 18.9864 24.9 19.0301 24.75C19.0801 24.5937 19.1364 24.4469 19.1989 24.3094C19.2676 24.1656 19.327 24.0937 19.377 24.0937H27.1583C27.2333 24.0937 27.2708 24.125 27.2708 24.1875C27.2708 24.2625 27.1645 24.5437 26.952 25.0312C26.927 25.1062 26.8895 25.1437 26.8395 25.1437ZM26.427 27.6937L26.2957 27.8062H18.5145C18.452 27.8062 18.4207 27.7687 18.4207 27.6937C18.4207 27.65 18.4457 27.5531 18.4957 27.4031C18.5457 27.2531 18.6051 27.1094 18.6739 26.9719C18.7426 26.8281 18.802 26.7562 18.852 26.7562H26.652C26.727 26.7562 26.7645 26.7875 26.7645 26.85C26.7645 26.875 26.652 27.1562 26.427 27.6937Z" fill="black"/>
<path d="M40.4188 17.775C40.5313 17.775 41.3 17.7375 42.725 17.6625V17.7375C42.725 18.025 42.6875 18.1687 42.6125 18.1687C42.5 18.1687 42.3469 18.1969 42.1531 18.2531C41.9656 18.3031 41.7938 18.3844 41.6375 18.4969C41.4875 18.6094 41.4125 18.75 41.4125 18.9187C41.4125 19.0687 41.4438 19.2187 41.5063 19.3687C42.4375 21.4687 42.9063 22.5187 42.9125 22.5187C42.9375 22.5187 43.2125 22.2375 43.7375 21.675C44.0875 21.3 44.4469 20.9031 44.8156 20.4844C45.1844 20.0656 45.4938 19.6937 45.7438 19.3687C45.9938 19.0437 46.1188 18.8375 46.1188 18.75C46.1188 18.5875 46 18.45 45.7625 18.3375C45.525 18.225 45.2813 18.1687 45.0313 18.1687C45.0063 18.1687 44.9938 18.1375 44.9938 18.075C44.9938 17.8687 45.0375 17.7312 45.125 17.6625C46.4 17.7375 47.0938 17.775 47.2063 17.775C47.3375 17.775 47.4625 17.775 47.5813 17.775C47.7063 17.7687 47.8281 17.7625 47.9469 17.7562C48.1781 17.7437 48.4188 17.7281 48.6688 17.7094C48.9188 17.6906 49.125 17.675 49.2875 17.6625V17.7187C49.2875 18.0187 49.2438 18.1687 49.1563 18.1687C49.0563 18.1687 48.8813 18.1937 48.6313 18.2437C48.3813 18.2937 48.1313 18.3625 47.8813 18.45C47.6313 18.5375 47.4563 18.6375 47.3563 18.75C44.6188 21.7875 43.25 23.3187 43.25 23.3437C43.25 23.3562 43.4188 23.7625 43.7563 24.5625C43.925 24.9625 44.1031 25.3875 44.2906 25.8375C44.4844 26.2812 44.6688 26.7062 44.8438 27.1125C45.0188 27.5125 45.1719 27.8562 45.3031 28.1437C45.4344 28.4312 45.525 28.6187 45.575 28.7062C45.6938 28.9062 45.8625 29.0687 46.0813 29.1937C46.3 29.3187 46.5188 29.4094 46.7375 29.4656C46.9625 29.5219 47.1375 29.55 47.2625 29.55C47.2875 29.55 47.3 29.5812 47.3 29.6437C47.3 29.8437 47.2813 29.9812 47.2438 30.0563C46.6625 30.025 46.1969 30.0031 45.8469 29.9906C45.5031 29.9719 45.275 29.9625 45.1625 29.9625C45.15 29.9625 44.9344 29.9719 44.5156 29.9906C44.0969 30.0031 43.475 30.025 42.65 30.0563C42.625 30.0313 42.6125 29.9812 42.6125 29.9062C42.6125 29.6687 42.6563 29.55 42.7438 29.55C42.8438 29.55 42.975 29.525 43.1375 29.475C43.3 29.4187 43.4469 29.3469 43.5781 29.2594C43.7094 29.1656 43.775 29.0625 43.775 28.95C43.775 28.7812 43.7625 28.6687 43.7375 28.6125C42.6 25.9 42.025 24.5437 42.0125 24.5437C42 24.5437 41.6875 24.8906 41.075 25.5844C40.875 25.8094 40.6188 26.1 40.3063 26.4562C40 26.8125 39.6938 27.175 39.3875 27.5437C39.0813 27.9062 38.8219 28.2219 38.6094 28.4906C38.4031 28.7594 38.3 28.925 38.3 28.9875C38.3 29.3625 38.6438 29.55 39.3313 29.55C39.3813 29.55 39.4063 29.6062 39.4063 29.7187C39.4063 29.8812 39.375 29.9937 39.3125 30.0563C39.2063 30.05 38.9906 30.0438 38.6656 30.0375C38.3469 30.0375 37.9188 30.0375 37.3813 30.0375C36.775 30.0375 36.2906 30.0375 35.9281 30.0375C35.5656 30.0438 35.325 30.05 35.2063 30.0563C35.1938 30.0438 35.1875 30.0188 35.1875 29.9812C35.1875 29.6937 35.2188 29.55 35.2813 29.55C35.3813 29.55 35.5156 29.5406 35.6844 29.5219C35.8531 29.5031 36.075 29.4469 36.35 29.3531C36.625 29.2594 36.8313 29.1375 36.9688 28.9875C40.1063 25.5062 41.675 23.7437 41.675 23.7L40.2125 20.25C40.0625 19.8875 39.9406 19.6125 39.8469 19.425C39.7531 19.2312 39.6594 19.075 39.5656 18.9562C39.4719 18.8375 39.3438 18.7125 39.1813 18.5812C39.0688 18.4812 38.8938 18.3875 38.6563 18.3C38.4188 18.2125 38.2438 18.1687 38.1313 18.1687C38.1063 18.1687 38.0938 18.1375 38.0938 18.075C38.0938 17.8687 38.1375 17.7312 38.225 17.6625C38.325 17.6687 38.5063 17.6812 38.7688 17.7C39.0313 17.7187 39.3156 17.7375 39.6219 17.7562C39.9281 17.7687 40.1938 17.775 40.4188 17.775ZM54.9179 22.992C54.9179 22.416 55.0075 21.9552 55.1867 21.6096C55.3787 21.2512 55.6347 20.9952 55.9547 20.8416C56.2875 20.688 56.6523 20.6112 57.0491 20.6112C57.4459 20.6112 57.8043 20.688 58.1243 20.8416C58.4443 20.9952 58.7003 21.2512 58.8923 21.6096C59.0843 21.9552 59.1803 22.416 59.1803 22.992C59.1803 23.5552 59.0843 24.016 58.8923 24.3744C58.7003 24.72 58.4443 24.976 58.1243 25.1424C57.8043 25.296 57.4459 25.3728 57.0491 25.3728C56.6523 25.3728 56.2875 25.296 55.9547 25.1424C55.6347 24.976 55.3787 24.72 55.1867 24.3744C55.0075 24.016 54.9179 23.5552 54.9179 22.992ZM71.3728 17.775C71.4978 17.775 72.2728 17.7375 73.6978 17.6625V17.7562C73.6978 18.0312 73.654 18.1687 73.5665 18.1687C73.4415 18.1687 73.2853 18.2 73.0978 18.2625C72.9103 18.3187 72.7446 18.4062 72.6009 18.525C72.4571 18.6375 72.3853 18.7812 72.3853 18.9562C72.3853 19.0687 72.4103 19.2062 72.4603 19.3687L73.754 23.3437C73.8353 23.2375 73.9478 23.0937 74.0915 22.9125C74.2353 22.725 74.4071 22.5 74.6071 22.2375C74.8071 21.975 74.9853 21.7406 75.1415 21.5344C75.304 21.3281 75.4384 21.1531 75.5446 21.0094C75.6509 20.8656 75.7665 20.7094 75.8915 20.5406C76.0165 20.3719 76.1478 20.1937 76.2853 20.0062C76.4853 19.7312 76.6665 19.4687 76.829 19.2187C76.9915 18.9687 77.0728 18.8125 77.0728 18.75C77.0603 18.5875 76.9259 18.45 76.6696 18.3375C76.4134 18.225 76.1603 18.1687 75.9103 18.1687C75.8853 18.1687 75.8728 18.1312 75.8728 18.0562C75.8728 17.8625 75.9165 17.7312 76.004 17.6625C76.104 17.6625 76.354 17.6812 76.754 17.7187C77.1603 17.7562 77.4853 17.775 77.729 17.775C77.7915 17.775 78.5353 17.7375 79.9603 17.6625C79.9728 17.7 79.979 17.7312 79.979 17.7562C79.979 18.0312 79.9353 18.1687 79.8478 18.1687C79.7665 18.1687 79.6228 18.1969 79.4165 18.2531C79.2103 18.3094 79.0009 18.3812 78.7884 18.4687C78.5821 18.5562 78.429 18.65 78.329 18.75C78.279 18.8 78.1415 18.9719 77.9165 19.2656C77.6915 19.5594 77.4134 19.9219 77.0821 20.3531C76.7571 20.7844 76.4165 21.2406 76.0603 21.7219C75.7103 22.1969 75.379 22.65 75.0665 23.0812C74.7603 23.5125 74.5071 23.8719 74.3071 24.1594C74.1071 24.4469 74.004 24.6125 73.9978 24.6562L73.4728 27.3937C73.3353 28.0625 73.2665 28.625 73.2665 29.0812C73.2665 29.1812 73.3509 29.2719 73.5196 29.3531C73.6884 29.4344 73.8603 29.4875 74.0353 29.5125L74.279 29.55C74.304 29.55 74.3165 29.575 74.3165 29.625C74.3165 29.7625 74.279 29.9062 74.204 30.0563C73.6228 30.025 73.1696 30.0031 72.8446 29.9906C72.5196 29.9719 72.3228 29.9625 72.254 29.9625C72.2353 29.9625 72.0509 29.9719 71.7009 29.9906C71.3571 30.0031 70.8478 30.025 70.1728 30.0563C70.1603 30.0438 70.154 30 70.154 29.925C70.154 29.675 70.1978 29.55 70.2853 29.55C70.379 29.55 70.5134 29.5312 70.6884 29.4937C70.8634 29.45 71.029 29.3969 71.1853 29.3344C71.3478 29.2656 71.4478 29.2 71.4853 29.1375C71.6415 28.8687 71.7978 28.3062 71.954 27.45L72.4415 24.7875C72.454 24.7375 72.329 24.2969 72.0665 23.4656C71.9353 23.0469 71.8009 22.6344 71.6634 22.2281C71.5321 21.8156 71.3978 21.4062 71.2603 21L70.8665 19.7812C70.679 19.2062 70.4353 18.8062 70.1353 18.5812C70.0103 18.4937 69.829 18.4031 69.5915 18.3094C69.354 18.2156 69.1853 18.1687 69.0853 18.1687C69.0603 18.1687 69.0478 18.1375 69.0478 18.075C69.0478 17.8687 69.0915 17.7312 69.179 17.6625C69.279 17.6687 69.4603 17.6812 69.7228 17.7C69.9853 17.7187 70.2696 17.7375 70.5759 17.7562C70.8821 17.7687 71.1478 17.775 71.3728 17.775ZM85.5344 22.992C85.5344 22.416 85.624 21.9552 85.8032 21.6096C85.9952 21.2512 86.2512 20.9952 86.5712 20.8416C86.904 20.688 87.2688 20.6112 87.6656 20.6112C88.0624 20.6112 88.4208 20.688 88.7408 20.8416C89.0608 20.9952 89.3168 21.2512 89.5088 21.6096C89.7008 21.9552 89.7968 22.416 89.7968 22.992C89.7968 23.5552 89.7008 24.016 89.5088 24.3744C89.3168 24.72 89.0608 24.976 88.7408 25.1424C88.4208 25.296 88.0624 25.3728 87.6656 25.3728C87.2688 25.3728 86.904 25.296 86.5712 25.1424C86.2512 24.976 85.9952 24.72 85.8032 24.3744C85.624 24.016 85.5344 23.5552 85.5344 22.992ZM103.471 17.7C103.758 17.7062 104.071 17.7125 104.408 17.7187C104.746 17.7187 105.108 17.7187 105.496 17.7187C105.921 17.7187 106.283 17.7125 106.583 17.7C106.883 17.6875 107.114 17.675 107.277 17.6625C107.477 17.65 107.749 17.6281 108.092 17.5969C108.442 17.5656 108.771 17.5375 109.077 17.5125C109.102 17.525 109.121 17.6219 109.133 17.8031C109.146 17.9844 109.146 18.0937 109.133 18.1312C109.121 18.1812 108.402 19.075 106.977 20.8125C105.552 22.5437 104.127 24.2687 102.702 25.9875L100.583 28.575C100.483 28.6812 100.433 28.7875 100.433 28.8937C100.433 28.9937 100.496 29.0437 100.621 29.0437H104.558C104.877 29.0437 105.202 28.9937 105.533 28.8937C105.871 28.7875 106.127 28.6375 106.302 28.4437C106.352 28.3875 106.396 28.3375 106.433 28.2937C106.477 28.25 106.514 28.2125 106.546 28.1812C106.608 28.1187 106.677 28.0219 106.752 27.8906C106.802 27.8031 106.874 27.6625 106.967 27.4687C107.061 27.275 107.108 27.1687 107.108 27.15C107.146 27.05 107.314 27 107.614 27C107.746 27 107.833 27.0375 107.877 27.1125C107.658 27.65 107.458 28.1594 107.277 28.6406C107.102 29.1219 106.946 29.575 106.808 30H98.1643C98.1143 29.9125 98.0893 29.8062 98.0893 29.6812C98.0893 29.475 98.1393 29.3125 98.2393 29.1937L106.977 18.6H104.689C104.564 18.6 104.442 18.6 104.324 18.6C104.205 18.6 104.089 18.6031 103.977 18.6094C103.802 18.6156 103.639 18.6187 103.489 18.6187C103.339 18.6187 103.246 18.6187 103.208 18.6187C102.677 18.625 102.249 18.7 101.924 18.8437C101.605 18.9812 101.33 19.2156 101.099 19.5469C100.874 19.8781 100.627 20.3375 100.358 20.925C100.321 20.975 100.258 21 100.171 21C99.9455 21 99.7768 20.9437 99.6643 20.8312C99.7455 20.6125 99.8736 20.2281 100.049 19.6781C100.224 19.1281 100.446 18.4125 100.714 17.5312C100.771 17.55 100.924 17.5687 101.174 17.5875C101.424 17.6062 101.708 17.625 102.027 17.6437C102.346 17.6625 102.639 17.6781 102.908 17.6906C103.183 17.6969 103.371 17.7 103.471 17.7Z" fill="black"/>
</svg>
