<svg width="84" height="38" viewBox="0 0 84 38" fill="none" xmlns="http://www.w3.org/2000/svg">
<path d="M8.175 25.5187C8.175 25.4437 8.09688 25.3969 7.94063 25.3781C7.78438 25.3594 7.55 25.3469 7.2375 25.3406C6.93125 25.3344 6.6125 25.3312 6.28125 25.3312C6.15 25.3312 5.9375 25.3406 5.64375 25.3594C5.35625 25.3719 4.9875 25.3937 4.5375 25.425C4.5 25.425 4.33125 25.675 4.03125 26.175C3.83125 26.5062 3.62813 26.8656 3.42188 27.2531C3.22188 27.6406 3.05313 27.9937 2.91563 28.3125C2.78438 28.625 2.71875 28.8437 2.71875 28.9687C2.71875 29.0937 2.78438 29.2 2.91563 29.2875C3.05313 29.375 3.20313 29.4406 3.36563 29.4844C3.53438 29.5281 3.6625 29.55 3.75 29.55C3.775 29.55 3.7875 29.5875 3.7875 29.6625C3.7875 29.8062 3.75625 29.9375 3.69375 30.0563C3.1125 30.025 2.67188 30.0031 2.37188 29.9906C2.07813 29.9719 1.925 29.9625 1.9125 29.9625C1.8 29.9625 1.61563 29.9687 1.35938 29.9812C1.10313 29.9937 0.85 30.0063 0.6 30.0188C0.35 30.0375 0.175 30.05 0.075 30.0563C0.05 30.0313 0.0375 29.9812 0.0375 29.9062C0.0375 29.6687 0.08125 29.55 0.16875 29.55C0.30625 29.55 0.496875 29.5125 0.740625 29.4375C0.984375 29.3625 1.15625 29.2687 1.25625 29.1562C1.53125 28.85 1.9125 28.2625 2.4 27.3937L7.575 18.0937C7.7625 17.7562 8.00625 17.5875 8.30625 17.5875C8.3625 17.5875 8.4125 17.6 8.45625 17.625L10.0125 27.525C10.1375 28.3125 10.2125 28.7625 10.2375 28.875C10.2625 29 10.3469 29.1156 10.4906 29.2219C10.6344 29.3219 10.7875 29.4031 10.95 29.4656C11.1188 29.5219 11.2438 29.55 11.325 29.55C11.35 29.55 11.3625 29.5812 11.3625 29.6437C11.3625 29.8 11.3313 29.9375 11.2688 30.0563C10.6875 30.025 10.2344 30.0031 9.90938 29.9906C9.58438 29.9719 9.3875 29.9625 9.31875 29.9625C9.2 29.9625 9.08438 29.9656 8.97188 29.9719C8.86563 29.9719 8.75938 29.975 8.65313 29.9812C8.45938 29.9937 8.23125 30.0063 7.96875 30.0188C7.7125 30.0313 7.49375 30.0438 7.3125 30.0563C7.3 30.0438 7.29375 30.0063 7.29375 29.9437C7.29375 29.6812 7.3375 29.55 7.425 29.55C7.55 29.55 7.725 29.5125 7.95 29.4375C8.175 29.3625 8.31875 29.275 8.38125 29.175C8.46875 28.9812 8.5125 28.6875 8.5125 28.2937C8.5125 28.0812 8.4 27.1562 8.175 25.5187ZM6.525 24.4125C6.8125 24.4125 7.07188 24.4094 7.30313 24.4031C7.54063 24.3969 7.75 24.3875 7.93125 24.375C7.98125 24.375 8.00625 24.35 8.00625 24.3C8.00625 24.2187 7.96563 23.925 7.88438 23.4187C7.83438 23.0687 7.775 22.6719 7.70625 22.2281C7.6375 21.7844 7.57188 21.3687 7.50938 20.9812C7.45313 20.5937 7.4125 20.3125 7.3875 20.1375C5.85 22.9187 5.08125 24.325 5.08125 24.3562C5.08125 24.3812 5.0875 24.3937 5.1 24.3937C5.24375 24.4 5.43438 24.4062 5.67188 24.4125C5.90938 24.4125 6.19375 24.4125 6.525 24.4125ZM26.202 25.1437H18.402C18.352 25.1437 18.327 25.1062 18.327 25.0312C18.327 24.9937 18.3489 24.9 18.3926 24.75C18.4426 24.5937 18.4989 24.4469 18.5614 24.3094C18.6301 24.1656 18.6895 24.0937 18.7395 24.0937H26.5208C26.5958 24.0937 26.6333 24.125 26.6333 24.1875C26.6333 24.2625 26.527 24.5437 26.3145 25.0312C26.2895 25.1062 26.252 25.1437 26.202 25.1437ZM25.7895 27.6937L25.6583 27.8062H17.877C17.8145 27.8062 17.7833 27.7687 17.7833 27.6937C17.7833 27.65 17.8083 27.5531 17.8583 27.4031C17.9083 27.2531 17.9676 27.1094 18.0364 26.9719C18.1051 26.8281 18.1645 26.7562 18.2145 26.7562H26.0145C26.0895 26.7562 26.127 26.7875 26.127 26.85C26.127 26.875 26.0145 27.1562 25.7895 27.6937Z" fill="black"/>
<path d="M42.0875 25.9687C42.0875 26.65 41.875 27.3 41.45 27.9187C41.0313 28.5312 40.4344 29.0312 39.6594 29.4187C38.8906 29.8062 37.975 30 36.9125 30H34.5313L32.4688 30.0563C32.4563 30.0438 32.45 29.9875 32.45 29.8875C32.45 29.6375 32.4938 29.5125 32.5813 29.5125C32.6813 29.5125 32.8219 29.4937 33.0031 29.4562C33.1844 29.4125 33.3531 29.3594 33.5094 29.2969C33.6719 29.2281 33.7688 29.1562 33.8 29.0812C33.975 28.725 34.1375 28.1437 34.2875 27.3375L35.6375 20.3625C35.775 19.6687 35.8438 19.0875 35.8438 18.6187C35.8438 18.5562 35.775 18.4906 35.6375 18.4219C35.5 18.3531 35.3469 18.2937 35.1781 18.2437C35.0156 18.1937 34.8875 18.1687 34.7938 18.1687C34.7688 18.1687 34.7563 18.1437 34.7563 18.0937C34.7563 17.8937 34.8 17.75 34.8875 17.6625C35.175 17.675 35.4844 17.6844 35.8156 17.6906C36.1531 17.6969 36.5125 17.7 36.8938 17.7C37.1875 17.7 37.4531 17.7 37.6906 17.7C37.9344 17.7 38.15 17.6969 38.3375 17.6906C38.525 17.6844 38.7031 17.6812 38.8719 17.6812C39.0406 17.6812 39.2 17.6812 39.35 17.6812C39.7 17.6812 40.0469 17.7219 40.3906 17.8031C40.7344 17.8844 41.0656 18.0125 41.3844 18.1875C41.7031 18.3625 41.9625 18.6156 42.1625 18.9469C42.3625 19.2781 42.4625 19.6625 42.4625 20.1C42.4625 20.3875 42.4188 20.6781 42.3313 20.9719C42.2438 21.2531 42.1313 21.4937 41.9938 21.6937C41.8563 21.8937 41.7 22.0812 41.525 22.2562C41.3125 22.4687 41.0813 22.6594 40.8313 22.8281C40.5813 22.9906 40.375 23.1062 40.2125 23.175L40.1 23.2312C40.35 23.2687 40.6281 23.4156 40.9344 23.6719C41.2469 23.9281 41.5156 24.2562 41.7406 24.6562C41.9719 25.0562 42.0875 25.4937 42.0875 25.9687ZM40.8688 20.325C40.8688 19.075 40.225 18.45 38.9375 18.45C38.0313 18.45 37.5625 18.5312 37.5313 18.6937L36.6875 22.7625C36.6688 22.8375 36.7219 22.8937 36.8469 22.9312C36.9781 22.9625 37.1344 22.9844 37.3156 22.9969C37.4969 23.0031 37.6563 23.0062 37.7938 23.0062C38.1938 23.0062 38.5375 22.9812 38.825 22.9312C39.1125 22.8812 39.4313 22.775 39.7813 22.6125C40.5063 22.275 40.8688 21.5125 40.8688 20.325ZM40.4 26.0437C40.4 25.3812 40.1938 24.8406 39.7813 24.4219C39.3688 24.0031 38.7063 23.7937 37.7938 23.7937C36.9063 23.7937 36.4438 23.8875 36.4063 24.075L35.6938 27.825C35.6313 28.1812 35.6 28.4812 35.6 28.725C35.6 28.9562 35.6969 29.1 35.8906 29.1562C36.0844 29.2062 36.3625 29.2312 36.725 29.2312C37.5938 29.2312 38.2 29.15 38.5438 28.9875C39.0563 28.75 39.4938 28.3687 39.8563 27.8437C40.2188 27.3187 40.4 26.7187 40.4 26.0437ZM55.0814 22.992C55.0814 22.416 55.171 21.9552 55.3502 21.6096C55.5422 21.2512 55.7982 20.9952 56.1182 20.8416C56.451 20.688 56.8158 20.6112 57.2126 20.6112C57.6094 20.6112 57.9678 20.688 58.2878 20.8416C58.6078 20.9952 58.8638 21.2512 59.0558 21.6096C59.2478 21.9552 59.3438 22.416 59.3438 22.992C59.3438 23.5552 59.2478 24.016 59.0558 24.3744C58.8638 24.72 58.6078 24.976 58.2878 25.1424C57.9678 25.296 57.6094 25.3728 57.2126 25.3728C56.8158 25.3728 56.451 25.296 56.1182 25.1424C55.7982 24.976 55.5422 24.72 55.3502 24.3744C55.171 24.016 55.0814 23.5552 55.0814 22.992ZM74.405 23.1562C76.0363 23.1562 76.855 23.1062 76.8613 23.0062L77.3675 20.4C77.505 19.7312 77.5738 19.1562 77.5738 18.675C77.5738 18.5812 77.5081 18.4969 77.3769 18.4219C77.2519 18.3469 77.105 18.2875 76.9363 18.2437C76.7738 18.1937 76.6363 18.1687 76.5238 18.1687C76.4988 18.1687 76.4863 18.1375 76.4863 18.075C76.4863 17.9 76.5363 17.7625 76.6363 17.6625C76.7363 17.6687 76.905 17.6812 77.1425 17.7C77.3863 17.7187 77.6488 17.7375 77.93 17.7562C78.2113 17.7687 78.455 17.775 78.6613 17.775C78.9675 17.775 79.3581 17.7562 79.8331 17.7187C80.3144 17.6812 80.5925 17.6625 80.6675 17.6625V17.7187C80.6675 18.0187 80.6238 18.1687 80.5363 18.1687C80.4738 18.1687 80.355 18.1937 80.18 18.2437C80.005 18.2875 79.8363 18.3437 79.6738 18.4125C79.5113 18.475 79.4175 18.5375 79.3925 18.6C79.2113 19 79.0488 19.5812 78.905 20.3437L77.5363 27.3937C77.3988 28.0625 77.33 28.625 77.33 29.0812C77.33 29.1812 77.4144 29.2719 77.5831 29.3531C77.7519 29.4344 77.9238 29.4875 78.0988 29.5125L78.3425 29.55C78.3675 29.55 78.38 29.575 78.38 29.625C78.38 29.7625 78.3425 29.9062 78.2675 30.0563C77.6863 30.025 77.2331 30.0031 76.9081 29.9906C76.5831 29.9719 76.3863 29.9625 76.3175 29.9625C76.2988 29.9625 76.1175 29.9719 75.7738 29.9906C75.43 30.0031 74.9238 30.025 74.255 30.0563C74.23 30.0313 74.2175 29.9812 74.2175 29.9062C74.2175 29.6687 74.2613 29.55 74.3488 29.55C74.4488 29.55 74.5863 29.5312 74.7613 29.4937C74.9425 29.4562 75.1113 29.4062 75.2675 29.3437C75.4238 29.2812 75.5175 29.2125 75.5488 29.1375C75.73 28.725 75.8925 28.125 76.0363 27.3375L76.6363 24.2437V24.225C76.6363 24.1625 76.4894 24.1219 76.1956 24.1031C75.9081 24.0844 75.1988 24.075 74.0675 24.075C72.2738 24.075 71.3613 24.15 71.33 24.3L70.73 27.3937C70.5925 28.0625 70.5238 28.625 70.5238 29.0812C70.5238 29.1812 70.6081 29.2719 70.7769 29.3531C70.9456 29.4344 71.1113 29.4875 71.2738 29.5125L71.5363 29.55C71.5613 29.55 71.5738 29.575 71.5738 29.625C71.5738 29.7625 71.5363 29.9062 71.4613 30.0563C70.8863 30.025 70.4363 30.0031 70.1113 29.9906C69.7863 29.9719 69.5863 29.9625 69.5113 29.9625C69.4988 29.9625 69.3206 29.9719 68.9769 29.9906C68.6331 30.0031 68.1238 30.025 67.4488 30.0563C67.4238 30.0313 67.4113 29.9812 67.4113 29.9062C67.4113 29.6687 67.455 29.55 67.5425 29.55C67.6425 29.55 67.78 29.5312 67.955 29.4937C68.1363 29.4562 68.305 29.4062 68.4613 29.3437C68.6175 29.2812 68.7113 29.2125 68.7425 29.1375C68.9238 28.725 69.0863 28.125 69.23 27.3375L70.5613 20.4C70.6988 19.7312 70.7675 19.1562 70.7675 18.675C70.7675 18.5812 70.7019 18.4969 70.5706 18.4219C70.4456 18.3469 70.2988 18.2875 70.13 18.2437C69.9675 18.1937 69.83 18.1687 69.7175 18.1687C69.6925 18.1687 69.68 18.1375 69.68 18.075C69.68 17.9 69.73 17.7625 69.83 17.6625C69.93 17.6687 70.0988 17.6812 70.3363 17.7C70.58 17.7187 70.8425 17.7375 71.1238 17.7562C71.405 17.7687 71.6488 17.775 71.855 17.775C72.155 17.775 72.5394 17.7562 73.0081 17.7187C73.4769 17.6812 73.755 17.6625 73.8425 17.6625V17.7187C73.8425 18.0187 73.7988 18.1687 73.7113 18.1687C73.6488 18.1687 73.5269 18.1937 73.3456 18.2437C73.1706 18.2875 72.9988 18.3437 72.83 18.4125C72.6675 18.475 72.5738 18.5375 72.5488 18.6C72.3425 19.0812 72.18 19.6625 72.0613 20.3437L71.5925 22.9875V23.0062C71.5925 23.0687 71.7581 23.1094 72.0894 23.1281C72.4206 23.1469 73.1925 23.1562 74.405 23.1562Z" fill="black"/>
</svg>
