<svg width="111" height="66" viewBox="0 0 111 66" fill="none" xmlns="http://www.w3.org/2000/svg">
<path d="M8.175 33.5187C8.175 33.4437 8.09688 33.3969 7.94063 33.3781C7.78438 33.3594 7.55 33.3469 7.2375 33.3406C6.93125 33.3344 6.6125 33.3312 6.28125 33.3312C6.15 33.3312 5.9375 33.3406 5.64375 33.3594C5.35625 33.3719 4.9875 33.3937 4.5375 33.425C4.5 33.425 4.33125 33.675 4.03125 34.175C3.83125 34.5062 3.62813 34.8656 3.42188 35.2531C3.22188 35.6406 3.05313 35.9937 2.91563 36.3125C2.78438 36.625 2.71875 36.8437 2.71875 36.9687C2.71875 37.0937 2.78438 37.2 2.91563 37.2875C3.05313 37.375 3.20313 37.4406 3.36563 37.4844C3.53438 37.5281 3.6625 37.55 3.75 37.55C3.775 37.55 3.7875 37.5875 3.7875 37.6625C3.7875 37.8062 3.75625 37.9375 3.69375 38.0563C3.1125 38.025 2.67188 38.0031 2.37188 37.9906C2.07813 37.9719 1.925 37.9625 1.9125 37.9625C1.8 37.9625 1.61563 37.9687 1.35938 37.9812C1.10313 37.9937 0.85 38.0063 0.6 38.0188C0.35 38.0375 0.175 38.05 0.075 38.0563C0.05 38.0313 0.0375 37.9812 0.0375 37.9062C0.0375 37.6687 0.08125 37.55 0.16875 37.55C0.30625 37.55 0.496875 37.5125 0.740625 37.4375C0.984375 37.3625 1.15625 37.2687 1.25625 37.1562C1.53125 36.85 1.9125 36.2625 2.4 35.3937L7.575 26.0937C7.7625 25.7562 8.00625 25.5875 8.30625 25.5875C8.3625 25.5875 8.4125 25.6 8.45625 25.625L10.0125 35.525C10.1375 36.3125 10.2125 36.7625 10.2375 36.875C10.2625 37 10.3469 37.1156 10.4906 37.2219C10.6344 37.3219 10.7875 37.4031 10.95 37.4656C11.1188 37.5219 11.2438 37.55 11.325 37.55C11.35 37.55 11.3625 37.5812 11.3625 37.6437C11.3625 37.8 11.3313 37.9375 11.2688 38.0563C10.6875 38.025 10.2344 38.0031 9.90938 37.9906C9.58438 37.9719 9.3875 37.9625 9.31875 37.9625C9.2 37.9625 9.08438 37.9656 8.97188 37.9719C8.86563 37.9719 8.75938 37.975 8.65313 37.9812C8.45938 37.9937 8.23125 38.0063 7.96875 38.0188C7.7125 38.0313 7.49375 38.0438 7.3125 38.0563C7.3 38.0438 7.29375 38.0063 7.29375 37.9437C7.29375 37.6812 7.3375 37.55 7.425 37.55C7.55 37.55 7.725 37.5125 7.95 37.4375C8.175 37.3625 8.31875 37.275 8.38125 37.175C8.46875 36.9812 8.5125 36.6875 8.5125 36.2937C8.5125 36.0812 8.4 35.1562 8.175 33.5187ZM6.525 32.4125C6.8125 32.4125 7.07188 32.4094 7.30313 32.4031C7.54063 32.3969 7.75 32.3875 7.93125 32.375C7.98125 32.375 8.00625 32.35 8.00625 32.3C8.00625 32.2187 7.96563 31.925 7.88438 31.4187C7.83438 31.0687 7.775 30.6719 7.70625 30.2281C7.6375 29.7844 7.57188 29.3687 7.50938 28.9812C7.45313 28.5937 7.4125 28.3125 7.3875 28.1375C5.85 30.9187 5.08125 32.325 5.08125 32.3562C5.08125 32.3812 5.0875 32.3937 5.1 32.3937C5.24375 32.4 5.43438 32.4062 5.67188 32.4125C5.90938 32.4125 6.19375 32.4125 6.525 32.4125ZM26.202 33.1437H18.402C18.352 33.1437 18.327 33.1062 18.327 33.0312C18.327 32.9937 18.3489 32.9 18.3926 32.75C18.4426 32.5937 18.4989 32.4469 18.5614 32.3094C18.6301 32.1656 18.6895 32.0937 18.7395 32.0937H26.5208C26.5958 32.0937 26.6333 32.125 26.6333 32.1875C26.6333 32.2625 26.527 32.5437 26.3145 33.0312C26.2895 33.1062 26.252 33.1437 26.202 33.1437ZM25.7895 35.6937L25.6583 35.8062H17.877C17.8145 35.8062 17.7833 35.7687 17.7833 35.6937C17.7833 35.65 17.8083 35.5531 17.8583 35.4031C17.9083 35.2531 17.9676 35.1094 18.0364 34.9719C18.1051 34.8281 18.1645 34.7562 18.2145 34.7562H26.0145C26.0895 34.7562 26.127 34.7875 26.127 34.85C26.127 34.875 26.0145 35.1562 25.7895 35.6937Z" fill="black"/>
<line x1="32.5" y1="34.5" x2="110.5" y2="34.5" stroke="black" stroke-linecap="square"/>
<path d="M40.8 50.9625L41.4375 47.7375H37.0125C36.9688 47.6375 36.9688 47.4437 37.0125 47.1562L43.8563 39.1312C44 38.9812 44.15 38.9062 44.3063 38.9062C44.4688 38.9062 44.5313 38.9687 44.4938 39.0937L43.0125 46.65H44.2688C44.3813 46.65 44.4188 46.6937 44.3813 46.7812C44.3063 47.1875 44.2063 47.5062 44.0813 47.7375H42.8063L42.1688 51.0188C42.125 51.0813 41.875 51.1125 41.4188 51.1125C41.1938 51.1125 41.0344 51.1031 40.9406 51.0844C40.8469 51.0656 40.8 51.025 40.8 50.9625ZM38.475 46.65H41.6438L42.6188 41.6625C42.6313 41.6375 42.6313 41.6031 42.6188 41.5594C42.6063 41.5156 42.5875 41.4937 42.5625 41.4937L42.525 41.5312L38.4 46.425C38.3875 46.4375 38.3813 46.4562 38.3813 46.4812C38.3563 46.5937 38.3875 46.65 38.475 46.65Z" fill="black"/>
<path d="M62.825 29.3437C63.3125 29.3437 63.7938 29.1219 64.2688 28.6781C64.7438 28.2344 65.075 27.55 65.2625 26.625C65.3375 26.3375 65.3563 26.0344 65.3188 25.7156C65.2813 25.3969 65.2063 25.1062 65.0938 24.8437C64.9813 24.5812 64.7625 24.3656 64.4375 24.1969C64.1125 24.0281 63.7125 23.9437 63.2375 23.9437C62.6313 23.9437 62.1125 24.0125 61.6813 24.15C61.625 24.1125 61.5375 24.025 61.4188 23.8875L63.3313 18.3187C65.65 18.2437 67.0313 18.1562 67.475 18.0562C67.5125 18.1437 67.5188 18.275 67.4938 18.45C67.4625 18.6187 67.4219 18.7906 67.3719 18.9656C67.3219 19.1344 67.2625 19.3062 67.1938 19.4812C66.8875 19.575 66.2156 19.6469 65.1781 19.6969C64.6656 19.7219 64.2813 19.7406 64.025 19.7531C63.775 19.7594 63.65 19.7625 63.65 19.7625C63.5938 19.7687 63.5438 19.8187 63.5 19.9125C63.45 20.0375 63.3344 20.35 63.1531 20.85C62.9719 21.35 62.725 22.0375 62.4125 22.9125C62.825 22.75 63.3875 22.6687 64.1 22.6687C64.725 22.6687 65.2656 22.8281 65.7219 23.1469C66.1781 23.4656 66.5094 23.8875 66.7156 24.4125C66.9281 24.9375 66.975 25.5125 66.8563 26.1375C66.7063 26.9 66.4 27.5812 65.9375 28.1812C65.4813 28.775 64.9219 29.2437 64.2594 29.5875C63.6031 29.925 62.8938 30.0938 62.1313 30.0938C61.0938 30.0938 60.35 29.9062 59.9 29.5312C59.85 29.4937 59.8188 29.4125 59.8063 29.2875C59.7938 29.1625 59.8 29.0625 59.825 28.9875C59.9375 28.4 60.2125 28.1062 60.65 28.1062C60.8125 28.1062 60.9625 28.2125 61.1 28.425C61.2375 28.6375 61.375 28.8125 61.5125 28.95C61.8063 29.2125 62.2438 29.3437 62.825 29.3437ZM73.9198 26.775C73.9198 26.4 73.7698 26.0344 73.4698 25.6781C73.1698 25.3219 72.8073 24.9969 72.3823 24.7031C72.1698 24.5594 71.9573 24.4125 71.7448 24.2625C71.5323 24.1125 71.3166 23.9594 71.0979 23.8031C70.6666 23.4969 70.301 23.1375 70.001 22.725C69.701 22.3125 69.551 21.875 69.551 21.4125C69.551 20.6625 69.7385 19.9937 70.1135 19.4062C70.4948 18.8187 71.001 18.3562 71.6323 18.0187C72.2698 17.6812 72.976 17.5125 73.751 17.5125C74.0823 17.5125 74.501 17.5812 75.0073 17.7187C75.2635 17.7875 75.4885 17.8437 75.6823 17.8875C75.876 17.925 76.0385 17.95 76.1698 17.9625C76.126 18.3062 76.0823 18.6531 76.0385 19.0031C76.001 19.3469 75.9635 19.6937 75.926 20.0437C75.8885 20.4 75.8604 20.6125 75.8416 20.6812C75.8229 20.7437 75.7948 20.775 75.7573 20.775C75.576 20.775 75.4323 20.7375 75.326 20.6625C75.301 20.6562 75.2885 20.5812 75.2885 20.4375C75.2885 20.0437 75.201 19.6875 75.026 19.3687C74.851 19.05 74.6198 18.7969 74.3323 18.6094C74.0448 18.4156 73.7323 18.3187 73.3948 18.3187C72.6823 18.3187 72.1073 18.5344 71.6698 18.9656C71.2323 19.3969 71.0135 19.9375 71.0135 20.5875C71.0135 21.25 71.3198 21.825 71.9323 22.3125C72.2823 22.5875 72.6916 22.8844 73.1604 23.2031C73.6354 23.5156 74.0479 23.8187 74.3979 24.1125C74.6541 24.325 74.9073 24.6281 75.1573 25.0219C75.4073 25.4156 75.5323 25.8312 75.5323 26.2687C75.5323 26.6562 75.4385 27.0687 75.251 27.5062C75.0635 27.9437 74.7948 28.3594 74.4448 28.7531C74.0948 29.1469 73.6323 29.4719 73.0573 29.7281C72.4823 29.9844 71.851 30.1125 71.1635 30.1125C70.4885 30.1125 69.4948 29.9625 68.1823 29.6625C68.2073 29.2625 68.226 28.9375 68.2385 28.6875C68.251 28.4312 68.2573 28.25 68.2573 28.1437C68.2573 27.8687 68.251 27.5937 68.2385 27.3187C68.226 27.0437 68.2198 26.8375 68.2198 26.7C68.2198 26.6125 68.3385 26.5687 68.576 26.5687C68.6948 26.5687 68.8135 26.6187 68.9323 26.7187C68.9323 26.9812 68.9604 27.2437 69.0166 27.5062C69.0729 27.7687 69.1791 28.05 69.3354 28.35C69.4916 28.65 69.7416 28.8906 70.0854 29.0719C70.4291 29.2531 70.8448 29.3437 71.3323 29.3437C71.776 29.3437 72.1948 29.2406 72.5885 29.0344C72.9823 28.8281 73.301 28.5344 73.5448 28.1531C73.7948 27.7656 73.9198 27.3062 73.9198 26.775ZM82.0822 22.0128H76.4758V20.8224L78.6454 18.6912C79.1318 18.2304 79.4966 17.8528 79.7398 17.5584C79.9958 17.264 80.1686 17.0016 80.2582 16.7712C80.3606 16.528 80.4118 16.2784 80.4118 16.0224C80.4118 15.664 80.303 15.3952 80.0854 15.216C79.8806 15.024 79.6054 14.928 79.2598 14.928C78.9142 14.928 78.5878 14.9984 78.2806 15.1392C77.9862 15.28 77.6726 15.4848 77.3398 15.7536L76.5142 14.7168C76.8982 14.384 77.3206 14.1216 77.7814 13.9296C78.2422 13.7248 78.767 13.6224 79.3558 13.6224C80.175 13.6224 80.8214 13.8272 81.295 14.2368C81.7814 14.6336 82.0246 15.1904 82.0246 15.9072C82.0246 16.3168 81.9414 16.6944 81.775 17.04C81.6214 17.3856 81.3782 17.7376 81.0454 18.096C80.7254 18.4544 80.3286 18.864 79.855 19.3248L78.4726 20.6112H82.0822V22.0128Z" fill="black"/>
<path d="M50.1748 48.9199L51.1855 43.7197C51.3125 43.0312 51.376 42.5576 51.376 42.2988C51.376 42.2354 51.3638 42.1841 51.3394 42.145C51.3052 42.1011 51.1465 42.0645 50.8633 42.0352C50.5801 42.0059 50.2676 41.9912 49.9258 41.9912C49.584 41.9912 49.3105 42.0254 49.1055 42.0937C48.9053 42.1572 48.7344 42.2817 48.5928 42.4673C48.4561 42.6528 48.3047 42.9287 48.1387 43.2949C48.1191 43.3437 48.0703 43.3682 47.9922 43.3682C47.8652 43.3682 47.7676 43.334 47.6992 43.2656L48.3438 41.1709C48.71 41.2783 49.0176 41.332 49.2666 41.332C49.5498 41.332 49.8672 41.3394 50.2188 41.354C50.5703 41.3687 50.9219 41.3833 51.2734 41.3979C51.6299 41.4126 51.9473 41.4199 52.2256 41.4199C52.5137 41.4199 52.8359 41.4126 53.1924 41.3979C53.5537 41.3833 53.9126 41.3687 54.269 41.354C54.6304 41.3394 54.9551 41.332 55.2432 41.332C55.4629 41.332 55.7852 41.2783 56.21 41.1709L56.0635 43.2656C55.9707 43.334 55.8584 43.3682 55.7266 43.3682C55.6387 43.3682 55.5947 43.3437 55.5947 43.2949C55.5947 42.7676 55.4995 42.4185 55.3091 42.2476C55.1187 42.0767 54.7939 41.9912 54.335 41.9912C53.3682 41.9912 52.8506 42.0645 52.7822 42.2109C52.7139 42.3574 52.6455 42.5527 52.5771 42.7969C52.5088 43.041 52.4404 43.334 52.3721 43.6758L51.3467 48.9639C51.2393 49.4863 51.1855 49.9258 51.1855 50.2822C51.1855 50.3604 51.2515 50.4312 51.3833 50.4946C51.5151 50.5581 51.6445 50.5996 51.7715 50.6191L51.9766 50.6484C51.9961 50.6484 52.0059 50.668 52.0059 50.707C52.0059 50.8145 51.9766 50.9268 51.918 51.0439C51.4688 51.0195 51.1172 51.0024 50.8633 50.9927C50.6094 50.978 50.4531 50.9707 50.3945 50.9707C50.3848 50.9707 50.2456 50.978 49.9771 50.9927C49.7085 51.0024 49.3105 51.0195 48.7832 51.0439C48.7637 51.0244 48.7539 50.9854 48.7539 50.9268C48.7539 50.7412 48.7881 50.6484 48.8564 50.6484C48.9346 50.6484 49.042 50.6338 49.1787 50.6045C49.3203 50.5752 49.4521 50.5361 49.5742 50.4873C49.6963 50.4385 49.7695 50.3848 49.7939 50.3262C49.9355 50.0039 50.0625 49.5352 50.1748 48.9199ZM60.7322 47.499C60.7322 47.4404 60.6712 47.4038 60.5491 47.3892C60.4271 47.3745 60.2439 47.3647 59.9998 47.3599C59.7605 47.355 59.5115 47.3525 59.2527 47.3525C59.1502 47.3525 58.9842 47.3599 58.7547 47.3745C58.5301 47.3843 58.242 47.4014 57.8904 47.4258C57.8611 47.4258 57.7293 47.6211 57.4949 48.0117C57.3387 48.2705 57.18 48.5513 57.0188 48.854C56.8626 49.1567 56.7308 49.4326 56.6233 49.6816C56.5208 49.9258 56.4695 50.0967 56.4695 50.1943C56.4695 50.292 56.5208 50.375 56.6233 50.4434C56.7308 50.5117 56.848 50.563 56.9749 50.5972C57.1067 50.6313 57.2068 50.6484 57.2752 50.6484C57.2947 50.6484 57.3045 50.6777 57.3045 50.7363C57.3045 50.8486 57.2801 50.9512 57.2313 51.0439C56.7771 51.0195 56.4329 51.0024 56.1985 50.9927C55.969 50.978 55.8494 50.9707 55.8396 50.9707C55.7518 50.9707 55.6077 50.9756 55.4075 50.9854C55.2073 50.9951 55.0096 51.0049 54.8143 51.0146C54.6189 51.0293 54.4822 51.0391 54.4041 51.0439C54.3846 51.0244 54.3748 50.9854 54.3748 50.9268C54.3748 50.7412 54.409 50.6484 54.4773 50.6484C54.5848 50.6484 54.7337 50.6191 54.9241 50.5605C55.1146 50.502 55.2488 50.4287 55.327 50.3408C55.5418 50.1016 55.8396 49.6426 56.2205 48.9639L60.2635 41.6982C60.41 41.4346 60.6004 41.3027 60.8348 41.3027C60.8787 41.3027 60.9178 41.3125 60.952 41.332L62.1678 49.0664C62.2654 49.6816 62.324 50.0332 62.3436 50.1211C62.3631 50.2187 62.429 50.3091 62.5413 50.3921C62.6536 50.4702 62.7732 50.5337 62.9002 50.5825C63.032 50.6265 63.1297 50.6484 63.1932 50.6484C63.2127 50.6484 63.2225 50.6729 63.2225 50.7217C63.2225 50.8437 63.198 50.9512 63.1492 51.0439C62.6951 51.0195 62.3411 51.0024 62.0872 50.9927C61.8333 50.978 61.6795 50.9707 61.6258 50.9707C61.533 50.9707 61.4427 50.9731 61.3548 50.978C61.2718 50.978 61.1888 50.9805 61.1058 50.9854C60.9544 50.9951 60.7762 51.0049 60.5711 51.0146C60.3709 51.0244 60.2 51.0342 60.0584 51.0439C60.0486 51.0342 60.0438 51.0049 60.0438 50.9561C60.0438 50.751 60.0779 50.6484 60.1463 50.6484C60.2439 50.6484 60.3807 50.6191 60.5564 50.5605C60.7322 50.502 60.8445 50.4336 60.8934 50.3555C60.9617 50.2041 60.9959 49.9746 60.9959 49.667C60.9959 49.501 60.908 48.7783 60.7322 47.499ZM59.4432 46.6348C59.6678 46.6348 59.8704 46.6323 60.0511 46.6274C60.2366 46.6226 60.4002 46.6152 60.5418 46.6055C60.5809 46.6055 60.6004 46.5859 60.6004 46.5469C60.6004 46.4834 60.5687 46.2539 60.5052 45.8584C60.4661 45.585 60.4197 45.2749 60.366 44.9282C60.3123 44.5815 60.261 44.2568 60.2122 43.9541C60.1683 43.6514 60.1365 43.4316 60.117 43.2949C58.9158 45.4678 58.3152 46.5664 58.3152 46.5908C58.3152 46.6104 58.3201 46.6201 58.3299 46.6201C58.4422 46.625 58.5911 46.6299 58.7767 46.6348C58.9622 46.6348 59.1844 46.6348 59.4432 46.6348ZM67.4371 41.4199C67.525 41.4199 67.6837 41.415 67.9132 41.4053C68.1427 41.3955 68.443 41.3809 68.8141 41.3613C68.8873 41.6494 69.0167 42.0449 69.2022 42.5479C69.3927 43.0508 69.6197 43.6147 69.8834 44.2397C70.1471 44.8599 70.4278 45.4995 70.7257 46.1587C71.0284 46.813 71.3287 47.4355 71.6266 48.0264C71.6607 47.9287 71.69 47.8311 71.7145 47.7334C71.7438 47.6309 71.7682 47.5283 71.7877 47.4258L72.5348 43.4854C72.6617 42.8359 72.7252 42.3867 72.7252 42.1377C72.7252 42.0596 72.6593 41.9937 72.5274 41.9399C72.4005 41.8813 72.254 41.8374 72.088 41.8081C71.9269 41.7739 71.7975 41.7568 71.6998 41.7568C71.6803 41.7568 71.6705 41.7227 71.6705 41.6543C71.6705 41.5127 71.7047 41.415 71.773 41.3613C72.276 41.3857 72.6544 41.4053 72.9083 41.4199C73.1671 41.4297 73.3014 41.4346 73.3111 41.4346C73.3795 41.4346 73.5455 41.4297 73.8092 41.4199C74.0777 41.4053 74.4439 41.3857 74.9078 41.3613C74.9078 41.625 74.8785 41.7568 74.8199 41.7568C74.7564 41.7568 74.6344 41.7739 74.4537 41.8081C74.2779 41.8423 74.1095 41.8838 73.9483 41.9326C73.7872 41.9814 73.6969 42.0303 73.6773 42.0791C73.5504 42.4062 73.4283 42.8604 73.3111 43.4414L72.2125 49.0078C72.1832 49.1592 72.1515 49.3325 72.1173 49.5278C72.0831 49.7231 72.0465 49.9404 72.0074 50.1797C71.9684 50.4189 71.9366 50.6118 71.9122 50.7583C71.8878 50.9048 71.8707 51.0049 71.8609 51.0586C71.8219 51.0977 71.773 51.1172 71.7145 51.1172C71.5777 51.1172 71.4508 51.0049 71.3336 50.7803L67.7301 42.4893L66.4264 48.9346C66.3287 49.4229 66.2799 49.8574 66.2799 50.2383C66.2799 50.3164 66.358 50.3896 66.5143 50.458C66.6705 50.5264 66.8268 50.5752 66.983 50.6045L67.232 50.6484C67.2516 50.6484 67.2613 50.6729 67.2613 50.7217C67.2613 50.8437 67.2369 50.9512 67.1881 51.0439C66.7389 51.0195 66.3873 51.0024 66.1334 50.9927C65.8795 50.978 65.7232 50.9707 65.6647 50.9707C65.6549 50.9707 65.5157 50.978 65.2472 50.9927C64.9786 51.0024 64.5807 51.0195 64.0533 51.0439C64.0338 51.0244 64.024 50.9854 64.024 50.9268C64.024 50.7412 64.0582 50.6484 64.1266 50.6484C64.2047 50.6484 64.3292 50.6313 64.5001 50.5972C64.671 50.5581 64.8321 50.5117 64.9835 50.458C65.1397 50.3994 65.2301 50.3457 65.2545 50.2969C65.3668 50.082 65.4986 49.6133 65.65 48.8906L66.7779 43.4414C66.8658 43.0068 66.9098 42.5674 66.9098 42.123C66.9098 42.0449 66.8487 41.979 66.7267 41.9253C66.6046 41.8716 66.4654 41.8301 66.3092 41.8008C66.1529 41.7715 66.0211 41.7568 65.9137 41.7568C65.8941 41.7568 65.8844 41.7227 65.8844 41.6543C65.8844 41.5127 65.9186 41.415 65.9869 41.3613C66.3678 41.3809 66.6778 41.3955 66.9171 41.4053C67.1612 41.415 67.3346 41.4199 67.4371 41.4199ZM74.142 48.4512C74.142 47.7676 74.2152 47.0718 74.3617 46.3638C74.5131 45.6509 74.7108 44.9697 74.955 44.3203C75.204 43.6709 75.475 43.0972 75.768 42.5991C76.2123 41.8472 76.6591 41.2344 77.1083 40.7607C77.5624 40.2822 77.9262 40.043 78.1996 40.043C78.2875 40.043 78.3314 40.1406 78.3314 40.3359C78.3314 40.3848 78.3217 40.4189 78.3022 40.4385C77.9164 40.6191 77.4696 41.1123 76.9618 41.918C76.6298 42.4502 76.3124 43.0898 76.0097 43.8369C75.7118 44.584 75.4701 45.3701 75.2846 46.1953C75.099 47.0205 75.0063 47.8213 75.0063 48.5977C75.0063 49.5449 75.1161 50.3823 75.3358 51.1099C75.5556 51.8374 75.7729 52.2646 75.9877 52.3916C75.9975 52.3916 76.0023 52.4063 76.0023 52.4355C76.0023 52.4941 75.9706 52.5649 75.9071 52.6479C75.8437 52.731 75.7875 52.7725 75.7387 52.7725C75.392 52.7725 75.0404 52.3452 74.684 51.4907C74.3227 50.6265 74.142 49.6133 74.142 48.4512ZM83.4982 41.5957C83.7619 41.5957 84.0036 41.6763 84.2233 41.8374C84.448 41.9937 84.6164 42.2134 84.7287 42.4966C84.841 42.7749 84.8606 43.0996 84.7873 43.4707C84.6994 43.9004 84.531 44.2642 84.2819 44.562C84.0329 44.8599 83.6984 45.1553 83.2785 45.4482C83.4738 45.5264 83.6594 45.6313 83.8352 45.7632C84.0109 45.895 84.1794 46.0635 84.3405 46.2686C84.5017 46.4736 84.6164 46.7251 84.6848 47.0229C84.7531 47.3208 84.7531 47.6406 84.6848 47.9824C84.5676 48.5977 84.3259 49.1372 83.9597 49.6011C83.5935 50.0649 83.1467 50.4263 82.6193 50.6851C82.092 50.9438 81.5256 51.0732 80.9201 51.0732C80.1486 51.0732 79.5871 50.9268 79.2355 50.6338C79.2063 50.6045 79.1867 50.541 79.177 50.4434C79.1672 50.3457 79.1672 50.2676 79.177 50.209C79.2795 49.75 79.4943 49.5205 79.8215 49.5205C79.9533 49.5205 80.0705 49.6035 80.1731 49.7695C80.2805 49.9307 80.3879 50.0674 80.4953 50.1797C80.7248 50.3848 81.0471 50.4873 81.4621 50.4873C81.8234 50.4873 82.1921 50.3384 82.5681 50.0405C82.7585 49.8892 82.9318 49.6694 83.0881 49.3813C83.2443 49.0933 83.3615 48.7539 83.4397 48.3633C83.5178 47.9775 83.5056 47.6309 83.403 47.3232C83.3054 47.0107 83.1442 46.7617 82.9196 46.5762C82.695 46.3906 82.4289 46.2979 82.1213 46.2979C81.799 46.2979 81.4963 46.332 81.2131 46.4004C81.1545 46.3076 81.1447 46.1807 81.1838 46.0195C81.1936 45.9902 81.2033 45.9634 81.2131 45.939C81.2229 45.9146 81.2326 45.8926 81.2424 45.873C81.8967 45.7559 82.4436 45.5215 82.883 45.1699C83.3225 44.8184 83.6008 44.3398 83.718 43.7344C83.7863 43.4023 83.7253 43.1069 83.5349 42.8481C83.3444 42.5894 83.093 42.46 82.7805 42.46C82.5852 42.46 82.3947 42.4966 82.2092 42.5698C82.0236 42.6431 81.882 42.7187 81.7844 42.7969C81.6965 42.8652 81.6062 42.9458 81.5134 43.0386C81.4206 43.1313 81.3547 43.1875 81.3156 43.207C81.2766 43.207 81.2497 43.1606 81.2351 43.0679C81.2204 42.9751 81.218 42.8945 81.2277 42.8262C81.55 42.4355 81.8869 42.1328 82.2385 41.918C82.59 41.7031 83.01 41.5957 83.4982 41.5957ZM89.1631 45.5508C89.583 45.5508 89.9517 45.646 90.269 45.8364C90.5913 46.022 90.8428 46.2759 91.0234 46.5981C91.209 46.9204 91.3018 47.2842 91.3018 47.6895C91.3018 48.2314 91.1406 48.771 90.8184 49.3081C90.4961 49.8403 90.0762 50.27 89.5586 50.5972C89.041 50.9243 88.5234 51.0879 88.0059 51.0879C87.3418 51.0879 86.8169 50.8779 86.4312 50.458C86.0454 50.0381 85.8525 49.4277 85.8525 48.627C85.8525 48.207 85.9087 47.7749 86.021 47.3306C86.1333 46.8862 86.3286 46.4053 86.6069 45.8877C86.8853 45.3652 87.2368 44.8672 87.6616 44.3936C88.0864 43.915 88.6406 43.4365 89.3242 42.958C90.0078 42.4795 90.7793 42.0498 91.6387 41.6689C91.7168 41.6689 91.7559 41.791 91.7559 42.0352C90.8086 42.4355 89.9932 42.936 89.3096 43.5366C88.626 44.1372 88.0791 44.916 87.6689 45.873C87.2393 46.8838 87.0244 47.8506 87.0244 48.7734C87.0244 49.2617 87.1221 49.6743 87.3174 50.0112C87.5127 50.3481 87.8106 50.5166 88.2109 50.5166C88.5039 50.5166 88.7969 50.3994 89.0898 50.165C89.3877 49.9258 89.6343 49.6035 89.8296 49.1982C90.0298 48.7881 90.1299 48.3291 90.1299 47.8213C90.1299 47.333 90.0151 46.9375 89.7856 46.6348C89.5562 46.332 89.2022 46.1807 88.7236 46.1807C88.6699 46.1807 88.5845 46.2002 88.4673 46.2393C88.3501 46.2734 88.2378 46.3101 88.1304 46.3491C88.0278 46.3833 87.9668 46.4004 87.9473 46.4004C87.8887 46.3613 87.8594 46.293 87.8594 46.1953C87.8594 46.083 87.9399 45.978 88.1011 45.8804C88.2622 45.7827 88.4453 45.7046 88.6504 45.646C88.8555 45.5825 89.0264 45.5508 89.1631 45.5508ZM94.6834 44.745C94.2034 44.745 93.7834 44.65 93.4234 44.46C93.0734 44.26 92.7984 43.99 92.5984 43.65C92.3984 43.3 92.2984 42.9 92.2984 42.45C92.2984 41.99 92.3934 41.59 92.5834 41.25C92.7834 40.9 93.0584 40.63 93.4084 40.44C93.7684 40.24 94.1934 40.14 94.6834 40.14C95.1534 40.14 95.5684 40.24 95.9284 40.44C96.2884 40.63 96.5684 40.9 96.7684 41.25C96.9684 41.59 97.0684 41.99 97.0684 42.45C97.0684 42.9 96.9684 43.3 96.7684 43.65C96.5684 43.99 96.2884 44.26 95.9284 44.46C95.5684 44.65 95.1534 44.745 94.6834 44.745ZM94.6984 43.86C95.1784 43.86 95.5284 43.73 95.7484 43.47C95.9784 43.21 96.0934 42.87 96.0934 42.45C96.0934 42.16 96.0384 41.91 95.9284 41.7C95.8284 41.48 95.6734 41.31 95.4634 41.19C95.2634 41.07 95.0084 41.01 94.6984 41.01C94.2084 41.01 93.8484 41.14 93.6184 41.4C93.3884 41.66 93.2734 42.01 93.2734 42.45C93.2734 42.87 93.3884 43.21 93.6184 43.47C93.8484 43.73 94.2084 43.86 94.6984 43.86ZM102.28 44.3057C102.28 45.2334 102.165 46.1538 101.936 47.0669C101.706 47.98 101.421 48.7661 101.079 49.4253C100.908 49.7524 100.732 50.0649 100.551 50.3628C100.371 50.6606 100.185 50.939 99.9947 51.1978C99.6871 51.6177 99.3648 51.9839 99.0279 52.2964C98.691 52.6138 98.4225 52.7725 98.2223 52.7725C98.1344 52.7725 98.0904 52.6846 98.0904 52.5088C98.0904 52.4355 98.1051 52.3965 98.1344 52.3916C98.2711 52.3281 98.464 52.1523 98.713 51.8643C98.962 51.5762 99.2428 51.1758 99.5553 50.6631C99.8629 50.1553 100.158 49.5767 100.442 48.9272C100.72 48.2876 100.952 47.5308 101.137 46.6567C101.323 45.7827 101.416 44.9014 101.416 44.0127C101.416 43.1045 101.325 42.3208 101.145 41.6616C100.964 41.0024 100.737 40.5947 100.463 40.4385C100.454 40.4287 100.449 40.4189 100.449 40.4092C100.449 40.3604 100.478 40.2871 100.537 40.1895C100.595 40.0918 100.649 40.043 100.698 40.043C101.079 40.043 101.438 40.4531 101.775 41.2734C102.111 42.0937 102.28 43.1045 102.28 44.3057Z" fill="black"/>
</svg>
