<svg width="95" height="31" viewBox="0 0 95 31" fill="none" xmlns="http://www.w3.org/2000/svg">
<path d="M8.175 25.5187C8.175 25.4437 8.09688 25.3969 7.94063 25.3781C7.78438 25.3594 7.55 25.3469 7.2375 25.3406C6.93125 25.3344 6.6125 25.3312 6.28125 25.3312C6.15 25.3312 5.9375 25.3406 5.64375 25.3594C5.35625 25.3719 4.9875 25.3937 4.5375 25.425C4.5 25.425 4.33125 25.675 4.03125 26.175C3.83125 26.5062 3.62813 26.8656 3.42188 27.2531C3.22188 27.6406 3.05313 27.9937 2.91563 28.3125C2.78438 28.625 2.71875 28.8437 2.71875 28.9687C2.71875 29.0937 2.78438 29.2 2.91563 29.2875C3.05313 29.375 3.20313 29.4406 3.36563 29.4844C3.53438 29.5281 3.6625 29.55 3.75 29.55C3.775 29.55 3.7875 29.5875 3.7875 29.6625C3.7875 29.8062 3.75625 29.9375 3.69375 30.0563C3.1125 30.025 2.67188 30.0031 2.37188 29.9906C2.07813 29.9719 1.925 29.9625 1.9125 29.9625C1.8 29.9625 1.61563 29.9687 1.35938 29.9812C1.10313 29.9937 0.85 30.0063 0.6 30.0188C0.35 30.0375 0.175 30.05 0.075 30.0563C0.05 30.0313 0.0375 29.9812 0.0375 29.9062C0.0375 29.6687 0.08125 29.55 0.16875 29.55C0.30625 29.55 0.496875 29.5125 0.740625 29.4375C0.984375 29.3625 1.15625 29.2687 1.25625 29.1562C1.53125 28.85 1.9125 28.2625 2.4 27.3937L7.575 18.0937C7.7625 17.7562 8.00625 17.5875 8.30625 17.5875C8.3625 17.5875 8.4125 17.6 8.45625 17.625L10.0125 27.525C10.1375 28.3125 10.2125 28.7625 10.2375 28.875C10.2625 29 10.3469 29.1156 10.4906 29.2219C10.6344 29.3219 10.7875 29.4031 10.95 29.4656C11.1188 29.5219 11.2438 29.55 11.325 29.55C11.35 29.55 11.3625 29.5812 11.3625 29.6437C11.3625 29.8 11.3313 29.9375 11.2688 30.0563C10.6875 30.025 10.2344 30.0031 9.90938 29.9906C9.58438 29.9719 9.3875 29.9625 9.31875 29.9625C9.2 29.9625 9.08438 29.9656 8.97188 29.9719C8.86563 29.9719 8.75938 29.975 8.65313 29.9812C8.45938 29.9937 8.23125 30.0063 7.96875 30.0188C7.7125 30.0313 7.49375 30.0438 7.3125 30.0563C7.3 30.0438 7.29375 30.0063 7.29375 29.9437C7.29375 29.6812 7.3375 29.55 7.425 29.55C7.55 29.55 7.725 29.5125 7.95 29.4375C8.175 29.3625 8.31875 29.275 8.38125 29.175C8.46875 28.9812 8.5125 28.6875 8.5125 28.2937C8.5125 28.0812 8.4 27.1562 8.175 25.5187ZM6.525 24.4125C6.8125 24.4125 7.07188 24.4094 7.30313 24.4031C7.54063 24.3969 7.75 24.3875 7.93125 24.375C7.98125 24.375 8.00625 24.35 8.00625 24.3C8.00625 24.2187 7.96563 23.925 7.88438 23.4187C7.83438 23.0687 7.775 22.6719 7.70625 22.2281C7.6375 21.7844 7.57188 21.3687 7.50938 20.9812C7.45313 20.5937 7.4125 20.3125 7.3875 20.1375C5.85 22.9187 5.08125 24.325 5.08125 24.3562C5.08125 24.3812 5.0875 24.3937 5.1 24.3937C5.24375 24.4 5.43438 24.4062 5.67188 24.4125C5.90938 24.4125 6.19375 24.4125 6.525 24.4125ZM26.202 25.1437H18.402C18.352 25.1437 18.327 25.1062 18.327 25.0312C18.327 24.9937 18.3489 24.9 18.3926 24.75C18.4426 24.5937 18.4989 24.4469 18.5614 24.3094C18.6301 24.1656 18.6895 24.0937 18.7395 24.0937H26.5208C26.5958 24.0937 26.6333 24.125 26.6333 24.1875C26.6333 24.2625 26.527 24.5437 26.3145 25.0312C26.2895 25.1062 26.252 25.1437 26.202 25.1437ZM25.7895 27.6937L25.6583 27.8062H17.877C17.8145 27.8062 17.7833 27.7687 17.7833 27.6937C17.7833 27.65 17.8083 27.5531 17.8583 27.4031C17.9083 27.2531 17.9676 27.1094 18.0364 26.9719C18.1051 26.8281 18.1645 26.7562 18.2145 26.7562H26.0145C26.0895 26.7562 26.127 26.7875 26.127 26.85C26.127 26.875 26.0145 27.1562 25.7895 27.6937Z" fill="black"/>
<path d="M40.4188 17.775C40.5313 17.775 41.3 17.7375 42.725 17.6625V17.7375C42.725 18.025 42.6875 18.1687 42.6125 18.1687C42.5 18.1687 42.3469 18.1969 42.1531 18.2531C41.9656 18.3031 41.7938 18.3844 41.6375 18.4969C41.4875 18.6094 41.4125 18.75 41.4125 18.9187C41.4125 19.0687 41.4438 19.2187 41.5063 19.3687C42.4375 21.4687 42.9063 22.5187 42.9125 22.5187C42.9375 22.5187 43.2125 22.2375 43.7375 21.675C44.0875 21.3 44.4469 20.9031 44.8156 20.4844C45.1844 20.0656 45.4938 19.6937 45.7438 19.3687C45.9938 19.0437 46.1188 18.8375 46.1188 18.75C46.1188 18.5875 46 18.45 45.7625 18.3375C45.525 18.225 45.2813 18.1687 45.0313 18.1687C45.0063 18.1687 44.9938 18.1375 44.9938 18.075C44.9938 17.8687 45.0375 17.7312 45.125 17.6625C46.4 17.7375 47.0938 17.775 47.2063 17.775C47.3375 17.775 47.4625 17.775 47.5813 17.775C47.7063 17.7687 47.8281 17.7625 47.9469 17.7562C48.1781 17.7437 48.4188 17.7281 48.6688 17.7094C48.9188 17.6906 49.125 17.675 49.2875 17.6625V17.7187C49.2875 18.0187 49.2438 18.1687 49.1563 18.1687C49.0563 18.1687 48.8813 18.1937 48.6313 18.2437C48.3813 18.2937 48.1313 18.3625 47.8813 18.45C47.6313 18.5375 47.4563 18.6375 47.3563 18.75C44.6188 21.7875 43.25 23.3187 43.25 23.3437C43.25 23.3562 43.4188 23.7625 43.7563 24.5625C43.925 24.9625 44.1031 25.3875 44.2906 25.8375C44.4844 26.2812 44.6688 26.7062 44.8438 27.1125C45.0188 27.5125 45.1719 27.8562 45.3031 28.1437C45.4344 28.4312 45.525 28.6187 45.575 28.7062C45.6938 28.9062 45.8625 29.0687 46.0813 29.1937C46.3 29.3187 46.5188 29.4094 46.7375 29.4656C46.9625 29.5219 47.1375 29.55 47.2625 29.55C47.2875 29.55 47.3 29.5812 47.3 29.6437C47.3 29.8437 47.2813 29.9812 47.2438 30.0563C46.6625 30.025 46.1969 30.0031 45.8469 29.9906C45.5031 29.9719 45.275 29.9625 45.1625 29.9625C45.15 29.9625 44.9344 29.9719 44.5156 29.9906C44.0969 30.0031 43.475 30.025 42.65 30.0563C42.625 30.0313 42.6125 29.9812 42.6125 29.9062C42.6125 29.6687 42.6563 29.55 42.7438 29.55C42.8438 29.55 42.975 29.525 43.1375 29.475C43.3 29.4187 43.4469 29.3469 43.5781 29.2594C43.7094 29.1656 43.775 29.0625 43.775 28.95C43.775 28.7812 43.7625 28.6687 43.7375 28.6125C42.6 25.9 42.025 24.5437 42.0125 24.5437C42 24.5437 41.6875 24.8906 41.075 25.5844C40.875 25.8094 40.6188 26.1 40.3063 26.4562C40 26.8125 39.6938 27.175 39.3875 27.5437C39.0813 27.9062 38.8219 28.2219 38.6094 28.4906C38.4031 28.7594 38.3 28.925 38.3 28.9875C38.3 29.3625 38.6438 29.55 39.3313 29.55C39.3813 29.55 39.4063 29.6062 39.4063 29.7187C39.4063 29.8812 39.375 29.9937 39.3125 30.0563C39.2063 30.05 38.9906 30.0438 38.6656 30.0375C38.3469 30.0375 37.9188 30.0375 37.3813 30.0375C36.775 30.0375 36.2906 30.0375 35.9281 30.0375C35.5656 30.0438 35.325 30.05 35.2063 30.0563C35.1938 30.0438 35.1875 30.0188 35.1875 29.9812C35.1875 29.6937 35.2188 29.55 35.2813 29.55C35.3813 29.55 35.5156 29.5406 35.6844 29.5219C35.8531 29.5031 36.075 29.4469 36.35 29.3531C36.625 29.2594 36.8313 29.1375 36.9688 28.9875C40.1063 25.5062 41.675 23.7437 41.675 23.7L40.2125 20.25C40.0625 19.8875 39.9406 19.6125 39.8469 19.425C39.7531 19.2312 39.6594 19.075 39.5656 18.9562C39.4719 18.8375 39.3438 18.7125 39.1813 18.5812C39.0688 18.4812 38.8938 18.3875 38.6563 18.3C38.4188 18.2125 38.2438 18.1687 38.1313 18.1687C38.1063 18.1687 38.0938 18.1375 38.0938 18.075C38.0938 17.8687 38.1375 17.7312 38.225 17.6625C38.325 17.6687 38.5063 17.6812 38.7688 17.7C39.0313 17.7187 39.3156 17.7375 39.6219 17.7562C39.9281 17.7687 40.1938 17.775 40.4188 17.775ZM60.4814 22.992C60.4814 22.416 60.571 21.9552 60.7502 21.6096C60.9422 21.2512 61.1982 20.9952 61.5182 20.8416C61.851 20.688 62.2158 20.6112 62.6126 20.6112C63.0094 20.6112 63.3678 20.688 63.6878 20.8416C64.0078 20.9952 64.2638 21.2512 64.4558 21.6096C64.6478 21.9552 64.7438 22.416 64.7438 22.992C64.7438 23.5552 64.6478 24.016 64.4558 24.3744C64.2638 24.72 64.0078 24.976 63.6878 25.1424C63.3678 25.296 63.0094 25.3728 62.6126 25.3728C62.2158 25.3728 61.851 25.296 61.5182 25.1424C61.1982 24.976 60.9422 24.72 60.7502 24.3744C60.571 24.016 60.4814 23.5552 60.4814 22.992ZM76.9363 17.775C77.0613 17.775 77.8363 17.7375 79.2613 17.6625V17.7562C79.2613 18.0312 79.2175 18.1687 79.13 18.1687C79.005 18.1687 78.8488 18.2 78.6613 18.2625C78.4738 18.3187 78.3081 18.4062 78.1644 18.525C78.0206 18.6375 77.9488 18.7812 77.9488 18.9562C77.9488 19.0687 77.9738 19.2062 78.0238 19.3687L79.3175 23.3437C79.3988 23.2375 79.5113 23.0937 79.655 22.9125C79.7988 22.725 79.9706 22.5 80.1706 22.2375C80.3706 21.975 80.5488 21.7406 80.705 21.5344C80.8675 21.3281 81.0019 21.1531 81.1081 21.0094C81.2144 20.8656 81.33 20.7094 81.455 20.5406C81.58 20.3719 81.7113 20.1937 81.8488 20.0062C82.0488 19.7312 82.23 19.4687 82.3925 19.2187C82.555 18.9687 82.6363 18.8125 82.6363 18.75C82.6238 18.5875 82.4894 18.45 82.2331 18.3375C81.9769 18.225 81.7238 18.1687 81.4738 18.1687C81.4488 18.1687 81.4363 18.1312 81.4363 18.0562C81.4363 17.8625 81.48 17.7312 81.5675 17.6625C81.6675 17.6625 81.9175 17.6812 82.3175 17.7187C82.7238 17.7562 83.0488 17.775 83.2925 17.775C83.355 17.775 84.0988 17.7375 85.5238 17.6625C85.5363 17.7 85.5425 17.7312 85.5425 17.7562C85.5425 18.0312 85.4988 18.1687 85.4113 18.1687C85.33 18.1687 85.1863 18.1969 84.98 18.2531C84.7738 18.3094 84.5644 18.3812 84.3519 18.4687C84.1456 18.5562 83.9925 18.65 83.8925 18.75C83.8425 18.8 83.705 18.9719 83.48 19.2656C83.255 19.5594 82.9769 19.9219 82.6456 20.3531C82.3206 20.7844 81.98 21.2406 81.6238 21.7219C81.2738 22.1969 80.9425 22.65 80.63 23.0812C80.3238 23.5125 80.0706 23.8719 79.8706 24.1594C79.6706 24.4469 79.5675 24.6125 79.5613 24.6562L79.0363 27.3937C78.8988 28.0625 78.83 28.625 78.83 29.0812C78.83 29.1812 78.9144 29.2719 79.0831 29.3531C79.2519 29.4344 79.4238 29.4875 79.5988 29.5125L79.8425 29.55C79.8675 29.55 79.88 29.575 79.88 29.625C79.88 29.7625 79.8425 29.9062 79.7675 30.0563C79.1863 30.025 78.7331 30.0031 78.4081 29.9906C78.0831 29.9719 77.8863 29.9625 77.8175 29.9625C77.7988 29.9625 77.6144 29.9719 77.2644 29.9906C76.9206 30.0031 76.4113 30.025 75.7363 30.0563C75.7238 30.0438 75.7175 30 75.7175 29.925C75.7175 29.675 75.7613 29.55 75.8488 29.55C75.9425 29.55 76.0769 29.5312 76.2519 29.4937C76.4269 29.45 76.5925 29.3969 76.7488 29.3344C76.9113 29.2656 77.0113 29.2 77.0488 29.1375C77.205 28.8687 77.3613 28.3062 77.5175 27.45L78.005 24.7875C78.0175 24.7375 77.8925 24.2969 77.63 23.4656C77.4988 23.0469 77.3644 22.6344 77.2269 22.2281C77.0956 21.8156 76.9613 21.4062 76.8238 21L76.43 19.7812C76.2425 19.2062 75.9988 18.8062 75.6988 18.5812C75.5738 18.4937 75.3925 18.4031 75.155 18.3094C74.9175 18.2156 74.7488 18.1687 74.6488 18.1687C74.6238 18.1687 74.6113 18.1375 74.6113 18.075C74.6113 17.8687 74.655 17.7312 74.7425 17.6625C74.8425 17.6687 75.0238 17.6812 75.2863 17.7C75.5488 17.7187 75.8331 17.7375 76.1394 17.7562C76.4456 17.7687 76.7113 17.775 76.9363 17.775Z" fill="black"/>
</svg>
