<svg width="117" height="52" viewBox="0 0 117 52" fill="none" xmlns="http://www.w3.org/2000/svg">
<path d="M47.3188 37.9625C47.6563 37.9625 47.9656 38.0656 48.2469 38.2719C48.5344 38.4719 48.75 38.7531 48.8938 39.1156C49.0375 39.4719 49.0625 39.8875 48.9688 40.3625C48.8563 40.9125 48.6406 41.3781 48.3219 41.7594C48.0031 42.1406 47.575 42.5187 47.0375 42.8937C47.2875 42.9937 47.525 43.1281 47.75 43.2969C47.975 43.4656 48.1906 43.6812 48.3969 43.9437C48.6031 44.2062 48.75 44.5281 48.8375 44.9094C48.925 45.2906 48.925 45.7 48.8375 46.1375C48.6875 46.925 48.3781 47.6156 47.9094 48.2094C47.4406 48.8031 46.8688 49.2656 46.1938 49.5969C45.5188 49.9281 44.7938 50.0938 44.0188 50.0938C43.0313 50.0938 42.3125 49.9062 41.8625 49.5312C41.825 49.4937 41.8 49.4125 41.7875 49.2875C41.775 49.1625 41.775 49.0625 41.7875 48.9875C41.9188 48.4 42.1938 48.1062 42.6125 48.1062C42.7813 48.1062 42.9313 48.2125 43.0625 48.425C43.2 48.6312 43.3375 48.8062 43.475 48.95C43.7688 49.2125 44.1813 49.3437 44.7125 49.3437C45.175 49.3437 45.6469 49.1531 46.1281 48.7719C46.3719 48.5781 46.5938 48.2969 46.7938 47.9281C46.9938 47.5594 47.1438 47.125 47.2438 46.625C47.3438 46.1312 47.3281 45.6875 47.1969 45.2937C47.0719 44.8937 46.8656 44.575 46.5781 44.3375C46.2906 44.1 45.95 43.9812 45.5563 43.9812C45.1438 43.9812 44.7563 44.025 44.3938 44.1125C44.3188 43.9937 44.3063 43.8312 44.3563 43.625C44.3688 43.5875 44.3813 43.5531 44.3938 43.5219C44.4063 43.4906 44.4188 43.4625 44.4313 43.4375C45.2688 43.2875 45.9688 42.9875 46.5313 42.5375C47.0938 42.0875 47.45 41.475 47.6 40.7C47.6875 40.275 47.6094 39.8969 47.3656 39.5656C47.1219 39.2344 46.8 39.0687 46.4 39.0687C46.15 39.0687 45.9063 39.1156 45.6688 39.2094C45.4313 39.3031 45.25 39.4 45.125 39.5C45.0125 39.5875 44.8969 39.6906 44.7781 39.8094C44.6594 39.9281 44.575 40 44.525 40.025C44.475 40.025 44.4406 39.9656 44.4219 39.8469C44.4031 39.7281 44.4 39.625 44.4125 39.5375C44.825 39.0375 45.2563 38.65 45.7063 38.375C46.1563 38.1 46.6938 37.9625 47.3188 37.9625Z" fill="black"/>
<path d="M4.35 25.7375C4.55625 25.7375 4.82813 25.7312 5.16563 25.7187C5.50938 25.7062 5.91875 25.6875 6.39375 25.6625V25.7187C6.39375 26.0187 6.35 26.1687 6.2625 26.1687C5.825 26.1687 5.52813 26.2219 5.37188 26.3281C5.21563 26.4344 5.1375 26.6125 5.1375 26.8625C5.1375 27.0125 5.1625 27.2125 5.2125 27.4625L6.65625 35.3187L11.1563 27.6125C11.3063 27.35 11.3813 27.05 11.3813 26.7125C11.3813 26.55 11.275 26.4187 11.0625 26.3187C10.85 26.2187 10.6188 26.1687 10.3688 26.1687C10.3438 26.1687 10.3313 26.1375 10.3313 26.075C10.3313 25.8687 10.375 25.7312 10.4625 25.6625C10.9125 25.6875 11.2813 25.7062 11.5688 25.7187C11.8625 25.7312 12.075 25.7375 12.2063 25.7375C12.35 25.7375 12.575 25.7312 12.8813 25.7187C13.1938 25.7062 13.5875 25.6875 14.0625 25.6625V25.775C14.0375 26.0375 13.9875 26.1687 13.9125 26.1687C13.675 26.1687 13.4063 26.25 13.1063 26.4125C12.8063 26.575 12.5625 26.8187 12.375 27.1437L6.2625 37.6437C6.03125 38.0563 5.79375 38.2625 5.55 38.2625C5.4875 38.2625 5.43125 38.225 5.38125 38.15L3.525 27.6687C3.45 27.2437 3.35625 26.9 3.24375 26.6375C3.18125 26.5 3.04063 26.3875 2.82188 26.3C2.60313 26.2125 2.425 26.1687 2.2875 26.1687C2.2625 26.1687 2.25 26.1375 2.25 26.075C2.25 25.8687 2.29375 25.7312 2.38125 25.6625C2.89375 25.6875 3.3125 25.7062 3.6375 25.7187C3.96875 25.7312 4.20625 25.7375 4.35 25.7375ZM26.8395 33.1437H19.0395C18.9895 33.1437 18.9645 33.1062 18.9645 33.0312C18.9645 32.9937 18.9864 32.9 19.0301 32.75C19.0801 32.5937 19.1364 32.4469 19.1989 32.3094C19.2676 32.1656 19.327 32.0937 19.377 32.0937H27.1583C27.2333 32.0937 27.2708 32.125 27.2708 32.1875C27.2708 32.2625 27.1645 32.5437 26.952 33.0312C26.927 33.1062 26.8895 33.1437 26.8395 33.1437ZM26.427 35.6937L26.2957 35.8062H18.5145C18.452 35.8062 18.4207 35.7687 18.4207 35.6937C18.4207 35.65 18.4457 35.5531 18.4957 35.4031C18.5457 35.2531 18.6051 35.1094 18.6739 34.9719C18.7426 34.8281 18.802 34.7562 18.852 34.7562H26.652C26.727 34.7562 26.7645 34.7875 26.7645 34.85C26.7645 34.875 26.652 35.1562 26.427 35.6937Z" fill="black"/>
<path d="M83.1689 33.992C83.1689 33.416 83.2585 32.9552 83.4377 32.6096C83.6297 32.2512 83.8857 31.9952 84.2057 31.8416C84.5385 31.688 84.9033 31.6112 85.3001 31.6112C85.6969 31.6112 86.0553 31.688 86.3753 31.8416C86.6953 31.9952 86.9513 32.2512 87.1433 32.6096C87.3353 32.9552 87.4313 33.416 87.4313 33.992C87.4313 34.5552 87.3353 35.016 87.1433 35.3744C86.9513 35.72 86.6953 35.976 86.3753 36.1424C86.0553 36.296 85.6969 36.3728 85.3001 36.3728C84.9033 36.3728 84.5385 36.296 84.2057 36.1424C83.8857 35.976 83.6297 35.72 83.4377 35.3744C83.2585 35.016 83.1689 34.5552 83.1689 33.992ZM102.324 28.6625C102.674 28.6625 103.03 28.7031 103.393 28.7844C103.755 28.8656 104.114 28.9969 104.471 29.1781C104.827 29.3594 105.118 29.625 105.343 29.975C105.568 30.325 105.68 30.7375 105.68 31.2125C105.68 31.6 105.596 31.9812 105.427 32.3562C105.258 32.7312 105.058 33.0469 104.827 33.3031C104.577 33.5719 104.308 33.8156 104.021 34.0344C103.714 34.2656 103.455 34.4406 103.243 34.5594C103.03 34.6781 102.836 34.7812 102.661 34.8687C102.549 34.9062 102.518 34.9812 102.568 35.0937C102.73 35.6437 102.924 36.2125 103.149 36.8C103.374 37.3875 103.605 37.9312 103.843 38.4312C104.08 38.925 104.293 39.3187 104.48 39.6125C104.586 39.7875 104.708 39.9437 104.846 40.0812C104.983 40.2125 105.118 40.3 105.249 40.3437C105.286 40.3562 105.318 40.3687 105.343 40.3812C105.374 40.3875 105.399 40.3969 105.418 40.4094C105.449 40.4219 105.508 40.4344 105.596 40.4469C105.652 40.4531 105.739 40.4562 105.858 40.4562C105.983 40.4562 106.061 40.4562 106.093 40.4562C106.18 40.6937 106.186 40.8687 106.111 40.9812C105.818 41.0438 105.455 41.075 105.024 41.075C104.193 41.075 103.511 40.6687 102.98 39.8562C102.711 39.45 102.424 38.8781 102.118 38.1406C101.811 37.4031 101.486 36.5 101.143 35.4312C101.08 35.2562 100.805 35.1687 100.318 35.1687C99.93 35.1687 99.6738 35.1844 99.5488 35.2156C99.4425 35.2406 99.3738 35.3312 99.3425 35.4875L98.7988 38.3937C98.6613 39.0625 98.5925 39.625 98.5925 40.0812C98.5925 40.1812 98.6769 40.2719 98.8456 40.3531C99.0144 40.4344 99.18 40.4875 99.3425 40.5125L99.605 40.55C99.63 40.55 99.6425 40.575 99.6425 40.625C99.6425 40.7625 99.605 40.9062 99.53 41.0563C98.9488 41.025 98.4956 41.0031 98.1706 40.9906C97.8456 40.9719 97.6488 40.9625 97.58 40.9625C97.5613 40.9625 97.38 40.9719 97.0363 40.9906C96.6925 41.0031 96.1863 41.025 95.5175 41.0563C95.4925 41.0313 95.48 40.9812 95.48 40.9062C95.48 40.6687 95.5238 40.55 95.6113 40.55C95.7113 40.55 95.8488 40.5312 96.0238 40.4937C96.205 40.4562 96.3738 40.4062 96.53 40.3437C96.6863 40.2812 96.78 40.2125 96.8113 40.1375C96.9425 39.8187 97.105 39.2187 97.2988 38.3375L98.8363 30.575C98.8988 30.2625 98.93 29.95 98.93 29.6375C98.93 29.4875 98.805 29.3719 98.555 29.2906C98.305 29.2094 98.0988 29.1687 97.9363 29.1687C97.9113 29.1687 97.8988 29.125 97.8988 29.0375C97.8988 28.8562 97.9425 28.7312 98.03 28.6625C98.5675 28.7 99.2175 28.7187 99.98 28.7187C100.33 28.7187 100.721 28.7094 101.152 28.6906C101.583 28.6719 101.974 28.6625 102.324 28.6625ZM102.024 29.3562C101.386 29.3562 100.983 29.375 100.814 29.4125C100.652 29.45 100.555 29.55 100.524 29.7125L99.6238 34.0812V34.1187C99.6238 34.3062 99.9175 34.4 100.505 34.4C101.074 34.4 101.624 34.2906 102.155 34.0719C102.68 33.8531 103.133 33.4844 103.514 32.9656C103.896 32.4469 104.086 31.8312 104.086 31.1187C104.086 29.9437 103.399 29.3562 102.024 29.3562ZM109.912 24.6224C110.82 24.6224 111.505 24.8208 111.966 25.2176C112.427 25.6144 112.657 26.12 112.657 26.7344C112.657 27.2464 112.516 27.6688 112.235 28.0016C111.966 28.3344 111.64 28.5648 111.256 28.6928V28.7504C111.755 28.84 112.152 29.0512 112.446 29.384C112.753 29.704 112.907 30.1264 112.907 30.6512C112.907 31.3936 112.638 32.0016 112.1 32.4752C111.563 32.936 110.724 33.1664 109.585 33.1664C109.112 33.1664 108.67 33.128 108.26 33.0512C107.851 32.9616 107.454 32.8208 107.07 32.6288V31.4192C107.505 31.624 107.94 31.784 108.376 31.8992C108.811 32.0144 109.22 32.072 109.604 32.072C110.27 32.072 110.756 31.944 111.064 31.688C111.371 31.4192 111.524 31.0608 111.524 30.6128C111.524 30.152 111.339 29.8192 110.968 29.6144C110.596 29.3968 110.078 29.288 109.412 29.288H108.318V28.232H109.412C110.052 28.232 110.52 28.1104 110.814 27.8672C111.121 27.6112 111.275 27.2848 111.275 26.888C111.275 26.4784 111.14 26.184 110.872 26.0048C110.616 25.8128 110.302 25.7168 109.931 25.7168C109.534 25.7168 109.163 25.7872 108.817 25.928C108.484 26.056 108.145 26.2288 107.8 26.4464L107.108 25.5632C107.505 25.2688 107.921 25.0384 108.356 24.872C108.804 24.7056 109.323 24.6224 109.912 24.6224Z" fill="black"/>
<path d="M46.8 29.9625L47.4375 26.7375H43.0125C42.9688 26.6375 42.9688 26.4437 43.0125 26.1562L49.8563 18.1312C50 17.9812 50.15 17.9062 50.3063 17.9062C50.4688 17.9062 50.5313 17.9687 50.4938 18.0937L49.0125 25.65H50.2688C50.3813 25.65 50.4188 25.6937 50.3813 25.7812C50.3063 26.1875 50.2063 26.5062 50.0813 26.7375H48.8063L48.1688 30.0188C48.125 30.0813 47.875 30.1125 47.4188 30.1125C47.1938 30.1125 47.0344 30.1031 46.9406 30.0844C46.8469 30.0656 46.8 30.025 46.8 29.9625ZM44.475 25.65H47.6438L48.6188 20.6625C48.6313 20.6375 48.6313 20.6031 48.6188 20.5594C48.6063 20.5156 48.5875 20.4937 48.5625 20.4937L48.525 20.5312L44.4 25.425C44.3875 25.4375 44.3813 25.4562 44.3813 25.4812C44.3563 25.5937 44.3875 25.65 44.475 25.65Z" fill="black"/>
<path d="M65.516 41C65.5407 40.371 65.553 39.742 65.553 39.113C65.5653 38.484 65.5715 37.8488 65.5715 37.2075C65.5715 36.5538 65.5715 35.9063 65.5715 35.265V34.3585C65.5715 33.7172 65.5715 33.0758 65.5715 32.4345C65.5715 31.7932 65.5653 31.1518 65.553 30.5105C65.553 29.8692 65.5407 29.234 65.516 28.605H67.403C67.3907 29.2217 67.3783 29.8507 67.366 30.492C67.3537 31.1333 67.3475 31.7747 67.3475 32.416C67.3475 33.0573 67.3475 33.7048 67.3475 34.3585V35.265C67.3475 35.894 67.3475 36.5292 67.3475 37.1705C67.3475 37.8118 67.3537 38.4532 67.366 39.0945C67.3783 39.7235 67.3907 40.3587 67.403 41H65.516ZM72.9715 41C72.9962 40.371 73.0085 39.742 73.0085 39.113C73.0208 38.484 73.027 37.8488 73.027 37.2075C73.027 36.5538 73.027 35.9063 73.027 35.265V34.3585C73.027 33.7172 73.027 33.0758 73.027 32.4345C73.027 31.7932 73.0208 31.1518 73.0085 30.5105C73.0085 29.8692 72.9962 29.234 72.9715 28.605H74.8585C74.8462 29.2217 74.8338 29.8507 74.8215 30.492C74.8092 31.1333 74.803 31.7747 74.803 32.416C74.803 33.0573 74.803 33.7048 74.803 34.3585V35.265C74.803 35.894 74.803 36.5292 74.803 37.1705C74.803 37.8118 74.8092 38.4532 74.8215 39.0945C74.8338 39.7235 74.8462 40.3587 74.8585 41H72.9715ZM63.7955 41V40.186L66.2375 39.9455H66.663L69.0865 40.186V41H63.7955ZM71.288 41V40.186L73.693 39.9455H74.137L76.5975 40.186V41H71.288ZM63.7955 29.419V28.605H66.367V29.6595H66.182L63.7955 29.419ZM74.0075 29.6595V28.605H76.5975V29.419L74.1925 29.6595H74.0075ZM66.4595 29.493V28.605H73.915V29.493H66.4595Z" fill="black"/>
<path d="M36.4969 34.75H57.003" stroke="black" stroke-linecap="square"/>
</svg>
