<svg width="132" height="52" viewBox="0 0 132 52" fill="none" xmlns="http://www.w3.org/2000/svg">
<path d="M47.3188 37.9625C47.6563 37.9625 47.9656 38.0656 48.2469 38.2719C48.5344 38.4719 48.75 38.7531 48.8938 39.1156C49.0375 39.4719 49.0625 39.8875 48.9688 40.3625C48.8563 40.9125 48.6406 41.3781 48.3219 41.7594C48.0031 42.1406 47.575 42.5187 47.0375 42.8937C47.2875 42.9937 47.525 43.1281 47.75 43.2969C47.975 43.4656 48.1906 43.6812 48.3969 43.9437C48.6031 44.2062 48.75 44.5281 48.8375 44.9094C48.925 45.2906 48.925 45.7 48.8375 46.1375C48.6875 46.925 48.3781 47.6156 47.9094 48.2094C47.4406 48.8031 46.8688 49.2656 46.1938 49.5969C45.5188 49.9281 44.7938 50.0938 44.0188 50.0938C43.0313 50.0938 42.3125 49.9062 41.8625 49.5312C41.825 49.4937 41.8 49.4125 41.7875 49.2875C41.775 49.1625 41.775 49.0625 41.7875 48.9875C41.9188 48.4 42.1938 48.1062 42.6125 48.1062C42.7813 48.1062 42.9313 48.2125 43.0625 48.425C43.2 48.6312 43.3375 48.8062 43.475 48.95C43.7688 49.2125 44.1813 49.3437 44.7125 49.3437C45.175 49.3437 45.6469 49.1531 46.1281 48.7719C46.3719 48.5781 46.5938 48.2969 46.7938 47.9281C46.9938 47.5594 47.1438 47.125 47.2438 46.625C47.3438 46.1312 47.3281 45.6875 47.1969 45.2937C47.0719 44.8937 46.8656 44.575 46.5781 44.3375C46.2906 44.1 45.95 43.9812 45.5563 43.9812C45.1438 43.9812 44.7563 44.025 44.3938 44.1125C44.3188 43.9937 44.3063 43.8312 44.3563 43.625C44.3688 43.5875 44.3813 43.5531 44.3938 43.5219C44.4063 43.4906 44.4188 43.4625 44.4313 43.4375C45.2688 43.2875 45.9688 42.9875 46.5313 42.5375C47.0938 42.0875 47.45 41.475 47.6 40.7C47.6875 40.275 47.6094 39.8969 47.3656 39.5656C47.1219 39.2344 46.8 39.0687 46.4 39.0687C46.15 39.0687 45.9063 39.1156 45.6688 39.2094C45.4313 39.3031 45.25 39.4 45.125 39.5C45.0125 39.5875 44.8969 39.6906 44.7781 39.8094C44.6594 39.9281 44.575 40 44.525 40.025C44.475 40.025 44.4406 39.9656 44.4219 39.8469C44.4031 39.7281 44.4 39.625 44.4125 39.5375C44.825 39.0375 45.2563 38.65 45.7063 38.375C46.1563 38.1 46.6938 37.9625 47.3188 37.9625Z" fill="black"/>
<path d="M4.35 25.7375C4.55625 25.7375 4.82813 25.7312 5.16563 25.7187C5.50938 25.7062 5.91875 25.6875 6.39375 25.6625V25.7187C6.39375 26.0187 6.35 26.1687 6.2625 26.1687C5.825 26.1687 5.52813 26.2219 5.37188 26.3281C5.21563 26.4344 5.1375 26.6125 5.1375 26.8625C5.1375 27.0125 5.1625 27.2125 5.2125 27.4625L6.65625 35.3187L11.1563 27.6125C11.3063 27.35 11.3813 27.05 11.3813 26.7125C11.3813 26.55 11.275 26.4187 11.0625 26.3187C10.85 26.2187 10.6188 26.1687 10.3688 26.1687C10.3438 26.1687 10.3313 26.1375 10.3313 26.075C10.3313 25.8687 10.375 25.7312 10.4625 25.6625C10.9125 25.6875 11.2813 25.7062 11.5688 25.7187C11.8625 25.7312 12.075 25.7375 12.2063 25.7375C12.35 25.7375 12.575 25.7312 12.8813 25.7187C13.1938 25.7062 13.5875 25.6875 14.0625 25.6625V25.775C14.0375 26.0375 13.9875 26.1687 13.9125 26.1687C13.675 26.1687 13.4063 26.25 13.1063 26.4125C12.8063 26.575 12.5625 26.8187 12.375 27.1437L6.2625 37.6437C6.03125 38.0563 5.79375 38.2625 5.55 38.2625C5.4875 38.2625 5.43125 38.225 5.38125 38.15L3.525 27.6687C3.45 27.2437 3.35625 26.9 3.24375 26.6375C3.18125 26.5 3.04063 26.3875 2.82188 26.3C2.60313 26.2125 2.425 26.1687 2.2875 26.1687C2.2625 26.1687 2.25 26.1375 2.25 26.075C2.25 25.8687 2.29375 25.7312 2.38125 25.6625C2.89375 25.6875 3.3125 25.7062 3.6375 25.7187C3.96875 25.7312 4.20625 25.7375 4.35 25.7375ZM26.8395 33.1437H19.0395C18.9895 33.1437 18.9645 33.1062 18.9645 33.0312C18.9645 32.9937 18.9864 32.9 19.0301 32.75C19.0801 32.5937 19.1364 32.4469 19.1989 32.3094C19.2676 32.1656 19.327 32.0937 19.377 32.0937H27.1583C27.2333 32.0937 27.2708 32.125 27.2708 32.1875C27.2708 32.2625 27.1645 32.5437 26.952 33.0312C26.927 33.1062 26.8895 33.1437 26.8395 33.1437ZM26.427 35.6937L26.2957 35.8062H18.5145C18.452 35.8062 18.4207 35.7687 18.4207 35.6937C18.4207 35.65 18.4457 35.5531 18.4957 35.4031C18.5457 35.2531 18.6051 35.1094 18.6739 34.9719C18.7426 34.8281 18.802 34.7562 18.852 34.7562H26.652C26.727 34.7562 26.7645 34.7875 26.7645 34.85C26.7645 34.875 26.652 35.1562 26.427 35.6937Z" fill="black"/>
<path d="M65.1689 33.992C65.1689 33.416 65.2585 32.9552 65.4377 32.6096C65.6297 32.2512 65.8857 31.9952 66.2057 31.8416C66.5385 31.688 66.9033 31.6112 67.3001 31.6112C67.6969 31.6112 68.0553 31.688 68.3753 31.8416C68.6953 31.9952 68.9513 32.2512 69.1433 32.6096C69.3353 32.9552 69.4313 33.416 69.4313 33.992C69.4313 34.5552 69.3353 35.016 69.1433 35.3744C68.9513 35.72 68.6953 35.976 68.3753 36.1424C68.0553 36.296 67.6969 36.3728 67.3001 36.3728C66.9033 36.3728 66.5385 36.296 66.2057 36.1424C65.8857 35.976 65.6297 35.72 65.4377 35.3744C65.2585 35.016 65.1689 34.5552 65.1689 33.992ZM82.1675 31.3437L80.8363 38.3937C80.7113 39.1312 80.6488 39.5937 80.6488 39.7812C80.6488 39.9687 80.7019 40.0812 80.8081 40.1187C80.9144 40.1562 81.2488 40.175 81.8113 40.175H82.655C83.7488 40.175 84.505 40.0687 84.9238 39.8562C85.1238 39.7562 85.3581 39.5344 85.6269 39.1906C85.8956 38.8469 86.1488 38.4375 86.3863 37.9625C86.4238 37.8875 86.5175 37.85 86.6675 37.85C86.8863 37.85 87.0175 37.8875 87.0613 37.9625C86.1863 39.5937 85.6738 40.6312 85.5238 41.075C84.8738 41.075 83.8488 41.0563 82.4488 41.0188C81.055 40.9812 80.105 40.9625 79.5988 40.9625L77.5175 41.0563C77.505 41.0438 77.4988 40.9937 77.4988 40.9062C77.4988 40.6062 77.5425 40.4562 77.63 40.4562C77.7425 40.4562 77.8863 40.4406 78.0613 40.4094C78.2425 40.3719 78.4113 40.325 78.5675 40.2687C78.7238 40.2062 78.8175 40.1437 78.8488 40.0812C79.0238 39.725 79.1863 39.1437 79.3363 38.3375L80.6675 31.4C80.805 30.7312 80.8738 30.1562 80.8738 29.675C80.8738 29.5812 80.8081 29.4969 80.6769 29.4219C80.5519 29.3469 80.405 29.2875 80.2363 29.2437C80.0738 29.1937 79.9363 29.1687 79.8238 29.1687C79.7988 29.1687 79.7863 29.1375 79.7863 29.075C79.7863 28.9 79.8363 28.7625 79.9363 28.6625C80.0363 28.6687 80.205 28.6812 80.4425 28.7C80.6863 28.7187 80.9488 28.7375 81.23 28.7562C81.5113 28.7687 81.755 28.775 81.9613 28.775C82.2613 28.775 82.6456 28.7562 83.1144 28.7187C83.5831 28.6812 83.8613 28.6625 83.9488 28.6625V28.7187C83.9488 29.0187 83.905 29.1687 83.8175 29.1687C83.755 29.1687 83.6331 29.1937 83.4519 29.2437C83.2769 29.2875 83.105 29.3437 82.9363 29.4125C82.7738 29.475 82.68 29.5375 82.655 29.6C82.4863 29.9687 82.3238 30.55 82.1675 31.3437ZM93.0487 33.0128H87.4423V31.8224L89.6119 29.6912C90.0983 29.2304 90.4631 28.8528 90.7063 28.5584C90.9623 28.264 91.1351 28.0016 91.2247 27.7712C91.3271 27.528 91.3783 27.2784 91.3783 27.0224C91.3783 26.664 91.2695 26.3952 91.0519 26.216C90.8471 26.024 90.5719 25.928 90.2263 25.928C89.8807 25.928 89.5543 25.9984 89.2471 26.1392C88.9527 26.28 88.6391 26.4848 88.3063 26.7536L87.4807 25.7168C87.8647 25.384 88.2871 25.1216 88.7479 24.9296C89.2087 24.7248 89.7335 24.6224 90.3223 24.6224C91.1415 24.6224 91.7879 24.8272 92.2615 25.2368C92.7479 25.6336 92.9911 26.1904 92.9911 26.9072C92.9911 27.3168 92.9079 27.6944 92.7415 28.04C92.5879 28.3856 92.3447 28.7376 92.0119 29.096C91.6919 29.4544 91.2951 29.864 90.8215 30.3248L89.4391 31.6112H93.0487V33.0128ZM101.293 33.992C101.293 33.416 101.382 32.9552 101.561 32.6096C101.753 32.2512 102.009 31.9952 102.329 31.8416C102.662 31.688 103.027 31.6112 103.424 31.6112C103.821 31.6112 104.179 31.688 104.499 31.8416C104.819 31.9952 105.075 32.2512 105.267 32.6096C105.459 32.9552 105.555 33.416 105.555 33.992C105.555 34.5552 105.459 35.016 105.267 35.3744C105.075 35.72 104.819 35.976 104.499 36.1424C104.179 36.296 103.821 36.3728 103.424 36.3728C103.027 36.3728 102.662 36.296 102.329 36.1424C102.009 35.976 101.753 35.72 101.561 35.3744C101.382 35.016 101.293 34.5552 101.293 33.992ZM120.616 34.1562C122.248 34.1562 123.066 34.1062 123.073 34.0062L123.579 31.4C123.716 30.7312 123.785 30.1562 123.785 29.675C123.785 29.5812 123.719 29.4969 123.588 29.4219C123.463 29.3469 123.316 29.2875 123.148 29.2437C122.985 29.1937 122.848 29.1687 122.735 29.1687C122.71 29.1687 122.698 29.1375 122.698 29.075C122.698 28.9 122.748 28.7625 122.848 28.6625C122.948 28.6687 123.116 28.6812 123.354 28.7C123.598 28.7187 123.86 28.7375 124.141 28.7562C124.423 28.7687 124.666 28.775 124.873 28.775C125.179 28.775 125.569 28.7562 126.044 28.7187C126.526 28.6812 126.804 28.6625 126.879 28.6625V28.7187C126.879 29.0187 126.835 29.1687 126.748 29.1687C126.685 29.1687 126.566 29.1937 126.391 29.2437C126.216 29.2875 126.048 29.3437 125.885 29.4125C125.723 29.475 125.629 29.5375 125.604 29.6C125.423 30 125.26 30.5812 125.116 31.3437L123.748 38.3937C123.61 39.0625 123.541 39.625 123.541 40.0812C123.541 40.1812 123.626 40.2719 123.794 40.3531C123.963 40.4344 124.135 40.4875 124.31 40.5125L124.554 40.55C124.579 40.55 124.591 40.575 124.591 40.625C124.591 40.7625 124.554 40.9062 124.479 41.0563C123.898 41.025 123.444 41.0031 123.119 40.9906C122.794 40.9719 122.598 40.9625 122.529 40.9625C122.51 40.9625 122.329 40.9719 121.985 40.9906C121.641 41.0031 121.135 41.025 120.466 41.0563C120.441 41.0313 120.429 40.9812 120.429 40.9062C120.429 40.6687 120.473 40.55 120.56 40.55C120.66 40.55 120.798 40.5312 120.973 40.4937C121.154 40.4562 121.323 40.4062 121.479 40.3437C121.635 40.2812 121.729 40.2125 121.76 40.1375C121.941 39.725 122.104 39.125 122.248 38.3375L122.848 35.2437V35.225C122.848 35.1625 122.701 35.1219 122.407 35.1031C122.119 35.0844 121.41 35.075 120.279 35.075C118.485 35.075 117.573 35.15 117.541 35.3L116.941 38.3937C116.804 39.0625 116.735 39.625 116.735 40.0812C116.735 40.1812 116.819 40.2719 116.988 40.3531C117.157 40.4344 117.323 40.4875 117.485 40.5125L117.748 40.55C117.773 40.55 117.785 40.575 117.785 40.625C117.785 40.7625 117.748 40.9062 117.673 41.0563C117.098 41.025 116.648 41.0031 116.323 40.9906C115.998 40.9719 115.798 40.9625 115.723 40.9625C115.71 40.9625 115.532 40.9719 115.188 40.9906C114.844 41.0031 114.335 41.025 113.66 41.0563C113.635 41.0313 113.623 40.9812 113.623 40.9062C113.623 40.6687 113.666 40.55 113.754 40.55C113.854 40.55 113.991 40.5312 114.166 40.4937C114.348 40.4562 114.516 40.4062 114.673 40.3437C114.829 40.2812 114.923 40.2125 114.954 40.1375C115.135 39.725 115.298 39.125 115.441 38.3375L116.773 31.4C116.91 30.7312 116.979 30.1562 116.979 29.675C116.979 29.5812 116.913 29.4969 116.782 29.4219C116.657 29.3469 116.51 29.2875 116.341 29.2437C116.179 29.1937 116.041 29.1687 115.929 29.1687C115.904 29.1687 115.891 29.1375 115.891 29.075C115.891 28.9 115.941 28.7625 116.041 28.6625C116.141 28.6687 116.31 28.6812 116.548 28.7C116.791 28.7187 117.054 28.7375 117.335 28.7562C117.616 28.7687 117.86 28.775 118.066 28.775C118.366 28.775 118.751 28.7562 119.219 28.7187C119.688 28.6812 119.966 28.6625 120.054 28.6625V28.7187C120.054 29.0187 120.01 29.1687 119.923 29.1687C119.86 29.1687 119.738 29.1937 119.557 29.2437C119.382 29.2875 119.21 29.3437 119.041 29.4125C118.879 29.475 118.785 29.5375 118.76 29.6C118.554 30.0812 118.391 30.6625 118.273 31.3437L117.804 33.9875V34.0062C117.804 34.0687 117.969 34.1094 118.301 34.1281C118.632 34.1469 119.404 34.1562 120.616 34.1562Z" fill="black"/>
<path d="M45.7688 20.7C45.7063 20.6625 45.6531 20.5906 45.6094 20.4844C45.5656 20.3781 45.5438 20.2937 45.5438 20.2312C45.5438 20.1937 45.5625 20.1562 45.6 20.1187C47.8563 18.6812 49 17.9625 49.0313 17.9625H49.0688C49.1688 17.9625 49.2188 18.0812 49.2188 18.3187C49.0188 18.7375 48.8438 19.325 48.6938 20.0812L47.2688 27.4687C47.2 27.85 47.15 28.1812 47.1188 28.4625C47.0875 28.7375 47.075 28.9625 47.0813 29.1375C47.0938 29.1937 47.1719 29.2531 47.3156 29.3156C47.4656 29.3719 47.625 29.4187 47.7938 29.4562C47.9688 29.4937 48.0938 29.5125 48.1688 29.5125C48.2063 29.5125 48.2063 29.625 48.1688 29.85C48.1625 29.95 48.1438 30.0188 48.1125 30.0563C47.5375 30.025 47.075 30.0031 46.725 29.9906C46.3813 29.9719 46.15 29.9625 46.0313 29.9625C45.9438 29.9625 45.7281 29.9719 45.3844 29.9906C45.0469 30.0031 44.5813 30.025 43.9875 30.0563C43.95 30.0063 43.95 29.9031 43.9875 29.7469C44.025 29.5906 44.0625 29.5125 44.1 29.5125C44.2125 29.5125 44.3656 29.4937 44.5594 29.4562C44.7531 29.4187 44.9344 29.3719 45.1031 29.3156C45.2719 29.2531 45.3688 29.1937 45.3938 29.1375C45.4875 28.9437 45.5875 28.5875 45.6938 28.0687L47.0063 21.3187C47.0813 20.95 47.1281 20.675 47.1469 20.4937C47.1719 20.2187 47.125 20.0812 47.0063 20.0812C46.9313 20.0812 46.8063 20.125 46.6313 20.2125C46.4625 20.3 46.2938 20.3937 46.125 20.4937C45.9563 20.5937 45.8375 20.6625 45.7688 20.7Z" fill="black"/>
<path d="M36.4969 34.75H57.003" stroke="black" stroke-linecap="square"/>
</svg>
