<svg width="18" height="8" viewBox="0 0 18 8" fill="none" xmlns="http://www.w3.org/2000/svg">
<path d="M3.06563 5.31953C3.06563 5.29141 3.03633 5.27383 2.97773 5.2668C2.91914 5.25977 2.83125 5.25508 2.71406 5.25273C2.59922 5.25039 2.47969 5.24922 2.35547 5.24922C2.30625 5.24922 2.22656 5.25273 2.11641 5.25977C2.00859 5.26445 1.87031 5.27266 1.70156 5.28437C1.6875 5.28437 1.62422 5.37812 1.51172 5.56562C1.43672 5.68984 1.36055 5.82461 1.2832 5.96992C1.2082 6.11523 1.14492 6.24766 1.09336 6.36719C1.04414 6.48437 1.01953 6.56641 1.01953 6.61328C1.01953 6.66016 1.04414 6.7 1.09336 6.73281C1.14492 6.76562 1.20117 6.79023 1.26211 6.80664C1.32539 6.82305 1.37344 6.83125 1.40625 6.83125C1.41563 6.83125 1.42031 6.84531 1.42031 6.87344C1.42031 6.92734 1.40859 6.97656 1.38516 7.02109C1.16719 7.00938 1.00195 7.00117 0.889453 6.99648C0.779297 6.98945 0.721875 6.98594 0.717188 6.98594C0.675 6.98594 0.605859 6.98828 0.509766 6.99297C0.413672 6.99766 0.31875 7.00234 0.225 7.00703C0.13125 7.01406 0.065625 7.01875 0.028125 7.02109C0.01875 7.01172 0.0140625 6.99297 0.0140625 6.96484C0.0140625 6.87578 0.0304688 6.83125 0.0632813 6.83125C0.114844 6.83125 0.186328 6.81719 0.277734 6.78906C0.369141 6.76094 0.433594 6.72578 0.471094 6.68359C0.574219 6.56875 0.717188 6.34844 0.9 6.02266L2.84063 2.53516C2.91094 2.40859 3.00234 2.34531 3.11484 2.34531C3.13594 2.34531 3.15469 2.35 3.17109 2.35937L3.75469 6.07187C3.80156 6.36719 3.82969 6.53594 3.83906 6.57812C3.84844 6.625 3.88008 6.66836 3.93398 6.7082C3.98789 6.7457 4.04531 6.77617 4.10625 6.79961C4.16953 6.8207 4.21641 6.83125 4.24688 6.83125C4.25625 6.83125 4.26094 6.84297 4.26094 6.86641C4.26094 6.925 4.24922 6.97656 4.22578 7.02109C4.00781 7.00938 3.83789 7.00117 3.71602 6.99648C3.59414 6.98945 3.52031 6.98594 3.49453 6.98594C3.45 6.98594 3.40664 6.98711 3.36445 6.98945C3.32461 6.98945 3.28477 6.99062 3.24492 6.99297C3.17227 6.99766 3.08672 7.00234 2.98828 7.00703C2.89219 7.01172 2.81016 7.01641 2.74219 7.02109C2.7375 7.01641 2.73516 7.00234 2.73516 6.97891C2.73516 6.88047 2.75156 6.83125 2.78438 6.83125C2.83125 6.83125 2.89688 6.81719 2.98125 6.78906C3.06563 6.76094 3.11953 6.72812 3.14297 6.69062C3.17578 6.61797 3.19219 6.50781 3.19219 6.36016C3.19219 6.28047 3.15 5.93359 3.06563 5.31953ZM2.44688 4.90469C2.55469 4.90469 2.65195 4.90352 2.73867 4.90117C2.82773 4.89883 2.90625 4.89531 2.97422 4.89062C2.99297 4.89062 3.00234 4.88125 3.00234 4.8625C3.00234 4.83203 2.98711 4.72187 2.95664 4.53203C2.93789 4.40078 2.91563 4.25195 2.88984 4.08555C2.86406 3.91914 2.83945 3.76328 2.81602 3.61797C2.79492 3.47266 2.77969 3.36719 2.77031 3.30156C2.19375 4.34453 1.90547 4.87187 1.90547 4.88359C1.90547 4.89297 1.90781 4.89766 1.9125 4.89766C1.96641 4.9 2.03789 4.90234 2.12695 4.90469C2.21602 4.90469 2.32266 4.90469 2.44688 4.90469ZM9.82575 5.17891H6.90075C6.882 5.17891 6.87263 5.16484 6.87263 5.13672C6.87263 5.12266 6.88083 5.0875 6.89723 5.03125C6.91598 4.97266 6.93708 4.91758 6.96052 4.86602C6.9863 4.81211 7.00856 4.78516 7.02731 4.78516H9.94528C9.97341 4.78516 9.98747 4.79687 9.98747 4.82031C9.98747 4.84844 9.94763 4.95391 9.86794 5.13672C9.85856 5.16484 9.8445 5.17891 9.82575 5.17891ZM9.67106 6.13516L9.62184 6.17734H6.70388C6.68044 6.17734 6.66872 6.16328 6.66872 6.13516C6.66872 6.11875 6.67809 6.08242 6.69684 6.02617C6.71559 5.96992 6.73786 5.91602 6.76364 5.86445C6.78942 5.81055 6.81169 5.78359 6.83044 5.78359H9.75544C9.78356 5.78359 9.79763 5.79531 9.79763 5.81875C9.79763 5.82812 9.75544 5.93359 9.67106 6.13516ZM14.8984 5.79062C14.8984 5.65 14.8421 5.51289 14.7296 5.3793C14.6171 5.2457 14.4812 5.12383 14.3218 5.01367C14.2421 4.95977 14.1624 4.90469 14.0828 4.84844C14.0031 4.79219 13.9222 4.73477 13.8402 4.67617C13.6785 4.56133 13.5413 4.42656 13.4288 4.27187C13.3163 4.11719 13.2601 3.95312 13.2601 3.77969C13.2601 3.49844 13.3304 3.24766 13.471 3.02734C13.614 2.80703 13.8038 2.63359 14.0406 2.50703C14.2796 2.38047 14.5445 2.31719 14.8351 2.31719C14.9593 2.31719 15.1163 2.34297 15.3062 2.39453C15.4023 2.42031 15.4867 2.44141 15.5593 2.45781C15.632 2.47187 15.6929 2.48125 15.7421 2.48594C15.7257 2.61484 15.7093 2.74492 15.6929 2.87617C15.6788 3.00508 15.6648 3.13516 15.6507 3.26641C15.6367 3.4 15.6261 3.47969 15.6191 3.50547C15.612 3.52891 15.6015 3.54062 15.5874 3.54062C15.5195 3.54062 15.4656 3.52656 15.4257 3.49844C15.4163 3.49609 15.4117 3.46797 15.4117 3.41406C15.4117 3.26641 15.3788 3.13281 15.3132 3.01328C15.2476 2.89375 15.1609 2.79883 15.0531 2.72852C14.9453 2.65586 14.8281 2.61953 14.7015 2.61953C14.4343 2.61953 14.2187 2.70039 14.0546 2.86211C13.8906 3.02383 13.8085 3.22656 13.8085 3.47031C13.8085 3.71875 13.9234 3.93437 14.1531 4.11719C14.2843 4.22031 14.4378 4.33164 14.6136 4.45117C14.7917 4.56836 14.9464 4.68203 15.0777 4.79219C15.1738 4.87187 15.2687 4.98555 15.3624 5.1332C15.4562 5.28086 15.5031 5.43672 15.5031 5.60078C15.5031 5.74609 15.4679 5.90078 15.3976 6.06484C15.3273 6.22891 15.2265 6.38477 15.0953 6.53242C14.964 6.68008 14.7906 6.80195 14.5749 6.89805C14.3593 6.99414 14.1226 7.04219 13.8648 7.04219C13.6117 7.04219 13.239 6.98594 12.7468 6.87344C12.7562 6.72344 12.7632 6.60156 12.7679 6.50781C12.7726 6.41172 12.7749 6.34375 12.7749 6.30391C12.7749 6.20078 12.7726 6.09766 12.7679 5.99453C12.7632 5.89141 12.7609 5.81406 12.7609 5.7625C12.7609 5.72969 12.8054 5.71328 12.8945 5.71328C12.939 5.71328 12.9835 5.73203 13.0281 5.76953C13.0281 5.86797 13.0386 5.96641 13.0597 6.06484C13.0808 6.16328 13.1206 6.26875 13.1792 6.38125C13.2378 6.49375 13.3316 6.58398 13.4605 6.65195C13.5894 6.71992 13.7453 6.75391 13.9281 6.75391C14.0945 6.75391 14.2515 6.71523 14.3992 6.63789C14.5468 6.56055 14.6663 6.45039 14.7578 6.30742C14.8515 6.16211 14.8984 5.98984 14.8984 5.79062ZM17.9593 4.0048H15.8569V3.5584L16.6705 2.7592C16.8529 2.5864 16.9897 2.4448 17.0809 2.3344C17.1769 2.224 17.2417 2.1256 17.2753 2.0392C17.3137 1.948 17.3329 1.8544 17.3329 1.7584C17.3329 1.624 17.2921 1.5232 17.2105 1.456C17.1337 1.384 17.0305 1.348 16.9009 1.348C16.7713 1.348 16.6489 1.3744 16.5337 1.4272C16.4233 1.48 16.3057 1.5568 16.1809 1.6576L15.8713 1.2688C16.0153 1.144 16.1737 1.0456 16.3465 0.9736C16.5193 0.8968 16.7161 0.858399 16.9369 0.858399C17.2441 0.858399 17.4865 0.935199 17.6641 1.0888C17.8465 1.2376 17.9377 1.4464 17.9377 1.7152C17.9377 1.8688 17.9065 2.0104 17.8441 2.14C17.7865 2.2696 17.6953 2.4016 17.5705 2.536C17.4505 2.6704 17.3017 2.824 17.1241 2.9968L16.6057 3.4792H17.9593V4.0048Z" fill="black"/>
</svg>
