<svg width="99" height="52" viewBox="0 0 99 52" fill="none" xmlns="http://www.w3.org/2000/svg">
<path d="M39.7688 40.7C39.7063 40.6625 39.6531 40.5906 39.6094 40.4844C39.5656 40.3781 39.5438 40.2937 39.5438 40.2312C39.5438 40.1937 39.5625 40.1562 39.6 40.1187C41.8563 38.6812 43 37.9625 43.0313 37.9625H43.0688C43.1688 37.9625 43.2188 38.0812 43.2188 38.3187C43.0188 38.7375 42.8438 39.325 42.6938 40.0812L41.2688 47.4687C41.2 47.85 41.15 48.1812 41.1188 48.4625C41.0875 48.7375 41.075 48.9625 41.0813 49.1375C41.0938 49.1937 41.1719 49.2531 41.3156 49.3156C41.4656 49.3719 41.625 49.4187 41.7938 49.4562C41.9688 49.4937 42.0938 49.5125 42.1688 49.5125C42.2063 49.5125 42.2063 49.625 42.1688 49.85C42.1625 49.95 42.1438 50.0188 42.1125 50.0563C41.5375 50.025 41.075 50.0031 40.725 49.9906C40.3813 49.9719 40.15 49.9625 40.0313 49.9625C39.9438 49.9625 39.7281 49.9719 39.3844 49.9906C39.0469 50.0031 38.5813 50.025 37.9875 50.0563C37.95 50.0063 37.95 49.9031 37.9875 49.7469C38.025 49.5906 38.0625 49.5125 38.1 49.5125C38.2125 49.5125 38.3656 49.4937 38.5594 49.4562C38.7531 49.4187 38.9344 49.3719 39.1031 49.3156C39.2719 49.2531 39.3688 49.1937 39.3938 49.1375C39.4875 48.9437 39.5875 48.5875 39.6938 48.0687L41.0063 41.3187C41.0813 40.95 41.1281 40.675 41.1469 40.4937C41.1719 40.2187 41.125 40.0812 41.0063 40.0812C40.9313 40.0812 40.8063 40.125 40.6313 40.2125C40.4625 40.3 40.2938 40.3937 40.125 40.4937C39.9563 40.5937 39.8375 40.6625 39.7688 40.7ZM52.0823 47.075C52.0323 47.2 51.9448 47.425 51.8198 47.75C51.6948 48.0687 51.5635 48.4125 51.426 48.7812C51.2885 49.1437 51.176 49.45 51.0885 49.7C51.0135 49.9 50.876 50 50.676 50H44.9573C44.8823 49.8125 44.8635 49.6062 44.901 49.3812C45.926 48.4562 46.8791 47.5094 47.7604 46.5406C48.6479 45.5719 49.3854 44.6437 49.9729 43.7562C50.5604 42.8625 50.9198 42.075 51.051 41.3937C51.176 40.7187 51.1198 40.1969 50.8823 39.8281C50.6448 39.4594 50.2698 39.275 49.7573 39.275C48.7823 39.275 47.9073 39.7937 47.1323 40.8312C47.0698 40.8312 47.0073 40.7906 46.9448 40.7094C46.8823 40.6281 46.8573 40.5687 46.8698 40.5312C47.0073 40.1875 47.4041 39.7031 48.0604 39.0781C48.3791 38.7719 48.7791 38.5094 49.2604 38.2906C49.7416 38.0719 50.226 37.9625 50.7135 37.9625C51.2448 37.9625 51.6729 38.1219 51.9979 38.4406C52.3291 38.7594 52.5416 39.1437 52.6354 39.5937C52.7291 40.0437 52.726 40.5187 52.626 41.0187C52.551 41.4125 52.4041 41.8344 52.1854 42.2844C51.9666 42.7281 51.7354 43.1344 51.4916 43.5031C51.2479 43.8719 50.926 44.2875 50.526 44.75C50.026 45.325 49.5635 45.8281 49.1385 46.2594C48.7198 46.6844 48.3104 47.075 47.9104 47.4312C47.5166 47.7875 47.1073 48.15 46.6823 48.5187C46.5948 48.6062 46.5948 48.65 46.6823 48.65H49.8885C50.0698 48.65 50.201 48.6406 50.2823 48.6219C50.3635 48.6031 50.4385 48.5719 50.5073 48.5281C50.576 48.4781 50.6791 48.4156 50.8166 48.3406C50.8979 48.2906 50.9791 48.1906 51.0604 48.0406C51.1416 47.8906 51.2198 47.7344 51.2948 47.5719C51.376 47.4031 51.4448 47.275 51.501 47.1875C51.576 47.0625 51.6698 47 51.7823 47C51.951 47 52.051 47.025 52.0823 47.075Z" fill="black"/>
<path d="M4.35 25.7375C4.55625 25.7375 4.82813 25.7312 5.16563 25.7187C5.50938 25.7062 5.91875 25.6875 6.39375 25.6625V25.7187C6.39375 26.0187 6.35 26.1687 6.2625 26.1687C5.825 26.1687 5.52813 26.2219 5.37188 26.3281C5.21563 26.4344 5.1375 26.6125 5.1375 26.8625C5.1375 27.0125 5.1625 27.2125 5.2125 27.4625L6.65625 35.3187L11.1563 27.6125C11.3063 27.35 11.3813 27.05 11.3813 26.7125C11.3813 26.55 11.275 26.4187 11.0625 26.3187C10.85 26.2187 10.6188 26.1687 10.3688 26.1687C10.3438 26.1687 10.3313 26.1375 10.3313 26.075C10.3313 25.8687 10.375 25.7312 10.4625 25.6625C10.9125 25.6875 11.2813 25.7062 11.5688 25.7187C11.8625 25.7312 12.075 25.7375 12.2063 25.7375C12.35 25.7375 12.575 25.7312 12.8813 25.7187C13.1938 25.7062 13.5875 25.6875 14.0625 25.6625V25.775C14.0375 26.0375 13.9875 26.1687 13.9125 26.1687C13.675 26.1687 13.4063 26.25 13.1063 26.4125C12.8063 26.575 12.5625 26.8187 12.375 27.1437L6.2625 37.6437C6.03125 38.0563 5.79375 38.2625 5.55 38.2625C5.4875 38.2625 5.43125 38.225 5.38125 38.15L3.525 27.6687C3.45 27.2437 3.35625 26.9 3.24375 26.6375C3.18125 26.5 3.04063 26.3875 2.82188 26.3C2.60313 26.2125 2.425 26.1687 2.2875 26.1687C2.2625 26.1687 2.25 26.1375 2.25 26.075C2.25 25.8687 2.29375 25.7312 2.38125 25.6625C2.89375 25.6875 3.3125 25.7062 3.6375 25.7187C3.96875 25.7312 4.20625 25.7375 4.35 25.7375ZM26.8395 33.1437H19.0395C18.9895 33.1437 18.9645 33.1062 18.9645 33.0312C18.9645 32.9937 18.9864 32.9 19.0301 32.75C19.0801 32.5937 19.1364 32.4469 19.1989 32.3094C19.2676 32.1656 19.327 32.0937 19.377 32.0937H27.1583C27.2333 32.0937 27.2708 32.125 27.2708 32.1875C27.2708 32.2625 27.1645 32.5437 26.952 33.0312C26.927 33.1062 26.8895 33.1437 26.8395 33.1437ZM26.427 35.6937L26.2957 35.8062H18.5145C18.452 35.8062 18.4207 35.7687 18.4207 35.6937C18.4207 35.65 18.4457 35.5531 18.4957 35.4031C18.5457 35.2531 18.6051 35.1094 18.6739 34.9719C18.7426 34.8281 18.802 34.7562 18.852 34.7562H26.652C26.727 34.7562 26.7645 34.7875 26.7645 34.85C26.7645 34.875 26.652 35.1562 26.427 35.6937Z" fill="black"/>
<path d="M65.1689 33.992C65.1689 33.416 65.2585 32.9552 65.4377 32.6096C65.6297 32.2512 65.8857 31.9952 66.2057 31.8416C66.5385 31.688 66.9033 31.6112 67.3001 31.6112C67.6969 31.6112 68.0553 31.688 68.3753 31.8416C68.6953 31.9952 68.9513 32.2512 69.1433 32.6096C69.3353 32.9552 69.4313 33.416 69.4313 33.992C69.4313 34.5552 69.3353 35.016 69.1433 35.3744C68.9513 35.72 68.6953 35.976 68.3753 36.1424C68.0553 36.296 67.6969 36.3728 67.3001 36.3728C66.9033 36.3728 66.5385 36.296 66.2057 36.1424C65.8857 35.976 65.6297 35.72 65.4377 35.3744C65.2585 35.016 65.1689 34.5552 65.1689 33.992ZM85.2238 36.5187C85.2238 36.4437 85.1456 36.3969 84.9894 36.3781C84.8331 36.3594 84.5988 36.3469 84.2863 36.3406C83.98 36.3344 83.6613 36.3312 83.33 36.3312C83.1988 36.3312 82.9863 36.3406 82.6925 36.3594C82.405 36.3719 82.0363 36.3937 81.5863 36.425C81.5488 36.425 81.38 36.675 81.08 37.175C80.88 37.5062 80.6769 37.8656 80.4706 38.2531C80.2706 38.6406 80.1019 38.9937 79.9644 39.3125C79.8331 39.625 79.7675 39.8437 79.7675 39.9687C79.7675 40.0937 79.8331 40.2 79.9644 40.2875C80.1019 40.375 80.2519 40.4406 80.4144 40.4844C80.5831 40.5281 80.7113 40.55 80.7988 40.55C80.8238 40.55 80.8363 40.5875 80.8363 40.6625C80.8363 40.8062 80.805 40.9375 80.7425 41.0563C80.1613 41.025 79.7206 41.0031 79.4206 40.9906C79.1269 40.9719 78.9738 40.9625 78.9613 40.9625C78.8488 40.9625 78.6644 40.9687 78.4081 40.9812C78.1519 40.9937 77.8988 41.0063 77.6488 41.0188C77.3988 41.0375 77.2238 41.05 77.1238 41.0563C77.0988 41.0313 77.0863 40.9812 77.0863 40.9062C77.0863 40.6687 77.13 40.55 77.2175 40.55C77.355 40.55 77.5456 40.5125 77.7894 40.4375C78.0331 40.3625 78.205 40.2687 78.305 40.1562C78.58 39.85 78.9613 39.2625 79.4488 38.3937L84.6238 29.0937C84.8113 28.7562 85.055 28.5875 85.355 28.5875C85.4113 28.5875 85.4613 28.6 85.505 28.625L87.0613 38.525C87.1863 39.3125 87.2613 39.7625 87.2863 39.875C87.3113 40 87.3956 40.1156 87.5394 40.2219C87.6831 40.3219 87.8363 40.4031 87.9988 40.4656C88.1675 40.5219 88.2925 40.55 88.3738 40.55C88.3988 40.55 88.4113 40.5812 88.4113 40.6437C88.4113 40.8 88.38 40.9375 88.3175 41.0563C87.7363 41.025 87.2831 41.0031 86.9581 40.9906C86.6331 40.9719 86.4363 40.9625 86.3675 40.9625C86.2488 40.9625 86.1331 40.9656 86.0206 40.9719C85.9144 40.9719 85.8081 40.975 85.7019 40.9812C85.5081 40.9937 85.28 41.0063 85.0175 41.0188C84.7613 41.0313 84.5425 41.0438 84.3613 41.0563C84.3488 41.0438 84.3425 41.0063 84.3425 40.9437C84.3425 40.6812 84.3863 40.55 84.4738 40.55C84.5988 40.55 84.7738 40.5125 84.9988 40.4375C85.2238 40.3625 85.3675 40.275 85.43 40.175C85.5175 39.9812 85.5613 39.6875 85.5613 39.2937C85.5613 39.0812 85.4488 38.1562 85.2238 36.5187ZM83.5738 35.4125C83.8613 35.4125 84.1206 35.4094 84.3519 35.4031C84.5894 35.3969 84.7988 35.3875 84.98 35.375C85.03 35.375 85.055 35.35 85.055 35.3C85.055 35.2187 85.0144 34.925 84.9331 34.4187C84.8831 34.0687 84.8238 33.6719 84.755 33.2281C84.6863 32.7844 84.6206 32.3687 84.5581 31.9812C84.5019 31.5937 84.4613 31.3125 84.4363 31.1375C82.8988 33.9187 82.13 35.325 82.13 35.3562C82.13 35.3812 82.1363 35.3937 82.1488 35.3937C82.2925 35.4 82.4831 35.4062 82.7206 35.4125C82.9581 35.4125 83.2425 35.4125 83.5738 35.4125ZM92.1553 24.6224C93.0641 24.6224 93.7489 24.8208 94.2097 25.2176C94.6705 25.6144 94.9009 26.12 94.9009 26.7344C94.9009 27.2464 94.7601 27.6688 94.4785 28.0016C94.2097 28.3344 93.8833 28.5648 93.4993 28.6928V28.7504C93.9985 28.84 94.3953 29.0512 94.6897 29.384C94.9969 29.704 95.1505 30.1264 95.1505 30.6512C95.1505 31.3936 94.8817 32.0016 94.3441 32.4752C93.8065 32.936 92.9681 33.1664 91.8289 33.1664C91.3553 33.1664 90.9137 33.128 90.5041 33.0512C90.0945 32.9616 89.6977 32.8208 89.3137 32.6288V31.4192C89.7489 31.624 90.1841 31.784 90.6193 31.8992C91.0545 32.0144 91.4641 32.072 91.8481 32.072C92.5137 32.072 93.0001 31.944 93.3073 31.688C93.6145 31.4192 93.7681 31.0608 93.7681 30.6128C93.7681 30.152 93.5825 29.8192 93.2113 29.6144C92.8401 29.3968 92.3217 29.288 91.6561 29.288H90.5617V28.232H91.6561C92.2961 28.232 92.7633 28.1104 93.0577 27.8672C93.3649 27.6112 93.5185 27.2848 93.5185 26.888C93.5185 26.4784 93.3841 26.184 93.1153 26.0048C92.8593 25.8128 92.5457 25.7168 92.1745 25.7168C91.7777 25.7168 91.4065 25.7872 91.0609 25.928C90.7281 26.056 90.3889 26.2288 90.0433 26.4464L89.3521 25.5632C89.7489 25.2688 90.1649 25.0384 90.6001 24.872C91.0481 24.7056 91.5665 24.6224 92.1553 24.6224Z" fill="black"/>
<path d="M49.8188 27.075C49.7688 27.2 49.6813 27.425 49.5563 27.75C49.4313 28.0687 49.3 28.4125 49.1625 28.7812C49.025 29.1437 48.9125 29.45 48.825 29.7C48.75 29.9 48.6125 30 48.4125 30H42.6938C42.6188 29.8125 42.6 29.6062 42.6375 29.3812C43.6625 28.4562 44.6156 27.5094 45.4969 26.5406C46.3844 25.5719 47.1219 24.6437 47.7094 23.7562C48.2969 22.8625 48.6563 22.075 48.7875 21.3937C48.9125 20.7187 48.8563 20.1969 48.6188 19.8281C48.3813 19.4594 48.0063 19.275 47.4938 19.275C46.5188 19.275 45.6438 19.7937 44.8688 20.8312C44.8063 20.8312 44.7438 20.7906 44.6813 20.7094C44.6188 20.6281 44.5938 20.5687 44.6063 20.5312C44.7438 20.1875 45.1406 19.7031 45.7969 19.0781C46.1156 18.7719 46.5156 18.5094 46.9969 18.2906C47.4781 18.0719 47.9625 17.9625 48.45 17.9625C48.9813 17.9625 49.4094 18.1219 49.7344 18.4406C50.0656 18.7594 50.2781 19.1437 50.3719 19.5937C50.4656 20.0437 50.4625 20.5187 50.3625 21.0187C50.2875 21.4125 50.1406 21.8344 49.9219 22.2844C49.7031 22.7281 49.4719 23.1344 49.2281 23.5031C48.9844 23.8719 48.6625 24.2875 48.2625 24.75C47.7625 25.325 47.3 25.8281 46.875 26.2594C46.4563 26.6844 46.0469 27.075 45.6469 27.4312C45.2531 27.7875 44.8438 28.15 44.4188 28.5187C44.3313 28.6062 44.3313 28.65 44.4188 28.65H47.625C47.8063 28.65 47.9375 28.6406 48.0188 28.6219C48.1 28.6031 48.175 28.5719 48.2438 28.5281C48.3125 28.4781 48.4156 28.4156 48.5531 28.3406C48.6344 28.2906 48.7156 28.1906 48.7969 28.0406C48.8781 27.8906 48.9563 27.7344 49.0313 27.5719C49.1125 27.4031 49.1813 27.275 49.2375 27.1875C49.3125 27.0625 49.4063 27 49.5188 27C49.6875 27 49.7875 27.025 49.8188 27.075Z" fill="black"/>
<path d="M36.4969 34.75H57.003" stroke="black" stroke-linecap="square"/>
<path d="M52.5 16C45.3 16 43.1667 16 43 16L41 25L40 23" stroke="black"/>
</svg>
