<svg width="69" height="49" viewBox="0 0 69 49" fill="none" xmlns="http://www.w3.org/2000/svg">
<path d="M8.175 32.5187C8.175 32.4437 8.09688 32.3969 7.94063 32.3781C7.78438 32.3594 7.55 32.3469 7.2375 32.3406C6.93125 32.3344 6.6125 32.3312 6.28125 32.3312C6.15 32.3312 5.9375 32.3406 5.64375 32.3594C5.35625 32.3719 4.9875 32.3937 4.5375 32.425C4.5 32.425 4.33125 32.675 4.03125 33.175C3.83125 33.5062 3.62813 33.8656 3.42188 34.2531C3.22188 34.6406 3.05313 34.9937 2.91563 35.3125C2.78438 35.625 2.71875 35.8437 2.71875 35.9687C2.71875 36.0937 2.78438 36.2 2.91563 36.2875C3.05313 36.375 3.20313 36.4406 3.36563 36.4844C3.53438 36.5281 3.6625 36.55 3.75 36.55C3.775 36.55 3.7875 36.5875 3.7875 36.6625C3.7875 36.8062 3.75625 36.9375 3.69375 37.0563C3.1125 37.025 2.67188 37.0031 2.37188 36.9906C2.07813 36.9719 1.925 36.9625 1.9125 36.9625C1.8 36.9625 1.61563 36.9687 1.35938 36.9812C1.10313 36.9937 0.85 37.0063 0.6 37.0188C0.35 37.0375 0.175 37.05 0.075 37.0563C0.05 37.0313 0.0375 36.9812 0.0375 36.9062C0.0375 36.6687 0.08125 36.55 0.16875 36.55C0.30625 36.55 0.496875 36.5125 0.740625 36.4375C0.984375 36.3625 1.15625 36.2687 1.25625 36.1562C1.53125 35.85 1.9125 35.2625 2.4 34.3937L7.575 25.0937C7.7625 24.7562 8.00625 24.5875 8.30625 24.5875C8.3625 24.5875 8.4125 24.6 8.45625 24.625L10.0125 34.525C10.1375 35.3125 10.2125 35.7625 10.2375 35.875C10.2625 36 10.3469 36.1156 10.4906 36.2219C10.6344 36.3219 10.7875 36.4031 10.95 36.4656C11.1188 36.5219 11.2438 36.55 11.325 36.55C11.35 36.55 11.3625 36.5812 11.3625 36.6437C11.3625 36.8 11.3313 36.9375 11.2688 37.0563C10.6875 37.025 10.2344 37.0031 9.90938 36.9906C9.58438 36.9719 9.3875 36.9625 9.31875 36.9625C9.2 36.9625 9.08438 36.9656 8.97188 36.9719C8.86563 36.9719 8.75938 36.975 8.65313 36.9812C8.45938 36.9937 8.23125 37.0063 7.96875 37.0188C7.7125 37.0313 7.49375 37.0438 7.3125 37.0563C7.3 37.0438 7.29375 37.0063 7.29375 36.9437C7.29375 36.6812 7.3375 36.55 7.425 36.55C7.55 36.55 7.725 36.5125 7.95 36.4375C8.175 36.3625 8.31875 36.275 8.38125 36.175C8.46875 35.9812 8.5125 35.6875 8.5125 35.2937C8.5125 35.0812 8.4 34.1562 8.175 32.5187ZM6.525 31.4125C6.8125 31.4125 7.07188 31.4094 7.30313 31.4031C7.54063 31.3969 7.75 31.3875 7.93125 31.375C7.98125 31.375 8.00625 31.35 8.00625 31.3C8.00625 31.2187 7.96563 30.925 7.88438 30.4187C7.83438 30.0687 7.775 29.6719 7.70625 29.2281C7.6375 28.7844 7.57188 28.3687 7.50938 27.9812C7.45313 27.5937 7.4125 27.3125 7.3875 27.1375C5.85 29.9187 5.08125 31.325 5.08125 31.3562C5.08125 31.3812 5.0875 31.3937 5.1 31.3937C5.24375 31.4 5.43438 31.4062 5.67188 31.4125C5.90938 31.4125 6.19375 31.4125 6.525 31.4125ZM26.202 32.1437H18.402C18.352 32.1437 18.327 32.1062 18.327 32.0312C18.327 31.9937 18.3489 31.9 18.3926 31.75C18.4426 31.5937 18.4989 31.4469 18.5614 31.3094C18.6301 31.1656 18.6895 31.0937 18.7395 31.0937H26.5208C26.5958 31.0937 26.6333 31.125 26.6333 31.1875C26.6333 31.2625 26.527 31.5437 26.3145 32.0312C26.2895 32.1062 26.252 32.1437 26.202 32.1437ZM25.7895 34.6937L25.6583 34.8062H17.877C17.8145 34.8062 17.7833 34.7687 17.7833 34.6937C17.7833 34.65 17.8083 34.5531 17.8583 34.4031C17.9083 34.2531 17.9676 34.1094 18.0364 33.9719C18.1051 33.8281 18.1645 33.7562 18.2145 33.7562H26.0145C26.0895 33.7562 26.127 33.7875 26.127 33.85C26.127 33.875 26.0145 34.1562 25.7895 34.6937Z" fill="black"/>
<line x1="32.5" y1="33.5" x2="64.5" y2="33.5" stroke="black" stroke-linecap="square"/>
<path d="M47.0875 25.9687C47.0875 26.65 46.875 27.3 46.45 27.9187C46.0313 28.5312 45.4344 29.0312 44.6594 29.4187C43.8906 29.8062 42.975 30 41.9125 30H39.5313L37.4688 30.0563C37.4563 30.0438 37.45 29.9875 37.45 29.8875C37.45 29.6375 37.4938 29.5125 37.5813 29.5125C37.6813 29.5125 37.8219 29.4937 38.0031 29.4562C38.1844 29.4125 38.3531 29.3594 38.5094 29.2969C38.6719 29.2281 38.7688 29.1562 38.8 29.0812C38.975 28.725 39.1375 28.1437 39.2875 27.3375L40.6375 20.3625C40.775 19.6687 40.8438 19.0875 40.8438 18.6187C40.8438 18.5562 40.775 18.4906 40.6375 18.4219C40.5 18.3531 40.3469 18.2937 40.1781 18.2437C40.0156 18.1937 39.8875 18.1687 39.7938 18.1687C39.7688 18.1687 39.7563 18.1437 39.7563 18.0937C39.7563 17.8937 39.8 17.75 39.8875 17.6625C40.175 17.675 40.4844 17.6844 40.8156 17.6906C41.1531 17.6969 41.5125 17.7 41.8938 17.7C42.1875 17.7 42.4531 17.7 42.6906 17.7C42.9344 17.7 43.15 17.6969 43.3375 17.6906C43.525 17.6844 43.7031 17.6812 43.8719 17.6812C44.0406 17.6812 44.2 17.6812 44.35 17.6812C44.7 17.6812 45.0469 17.7219 45.3906 17.8031C45.7344 17.8844 46.0656 18.0125 46.3844 18.1875C46.7031 18.3625 46.9625 18.6156 47.1625 18.9469C47.3625 19.2781 47.4625 19.6625 47.4625 20.1C47.4625 20.3875 47.4188 20.6781 47.3313 20.9719C47.2438 21.2531 47.1313 21.4937 46.9938 21.6937C46.8563 21.8937 46.7 22.0812 46.525 22.2562C46.3125 22.4687 46.0813 22.6594 45.8313 22.8281C45.5813 22.9906 45.375 23.1062 45.2125 23.175L45.1 23.2312C45.35 23.2687 45.6281 23.4156 45.9344 23.6719C46.2469 23.9281 46.5156 24.2562 46.7406 24.6562C46.9719 25.0562 47.0875 25.4937 47.0875 25.9687ZM45.8688 20.325C45.8688 19.075 45.225 18.45 43.9375 18.45C43.0313 18.45 42.5625 18.5312 42.5313 18.6937L41.6875 22.7625C41.6688 22.8375 41.7219 22.8937 41.8469 22.9312C41.9781 22.9625 42.1344 22.9844 42.3156 22.9969C42.4969 23.0031 42.6563 23.0062 42.7938 23.0062C43.1938 23.0062 43.5375 22.9812 43.825 22.9312C44.1125 22.8812 44.4313 22.775 44.7813 22.6125C45.5063 22.275 45.8688 21.5125 45.8688 20.325ZM45.4 26.0437C45.4 25.3812 45.1938 24.8406 44.7813 24.4219C44.3688 24.0031 43.7063 23.7937 42.7938 23.7937C41.9063 23.7937 41.4438 23.8875 41.4063 24.075L40.6938 27.825C40.6313 28.1812 40.6 28.4812 40.6 28.725C40.6 28.9562 40.6969 29.1 40.8906 29.1562C41.0844 29.2062 41.3625 29.2312 41.725 29.2312C42.5938 29.2312 43.2 29.15 43.5438 28.9875C44.0563 28.75 44.4938 28.3687 44.8563 27.8437C45.2188 27.3187 45.4 26.7187 45.4 26.0437ZM54.9198 23.1562C56.551 23.1562 57.3698 23.1062 57.376 23.0062L57.8823 20.4C58.0198 19.7312 58.0885 19.1562 58.0885 18.675C58.0885 18.5812 58.0229 18.4969 57.8916 18.4219C57.7666 18.3469 57.6198 18.2875 57.451 18.2437C57.2885 18.1937 57.151 18.1687 57.0385 18.1687C57.0135 18.1687 57.001 18.1375 57.001 18.075C57.001 17.9 57.051 17.7625 57.151 17.6625C57.251 17.6687 57.4198 17.6812 57.6573 17.7C57.901 17.7187 58.1635 17.7375 58.4448 17.7562C58.726 17.7687 58.9698 17.775 59.176 17.775C59.4823 17.775 59.8729 17.7562 60.3479 17.7187C60.8291 17.6812 61.1073 17.6625 61.1823 17.6625V17.7187C61.1823 18.0187 61.1385 18.1687 61.051 18.1687C60.9885 18.1687 60.8698 18.1937 60.6948 18.2437C60.5198 18.2875 60.351 18.3437 60.1885 18.4125C60.026 18.475 59.9323 18.5375 59.9073 18.6C59.726 19 59.5635 19.5812 59.4198 20.3437L58.051 27.3937C57.9135 28.0625 57.8448 28.625 57.8448 29.0812C57.8448 29.1812 57.9291 29.2719 58.0979 29.3531C58.2666 29.4344 58.4385 29.4875 58.6135 29.5125L58.8573 29.55C58.8823 29.55 58.8948 29.575 58.8948 29.625C58.8948 29.7625 58.8573 29.9062 58.7823 30.0563C58.201 30.025 57.7479 30.0031 57.4229 29.9906C57.0979 29.9719 56.901 29.9625 56.8323 29.9625C56.8135 29.9625 56.6323 29.9719 56.2885 29.9906C55.9448 30.0031 55.4385 30.025 54.7698 30.0563C54.7448 30.0313 54.7323 29.9812 54.7323 29.9062C54.7323 29.6687 54.776 29.55 54.8635 29.55C54.9635 29.55 55.101 29.5312 55.276 29.4937C55.4573 29.4562 55.626 29.4062 55.7823 29.3437C55.9385 29.2812 56.0323 29.2125 56.0635 29.1375C56.2448 28.725 56.4073 28.125 56.551 27.3375L57.151 24.2437V24.225C57.151 24.1625 57.0041 24.1219 56.7104 24.1031C56.4229 24.0844 55.7135 24.075 54.5823 24.075C52.7885 24.075 51.876 24.15 51.8448 24.3L51.2448 27.3937C51.1073 28.0625 51.0385 28.625 51.0385 29.0812C51.0385 29.1812 51.1229 29.2719 51.2916 29.3531C51.4604 29.4344 51.626 29.4875 51.7885 29.5125L52.051 29.55C52.076 29.55 52.0885 29.575 52.0885 29.625C52.0885 29.7625 52.051 29.9062 51.976 30.0563C51.401 30.025 50.951 30.0031 50.626 29.9906C50.301 29.9719 50.101 29.9625 50.026 29.9625C50.0135 29.9625 49.8354 29.9719 49.4916 29.9906C49.1479 30.0031 48.6385 30.025 47.9635 30.0563C47.9385 30.0313 47.926 29.9812 47.926 29.9062C47.926 29.6687 47.9698 29.55 48.0573 29.55C48.1573 29.55 48.2948 29.5312 48.4698 29.4937C48.651 29.4562 48.8198 29.4062 48.976 29.3437C49.1323 29.2812 49.226 29.2125 49.2573 29.1375C49.4385 28.725 49.601 28.125 49.7448 27.3375L51.076 20.4C51.2135 19.7312 51.2823 19.1562 51.2823 18.675C51.2823 18.5812 51.2166 18.4969 51.0854 18.4219C50.9604 18.3469 50.8135 18.2875 50.6448 18.2437C50.4823 18.1937 50.3448 18.1687 50.2323 18.1687C50.2073 18.1687 50.1948 18.1375 50.1948 18.075C50.1948 17.9 50.2448 17.7625 50.3448 17.6625C50.4448 17.6687 50.6135 17.6812 50.851 17.7C51.0948 17.7187 51.3573 17.7375 51.6385 17.7562C51.9198 17.7687 52.1635 17.775 52.3698 17.775C52.6698 17.775 53.0541 17.7562 53.5229 17.7187C53.9916 17.6812 54.2698 17.6625 54.3573 17.6625V17.7187C54.3573 18.0187 54.3135 18.1687 54.226 18.1687C54.1635 18.1687 54.0416 18.1937 53.8604 18.2437C53.6854 18.2875 53.5135 18.3437 53.3448 18.4125C53.1823 18.475 53.0885 18.5375 53.0635 18.6C52.8573 19.0812 52.6948 19.6625 52.576 20.3437L52.1073 22.9875V23.0062C52.1073 23.0687 52.2729 23.1094 52.6041 23.1281C52.9354 23.1469 53.7073 23.1562 54.9198 23.1562Z" fill="black"/>
<path d="M49.8188 46.075C49.7688 46.2 49.6813 46.425 49.5563 46.75C49.4313 47.0687 49.3 47.4125 49.1625 47.7812C49.025 48.1437 48.9125 48.45 48.825 48.7C48.75 48.9 48.6125 49 48.4125 49H42.6938C42.6188 48.8125 42.6 48.6062 42.6375 48.3812C43.6625 47.4562 44.6156 46.5094 45.4969 45.5406C46.3844 44.5719 47.1219 43.6437 47.7094 42.7562C48.2969 41.8625 48.6563 41.075 48.7875 40.3937C48.9125 39.7187 48.8563 39.1969 48.6188 38.8281C48.3813 38.4594 48.0063 38.275 47.4938 38.275C46.5188 38.275 45.6438 38.7937 44.8688 39.8312C44.8063 39.8312 44.7438 39.7906 44.6813 39.7094C44.6188 39.6281 44.5938 39.5687 44.6063 39.5312C44.7438 39.1875 45.1406 38.7031 45.7969 38.0781C46.1156 37.7719 46.5156 37.5094 46.9969 37.2906C47.4781 37.0719 47.9625 36.9625 48.45 36.9625C48.9813 36.9625 49.4094 37.1219 49.7344 37.4406C50.0656 37.7594 50.2781 38.1437 50.3719 38.5937C50.4656 39.0437 50.4625 39.5187 50.3625 40.0187C50.2875 40.4125 50.1406 40.8344 49.9219 41.2844C49.7031 41.7281 49.4719 42.1344 49.2281 42.5031C48.9844 42.8719 48.6625 43.2875 48.2625 43.75C47.7625 44.325 47.3 44.8281 46.875 45.2594C46.4563 45.6844 46.0469 46.075 45.6469 46.4312C45.2531 46.7875 44.8438 47.15 44.4188 47.5187C44.3313 47.6062 44.3313 47.65 44.4188 47.65H47.625C47.8063 47.65 47.9375 47.6406 48.0188 47.6219C48.1 47.6031 48.175 47.5719 48.2438 47.5281C48.3125 47.4781 48.4156 47.4156 48.5531 47.3406C48.6344 47.2906 48.7156 47.1906 48.7969 47.0406C48.8781 46.8906 48.9563 46.7344 49.0313 46.5719C49.1125 46.4031 49.1813 46.275 49.2375 46.1875C49.3125 46.0625 49.4063 46 49.5188 46C49.6875 46 49.7875 46.025 49.8188 46.075Z" fill="black"/>
</svg>
