<svg width="111" height="66" viewBox="0 0 111 66" fill="none" xmlns="http://www.w3.org/2000/svg">
<path d="M8.175 35.5187C8.175 35.4437 8.09688 35.3969 7.94063 35.3781C7.78438 35.3594 7.55 35.3469 7.2375 35.3406C6.93125 35.3344 6.6125 35.3312 6.28125 35.3312C6.15 35.3312 5.9375 35.3406 5.64375 35.3594C5.35625 35.3719 4.9875 35.3937 4.5375 35.425C4.5 35.425 4.33125 35.675 4.03125 36.175C3.83125 36.5062 3.62813 36.8656 3.42188 37.2531C3.22188 37.6406 3.05313 37.9937 2.91563 38.3125C2.78438 38.625 2.71875 38.8437 2.71875 38.9687C2.71875 39.0937 2.78438 39.2 2.91563 39.2875C3.05313 39.375 3.20313 39.4406 3.36563 39.4844C3.53438 39.5281 3.6625 39.55 3.75 39.55C3.775 39.55 3.7875 39.5875 3.7875 39.6625C3.7875 39.8062 3.75625 39.9375 3.69375 40.0563C3.1125 40.025 2.67188 40.0031 2.37188 39.9906C2.07813 39.9719 1.925 39.9625 1.9125 39.9625C1.8 39.9625 1.61563 39.9687 1.35938 39.9812C1.10313 39.9937 0.85 40.0063 0.6 40.0188C0.35 40.0375 0.175 40.05 0.075 40.0563C0.05 40.0313 0.0375 39.9812 0.0375 39.9062C0.0375 39.6687 0.08125 39.55 0.16875 39.55C0.30625 39.55 0.496875 39.5125 0.740625 39.4375C0.984375 39.3625 1.15625 39.2687 1.25625 39.1562C1.53125 38.85 1.9125 38.2625 2.4 37.3937L7.575 28.0937C7.7625 27.7562 8.00625 27.5875 8.30625 27.5875C8.3625 27.5875 8.4125 27.6 8.45625 27.625L10.0125 37.525C10.1375 38.3125 10.2125 38.7625 10.2375 38.875C10.2625 39 10.3469 39.1156 10.4906 39.2219C10.6344 39.3219 10.7875 39.4031 10.95 39.4656C11.1188 39.5219 11.2438 39.55 11.325 39.55C11.35 39.55 11.3625 39.5812 11.3625 39.6437C11.3625 39.8 11.3313 39.9375 11.2688 40.0563C10.6875 40.025 10.2344 40.0031 9.90938 39.9906C9.58438 39.9719 9.3875 39.9625 9.31875 39.9625C9.2 39.9625 9.08438 39.9656 8.97188 39.9719C8.86563 39.9719 8.75938 39.975 8.65313 39.9812C8.45938 39.9937 8.23125 40.0063 7.96875 40.0188C7.7125 40.0313 7.49375 40.0438 7.3125 40.0563C7.3 40.0438 7.29375 40.0063 7.29375 39.9437C7.29375 39.6812 7.3375 39.55 7.425 39.55C7.55 39.55 7.725 39.5125 7.95 39.4375C8.175 39.3625 8.31875 39.275 8.38125 39.175C8.46875 38.9812 8.5125 38.6875 8.5125 38.2937C8.5125 38.0812 8.4 37.1562 8.175 35.5187ZM6.525 34.4125C6.8125 34.4125 7.07188 34.4094 7.30313 34.4031C7.54063 34.3969 7.75 34.3875 7.93125 34.375C7.98125 34.375 8.00625 34.35 8.00625 34.3C8.00625 34.2187 7.96563 33.925 7.88438 33.4187C7.83438 33.0687 7.775 32.6719 7.70625 32.2281C7.6375 31.7844 7.57188 31.3687 7.50938 30.9812C7.45313 30.5937 7.4125 30.3125 7.3875 30.1375C5.85 32.9187 5.08125 34.325 5.08125 34.3562C5.08125 34.3812 5.0875 34.3937 5.1 34.3937C5.24375 34.4 5.43438 34.4062 5.67188 34.4125C5.90938 34.4125 6.19375 34.4125 6.525 34.4125ZM26.202 35.1437H18.402C18.352 35.1437 18.327 35.1062 18.327 35.0312C18.327 34.9937 18.3489 34.9 18.3926 34.75C18.4426 34.5937 18.4989 34.4469 18.5614 34.3094C18.6301 34.1656 18.6895 34.0937 18.7395 34.0937H26.5208C26.5958 34.0937 26.6333 34.125 26.6333 34.1875C26.6333 34.2625 26.527 34.5437 26.3145 35.0312C26.2895 35.1062 26.252 35.1437 26.202 35.1437ZM25.7895 37.6937L25.6583 37.8062H17.877C17.8145 37.8062 17.7833 37.7687 17.7833 37.6937C17.7833 37.65 17.8083 37.5531 17.8583 37.4031C17.9083 37.2531 17.9676 37.1094 18.0364 36.9719C18.1051 36.8281 18.1645 36.7562 18.2145 36.7562H26.0145C26.0895 36.7562 26.127 36.7875 26.127 36.85C26.127 36.875 26.0145 37.1562 25.7895 37.6937Z" fill="black"/>
<line x1="32.5" y1="36.5" x2="110.5" y2="36.5" stroke="black" stroke-linecap="square"/>
<path d="M69.8 52.9625L70.4375 49.7375H66.0125C65.9688 49.6375 65.9688 49.4437 66.0125 49.1562L72.8563 41.1312C73 40.9812 73.15 40.9062 73.3063 40.9062C73.4688 40.9062 73.5313 40.9687 73.4938 41.0937L72.0125 48.65H73.2688C73.3813 48.65 73.4188 48.6937 73.3813 48.7812C73.3063 49.1875 73.2063 49.5062 73.0813 49.7375H71.8063L71.1688 53.0188C71.125 53.0813 70.875 53.1125 70.4188 53.1125C70.1938 53.1125 70.0344 53.1031 69.9406 53.0844C69.8469 53.0656 69.8 53.025 69.8 52.9625ZM67.475 48.65H70.6438L71.6188 43.6625C71.6313 43.6375 71.6313 43.6031 71.6188 43.5594C71.6063 43.5156 71.5875 43.4937 71.5625 43.4937L71.525 43.5312L67.4 48.425C67.3875 48.4375 67.3813 48.4562 67.3813 48.4812C67.3563 48.5937 67.3875 48.65 67.475 48.65Z" fill="black"/>
<path d="M35.3938 26.7375C35.3938 25.8625 35.4875 24.9719 35.675 24.0656C35.8688 23.1531 36.1219 22.2812 36.4344 21.45C36.7531 20.6187 37.1 19.8844 37.475 19.2469C38.0438 18.2844 38.6156 17.5 39.1906 16.8937C39.7719 16.2812 40.2375 15.975 40.5875 15.975C40.7 15.975 40.7563 16.1 40.7563 16.35C40.7563 16.4125 40.7438 16.4562 40.7188 16.4812C40.225 16.7125 39.6531 17.3437 39.0031 18.375C38.5781 19.0562 38.1719 19.875 37.7844 20.8312C37.4031 21.7875 37.0938 22.7937 36.8563 23.85C36.6188 24.9062 36.5 25.9312 36.5 26.925C36.5 28.1375 36.6406 29.2094 36.9219 30.1406C37.2031 31.0719 37.4813 31.6188 37.7563 31.7813C37.7688 31.7813 37.775 31.8 37.775 31.8375C37.775 31.9125 37.7344 32.0031 37.6531 32.1094C37.5719 32.2156 37.5 32.2688 37.4375 32.2688C36.9938 32.2688 36.5438 31.7219 36.0875 30.6281C35.625 29.5219 35.3938 28.225 35.3938 26.7375ZM51.1385 25.9687C51.1385 26.65 50.926 27.3 50.501 27.9187C50.0823 28.5312 49.4854 29.0312 48.7104 29.4187C47.9416 29.8062 47.026 30 45.9635 30H43.5823L41.5198 30.0563C41.5073 30.0438 41.501 29.9875 41.501 29.8875C41.501 29.6375 41.5448 29.5125 41.6323 29.5125C41.7323 29.5125 41.8729 29.4937 42.0541 29.4562C42.2354 29.4125 42.4041 29.3594 42.5604 29.2969C42.7229 29.2281 42.8198 29.1562 42.851 29.0812C43.026 28.725 43.1885 28.1437 43.3385 27.3375L44.6885 20.3625C44.826 19.6687 44.8948 19.0875 44.8948 18.6187C44.8948 18.5562 44.826 18.4906 44.6885 18.4219C44.551 18.3531 44.3979 18.2937 44.2291 18.2437C44.0666 18.1937 43.9385 18.1687 43.8448 18.1687C43.8198 18.1687 43.8073 18.1437 43.8073 18.0937C43.8073 17.8937 43.851 17.75 43.9385 17.6625C44.226 17.675 44.5354 17.6844 44.8666 17.6906C45.2041 17.6969 45.5635 17.7 45.9448 17.7C46.2385 17.7 46.5041 17.7 46.7416 17.7C46.9854 17.7 47.201 17.6969 47.3885 17.6906C47.576 17.6844 47.7541 17.6812 47.9229 17.6812C48.0916 17.6812 48.251 17.6812 48.401 17.6812C48.751 17.6812 49.0979 17.7219 49.4416 17.8031C49.7854 17.8844 50.1166 18.0125 50.4354 18.1875C50.7541 18.3625 51.0135 18.6156 51.2135 18.9469C51.4135 19.2781 51.5135 19.6625 51.5135 20.1C51.5135 20.3875 51.4698 20.6781 51.3823 20.9719C51.2948 21.2531 51.1823 21.4937 51.0448 21.6937C50.9073 21.8937 50.751 22.0812 50.576 22.2562C50.3635 22.4687 50.1323 22.6594 49.8823 22.8281C49.6323 22.9906 49.426 23.1062 49.2635 23.175L49.151 23.2312C49.401 23.2687 49.6791 23.4156 49.9854 23.6719C50.2979 23.9281 50.5666 24.2562 50.7916 24.6562C51.0229 25.0562 51.1385 25.4937 51.1385 25.9687ZM49.9198 20.325C49.9198 19.075 49.276 18.45 47.9885 18.45C47.0823 18.45 46.6135 18.5312 46.5823 18.6937L45.7385 22.7625C45.7198 22.8375 45.7729 22.8937 45.8979 22.9312C46.0291 22.9625 46.1854 22.9844 46.3666 22.9969C46.5479 23.0031 46.7073 23.0062 46.8448 23.0062C47.2448 23.0062 47.5885 22.9812 47.876 22.9312C48.1635 22.8812 48.4823 22.775 48.8323 22.6125C49.5573 22.275 49.9198 21.5125 49.9198 20.325ZM49.451 26.0437C49.451 25.3812 49.2448 24.8406 48.8323 24.4219C48.4198 24.0031 47.7573 23.7937 46.8448 23.7937C45.9573 23.7937 45.4948 23.8875 45.4573 24.075L44.7448 27.825C44.6823 28.1812 44.651 28.4812 44.651 28.725C44.651 28.9562 44.7479 29.1 44.9416 29.1562C45.1354 29.2062 45.4135 29.2312 45.776 29.2312C46.6448 29.2312 47.251 29.15 47.5948 28.9875C48.1073 28.75 48.5448 28.3687 48.9073 27.8437C49.2698 27.3187 49.451 26.7187 49.451 26.0437ZM61.478 21.1875C61.4968 21.1125 61.5749 21.05 61.7124 21C61.8499 20.95 61.9999 20.9125 62.1624 20.8875C62.3249 20.8625 62.4468 20.85 62.528 20.85C62.6843 20.85 62.7468 20.9062 62.7155 21.0187C62.5718 21.8562 62.4436 22.5812 62.3311 23.1937C62.2249 23.8062 62.1343 24.3062 62.0593 24.6937C62.0343 24.7562 62.053 24.7875 62.1155 24.7875H65.5093C65.5593 24.7875 65.5843 24.8437 65.5843 24.9562C65.5843 25.25 65.453 25.5437 65.1905 25.8375H61.8343C61.7843 25.8375 61.7593 25.8625 61.7593 25.9125L61.103 29.4375C61.0905 29.5375 60.978 29.6187 60.7655 29.6812C60.553 29.7437 60.353 29.775 60.1655 29.775C60.0655 29.775 59.9905 29.7562 59.9405 29.7187C59.8968 29.6812 59.878 29.6437 59.8843 29.6062C60.0405 28.7312 60.1749 27.9875 60.2874 27.375C60.3999 26.7625 60.4905 26.2812 60.5593 25.9312C60.5593 25.8687 60.5343 25.8375 60.4843 25.8375H57.128C57.0655 25.8375 57.0343 25.7812 57.0343 25.6687C57.0343 25.4312 57.1718 25.1375 57.4468 24.7875H60.7843C60.8343 24.7875 60.8593 24.7625 60.8593 24.7125C60.8968 24.5312 60.9405 24.3 60.9905 24.0187C61.0405 23.7312 61.0968 23.3969 61.1593 23.0156C61.2218 22.6281 61.278 22.2844 61.328 21.9844C61.3843 21.6781 61.4343 21.4125 61.478 21.1875ZM79.9925 17.4937C80.8488 17.4937 82.18 17.775 83.9863 18.3375C83.8738 19.05 83.7863 19.6 83.7238 19.9875C83.6613 20.375 83.6238 20.6 83.6113 20.6625C83.5738 20.85 83.4238 20.9437 83.1613 20.9437C83.0613 20.9437 82.9925 20.925 82.955 20.8875C82.955 20.7 82.9488 20.5312 82.9363 20.3812C82.9238 20.2312 82.8613 20.0125 82.7488 19.725C82.6363 19.4375 82.4831 19.2 82.2894 19.0125C82.0956 18.825 81.7925 18.6562 81.38 18.5062C80.9675 18.3562 80.4738 18.2812 79.8988 18.2812C79.255 18.2812 78.6206 18.4656 77.9956 18.8344C77.3706 19.2031 76.805 19.7062 76.2988 20.3437C75.7925 20.9812 75.3863 21.7125 75.08 22.5375C74.78 23.3625 74.63 24.2312 74.63 25.1437C74.63 25.9437 74.7769 26.6594 75.0706 27.2906C75.3644 27.9156 75.7894 28.4094 76.3456 28.7719C76.9019 29.1281 77.5738 29.3062 78.3613 29.3062C79.2925 29.3062 80.08 29.1 80.7238 28.6875C81.0363 28.5 81.3081 28.275 81.5394 28.0125C81.6831 27.85 81.83 27.6625 81.98 27.45C82.1363 27.2375 82.2175 27.1312 82.2238 27.1312C82.2613 27.1312 82.3363 27.1969 82.4488 27.3281C82.5613 27.4594 82.6113 27.55 82.5988 27.6C82.0425 28.6687 81.73 29.2375 81.6613 29.3062C81.5363 29.4437 81.2706 29.575 80.8644 29.7C80.4581 29.825 79.9831 29.925 79.4394 30C78.8956 30.075 78.355 30.1125 77.8175 30.1125C76.83 30.1125 75.9675 29.8781 75.23 29.4094C74.4988 28.9344 73.93 28.3094 73.5238 27.5344C73.1238 26.7531 72.9238 25.9062 72.9238 24.9937C72.9238 24.1687 73.1081 23.3125 73.4769 22.425C73.8456 21.5375 74.3363 20.7281 74.9488 19.9969C75.5613 19.2656 76.3144 18.6656 77.2081 18.1969C78.1019 17.7281 79.03 17.4937 79.9925 17.4937ZM88.2935 21.4312C88.2935 22.6187 88.1466 23.7969 87.8529 24.9656C87.5591 26.1344 87.1935 27.1406 86.756 27.9844C86.5373 28.4031 86.3123 28.8031 86.081 29.1844C85.8498 29.5656 85.6123 29.9219 85.3685 30.2531C84.9748 30.7906 84.5623 31.2594 84.131 31.6594C83.6998 32.0656 83.356 32.2688 83.0998 32.2688C82.9873 32.2688 82.931 32.1563 82.931 31.9313C82.931 31.8375 82.9498 31.7875 82.9873 31.7813C83.1623 31.7 83.4091 31.475 83.7279 31.1063C84.0466 30.7375 84.406 30.225 84.806 29.5687C85.1998 28.9187 85.5779 28.1781 85.9404 27.3469C86.2966 26.5281 86.5935 25.5594 86.831 24.4406C87.0685 23.3219 87.1873 22.1937 87.1873 21.0562C87.1873 19.8937 87.0716 18.8906 86.8404 18.0469C86.6091 17.2031 86.3185 16.6812 85.9685 16.4812C85.956 16.4687 85.9498 16.4562 85.9498 16.4437C85.9498 16.3812 85.9873 16.2875 86.0623 16.1625C86.1373 16.0375 86.206 15.975 86.2685 15.975C86.756 15.975 87.2154 16.5 87.6466 17.55C88.0779 18.6 88.2935 19.8937 88.2935 21.4312ZM102.008 23.1562C103.639 23.1562 104.458 23.1062 104.464 23.0062L104.971 20.4C105.108 19.7312 105.177 19.1562 105.177 18.675C105.177 18.5812 105.111 18.4969 104.98 18.4219C104.855 18.3469 104.708 18.2875 104.539 18.2437C104.377 18.1937 104.239 18.1687 104.127 18.1687C104.102 18.1687 104.089 18.1375 104.089 18.075C104.089 17.9 104.139 17.7625 104.239 17.6625C104.339 17.6687 104.508 17.6812 104.746 17.7C104.989 17.7187 105.252 17.7375 105.533 17.7562C105.814 17.7687 106.058 17.775 106.264 17.775C106.571 17.775 106.961 17.7562 107.436 17.7187C107.917 17.6812 108.196 17.6625 108.271 17.6625V17.7187C108.271 18.0187 108.227 18.1687 108.139 18.1687C108.077 18.1687 107.958 18.1937 107.783 18.2437C107.608 18.2875 107.439 18.3437 107.277 18.4125C107.114 18.475 107.021 18.5375 106.996 18.6C106.814 19 106.652 19.5812 106.508 20.3437L105.139 27.3937C105.002 28.0625 104.933 28.625 104.933 29.0812C104.933 29.1812 105.017 29.2719 105.186 29.3531C105.355 29.4344 105.527 29.4875 105.702 29.5125L105.946 29.55C105.971 29.55 105.983 29.575 105.983 29.625C105.983 29.7625 105.946 29.9062 105.871 30.0563C105.289 30.025 104.836 30.0031 104.511 29.9906C104.186 29.9719 103.989 29.9625 103.921 29.9625C103.902 29.9625 103.721 29.9719 103.377 29.9906C103.033 30.0031 102.527 30.025 101.858 30.0563C101.833 30.0313 101.821 29.9812 101.821 29.9062C101.821 29.6687 101.864 29.55 101.952 29.55C102.052 29.55 102.189 29.5312 102.364 29.4937C102.546 29.4562 102.714 29.4062 102.871 29.3437C103.027 29.2812 103.121 29.2125 103.152 29.1375C103.333 28.725 103.496 28.125 103.639 27.3375L104.239 24.2437V24.225C104.239 24.1625 104.092 24.1219 103.799 24.1031C103.511 24.0844 102.802 24.075 101.671 24.075C99.8768 24.075 98.9643 24.15 98.933 24.3L98.333 27.3937C98.1955 28.0625 98.1268 28.625 98.1268 29.0812C98.1268 29.1812 98.2111 29.2719 98.3799 29.3531C98.5486 29.4344 98.7143 29.4875 98.8768 29.5125L99.1393 29.55C99.1643 29.55 99.1768 29.575 99.1768 29.625C99.1768 29.7625 99.1393 29.9062 99.0643 30.0563C98.4893 30.025 98.0393 30.0031 97.7143 29.9906C97.3893 29.9719 97.1893 29.9625 97.1143 29.9625C97.1018 29.9625 96.9236 29.9719 96.5799 29.9906C96.2361 30.0031 95.7268 30.025 95.0518 30.0563C95.0268 30.0313 95.0143 29.9812 95.0143 29.9062C95.0143 29.6687 95.058 29.55 95.1455 29.55C95.2455 29.55 95.383 29.5312 95.558 29.4937C95.7393 29.4562 95.908 29.4062 96.0643 29.3437C96.2205 29.2812 96.3143 29.2125 96.3455 29.1375C96.5268 28.725 96.6893 28.125 96.833 27.3375L98.1643 20.4C98.3018 19.7312 98.3705 19.1562 98.3705 18.675C98.3705 18.5812 98.3049 18.4969 98.1736 18.4219C98.0486 18.3469 97.9018 18.2875 97.733 18.2437C97.5705 18.1937 97.433 18.1687 97.3205 18.1687C97.2955 18.1687 97.283 18.1375 97.283 18.075C97.283 17.9 97.333 17.7625 97.433 17.6625C97.533 17.6687 97.7018 17.6812 97.9393 17.7C98.183 17.7187 98.4455 17.7375 98.7268 17.7562C99.008 17.7687 99.2518 17.775 99.458 17.775C99.758 17.775 100.142 17.7562 100.611 17.7187C101.08 17.6812 101.358 17.6625 101.446 17.6625V17.7187C101.446 18.0187 101.402 18.1687 101.314 18.1687C101.252 18.1687 101.13 18.1937 100.949 18.2437C100.774 18.2875 100.602 18.3437 100.433 18.4125C100.271 18.475 100.177 18.5375 100.152 18.6C99.9455 19.0812 99.783 19.6625 99.6643 20.3437L99.1955 22.9875V23.0062C99.1955 23.0687 99.3611 23.1094 99.6924 23.1281C100.024 23.1469 100.796 23.1562 102.008 23.1562Z" fill="black"/>
</svg>
