<svg width="68" height="66" viewBox="0 0 68 66" fill="none" xmlns="http://www.w3.org/2000/svg">
<path d="M8.175 31.5187C8.175 31.4437 8.09688 31.3969 7.94063 31.3781C7.78438 31.3594 7.55 31.3469 7.2375 31.3406C6.93125 31.3344 6.6125 31.3312 6.28125 31.3312C6.15 31.3312 5.9375 31.3406 5.64375 31.3594C5.35625 31.3719 4.9875 31.3937 4.5375 31.425C4.5 31.425 4.33125 31.675 4.03125 32.175C3.83125 32.5062 3.62813 32.8656 3.42188 33.2531C3.22188 33.6406 3.05313 33.9937 2.91563 34.3125C2.78438 34.625 2.71875 34.8437 2.71875 34.9687C2.71875 35.0937 2.78438 35.2 2.91563 35.2875C3.05313 35.375 3.20313 35.4406 3.36563 35.4844C3.53438 35.5281 3.6625 35.55 3.75 35.55C3.775 35.55 3.7875 35.5875 3.7875 35.6625C3.7875 35.8062 3.75625 35.9375 3.69375 36.0563C3.1125 36.025 2.67188 36.0031 2.37188 35.9906C2.07813 35.9719 1.925 35.9625 1.9125 35.9625C1.8 35.9625 1.61563 35.9687 1.35938 35.9812C1.10313 35.9937 0.85 36.0063 0.6 36.0188C0.35 36.0375 0.175 36.05 0.075 36.0563C0.05 36.0313 0.0375 35.9812 0.0375 35.9062C0.0375 35.6687 0.08125 35.55 0.16875 35.55C0.30625 35.55 0.496875 35.5125 0.740625 35.4375C0.984375 35.3625 1.15625 35.2687 1.25625 35.1562C1.53125 34.85 1.9125 34.2625 2.4 33.3937L7.575 24.0937C7.7625 23.7562 8.00625 23.5875 8.30625 23.5875C8.3625 23.5875 8.4125 23.6 8.45625 23.625L10.0125 33.525C10.1375 34.3125 10.2125 34.7625 10.2375 34.875C10.2625 35 10.3469 35.1156 10.4906 35.2219C10.6344 35.3219 10.7875 35.4031 10.95 35.4656C11.1188 35.5219 11.2438 35.55 11.325 35.55C11.35 35.55 11.3625 35.5812 11.3625 35.6437C11.3625 35.8 11.3313 35.9375 11.2688 36.0563C10.6875 36.025 10.2344 36.0031 9.90938 35.9906C9.58438 35.9719 9.3875 35.9625 9.31875 35.9625C9.2 35.9625 9.08438 35.9656 8.97188 35.9719C8.86563 35.9719 8.75938 35.975 8.65313 35.9812C8.45938 35.9937 8.23125 36.0063 7.96875 36.0188C7.7125 36.0313 7.49375 36.0438 7.3125 36.0563C7.3 36.0438 7.29375 36.0063 7.29375 35.9437C7.29375 35.6812 7.3375 35.55 7.425 35.55C7.55 35.55 7.725 35.5125 7.95 35.4375C8.175 35.3625 8.31875 35.275 8.38125 35.175C8.46875 34.9812 8.5125 34.6875 8.5125 34.2937C8.5125 34.0812 8.4 33.1562 8.175 31.5187ZM6.525 30.4125C6.8125 30.4125 7.07188 30.4094 7.30313 30.4031C7.54063 30.3969 7.75 30.3875 7.93125 30.375C7.98125 30.375 8.00625 30.35 8.00625 30.3C8.00625 30.2187 7.96563 29.925 7.88438 29.4187C7.83438 29.0687 7.775 28.6719 7.70625 28.2281C7.6375 27.7844 7.57188 27.3687 7.50938 26.9812C7.45313 26.5937 7.4125 26.3125 7.3875 26.1375C5.85 28.9187 5.08125 30.325 5.08125 30.3562C5.08125 30.3812 5.0875 30.3937 5.1 30.3937C5.24375 30.4 5.43438 30.4062 5.67188 30.4125C5.90938 30.4125 6.19375 30.4125 6.525 30.4125ZM26.202 31.1437H18.402C18.352 31.1437 18.327 31.1062 18.327 31.0312C18.327 30.9937 18.3489 30.9 18.3926 30.75C18.4426 30.5937 18.4989 30.4469 18.5614 30.3094C18.6301 30.1656 18.6895 30.0937 18.7395 30.0937H26.5208C26.5958 30.0937 26.6333 30.125 26.6333 30.1875C26.6333 30.2625 26.527 30.5437 26.3145 31.0312C26.2895 31.1062 26.252 31.1437 26.202 31.1437ZM25.7895 33.6937L25.6583 33.8062H17.877C17.8145 33.8062 17.7833 33.7687 17.7833 33.6937C17.7833 33.65 17.8083 33.5531 17.8583 33.4031C17.9083 33.2531 17.9676 33.1094 18.0364 32.9719C18.1051 32.8281 18.1645 32.7562 18.2145 32.7562H26.0145C26.0895 32.7562 26.127 32.7875 26.127 32.85C26.127 32.875 26.0145 33.1562 25.7895 33.6937Z" fill="black"/>
<line x1="32.5" y1="32.5" x2="64.5" y2="32.5" stroke="black" stroke-linecap="square"/>
<path d="M46.8 47.9625L47.4375 44.7375H43.0125C42.9688 44.6375 42.9688 44.4437 43.0125 44.1562L49.8563 36.1312C50 35.9812 50.15 35.9062 50.3063 35.9062C50.4688 35.9062 50.5313 35.9687 50.4938 36.0937L49.0125 43.65H50.2688C50.3813 43.65 50.4188 43.6937 50.3813 43.7812C50.3063 44.1875 50.2063 44.5062 50.0813 44.7375H48.8063L48.1688 48.0188C48.125 48.0813 47.875 48.1125 47.4188 48.1125C47.1938 48.1125 47.0344 48.1031 46.9406 48.0844C46.8469 48.0656 46.8 48.025 46.8 47.9625ZM44.475 43.65H47.6438L48.6188 38.6625C48.6313 38.6375 48.6313 38.6031 48.6188 38.5594C48.6063 38.5156 48.5875 38.4937 48.5625 38.4937L48.525 38.5312L44.4 43.425C44.3875 43.4375 44.3813 43.4562 44.3813 43.4812C44.3563 43.5937 44.3875 43.65 44.475 43.65Z" fill="black"/>
<path d="M55.95 17.6625C57.0375 17.6625 57.9469 17.8687 58.6781 18.2812C59.4156 18.6937 59.9688 19.2562 60.3375 19.9687C60.7125 20.6812 60.9 21.4937 60.9 22.4062C60.9 23.0437 60.8063 23.7062 60.6188 24.3937C60.4313 25.0812 60.1344 25.7625 59.7281 26.4375C59.3219 27.1125 58.8375 27.7187 58.275 28.2562C57.7125 28.7937 57.0188 29.2281 56.1938 29.5594C55.3688 29.8906 54.475 30.0563 53.5125 30.0563C53.4 30.0563 53.2313 30.05 53.0063 30.0375C52.7875 30.0313 52.5125 30.0219 52.1813 30.0094C51.85 29.9969 51.5469 29.9875 51.2719 29.9812C51.0031 29.9687 50.7625 29.9625 50.55 29.9625L48.4688 30.0563C48.4563 30.0438 48.45 29.9937 48.45 29.9062C48.45 29.6687 48.4813 29.55 48.5438 29.55C48.6375 29.55 48.7781 29.5281 48.9656 29.4844C49.1531 29.4344 49.3313 29.375 49.5 29.3062C49.6688 29.2312 49.7688 29.1562 49.8 29.0812C49.975 28.725 50.1375 28.1437 50.2875 27.3375L51.6375 20.3625C51.8 19.45 51.8688 18.8687 51.8438 18.6187C51.8375 18.55 51.7656 18.4812 51.6281 18.4125C51.4906 18.3437 51.3406 18.2875 51.1781 18.2437C51.0156 18.1937 50.8875 18.1687 50.7938 18.1687C50.7688 18.1687 50.7563 18.1437 50.7563 18.0937C50.7563 17.8937 50.8 17.75 50.8875 17.6625C51.175 17.675 51.4844 17.6844 51.8156 17.6906C52.1531 17.6969 52.5125 17.7 52.8938 17.7C53.1125 17.7 53.3625 17.7 53.6438 17.7C53.925 17.6937 54.2375 17.6875 54.5813 17.6812C54.925 17.675 55.2094 17.6719 55.4344 17.6719C55.6656 17.6656 55.8375 17.6625 55.95 17.6625ZM55.9125 18.4875C54.575 18.4875 53.825 18.5875 53.6625 18.7875C53.4625 19.0437 53.2938 19.5375 53.1563 20.2687L51.7875 27.3937C51.75 27.5687 51.7313 27.8344 51.7313 28.1906C51.7313 28.5531 51.7438 28.7625 51.7688 28.8187C51.8813 29.0687 52.6063 29.1937 53.9438 29.1937C55 29.1937 55.9375 28.8531 56.7563 28.1719C57.5813 27.4906 58.2031 26.625 58.6219 25.575C59.0406 24.525 59.25 23.4125 59.25 22.2375C59.25 21.1375 58.975 20.2375 58.425 19.5375C57.875 18.8375 57.0375 18.4875 55.9125 18.4875ZM67.1874 22.0128H61.581V20.8224L63.7506 18.6912C64.237 18.2304 64.6018 17.8528 64.845 17.5584C65.101 17.264 65.2738 17.0016 65.3634 16.7712C65.4658 16.528 65.517 16.2784 65.517 16.0224C65.517 15.664 65.4082 15.3952 65.1906 15.216C64.9858 15.024 64.7106 14.928 64.365 14.928C64.0194 14.928 63.693 14.9984 63.3858 15.1392C63.0914 15.28 62.7778 15.4848 62.445 15.7536L61.6194 14.7168C62.0034 14.384 62.4258 14.1216 62.8866 13.9296C63.3474 13.7248 63.8722 13.6224 64.461 13.6224C65.2802 13.6224 65.9266 13.8272 66.4002 14.2368C66.8866 14.6336 67.1298 15.1904 67.1298 15.9072C67.1298 16.3168 67.0466 16.6944 66.8802 17.04C66.7266 17.3856 66.4834 17.7376 66.1506 18.096C65.8306 18.4544 65.4338 18.864 64.9602 19.3248L63.5778 20.6112H67.1874V22.0128Z" fill="black"/>
<path d="M35.516 30C35.5407 29.371 35.553 28.742 35.553 28.113C35.5653 27.484 35.5715 26.8488 35.5715 26.2075C35.5715 25.5538 35.5715 24.9063 35.5715 24.265V23.3585C35.5715 22.7172 35.5715 22.0758 35.5715 21.4345C35.5715 20.7932 35.5653 20.1518 35.553 19.5105C35.553 18.8692 35.5407 18.234 35.516 17.605H37.403C37.3907 18.2217 37.3783 18.8507 37.366 19.492C37.3537 20.1333 37.3475 20.7747 37.3475 21.416C37.3475 22.0573 37.3475 22.7048 37.3475 23.3585V24.265C37.3475 24.894 37.3475 25.5292 37.3475 26.1705C37.3475 26.8118 37.3537 27.4532 37.366 28.0945C37.3783 28.7235 37.3907 29.3587 37.403 30H35.516ZM42.9715 30C42.9962 29.371 43.0085 28.742 43.0085 28.113C43.0208 27.484 43.027 26.8488 43.027 26.2075C43.027 25.5538 43.027 24.9063 43.027 24.265V23.3585C43.027 22.7172 43.027 22.0758 43.027 21.4345C43.027 20.7932 43.0208 20.1518 43.0085 19.5105C43.0085 18.8692 42.9962 18.234 42.9715 17.605H44.8585C44.8462 18.2217 44.8338 18.8507 44.8215 19.492C44.8092 20.1333 44.803 20.7747 44.803 21.416C44.803 22.0573 44.803 22.7048 44.803 23.3585V24.265C44.803 24.894 44.803 25.5292 44.803 26.1705C44.803 26.8118 44.8092 27.4532 44.8215 28.0945C44.8338 28.7235 44.8462 29.3587 44.8585 30H42.9715ZM33.7955 30V29.186L36.2375 28.9455H36.663L39.0865 29.186V30H33.7955ZM41.288 30V29.186L43.693 28.9455H44.137L46.5975 29.186V30H41.288ZM33.7955 18.419V17.605H36.367V18.6595H36.182L33.7955 18.419ZM44.0075 18.6595V17.605H46.5975V18.419L44.1925 18.6595H44.0075ZM36.4595 18.493V17.605H43.915V18.493H36.4595Z" fill="black"/>
</svg>
