<svg width="67" height="68" viewBox="0 0 67 68" fill="none" xmlns="http://www.w3.org/2000/svg">
<path d="M8.175 25.5187C8.175 25.4437 8.09688 25.3969 7.94063 25.3781C7.78438 25.3594 7.55 25.3469 7.2375 25.3406C6.93125 25.3344 6.6125 25.3312 6.28125 25.3312C6.15 25.3312 5.9375 25.3406 5.64375 25.3594C5.35625 25.3719 4.9875 25.3937 4.5375 25.425C4.5 25.425 4.33125 25.675 4.03125 26.175C3.83125 26.5062 3.62813 26.8656 3.42188 27.2531C3.22188 27.6406 3.05313 27.9937 2.91563 28.3125C2.78438 28.625 2.71875 28.8437 2.71875 28.9687C2.71875 29.0937 2.78438 29.2 2.91563 29.2875C3.05313 29.375 3.20313 29.4406 3.36563 29.4844C3.53438 29.5281 3.6625 29.55 3.75 29.55C3.775 29.55 3.7875 29.5875 3.7875 29.6625C3.7875 29.8062 3.75625 29.9375 3.69375 30.0563C3.1125 30.025 2.67188 30.0031 2.37188 29.9906C2.07813 29.9719 1.925 29.9625 1.9125 29.9625C1.8 29.9625 1.61563 29.9687 1.35938 29.9812C1.10313 29.9937 0.85 30.0063 0.6 30.0188C0.35 30.0375 0.175 30.05 0.075 30.0563C0.05 30.0313 0.0375 29.9812 0.0375 29.9062C0.0375 29.6687 0.08125 29.55 0.16875 29.55C0.30625 29.55 0.496875 29.5125 0.740625 29.4375C0.984375 29.3625 1.15625 29.2687 1.25625 29.1562C1.53125 28.85 1.9125 28.2625 2.4 27.3937L7.575 18.0937C7.7625 17.7562 8.00625 17.5875 8.30625 17.5875C8.3625 17.5875 8.4125 17.6 8.45625 17.625L10.0125 27.525C10.1375 28.3125 10.2125 28.7625 10.2375 28.875C10.2625 29 10.3469 29.1156 10.4906 29.2219C10.6344 29.3219 10.7875 29.4031 10.95 29.4656C11.1188 29.5219 11.2438 29.55 11.325 29.55C11.35 29.55 11.3625 29.5812 11.3625 29.6437C11.3625 29.8 11.3313 29.9375 11.2688 30.0563C10.6875 30.025 10.2344 30.0031 9.90938 29.9906C9.58438 29.9719 9.3875 29.9625 9.31875 29.9625C9.2 29.9625 9.08438 29.9656 8.97188 29.9719C8.86563 29.9719 8.75938 29.975 8.65313 29.9812C8.45938 29.9937 8.23125 30.0063 7.96875 30.0188C7.7125 30.0313 7.49375 30.0438 7.3125 30.0563C7.3 30.0438 7.29375 30.0063 7.29375 29.9437C7.29375 29.6812 7.3375 29.55 7.425 29.55C7.55 29.55 7.725 29.5125 7.95 29.4375C8.175 29.3625 8.31875 29.275 8.38125 29.175C8.46875 28.9812 8.5125 28.6875 8.5125 28.2937C8.5125 28.0812 8.4 27.1562 8.175 25.5187ZM6.525 24.4125C6.8125 24.4125 7.07188 24.4094 7.30313 24.4031C7.54063 24.3969 7.75 24.3875 7.93125 24.375C7.98125 24.375 8.00625 24.35 8.00625 24.3C8.00625 24.2187 7.96563 23.925 7.88438 23.4187C7.83438 23.0687 7.775 22.6719 7.70625 22.2281C7.6375 21.7844 7.57188 21.3687 7.50938 20.9812C7.45313 20.5937 7.4125 20.3125 7.3875 20.1375C5.85 22.9187 5.08125 24.325 5.08125 24.3562C5.08125 24.3812 5.0875 24.3937 5.1 24.3937C5.24375 24.4 5.43438 24.4062 5.67188 24.4125C5.90938 24.4125 6.19375 24.4125 6.525 24.4125ZM26.202 25.1437H18.402C18.352 25.1437 18.327 25.1062 18.327 25.0312C18.327 24.9937 18.3489 24.9 18.3926 24.75C18.4426 24.5937 18.4989 24.4469 18.5614 24.3094C18.6301 24.1656 18.6895 24.0937 18.7395 24.0937H26.5208C26.5958 24.0937 26.6333 24.125 26.6333 24.1875C26.6333 24.2625 26.527 24.5437 26.3145 25.0312C26.2895 25.1062 26.252 25.1437 26.202 25.1437ZM25.7895 27.6937L25.6583 27.8062H17.877C17.8145 27.8062 17.7833 27.7687 17.7833 27.6937C17.7833 27.65 17.8083 27.5531 17.8583 27.4031C17.9083 27.2531 17.9676 27.1094 18.0364 26.9719C18.1051 26.8281 18.1645 26.7562 18.2145 26.7562H26.0145C26.0895 26.7562 26.127 26.7875 26.127 26.85C26.127 26.875 26.0145 27.1562 25.7895 27.6937Z" fill="black"/>
<path d="M55.275 19.6625C55.625 19.6625 55.9813 19.7031 56.3438 19.7844C56.7063 19.8656 57.0656 19.9969 57.4219 20.1781C57.7781 20.3594 58.0688 20.625 58.2938 20.975C58.5188 21.325 58.6313 21.7375 58.6313 22.2125C58.6313 22.6 58.5469 22.9812 58.3781 23.3562C58.2094 23.7312 58.0094 24.0469 57.7781 24.3031C57.5281 24.5719 57.2594 24.8156 56.9719 25.0344C56.6656 25.2656 56.4063 25.4406 56.1938 25.5594C55.9813 25.6781 55.7875 25.7812 55.6125 25.8687C55.5 25.9062 55.4688 25.9812 55.5188 26.0937C55.6813 26.6437 55.875 27.2125 56.1 27.8C56.325 28.3875 56.5563 28.9312 56.7938 29.4312C57.0313 29.925 57.2438 30.3187 57.4313 30.6125C57.5375 30.7875 57.6594 30.9437 57.7969 31.0812C57.9344 31.2125 58.0688 31.3 58.2 31.3437C58.2375 31.3562 58.2688 31.3687 58.2938 31.3812C58.325 31.3875 58.35 31.3969 58.3688 31.4094C58.4 31.4219 58.4594 31.4344 58.5469 31.4469C58.6031 31.4531 58.6906 31.4562 58.8094 31.4562C58.9344 31.4562 59.0125 31.4562 59.0438 31.4562C59.1313 31.6937 59.1375 31.8687 59.0625 31.9812C58.7688 32.0438 58.4063 32.075 57.975 32.075C57.1438 32.075 56.4625 31.6687 55.9313 30.8562C55.6625 30.45 55.375 29.8781 55.0688 29.1406C54.7625 28.4031 54.4375 27.5 54.0938 26.4312C54.0313 26.2562 53.7563 26.1687 53.2688 26.1687C52.8813 26.1687 52.625 26.1844 52.5 26.2156C52.3938 26.2406 52.325 26.3312 52.2938 26.4875L51.75 29.3937C51.6125 30.0625 51.5438 30.625 51.5438 31.0812C51.5438 31.1812 51.6281 31.2719 51.7969 31.3531C51.9656 31.4344 52.1313 31.4875 52.2938 31.5125L52.5563 31.55C52.5813 31.55 52.5938 31.575 52.5938 31.625C52.5938 31.7625 52.5563 31.9062 52.4813 32.0563C51.9 32.025 51.4469 32.0031 51.1219 31.9906C50.7969 31.9719 50.6 31.9625 50.5313 31.9625C50.5125 31.9625 50.3313 31.9719 49.9875 31.9906C49.6438 32.0031 49.1375 32.025 48.4688 32.0563C48.4438 32.0313 48.4313 31.9812 48.4313 31.9062C48.4313 31.6687 48.475 31.55 48.5625 31.55C48.6625 31.55 48.8 31.5312 48.975 31.4937C49.1563 31.4562 49.325 31.4062 49.4813 31.3437C49.6375 31.2812 49.7313 31.2125 49.7625 31.1375C49.8938 30.8187 50.0563 30.2187 50.25 29.3375L51.7875 21.575C51.85 21.2625 51.8813 20.95 51.8813 20.6375C51.8813 20.4875 51.7563 20.3719 51.5063 20.2906C51.2563 20.2094 51.05 20.1687 50.8875 20.1687C50.8625 20.1687 50.85 20.125 50.85 20.0375C50.85 19.8562 50.8938 19.7312 50.9813 19.6625C51.5188 19.7 52.1688 19.7187 52.9313 19.7187C53.2813 19.7187 53.6719 19.7094 54.1031 19.6906C54.5344 19.6719 54.925 19.6625 55.275 19.6625ZM54.975 20.3562C54.3375 20.3562 53.9344 20.375 53.7656 20.4125C53.6031 20.45 53.5063 20.55 53.475 20.7125L52.575 25.0812V25.1187C52.575 25.3062 52.8688 25.4 53.4563 25.4C54.025 25.4 54.575 25.2906 55.1063 25.0719C55.6313 24.8531 56.0844 24.4844 56.4656 23.9656C56.8469 23.4469 57.0375 22.8312 57.0375 22.1187C57.0375 20.9437 56.35 20.3562 54.975 20.3562ZM65.7812 24.0128H60.1748V22.8224L62.3444 20.6912C62.8308 20.2304 63.1956 19.8528 63.4388 19.5584C63.6948 19.264 63.8676 19.0016 63.9572 18.7712C64.0596 18.528 64.1108 18.2784 64.1108 18.0224C64.1108 17.664 64.002 17.3952 63.7844 17.216C63.5796 17.024 63.3044 16.928 62.9588 16.928C62.6132 16.928 62.2868 16.9984 61.9796 17.1392C61.6852 17.28 61.3716 17.4848 61.0388 17.7536L60.2132 16.7168C60.5972 16.384 61.0196 16.1216 61.4804 15.9296C61.9412 15.7248 62.466 15.6224 63.0548 15.6224C63.874 15.6224 64.5204 15.8272 64.994 16.2368C65.4804 16.6336 65.7236 17.1904 65.7236 17.9072C65.7236 18.3168 65.6404 18.6944 65.474 19.04C65.3204 19.3856 65.0772 19.7376 64.7444 20.096C64.4244 20.4544 64.0276 20.864 63.554 21.3248L62.1716 22.6112H65.7812V24.0128Z" fill="black"/>
<path d="M35.516 32C35.5407 31.371 35.553 30.742 35.553 30.113C35.5653 29.484 35.5715 28.8488 35.5715 28.2075C35.5715 27.5538 35.5715 26.9063 35.5715 26.265V25.3585C35.5715 24.7172 35.5715 24.0758 35.5715 23.4345C35.5715 22.7932 35.5653 22.1518 35.553 21.5105C35.553 20.8692 35.5407 20.234 35.516 19.605H37.403C37.3907 20.2217 37.3783 20.8507 37.366 21.492C37.3537 22.1333 37.3475 22.7747 37.3475 23.416C37.3475 24.0573 37.3475 24.7048 37.3475 25.3585V26.265C37.3475 26.894 37.3475 27.5292 37.3475 28.1705C37.3475 28.8118 37.3537 29.4532 37.366 30.0945C37.3783 30.7235 37.3907 31.3587 37.403 32H35.516ZM42.9715 32C42.9962 31.371 43.0085 30.742 43.0085 30.113C43.0208 29.484 43.027 28.8488 43.027 28.2075C43.027 27.5538 43.027 26.9063 43.027 26.265V25.3585C43.027 24.7172 43.027 24.0758 43.027 23.4345C43.027 22.7932 43.0208 22.1518 43.0085 21.5105C43.0085 20.8692 42.9962 20.234 42.9715 19.605H44.8585C44.8462 20.2217 44.8338 20.8507 44.8215 21.492C44.8092 22.1333 44.803 22.7747 44.803 23.416C44.803 24.0573 44.803 24.7048 44.803 25.3585V26.265C44.803 26.894 44.803 27.5292 44.803 28.1705C44.803 28.8118 44.8092 29.4532 44.8215 30.0945C44.8338 30.7235 44.8462 31.3587 44.8585 32H42.9715ZM33.7955 32V31.186L36.2375 30.9455H36.663L39.0865 31.186V32H33.7955ZM41.288 32V31.186L43.693 30.9455H44.137L46.5975 31.186V32H41.288ZM33.7955 20.419V19.605H36.367V20.6595H36.182L33.7955 20.419ZM44.0075 20.6595V19.605H46.5975V20.419L44.1925 20.6595H44.0075ZM36.4595 20.493V19.605H43.915V20.493H36.4595Z" fill="black"/>
</svg>
