<svg width="429" height="161" viewBox="0 0 429 161" fill="none" xmlns="http://www.w3.org/2000/svg">
<path d="M0.54 6.8H4.356L6.12 26.168H6.192L8.064 6.8H12.384L14.256 26.168H14.328L16.092 6.8H19.512L16.956 32H12.024L10.224 15.008H10.152L8.352 32H3.096L0.54 6.8ZM21.5151 6.8H32.3151V10.4H25.4751V17.06H30.9111V20.66H25.4751V28.4H32.3151V32H21.5151V6.8ZM34.5932 6.8H38.5532V28.4H45.0692V32H34.5932V6.8ZM52.4076 32.36C50.5116 32.36 49.0596 31.82 48.0516 30.74C47.0676 29.66 46.5756 28.136 46.5756 26.168V12.632C46.5756 10.664 47.0676 9.14 48.0516 8.06C49.0596 6.98 50.5116 6.44 52.4076 6.44C54.3036 6.44 55.7436 6.98 56.7276 8.06C57.7356 9.14 58.2396 10.664 58.2396 12.632V15.296H54.4956V12.38C54.4956 10.82 53.8356 10.04 52.5156 10.04C51.1956 10.04 50.5356 10.82 50.5356 12.38V26.456C50.5356 27.992 51.1956 28.76 52.5156 28.76C53.8356 28.76 54.4956 27.992 54.4956 26.456V22.604H58.2396V26.168C58.2396 28.136 57.7356 29.66 56.7276 30.74C55.7436 31.82 54.3036 32.36 52.4076 32.36ZM66.4031 32.36C64.4591 32.36 62.9711 31.808 61.9391 30.704C60.9071 29.6 60.3911 28.04 60.3911 26.024V12.776C60.3911 10.76 60.9071 9.2 61.9391 8.096C62.9711 6.992 64.4591 6.44 66.4031 6.44C68.3471 6.44 69.8351 6.992 70.8671 8.096C71.8991 9.2 72.4151 10.76 72.4151 12.776V26.024C72.4151 28.04 71.8991 29.6 70.8671 30.704C69.8351 31.808 68.3471 32.36 66.4031 32.36ZM66.4031 28.76C67.7711 28.76 68.4551 27.932 68.4551 26.276V12.524C68.4551 10.868 67.7711 10.04 66.4031 10.04C65.0351 10.04 64.3511 10.868 64.3511 12.524V26.276C64.3511 27.932 65.0351 28.76 66.4031 28.76ZM75.0932 6.8H80.7452L83.2652 24.836H83.3372L85.8572 6.8H91.5092V32H87.7652V12.92H87.6932L84.8132 32H81.5012L78.6212 12.92H78.5492V32H75.0932V6.8ZM94.4643 6.8H105.264V10.4H98.4243V17.06H103.86V20.66H98.4243V28.4H105.264V32H94.4643V6.8ZM116.404 10.4H112.264V6.8H124.504V10.4H120.364V32H116.404V10.4ZM132.005 32.36C130.061 32.36 128.573 31.808 127.541 30.704C126.509 29.6 125.993 28.04 125.993 26.024V12.776C125.993 10.76 126.509 9.2 127.541 8.096C128.573 6.992 130.061 6.44 132.005 6.44C133.949 6.44 135.437 6.992 136.469 8.096C137.501 9.2 138.017 10.76 138.017 12.776V26.024C138.017 28.04 137.501 29.6 136.469 30.704C135.437 31.808 133.949 32.36 132.005 32.36ZM132.005 28.76C133.373 28.76 134.057 27.932 134.057 26.276V12.524C134.057 10.868 133.373 10.04 132.005 10.04C130.637 10.04 129.953 10.868 129.953 12.524V26.276C129.953 27.932 130.637 28.76 132.005 28.76Z" fill="black"/>
<path d="M5.248 39.4H25.344L34.304 103.528H34.56L43.52 39.4H63.616V129H50.304V61.16H50.048L39.808 129H28.032L17.792 61.16H17.536V129H5.248V39.4ZM85.003 39.4H104.075L118.667 129H104.587L102.027 111.208V111.464H86.027L83.467 129H70.411L85.003 39.4ZM100.363 99.304L94.091 55.016H93.835L87.691 99.304H100.363ZM130.631 52.2H115.911V39.4H159.431V52.2H144.711V129H130.631V52.2ZM166.248 39.4H180.328V75.88H195.432V39.4H209.512V129H195.432V88.68H180.328V129H166.248V39.4ZM219.998 39.4H234.078V116.2H257.246V129H219.998V39.4ZM275.378 39.4H294.45L309.042 129H294.962L292.402 111.208V111.464H276.402L273.842 129H260.786L275.378 39.4ZM290.738 99.304L284.466 55.016H284.21L278.066 99.304H290.738ZM315.873 39.4H333.537L347.233 93.032H347.489V39.4H360.033V129H345.569L328.673 63.592H328.417V129H315.873V39.4ZM370.498 39.4H392.002C398.999 39.4 404.247 41.2773 407.746 45.032C411.245 48.7867 412.994 54.2907 412.994 61.544V106.856C412.994 114.109 411.245 119.613 407.746 123.368C404.247 127.123 398.999 129 392.002 129H370.498V39.4ZM391.746 116.2C394.05 116.2 395.799 115.517 396.994 114.152C398.274 112.787 398.914 110.568 398.914 107.496V60.904C398.914 57.832 398.274 55.6133 396.994 54.248C395.799 52.8827 394.05 52.2 391.746 52.2H384.578V116.2H391.746Z" fill="black"/>
<path d="M5.248 39.4V38.4H4.248V39.4H5.248ZM25.344 39.4L26.3344 39.2616L26.214 38.4H25.344V39.4ZM34.304 103.528L33.3136 103.666L33.434 104.528H34.304V103.528ZM34.56 103.528V104.528H35.43L35.5504 103.666L34.56 103.528ZM43.52 39.4V38.4H42.65L42.5296 39.2616L43.52 39.4ZM63.616 39.4H64.616V38.4H63.616V39.4ZM63.616 129V130H64.616V129H63.616ZM50.304 129H49.304V130H50.304V129ZM50.304 61.16H51.304V60.16H50.304V61.16ZM50.048 61.16V60.16H49.1876L49.0592 61.0107L50.048 61.16ZM39.808 129V130H40.6684L40.7968 129.149L39.808 129ZM28.032 129L27.0432 129.149L27.1716 130H28.032V129ZM17.792 61.16L18.7808 61.0107L18.6524 60.16H17.792V61.16ZM17.536 61.16V60.16H16.536V61.16H17.536ZM17.536 129V130H18.536V129H17.536ZM5.248 129H4.248V130H5.248V129ZM5.248 40.4H25.344V38.4H5.248V40.4ZM24.3536 39.5384L33.3136 103.666L35.2944 103.39L26.3344 39.2616L24.3536 39.5384ZM34.304 104.528H34.56V102.528H34.304V104.528ZM35.5504 103.666L44.5104 39.5384L42.5296 39.2616L33.5696 103.39L35.5504 103.666ZM43.52 40.4H63.616V38.4H43.52V40.4ZM62.616 39.4V129H64.616V39.4H62.616ZM63.616 128H50.304V130H63.616V128ZM51.304 129V61.16H49.304V129H51.304ZM50.304 60.16H50.048V62.16H50.304V60.16ZM49.0592 61.0107L38.8192 128.851L40.7968 129.149L51.0368 61.3092L49.0592 61.0107ZM39.808 128H28.032V130H39.808V128ZM29.0208 128.851L18.7808 61.0107L16.8032 61.3092L27.0432 129.149L29.0208 128.851ZM17.792 60.16H17.536V62.16H17.792V60.16ZM16.536 61.16V129H18.536V61.16H16.536ZM17.536 128H5.248V130H17.536V128ZM6.248 129V39.4H4.248V129H6.248ZM85.003 39.4V38.4H84.1527L84.016 39.2393L85.003 39.4ZM104.075 39.4L105.062 39.2393L104.925 38.4H104.075V39.4ZM118.667 129V130H119.843L119.654 128.839L118.667 129ZM104.587 129L103.597 129.142L103.721 130H104.587V129ZM102.027 111.208L103.017 111.066L101.027 111.208H102.027ZM102.027 111.464V112.464H103.027V111.464H102.027ZM86.027 111.464V110.464H85.1624L85.0375 111.32L86.027 111.464ZM83.467 129V130H84.3316L84.4565 129.144L83.467 129ZM70.411 129L69.424 128.839L69.235 130H70.411V129ZM100.363 99.304V100.304H101.515L101.353 99.1638L100.363 99.304ZM94.091 55.016L95.0811 54.8758L94.9594 54.016H94.091V55.016ZM93.835 55.016V54.016H92.9642L92.8445 54.8786L93.835 55.016ZM87.691 99.304L86.7005 99.1666L86.5427 100.304H87.691V99.304ZM85.003 40.4H104.075V38.4H85.003V40.4ZM103.088 39.5607L117.68 129.161L119.654 128.839L105.062 39.2393L103.088 39.5607ZM118.667 128H104.587V130H118.667V128ZM105.577 128.858L103.017 111.066L101.037 111.35L103.597 129.142L105.577 128.858ZM101.027 111.208V111.464H103.027V111.208H101.027ZM102.027 110.464H86.027V112.464H102.027V110.464ZM85.0375 111.32L82.4775 128.856L84.4565 129.144L87.0165 111.608L85.0375 111.32ZM83.467 128H70.411V130H83.467V128ZM71.398 129.161L85.99 39.5607L84.016 39.2393L69.424 128.839L71.398 129.161ZM101.353 99.1638L95.0811 54.8758L93.1009 55.1562L99.3729 99.4442L101.353 99.1638ZM94.091 54.016H93.835V56.016H94.091V54.016ZM92.8445 54.8786L86.7005 99.1666L88.6815 99.4414L94.8255 55.1534L92.8445 54.8786ZM87.691 100.304H100.363V98.304H87.691V100.304ZM130.631 52.2H131.631V51.2H130.631V52.2ZM115.911 52.2H114.911V53.2H115.911V52.2ZM115.911 39.4V38.4H114.911V39.4H115.911ZM159.431 39.4H160.431V38.4H159.431V39.4ZM159.431 52.2V53.2H160.431V52.2H159.431ZM144.711 52.2V51.2H143.711V52.2H144.711ZM144.711 129V130H145.711V129H144.711ZM130.631 129H129.631V130H130.631V129ZM130.631 51.2H115.911V53.2H130.631V51.2ZM116.911 52.2V39.4H114.911V52.2H116.911ZM115.911 40.4H159.431V38.4H115.911V40.4ZM158.431 39.4V52.2H160.431V39.4H158.431ZM159.431 51.2H144.711V53.2H159.431V51.2ZM143.711 52.2V129H145.711V52.2H143.711ZM144.711 128H130.631V130H144.711V128ZM131.631 129V52.2H129.631V129H131.631ZM166.248 39.4V38.4H165.248V39.4H166.248ZM180.328 39.4H181.328V38.4H180.328V39.4ZM180.328 75.88H179.328V76.88H180.328V75.88ZM195.432 75.88V76.88H196.432V75.88H195.432ZM195.432 39.4V38.4H194.432V39.4H195.432ZM209.512 39.4H210.512V38.4H209.512V39.4ZM209.512 129V130H210.512V129H209.512ZM195.432 129H194.432V130H195.432V129ZM195.432 88.68H196.432V87.68H195.432V88.68ZM180.328 88.68V87.68H179.328V88.68H180.328ZM180.328 129V130H181.328V129H180.328ZM166.248 129H165.248V130H166.248V129ZM166.248 40.4H180.328V38.4H166.248V40.4ZM179.328 39.4V75.88H181.328V39.4H179.328ZM180.328 76.88H195.432V74.88H180.328V76.88ZM196.432 75.88V39.4H194.432V75.88H196.432ZM195.432 40.4H209.512V38.4H195.432V40.4ZM208.512 39.4V129H210.512V39.4H208.512ZM209.512 128H195.432V130H209.512V128ZM196.432 129V88.68H194.432V129H196.432ZM195.432 87.68H180.328V89.68H195.432V87.68ZM179.328 88.68V129H181.328V88.68H179.328ZM180.328 128H166.248V130H180.328V128ZM167.248 129V39.4H165.248V129H167.248ZM219.998 39.4V38.4H218.998V39.4H219.998ZM234.078 39.4H235.078V38.4H234.078V39.4ZM234.078 116.2H233.078V117.2H234.078V116.2ZM257.246 116.2H258.246V115.2H257.246V116.2ZM257.246 129V130H258.246V129H257.246ZM219.998 129H218.998V130H219.998V129ZM219.998 40.4H234.078V38.4H219.998V40.4ZM233.078 39.4V116.2H235.078V39.4H233.078ZM234.078 117.2H257.246V115.2H234.078V117.2ZM256.246 116.2V129H258.246V116.2H256.246ZM257.246 128H219.998V130H257.246V128ZM220.998 129V39.4H218.998V129H220.998ZM275.378 39.4V38.4H274.528L274.391 39.2393L275.378 39.4ZM294.45 39.4L295.437 39.2393L295.3 38.4H294.45V39.4ZM309.042 129V130H310.218L310.029 128.839L309.042 129ZM294.962 129L293.972 129.142L294.096 130H294.962V129ZM292.402 111.208L293.392 111.066L291.402 111.208H292.402ZM292.402 111.464V112.464H293.402V111.464H292.402ZM276.402 111.464V110.464H275.537L275.412 111.32L276.402 111.464ZM273.842 129V130H274.707L274.832 129.144L273.842 129ZM260.786 129L259.799 128.839L259.61 130H260.786V129ZM290.738 99.304V100.304H291.89L291.728 99.1638L290.738 99.304ZM284.466 55.016L285.456 54.8758L285.334 54.016H284.466V55.016ZM284.21 55.016V54.016H283.339L283.219 54.8786L284.21 55.016ZM278.066 99.304L277.075 99.1666L276.918 100.304H278.066V99.304ZM275.378 40.4H294.45V38.4H275.378V40.4ZM293.463 39.5607L308.055 129.161L310.029 128.839L295.437 39.2393L293.463 39.5607ZM309.042 128H294.962V130H309.042V128ZM295.952 128.858L293.392 111.066L291.412 111.35L293.972 129.142L295.952 128.858ZM291.402 111.208V111.464H293.402V111.208H291.402ZM292.402 110.464H276.402V112.464H292.402V110.464ZM275.412 111.32L272.852 128.856L274.832 129.144L277.392 111.608L275.412 111.32ZM273.842 128H260.786V130H273.842V128ZM261.773 129.161L276.365 39.5607L274.391 39.2393L259.799 128.839L261.773 129.161ZM291.728 99.1638L285.456 54.8758L283.476 55.1562L289.748 99.4442L291.728 99.1638ZM284.466 54.016H284.21V56.016H284.466V54.016ZM283.219 54.8786L277.075 99.1666L279.057 99.4414L285.201 55.1534L283.219 54.8786ZM278.066 100.304H290.738V98.304H278.066V100.304ZM315.873 39.4V38.4H314.873V39.4H315.873ZM333.537 39.4L334.506 39.1526L334.314 38.4H333.537V39.4ZM347.233 93.032L346.264 93.2794L346.456 94.032H347.233V93.032ZM347.489 93.032V94.032H348.489V93.032H347.489ZM347.489 39.4V38.4H346.489V39.4H347.489ZM360.033 39.4H361.033V38.4H360.033V39.4ZM360.033 129V130H361.033V129H360.033ZM345.569 129L344.601 129.25L344.794 130H345.569V129ZM328.673 63.592L329.641 63.3419L329.448 62.592H328.673V63.592ZM328.417 63.592V62.592H327.417V63.592H328.417ZM328.417 129V130H329.417V129H328.417ZM315.873 129H314.873V130H315.873V129ZM315.873 40.4H333.537V38.4H315.873V40.4ZM332.568 39.6474L346.264 93.2794L348.202 92.7846L334.506 39.1526L332.568 39.6474ZM347.233 94.032H347.489V92.032H347.233V94.032ZM348.489 93.032V39.4H346.489V93.032H348.489ZM347.489 40.4H360.033V38.4H347.489V40.4ZM359.033 39.4V129H361.033V39.4H359.033ZM360.033 128H345.569V130H360.033V128ZM346.537 128.75L329.641 63.3419L327.705 63.8421L344.601 129.25L346.537 128.75ZM328.673 62.592H328.417V64.592H328.673V62.592ZM327.417 63.592V129H329.417V63.592H327.417ZM328.417 128H315.873V130H328.417V128ZM316.873 129V39.4H314.873V129H316.873ZM370.498 39.4V38.4H369.498V39.4H370.498ZM407.746 45.032L407.014 45.7137L407.014 45.7137L407.746 45.032ZM407.746 123.368L407.014 122.686L407.746 123.368ZM370.498 129H369.498V130H370.498V129ZM396.994 114.152L396.264 113.468L396.253 113.481L396.241 113.493L396.994 114.152ZM396.994 54.248L396.241 54.9065L396.253 54.9194L396.264 54.9319L396.994 54.248ZM384.578 52.2V51.2H383.578V52.2H384.578ZM384.578 116.2H383.578V117.2H384.578V116.2ZM370.498 40.4H392.002V38.4H370.498V40.4ZM392.002 40.4C398.826 40.4 403.766 42.2276 407.014 45.7137L408.478 44.3503C404.729 40.3271 399.172 38.4 392.002 38.4V40.4ZM407.014 45.7137C410.28 49.2188 411.994 54.439 411.994 61.544H413.994C413.994 54.1423 412.209 48.3545 408.478 44.3503L407.014 45.7137ZM411.994 61.544V106.856H413.994V61.544H411.994ZM411.994 106.856C411.994 113.961 410.28 119.181 407.014 122.686L408.478 124.05C412.209 120.045 413.994 114.258 413.994 106.856H411.994ZM407.014 122.686C403.766 126.172 398.826 128 392.002 128V130C399.172 130 404.729 128.073 408.478 124.05L407.014 122.686ZM392.002 128H370.498V130H392.002V128ZM371.498 129V39.4H369.498V129H371.498ZM391.746 117.2C394.255 117.2 396.313 116.449 397.747 114.811L396.241 113.493C395.286 114.586 393.845 115.2 391.746 115.2V117.2ZM397.724 114.836C399.26 113.197 399.914 110.668 399.914 107.496H397.914C397.914 110.468 397.288 112.376 396.264 113.468L397.724 114.836ZM399.914 107.496V60.904H397.914V107.496H399.914ZM399.914 60.904C399.914 57.7316 399.26 55.2026 397.724 53.5641L396.264 54.9319C397.288 56.024 397.914 57.9324 397.914 60.904H399.914ZM397.747 53.5895C396.313 51.9513 394.255 51.2 391.746 51.2V53.2C393.845 53.2 395.286 53.814 396.241 54.9065L397.747 53.5895ZM391.746 51.2H384.578V53.2H391.746V51.2ZM383.578 52.2V116.2H385.578V52.2H383.578ZM384.578 117.2H391.746V115.2H384.578V117.2Z" fill="black"/>
<path d="M117.288 151.32C117.784 150.472 118.24 149.864 118.656 149.496C119.088 149.112 119.6 148.92 120.192 148.92C120.464 148.92 120.72 148.968 120.96 149.064C121.2 149.16 121.536 149.344 121.968 149.616C122.4 149.888 122.696 150.072 122.856 150.168C123.032 150.248 123.208 150.288 123.384 150.288C123.656 150.288 123.888 150.192 124.08 150C124.272 149.792 124.56 149.408 124.944 148.848L126.312 149.88C125.816 150.728 125.352 151.344 124.92 151.728C124.504 152.096 124 152.28 123.408 152.28C123.136 152.28 122.88 152.232 122.64 152.136C122.4 152.04 122.064 151.856 121.632 151.584C121.2 151.312 120.896 151.136 120.72 151.056C120.56 150.96 120.392 150.912 120.216 150.912C119.944 150.912 119.712 151.016 119.52 151.224C119.328 151.416 119.04 151.792 118.656 152.352L117.288 151.32ZM135.157 159.24C133.893 159.24 132.925 158.88 132.253 158.16C131.597 157.44 131.269 156.424 131.269 155.112V146.088C131.269 144.776 131.597 143.76 132.253 143.04C132.925 142.32 133.893 141.96 135.157 141.96C136.421 141.96 137.381 142.32 138.037 143.04C138.709 143.76 139.045 144.776 139.045 146.088V147.864H136.549V145.92C136.549 144.88 136.109 144.36 135.229 144.36C134.349 144.36 133.909 144.88 133.909 145.92V155.304C133.909 156.328 134.349 156.84 135.229 156.84C136.109 156.84 136.549 156.328 136.549 155.304V152.736H139.045V155.112C139.045 156.424 138.709 157.44 138.037 158.16C137.381 158.88 136.421 159.24 135.157 159.24ZM142.665 142.2H146.241L148.977 159H146.337L145.857 155.664V155.712H142.857L142.377 159H139.929L142.665 142.2ZM145.545 153.432L144.369 145.128H144.321L143.169 153.432H145.545ZM150.257 142.2H152.897V156.6H157.241V159H150.257V142.2ZM162.134 159.24C160.87 159.24 159.902 158.88 159.23 158.16C158.574 157.44 158.246 156.424 158.246 155.112V146.088C158.246 144.776 158.574 143.76 159.23 143.04C159.902 142.32 160.87 141.96 162.134 141.96C163.398 141.96 164.358 142.32 165.014 143.04C165.686 143.76 166.022 144.776 166.022 146.088V147.864H163.526V145.92C163.526 144.88 163.086 144.36 162.206 144.36C161.326 144.36 160.886 144.88 160.886 145.92V155.304C160.886 156.328 161.326 156.84 162.206 156.84C163.086 156.84 163.526 156.328 163.526 155.304V152.736H166.022V155.112C166.022 156.424 165.686 157.44 165.014 158.16C164.358 158.88 163.398 159.24 162.134 159.24ZM171.441 159.24C170.161 159.24 169.185 158.88 168.513 158.16C167.841 157.424 167.505 156.376 167.505 155.016V142.2H170.145V155.208C170.145 155.784 170.257 156.2 170.481 156.456C170.721 156.712 171.057 156.84 171.489 156.84C171.921 156.84 172.249 156.712 172.473 156.456C172.713 156.2 172.833 155.784 172.833 155.208V142.2H175.377V155.016C175.377 156.376 175.041 157.424 174.369 158.16C173.697 158.88 172.721 159.24 171.441 159.24ZM177.257 142.2H179.897V156.6H184.241V159H177.257V142.2ZM187.641 142.2H191.217L193.953 159H191.313L190.833 155.664V155.712H187.833L187.353 159H184.905L187.641 142.2ZM190.521 153.432L189.345 145.128H189.297L188.145 153.432H190.521ZM196.196 144.6H193.436V142.2H201.596V144.6H198.836V159H196.196V144.6ZM202.875 142.2H205.515V159H202.875V142.2ZM207.492 142.2H210.804L213.372 152.256H213.42V142.2H215.772V159H213.06L209.892 146.736H209.844V159H207.492V142.2ZM221.478 159.24C220.198 159.24 219.222 158.88 218.55 158.16C217.878 157.424 217.542 156.376 217.542 155.016V146.184C217.542 144.824 217.878 143.784 218.55 143.064C219.222 142.328 220.198 141.96 221.478 141.96C222.758 141.96 223.734 142.328 224.406 143.064C225.078 143.784 225.414 144.824 225.414 146.184V147.624H222.918V146.016C222.918 144.912 222.462 144.36 221.55 144.36C220.638 144.36 220.182 144.912 220.182 146.016V155.208C220.182 156.296 220.638 156.84 221.55 156.84C222.462 156.84 222.918 156.296 222.918 155.208V151.92H221.598V149.52H225.414V155.016C225.414 156.376 225.078 157.424 224.406 158.16C223.734 158.88 222.758 159.24 221.478 159.24ZM230.953 142.2H233.593V149.04H236.425V142.2H239.065V159H236.425V151.44H233.593V159H230.953V142.2ZM243.071 142.2H246.647L249.383 159H246.743L246.263 155.664V155.712H243.263L242.783 159H240.335L243.071 142.2ZM245.951 153.432L244.775 145.128H244.727L243.575 153.432H245.951ZM254.025 159.24C252.745 159.24 251.777 158.88 251.121 158.16C250.465 157.424 250.137 156.376 250.137 155.016V154.056H252.633V155.208C252.633 156.296 253.089 156.84 254.001 156.84C254.449 156.84 254.785 156.712 255.009 156.456C255.249 156.184 255.369 155.752 255.369 155.16C255.369 154.456 255.209 153.84 254.889 153.312C254.569 152.768 253.977 152.12 253.113 151.368C252.025 150.408 251.265 149.544 250.833 148.776C250.401 147.992 250.185 147.112 250.185 146.136C250.185 144.808 250.521 143.784 251.193 143.064C251.865 142.328 252.841 141.96 254.121 141.96C255.385 141.96 256.337 142.328 256.977 143.064C257.633 143.784 257.961 144.824 257.961 146.184V146.88H255.465V146.016C255.465 145.44 255.353 145.024 255.129 144.768C254.905 144.496 254.577 144.36 254.145 144.36C253.265 144.36 252.825 144.896 252.825 145.968C252.825 146.576 252.985 147.144 253.305 147.672C253.641 148.2 254.241 148.84 255.105 149.592C256.209 150.552 256.969 151.424 257.385 152.208C257.801 152.992 258.009 153.912 258.009 154.968C258.009 156.344 257.665 157.4 256.977 158.136C256.305 158.872 255.321 159.24 254.025 159.24ZM263.367 142.2H266.679L269.247 152.256H269.295V142.2H271.647V159H268.935L265.767 146.736H265.719V159H263.367V142.2ZM273.609 142.2H280.809V144.6H276.249V149.04H279.873V151.44H276.249V156.6H280.809V159H273.609V142.2ZM281.632 142.2H284.296L286.024 155.232H286.072L287.8 142.2H290.224L287.68 159H284.176L281.632 142.2ZM291.492 142.2H298.692V144.6H294.132V149.04H297.756V151.44H294.132V156.6H298.692V159H291.492V142.2ZM300.211 142.2H304.123C305.483 142.2 306.475 142.52 307.099 143.16C307.723 143.784 308.035 144.752 308.035 146.064V147.096C308.035 148.84 307.459 149.944 306.307 150.408V150.456C306.947 150.648 307.395 151.04 307.651 151.632C307.923 152.224 308.059 153.016 308.059 154.008V156.96C308.059 157.44 308.075 157.832 308.107 158.136C308.139 158.424 308.219 158.712 308.347 159H305.659C305.563 158.728 305.499 158.472 305.467 158.232C305.435 157.992 305.419 157.56 305.419 156.936V153.864C305.419 153.096 305.291 152.56 305.035 152.256C304.795 151.952 304.371 151.8 303.763 151.8H302.851V159H300.211V142.2ZM303.811 149.4C304.339 149.4 304.731 149.264 304.987 148.992C305.259 148.72 305.395 148.264 305.395 147.624V146.328C305.395 145.72 305.283 145.28 305.059 145.008C304.851 144.736 304.515 144.6 304.051 144.6H302.851V149.4H303.811ZM313.734 142.2H317.718C319.078 142.2 320.07 142.52 320.694 143.16C321.318 143.784 321.63 144.752 321.63 146.064V146.736C321.63 147.6 321.486 148.304 321.198 148.848C320.926 149.392 320.502 149.784 319.926 150.024V150.072C321.238 150.52 321.894 151.688 321.894 153.576V155.016C321.894 156.312 321.55 157.304 320.862 157.992C320.19 158.664 319.198 159 317.886 159H313.734V142.2ZM317.406 149.04C317.934 149.04 318.326 148.904 318.582 148.632C318.854 148.36 318.99 147.904 318.99 147.264V146.328C318.99 145.72 318.878 145.28 318.654 145.008C318.446 144.736 318.11 144.6 317.646 144.6H316.374V149.04H317.406ZM317.886 156.6C318.35 156.6 318.694 156.48 318.918 156.24C319.142 155.984 319.254 155.552 319.254 154.944V153.48C319.254 152.712 319.118 152.184 318.846 151.896C318.59 151.592 318.158 151.44 317.55 151.44H316.374V156.6H317.886ZM323.437 142.2H330.637V144.6H326.077V149.04H329.701V151.44H326.077V156.6H330.637V159H323.437V142.2ZM332.156 142.2H339.356V144.6H334.796V149.04H338.42V151.44H334.796V156.6H339.356V159H332.156V142.2ZM340.875 142.2H344.187L346.755 152.256H346.803V142.2H349.155V159H346.443L343.275 146.736H343.227V159H340.875V142.2ZM358.393 159.24C357.113 159.24 356.145 158.88 355.489 158.16C354.833 157.424 354.505 156.376 354.505 155.016V154.056H357.001V155.208C357.001 156.296 357.457 156.84 358.369 156.84C358.817 156.84 359.153 156.712 359.377 156.456C359.617 156.184 359.737 155.752 359.737 155.16C359.737 154.456 359.577 153.84 359.257 153.312C358.937 152.768 358.345 152.12 357.481 151.368C356.393 150.408 355.633 149.544 355.201 148.776C354.769 147.992 354.553 147.112 354.553 146.136C354.553 144.808 354.889 143.784 355.561 143.064C356.233 142.328 357.209 141.96 358.489 141.96C359.753 141.96 360.705 142.328 361.345 143.064C362.001 143.784 362.329 144.824 362.329 146.184V146.88H359.833V146.016C359.833 145.44 359.721 145.024 359.497 144.768C359.273 144.496 358.945 144.36 358.513 144.36C357.633 144.36 357.193 144.896 357.193 145.968C357.193 146.576 357.353 147.144 357.673 147.672C358.009 148.2 358.609 148.84 359.473 149.592C360.577 150.552 361.337 151.424 361.753 152.208C362.169 152.992 362.377 153.912 362.377 154.968C362.377 156.344 362.033 157.4 361.345 158.136C360.673 158.872 359.689 159.24 358.393 159.24ZM367.706 159.24C366.41 159.24 365.418 158.872 364.73 158.136C364.042 157.4 363.698 156.36 363.698 155.016V146.184C363.698 144.84 364.042 143.8 364.73 143.064C365.418 142.328 366.41 141.96 367.706 141.96C369.002 141.96 369.994 142.328 370.682 143.064C371.37 143.8 371.714 144.84 371.714 146.184V155.016C371.714 156.36 371.37 157.4 370.682 158.136C369.994 158.872 369.002 159.24 367.706 159.24ZM367.706 156.84C368.618 156.84 369.074 156.288 369.074 155.184V146.016C369.074 144.912 368.618 144.36 367.706 144.36C366.794 144.36 366.338 144.912 366.338 146.016V155.184C366.338 156.288 366.794 156.84 367.706 156.84ZM377.343 142.2H384.543V144.6H379.983V149.04H383.607V151.44H379.983V156.6H384.543V159H377.343V142.2ZM388.102 142.2H391.678L394.414 159H391.774L391.294 155.664V155.712H388.294L387.814 159H385.366L388.102 142.2ZM390.982 153.432L389.806 145.128H389.758L388.606 153.432H390.982ZM399.057 159.24C397.777 159.24 396.809 158.88 396.153 158.16C395.497 157.424 395.169 156.376 395.169 155.016V154.056H397.665V155.208C397.665 156.296 398.121 156.84 399.033 156.84C399.481 156.84 399.817 156.712 400.041 156.456C400.281 156.184 400.401 155.752 400.401 155.16C400.401 154.456 400.241 153.84 399.921 153.312C399.601 152.768 399.009 152.12 398.145 151.368C397.057 150.408 396.297 149.544 395.865 148.776C395.433 147.992 395.217 147.112 395.217 146.136C395.217 144.808 395.553 143.784 396.225 143.064C396.897 142.328 397.873 141.96 399.153 141.96C400.417 141.96 401.369 142.328 402.009 143.064C402.665 143.784 402.993 144.824 402.993 146.184V146.88H400.497V146.016C400.497 145.44 400.385 145.024 400.161 144.768C399.937 144.496 399.609 144.36 399.177 144.36C398.297 144.36 397.857 144.896 397.857 145.968C397.857 146.576 398.017 147.144 398.337 147.672C398.673 148.2 399.273 148.84 400.137 149.592C401.241 150.552 402.001 151.424 402.417 152.208C402.833 152.992 403.041 153.912 403.041 154.968C403.041 156.344 402.697 157.4 402.009 158.136C401.337 158.872 400.353 159.24 399.057 159.24ZM406.838 151.848L403.646 142.2H406.454L408.254 148.368H408.302L410.102 142.2H412.67L409.478 151.848V159H406.838V151.848ZM411.632 156.456H414.176V159H411.632V156.456ZM416.156 156.456H418.7V159H416.156V156.456ZM420.679 156.456H423.223V159H420.679V156.456Z" fill="#9E9E9E"/>
</svg>
