<svg width="120" height="120" viewBox="0 0 120 120" fill="none" xmlns="http://www.w3.org/2000/svg">
<g clip-path="url(#clip0_1_27)">
<path d="M119.018 46.9392L61.5179 3.01386C60.6228 2.32877 59.383 2.32877 58.483 3.01386L0.982265 46.9392C0.132178 47.5891 -0.207669 48.6991 0.127256 49.7142L22.0924 115.79C22.4325 116.81 23.3925 117.5 24.4673 117.5H95.5429C96.623 117.5 97.578 116.81 97.9081 115.79L119.873 49.7142C120.209 48.7043 119.864 47.5894 119.018 46.9392ZM93.7382 112.5H26.2725L5.44246 49.8244L60.0078 8.14391L114.573 49.8293L93.7382 112.5Z" fill="#007EA6"/>
<circle cx="59.5918" cy="66.1225" r="48.1633" fill="#007EA6"/>
<path d="M22.9335 115.918L17.5024 89.1632L50.1549 113.841L22.9335 115.918Z" fill="#007EA6"/>
<path d="M60 4.89796L78.0275 20.8163H41.9725L60 4.89796Z" fill="#007EA6"/>
<path d="M120.162 49.0065L107.545 73.611L96.0881 35.4044L120.162 49.0065Z" fill="#007EA6"/>
<path d="M97.0609 112.915L65.6318 115.627L102.704 81.8779L97.0609 112.915Z" fill="#007EA6"/>
<path d="M2.11932 48.5056L23.008 36.5873L11.3602 70.7089L2.11932 48.5056Z" fill="#007EA6"/>
</g>
<defs>
<clipPath id="clip0_1_27">
<rect width="120" height="120" fill="white"/>
</clipPath>
</defs>
</svg>
