<svg width="134" height="144" viewBox="0 0 134 144" fill="none" xmlns="http://www.w3.org/2000/svg">
<path d="M116.689 40.4381C94.062 17.8114 57.3771 17.8114 34.7505 40.4381C12.1238 63.0648 12.1238 99.75 34.7505 122.377C57.3771 145.003 94.062 145.003 116.689 122.377C139.316 99.75 139.316 63.0648 116.689 40.4381Z" fill="#003A53"/>
<path d="M102.482 51.4939C84.5359 33.548 55.4398 33.548 37.4939 51.4939C19.548 69.4398 19.548 98.536 37.4939 116.482C55.4398 134.428 84.5359 134.428 102.482 116.482C120.428 98.536 120.428 69.4398 102.482 51.4939Z" fill="#002B3E"/>
<path d="M92.762 60.2541C78.2627 45.7544 54.7539 45.7544 40.2541 60.2541C25.7544 74.7539 25.7544 98.263 40.2541 112.762C54.7539 127.262 78.2627 127.262 92.762 112.762C107.262 98.263 107.262 74.7539 92.762 60.2541Z" fill="#00202E"/>
<path d="M100.566 35.1885C94.939 29.5616 85.8155 29.5616 80.1885 35.1885C74.5616 40.8155 74.5616 49.9386 80.1885 55.5656C85.8155 61.1926 94.939 61.1926 100.566 55.5656C106.193 49.9386 106.193 40.8155 100.566 35.1885Z" fill="white" fill-opacity="0.06"/>
<path d="M94.233 66.0662C112.672 59.1636 108.025 63.4817 112.288 48.8135L119.477 59.2072L124.811 69.5957L126.748 79.3699L125.559 89.7783L120.969 99.424L112.838 106.833L113.89 91.9879C113.89 91.9879 113.536 82.4511 108.466 75.3842C103.397 68.3173 94.233 66.0662 94.233 66.0662Z" fill="white" fill-opacity="0.06"/>
</svg>
