<svg width="151" height="150" viewBox="0 0 151 150" fill="none" xmlns="http://www.w3.org/2000/svg">
<g clip-path="url(#clip0_1_21)">
<path d="M79.42 50.54C79.42 43.6333 76.5733 38.4533 70.88 35L51 49.42L43.72 34.3C48.9467 31.3133 53.7067 29.1667 58 27.86C62.2933 26.5533 68.1267 25.9 75.5 25.9C87.4467 25.9 97.0133 28.14 104.2 32.62C105.04 35.14 105.46 37.5667 105.46 39.9C105.46 48.9533 100.84 57.82 91.6 66.5C94.8667 66.5 97.8067 66.8733 100.42 67.62C104.153 71.26 106.953 75.2733 108.82 79.66C110.78 83.9533 111.76 89.4133 111.76 96.04C111.76 104.907 109.053 111.533 103.64 115.92C98.32 120.213 89.64 122.36 77.6 122.36C65.56 122.36 54.22 119.467 43.58 113.68L50.3 101.08C60.5667 107.707 72.2333 111.253 85.3 111.72C86.7 106.493 87.4 99.9133 87.4 91.98C87.4 84.0467 86.7 78.8667 85.3 76.44C79.5133 77.9333 74.0067 80.2667 68.78 83.44L65.14 78.82L67.1 77C71.2067 73.08 74.2867 68.6933 76.34 63.84C78.3933 58.9867 79.42 54.5533 79.42 50.54Z" fill="#EE1556"/>
</g>
<defs>
<clipPath id="clip0_1_21">
<rect width="105.5" height="105.681" fill="white" transform="translate(75.4558) rotate(45)"/>
</clipPath>
</defs>
</svg>
