<svg width="313" height="93" viewBox="0 0 313 93" fill="none" xmlns="http://www.w3.org/2000/svg">
<path d="M0.536 1.39999H14.744L23.96 70.904H24.216L33.432 1.39999H46.36L32.792 91H14.104L0.536 1.39999ZM73.225 92.28C66.313 92.28 61.0223 90.3173 57.353 86.392C53.6837 82.4667 51.849 76.92 51.849 69.752V22.648C51.849 15.48 53.6837 9.93333 57.353 6.008C61.0223 2.08266 66.313 0.119995 73.225 0.119995C80.137 0.119995 85.4277 2.08266 89.097 6.008C92.7663 9.93333 94.601 15.48 94.601 22.648V69.752C94.601 76.92 92.7663 82.4667 89.097 86.392C85.4277 90.3173 80.137 92.28 73.225 92.28ZM73.225 79.48C78.089 79.48 80.521 76.536 80.521 70.648V21.752C80.521 15.864 78.089 12.92 73.225 12.92C68.361 12.92 65.929 15.864 65.929 21.752V70.648C65.929 76.536 68.361 79.48 73.225 79.48ZM104.123 1.39999H118.203V78.2H141.371V91H104.123V1.39999ZM168.603 92.28C161.776 92.28 156.571 90.36 152.987 86.52C149.403 82.5947 147.611 77.0053 147.611 69.752V1.39999H161.691V70.776C161.691 73.848 162.288 76.0667 163.483 77.432C164.763 78.7973 166.555 79.48 168.859 79.48C171.163 79.48 172.912 78.7973 174.107 77.432C175.387 76.0667 176.027 73.848 176.027 70.776V1.39999H189.595V69.752C189.595 77.0053 187.803 82.5947 184.219 86.52C180.635 90.36 175.43 92.28 168.603 92.28ZM199.623 1.39999H219.719L228.679 65.528H228.935L237.895 1.39999H257.991V91H244.679V23.16H244.423L234.183 91H222.407L212.167 23.16H211.911V91H199.623V1.39999ZM268.498 1.39999H286.162L299.858 55.032H300.114V1.39999H312.658V91H298.194L281.298 25.592H281.042V91H268.498V1.39999Z" fill="black"/>
<path d="M0.536 1.39999V0.399994H-0.626829L-0.452728 1.54972L0.536 1.39999ZM14.744 1.39999L15.7353 1.26855L15.6202 0.399994H14.744V1.39999ZM23.96 70.904L22.9687 71.0354L23.0838 71.904H23.96V70.904ZM24.216 70.904V71.904H25.0922L25.2073 71.0354L24.216 70.904ZM33.432 1.39999V0.399994H32.5558L32.4407 1.26855L33.432 1.39999ZM46.36 1.39999L47.3487 1.54972L47.5228 0.399994H46.36V1.39999ZM32.792 91V92H33.652L33.7807 91.1497L32.792 91ZM14.104 91L13.1153 91.1497L13.244 92H14.104V91ZM0.536 2.39999H14.744V0.399994H0.536V2.39999ZM13.7527 1.53144L22.9687 71.0354L24.9513 70.7726L15.7353 1.26855L13.7527 1.53144ZM23.96 71.904H24.216V69.904H23.96V71.904ZM25.2073 71.0354L34.4233 1.53144L32.4407 1.26855L23.2247 70.7726L25.2073 71.0354ZM33.432 2.39999H46.36V0.399994H33.432V2.39999ZM45.3713 1.25027L31.8033 90.8503L33.7807 91.1497L47.3487 1.54972L45.3713 1.25027ZM32.792 90H14.104V92H32.792V90ZM15.0927 90.8503L1.52473 1.25027L-0.452728 1.54972L13.1153 91.1497L15.0927 90.8503ZM57.353 86.392L58.0835 85.7091L58.0835 85.7091L57.353 86.392ZM57.353 6.008L58.0835 6.69088L58.0835 6.69088L57.353 6.008ZM89.097 6.008L88.3665 6.69088L88.3665 6.69088L89.097 6.008ZM89.097 86.392L88.3665 85.7091L88.3665 85.7091L89.097 86.392ZM73.225 91.28C66.5061 91.28 61.5132 89.3781 58.0835 85.7091L56.6225 87.0749C60.5314 91.2565 66.1199 93.28 73.225 93.28V91.28ZM58.0835 85.7091C54.6386 82.0238 52.849 76.753 52.849 69.752H50.849C50.849 77.087 52.7287 82.9095 56.6225 87.0749L58.0835 85.7091ZM52.849 69.752V22.648H50.849V69.752H52.849ZM52.849 22.648C52.849 15.647 54.6386 10.3762 58.0835 6.69088L56.6225 5.32511C52.7287 9.49049 50.849 15.313 50.849 22.648H52.849ZM58.0835 6.69088C61.5132 3.02188 66.5061 1.12 73.225 1.12V-0.880005C66.1199 -0.880005 60.5314 1.14345 56.6225 5.32511L58.0835 6.69088ZM73.225 1.12C79.9439 1.12 84.9368 3.02188 88.3665 6.69088L89.8275 5.32511C85.9186 1.14345 80.3301 -0.880005 73.225 -0.880005V1.12ZM88.3665 6.69088C91.8114 10.3762 93.601 15.647 93.601 22.648H95.601C95.601 15.313 93.7213 9.49049 89.8275 5.32511L88.3665 6.69088ZM93.601 22.648V69.752H95.601V22.648H93.601ZM93.601 69.752C93.601 76.753 91.8114 82.0238 88.3665 85.7091L89.8275 87.0749C93.7213 82.9095 95.601 77.087 95.601 69.752H93.601ZM88.3665 85.7091C84.9368 89.3781 79.9439 91.28 73.225 91.28V93.28C80.3301 93.28 85.9186 91.2565 89.8275 87.0749L88.3665 85.7091ZM73.225 80.48C75.8668 80.48 78.012 79.6713 79.468 77.9089C80.8937 76.183 81.521 73.7046 81.521 70.648H79.521C79.521 73.4794 78.9323 75.417 77.926 76.6351C76.95 77.8167 75.4472 78.48 73.225 78.48V80.48ZM81.521 70.648V21.752H79.521V70.648H81.521ZM81.521 21.752C81.521 18.6954 80.8937 16.217 79.468 14.4911C78.012 12.7287 75.8668 11.92 73.225 11.92V13.92C75.4472 13.92 76.95 14.5833 77.926 15.7649C78.9323 16.983 79.521 18.9206 79.521 21.752H81.521ZM73.225 11.92C70.5832 11.92 68.438 12.7287 66.982 14.4911C65.5563 16.217 64.929 18.6954 64.929 21.752H66.929C66.929 18.9206 67.5177 16.983 68.524 15.7649C69.5 14.5833 71.0028 13.92 73.225 13.92V11.92ZM64.929 21.752V70.648H66.929V21.752H64.929ZM64.929 70.648C64.929 73.7046 65.5563 76.183 66.982 77.9089C68.438 79.6713 70.5832 80.48 73.225 80.48V78.48C71.0028 78.48 69.5 77.8167 68.524 76.6351C67.5177 75.417 66.929 73.4794 66.929 70.648H64.929ZM104.123 1.39999V0.399994H103.123V1.39999H104.123ZM118.203 1.39999H119.203V0.399994H118.203V1.39999ZM118.203 78.2H117.203V79.2H118.203V78.2ZM141.371 78.2H142.371V77.2H141.371V78.2ZM141.371 91V92H142.371V91H141.371ZM104.123 91H103.123V92H104.123V91ZM104.123 2.39999H118.203V0.399994H104.123V2.39999ZM117.203 1.39999V78.2H119.203V1.39999H117.203ZM118.203 79.2H141.371V77.2H118.203V79.2ZM140.371 78.2V91H142.371V78.2H140.371ZM141.371 90H104.123V92H141.371V90ZM105.123 91V1.39999H103.123V91H105.123ZM152.987 86.52L152.248 87.1943L152.256 87.2023L152.987 86.52ZM147.611 1.39999V0.399994H146.611V1.39999H147.611ZM161.691 1.39999H162.691V0.399994H161.691V1.39999ZM163.483 77.432L162.73 78.0905L162.742 78.1034L162.753 78.1159L163.483 77.432ZM174.107 77.432L173.377 76.7481L173.366 76.7606L173.354 76.7735L174.107 77.432ZM176.027 1.39999V0.399994H175.027V1.39999H176.027ZM189.595 1.39999H190.595V0.399994H189.595V1.39999ZM184.219 86.52L184.95 87.2024L184.957 87.1943L184.219 86.52ZM168.603 91.28C161.966 91.28 157.061 89.4189 153.718 85.8377L152.256 87.2023C156.081 91.3011 161.587 93.28 168.603 93.28V91.28ZM153.725 85.8457C150.363 82.1628 148.611 76.8478 148.611 69.752H146.611C146.611 77.1629 148.443 83.0265 152.249 87.1943L153.725 85.8457ZM148.611 69.752V1.39999H146.611V69.752H148.611ZM147.611 2.39999H161.691V0.399994H147.611V2.39999ZM160.691 1.39999V70.776H162.691V1.39999H160.691ZM160.691 70.776C160.691 73.9355 161.298 76.4529 162.73 78.0905L164.236 76.7735C163.279 75.6804 162.691 73.7605 162.691 70.776H160.691ZM162.753 78.1159C164.265 79.728 166.347 80.48 168.859 80.48V78.48C166.763 78.48 165.261 77.8667 164.213 76.7481L162.753 78.1159ZM168.859 80.48C171.368 80.48 173.426 79.7287 174.86 78.0905L173.354 76.7735C172.399 77.866 170.958 78.48 168.859 78.48V80.48ZM174.837 78.1159C176.373 76.4774 177.027 73.9484 177.027 70.776H175.027C175.027 73.7476 174.401 75.6559 173.377 76.7481L174.837 78.1159ZM177.027 70.776V1.39999H175.027V70.776H177.027ZM176.027 2.39999H189.595V0.399994H176.027V2.39999ZM188.595 1.39999V69.752H190.595V1.39999H188.595ZM188.595 69.752C188.595 76.8478 186.843 82.1628 183.481 85.8457L184.957 87.1943C188.763 83.0265 190.595 77.1629 190.595 69.752H188.595ZM183.488 85.8377C180.146 89.4189 175.24 91.28 168.603 91.28V93.28C175.619 93.28 181.125 91.3011 184.95 87.2023L183.488 85.8377ZM199.623 1.39999V0.399994H198.623V1.39999H199.623ZM219.719 1.39999L220.709 1.26162L220.589 0.399994H219.719V1.39999ZM228.679 65.528L227.689 65.6664L227.809 66.528H228.679V65.528ZM228.935 65.528V66.528H229.805L229.925 65.6664L228.935 65.528ZM237.895 1.39999V0.399994H237.025L236.905 1.26162L237.895 1.39999ZM257.991 1.39999H258.991V0.399994H257.991V1.39999ZM257.991 91V92H258.991V91H257.991ZM244.679 91H243.679V92H244.679V91ZM244.679 23.16H245.679V22.16H244.679V23.16ZM244.423 23.16V22.16H243.563L243.434 23.0107L244.423 23.16ZM234.183 91V92H235.043L235.172 91.1493L234.183 91ZM222.407 91L221.418 91.1493L221.547 92H222.407V91ZM212.167 23.16L213.156 23.0107L213.027 22.16H212.167V23.16ZM211.911 23.16V22.16H210.911V23.16H211.911ZM211.911 91V92H212.911V91H211.911ZM199.623 91H198.623V92H199.623V91ZM199.623 2.39999H219.719V0.399994H199.623V2.39999ZM218.729 1.53837L227.689 65.6664L229.669 65.3896L220.709 1.26162L218.729 1.53837ZM228.679 66.528H228.935V64.528H228.679V66.528ZM229.925 65.6664L238.885 1.53837L236.905 1.26162L227.945 65.3896L229.925 65.6664ZM237.895 2.39999H257.991V0.399994H237.895V2.39999ZM256.991 1.39999V91H258.991V1.39999H256.991ZM257.991 90H244.679V92H257.991V90ZM245.679 91V23.16H243.679V91H245.679ZM244.679 22.16H244.423V24.16H244.679V22.16ZM243.434 23.0107L233.194 90.8507L235.172 91.1493L245.412 23.3092L243.434 23.0107ZM234.183 90H222.407V92H234.183V90ZM223.396 90.8507L213.156 23.0107L211.178 23.3092L221.418 91.1493L223.396 90.8507ZM212.167 22.16H211.911V24.16H212.167V22.16ZM210.911 23.16V91H212.911V23.16H210.911ZM211.911 90H199.623V92H211.911V90ZM200.623 91V1.39999H198.623V91H200.623ZM268.498 1.39999V0.399994H267.498V1.39999H268.498ZM286.162 1.39999L287.131 1.15256L286.939 0.399994H286.162V1.39999ZM299.858 55.032L298.889 55.2794L299.081 56.032H299.858V55.032ZM300.114 55.032V56.032H301.114V55.032H300.114ZM300.114 1.39999V0.399994H299.114V1.39999H300.114ZM312.658 1.39999H313.658V0.399994H312.658V1.39999ZM312.658 91V92H313.658V91H312.658ZM298.194 91L297.226 91.2501L297.419 92H298.194V91ZM281.298 25.592L282.266 25.3419L282.073 24.592H281.298V25.592ZM281.042 25.592V24.592H280.042V25.592H281.042ZM281.042 91V92H282.042V91H281.042ZM268.498 91H267.498V92H268.498V91ZM268.498 2.39999H286.162V0.399994H268.498V2.39999ZM285.193 1.64742L298.889 55.2794L300.827 54.7846L287.131 1.15256L285.193 1.64742ZM299.858 56.032H300.114V54.032H299.858V56.032ZM301.114 55.032V1.39999H299.114V55.032H301.114ZM300.114 2.39999H312.658V0.399994H300.114V2.39999ZM311.658 1.39999V91H313.658V1.39999H311.658ZM312.658 90H298.194V92H312.658V90ZM299.162 90.7499L282.266 25.3419L280.33 25.8421L297.226 91.2501L299.162 90.7499ZM281.298 24.592H281.042V26.592H281.298V24.592ZM280.042 25.592V91H282.042V25.592H280.042ZM281.042 90H268.498V92H281.042V90ZM269.498 91V1.39999H267.498V91H269.498Z" fill="black"/>
</svg>
